<svg width="360" height="285" viewBox="0 0 360 285" fill="none" xmlns="http://www.w3.org/2000/svg">
<path d="M67.8984 245.628C139.718 245.304 220.285 245.298 292.105 245.628C220.285 245.958 139.718 245.953 67.8984 245.628Z" fill="#263238"/>
<path d="M214.136 40H123.197C120.734 40.0241 118.382 41.0252 116.658 42.7829C114.933 44.5407 113.977 46.9114 114 49.3738V236.634C113.983 239.093 114.941 241.458 116.665 243.212C118.389 244.966 120.738 245.966 123.197 245.991H214.136C216.6 245.967 218.953 244.967 220.68 243.209C222.408 241.452 223.367 239.081 223.348 236.617V49.3576C223.364 46.8961 222.403 44.5288 220.676 42.7747C218.949 41.0206 216.597 40.0227 214.136 40ZM217.591 230.811C217.591 235.74 213.899 239.728 209.352 239.728H127.975C123.412 239.728 119.726 235.74 119.726 230.811V56.466C119.726 46.4249 123.412 45.9353 127.975 45.9353H144.279C145.227 45.9353 146.001 47.0115 146.001 48.346V48.9325C146.001 52.0589 147.713 52.0696 149.811 52.0696H187.478C189.598 52.0696 191.299 52.0696 191.299 48.9325V48.3514C191.299 47.0169 192.063 45.9407 193.026 45.9407H209.325C213.872 45.9407 217.564 47.2752 217.564 56.4713L217.591 230.811Z" fill="#37474F"/>
<path d="M217.571 56.4657V230.951C217.571 235.88 213.875 239.873 209.322 239.873H127.897C123.328 239.873 119.637 235.88 119.637 230.951V56.4657C119.637 46.4194 123.328 45.9297 127.897 45.9297H144.18C145.127 45.9297 145.902 47.0059 145.902 48.3458V48.9323C145.902 52.0587 147.618 52.0694 149.722 52.0694H187.443C189.563 52.0694 191.258 52.0694 191.258 48.9323V48.3565C191.258 47.022 192.022 45.9405 192.986 45.9405H209.301C213.875 45.9405 217.571 47.2803 217.571 56.4657Z" fill="white"/>
<path d="M136 73H132V77H136V73Z" fill="#A6A6A6"/>
<path d="M207 73H139V74H207V73Z" fill="#455A64"/>
<path d="M166 76H139V77H166V76Z" fill="#455A64"/>
<path d="M217.568 56.4657V65.4878H119.633V56.4657C119.633 46.4194 123.33 45.9297 127.893 45.9297H144.208C145.155 45.9297 145.93 47.0059 145.93 48.3458V48.9323C145.93 52.0587 147.641 52.0694 149.74 52.0694H187.461C189.581 52.0694 191.281 52.0694 191.281 48.9323V48.3565C191.281 47.022 192.045 45.9405 193.014 45.9405H209.318C213.876 45.9405 217.568 47.2803 217.568 56.4657Z" fill="#EBEBEB"/>
<path d="M129.547 61.1428L126.652 58.4308L129.547 55.7188L129.994 56.1977L127.61 58.4308L129.994 60.6639L129.547 61.1428Z" fill="#777777"/>
<path d="M209.985 56.7423C209.985 56.8935 209.924 57.0386 209.817 57.1456C209.71 57.2526 209.565 57.3127 209.414 57.3127C209.263 57.3127 209.118 57.2526 209.011 57.1456C208.904 57.0386 208.844 56.8935 208.844 56.7423C208.844 56.591 208.904 56.4459 209.011 56.3389C209.118 56.232 209.263 56.1719 209.414 56.1719C209.565 56.1719 209.71 56.232 209.817 56.3389C209.924 56.4459 209.985 56.591 209.985 56.7423Z" fill="#878787"/>
<path d="M209.988 58.7725C209.994 58.8865 209.966 58.9998 209.907 59.0977C209.849 59.1957 209.762 59.2738 209.659 59.3219C209.555 59.3701 209.44 59.3861 209.327 59.3679C209.214 59.3496 209.11 59.298 209.027 59.2197C208.944 59.1414 208.886 59.0399 208.861 58.9285C208.836 58.8171 208.846 58.7008 208.888 58.5946C208.93 58.4885 209.003 58.3975 209.097 58.3332C209.192 58.269 209.303 58.2346 209.417 58.2344C209.563 58.2328 209.705 58.288 209.811 58.3884C209.917 58.4888 209.981 58.6264 209.988 58.7725Z" fill="#878787"/>
<path d="M209.985 60.7892C209.985 60.902 209.951 61.0123 209.888 61.1061C209.826 61.1999 209.737 61.273 209.632 61.3161C209.528 61.3593 209.413 61.3706 209.303 61.3486C209.192 61.3266 209.091 61.2723 209.011 61.1925C208.931 61.1127 208.877 61.0111 208.855 60.9004C208.833 60.7898 208.844 60.6751 208.887 60.5709C208.93 60.4667 209.003 60.3776 209.097 60.3149C209.191 60.2522 209.301 60.2188 209.414 60.2188C209.489 60.2181 209.564 60.2323 209.633 60.2607C209.703 60.2891 209.766 60.3311 209.819 60.3842C209.872 60.4373 209.914 60.5005 209.943 60.57C209.971 60.6396 209.985 60.7141 209.985 60.7892Z" fill="#878787"/>
<path d="M141.388 49.8617L141.232 50.0177L141.14 50.1038C140.737 49.7029 140.192 49.4779 139.623 49.4779C139.054 49.4779 138.509 49.7029 138.105 50.1038L138.019 50.0124L137.863 49.8563L138.062 49.6787C138.206 49.5657 138.361 49.4683 138.525 49.3882C138.719 49.2905 138.925 49.2216 139.139 49.1837C139.238 49.1636 139.339 49.1493 139.44 49.1406H139.709H139.919C140.103 49.1659 140.283 49.211 140.457 49.2752C140.725 49.3755 140.975 49.5211 141.194 49.7056L141.361 49.8563L141.388 49.8617Z" fill="#838383"/>
<path d="M138.608 50.598L138.355 50.3558C138.522 50.1886 138.72 50.0559 138.938 49.9653C139.156 49.8747 139.389 49.8281 139.625 49.8281C139.861 49.8281 140.095 49.8747 140.313 49.9653C140.531 50.0559 140.729 50.1886 140.895 50.3558L140.642 50.6034C140.372 50.3346 140.007 50.1837 139.625 50.1837C139.244 50.1837 138.879 50.3346 138.608 50.6034V50.598Z" fill="#838383"/>
<path d="M140.415 50.8485L140.167 51.096C140.098 51.0244 140.014 50.9679 139.921 50.93C139.829 50.892 139.729 50.8734 139.629 50.8754C139.53 50.8747 139.431 50.8938 139.338 50.9317C139.246 50.9696 139.162 51.0254 139.091 51.096L138.844 50.8485C138.944 50.741 139.066 50.6552 139.201 50.5966C139.336 50.538 139.482 50.5078 139.629 50.5078C139.777 50.5078 139.922 50.538 140.058 50.5966C140.193 50.6552 140.314 50.741 140.415 50.8485Z" fill="#838383"/>
<path d="M139.874 51.3222C139.874 51.3821 139.85 51.4396 139.808 51.482C139.766 51.5244 139.708 51.5482 139.648 51.5482C139.595 51.5399 139.546 51.5128 139.511 51.4719C139.476 51.4309 139.457 51.3788 139.457 51.3249C139.457 51.271 139.476 51.2188 139.511 51.1779C139.546 51.1369 139.595 51.1099 139.648 51.1016C139.707 51.1015 139.764 51.1246 139.806 51.1658C139.848 51.2071 139.873 51.2632 139.874 51.3222Z" fill="#838383"/>
<path d="M126.671 50.9897C127.03 50.9897 127.322 50.6982 127.322 50.3386C127.322 49.979 127.03 49.6875 126.671 49.6875C126.311 49.6875 126.02 49.979 126.02 50.3386C126.02 50.6982 126.311 50.9897 126.671 50.9897Z" fill="#838383"/>
<path d="M128.066 50.3386C128.066 50.2098 128.105 50.0839 128.176 49.9769C128.248 49.8698 128.349 49.7863 128.468 49.7371C128.587 49.6878 128.718 49.6749 128.845 49.7C128.971 49.7251 129.087 49.7871 129.178 49.8782C129.269 49.9693 129.331 50.0853 129.356 50.2116C129.381 50.3379 129.368 50.4688 129.319 50.5878C129.27 50.7067 129.186 50.8084 129.079 50.88C128.972 50.9515 128.846 50.9897 128.718 50.9897C128.545 50.9897 128.379 50.9211 128.257 50.799C128.135 50.6769 128.066 50.5113 128.066 50.3386Z" fill="#838383"/>
<path d="M130.109 50.3386C130.109 50.2098 130.148 50.0839 130.219 49.9769C130.291 49.8698 130.392 49.7863 130.511 49.7371C130.63 49.6878 130.761 49.6749 130.888 49.7C131.014 49.7251 131.13 49.7871 131.221 49.8782C131.312 49.9693 131.374 50.0853 131.399 50.2116C131.424 50.3379 131.411 50.4688 131.362 50.5878C131.313 50.7067 131.229 50.8084 131.122 50.88C131.015 50.9515 130.889 50.9897 130.76 50.9897C130.675 50.9897 130.59 50.9729 130.511 50.9401C130.432 50.9074 130.361 50.8595 130.3 50.799C130.24 50.7385 130.192 50.6668 130.159 50.5878C130.126 50.5088 130.109 50.4241 130.109 50.3386Z" fill="#838383"/>
<path d="M132.807 50.9897C133.167 50.9897 133.458 50.6982 133.458 50.3386C133.458 49.979 133.167 49.6875 132.807 49.6875C132.448 49.6875 132.156 49.979 132.156 50.3386C132.156 50.6982 132.448 50.9897 132.807 50.9897Z" fill="#838383"/>
<path d="M134.199 50.3386C134.199 50.2098 134.237 50.0839 134.309 49.9769C134.38 49.8698 134.482 49.7863 134.601 49.7371C134.72 49.6878 134.851 49.6749 134.977 49.7C135.104 49.7251 135.22 49.7871 135.311 49.8782C135.402 49.9693 135.464 50.0853 135.489 50.2116C135.514 50.3379 135.501 50.4688 135.452 50.5878C135.403 50.7067 135.319 50.8084 135.212 50.88C135.105 50.9515 134.979 50.9897 134.85 50.9897C134.678 50.9897 134.512 50.9211 134.39 50.799C134.268 50.6769 134.199 50.5113 134.199 50.3386Z" fill="#838383"/>
<path d="M210.225 51.7584H204.93V49.3047H210.225V51.7584ZM205.21 51.484H209.945V49.5791H205.21V51.484Z" fill="#6D6D6D"/>
<path d="M208.785 49.7188H205.379V51.3331H208.785V49.7188Z" fill="#6D6D6D"/>
<path d="M210.695 49.875H210.227V51.1826H210.695V49.875Z" fill="#6D6D6D"/>
<path d="M134.514 229.208H133.772V232.625H132.378V230.882H129.914V232.625H128.525V229.208H127.777L131.146 225.727L134.514 229.208Z" fill="#828282"/>
<path d="M209.432 225.727H201.312V226.889H209.432V225.727Z" fill="#828282"/>
<path d="M209.432 228.594H201.312V229.756H209.432V228.594Z" fill="#828282"/>
<path d="M209.432 231.461H201.312V232.623H209.432V231.461Z" fill="#828282"/>
<path d="M170.914 228.71L168.605 231.175L166.297 228.71L166.706 228.328L168.605 230.357L170.505 228.328L170.914 228.71Z" fill="#828282"/>
<path d="M168.606 233.72C167.777 233.72 166.966 233.474 166.277 233.013C165.588 232.553 165.05 231.898 164.733 231.132C164.416 230.366 164.333 229.523 164.495 228.71C164.656 227.897 165.056 227.15 165.642 226.564C166.228 225.977 166.975 225.578 167.788 225.416C168.601 225.255 169.444 225.338 170.21 225.655C170.976 225.972 171.631 226.51 172.091 227.199C172.552 227.888 172.798 228.699 172.798 229.528C172.796 230.639 172.354 231.704 171.568 232.49C170.783 233.276 169.717 233.718 168.606 233.72ZM168.606 225.89C167.886 225.89 167.183 226.104 166.585 226.503C165.987 226.903 165.521 227.471 165.245 228.136C164.97 228.8 164.898 229.532 165.038 230.237C165.179 230.943 165.525 231.591 166.034 232.1C166.542 232.609 167.191 232.955 167.896 233.095C168.602 233.236 169.333 233.164 169.998 232.888C170.663 232.613 171.231 232.147 171.63 231.549C172.03 230.95 172.243 230.247 172.243 229.528C172.243 228.563 171.86 227.638 171.178 226.956C170.496 226.273 169.571 225.89 168.606 225.89Z" fill="#828282"/>
<path opacity="0.1" d="M202.907 55.2422H134.305V61.9308H202.907V55.2422Z" fill="black"/>
<path d="M160.629 60.0733L160.091 60.4823L159.085 59.1585L158.719 58.6742C158.795 58.6476 158.866 58.6075 158.929 58.5558C159.052 58.4628 159.149 58.3383 159.208 58.1953L159.596 58.7334L160.629 60.0733Z" fill="#7B7B7B"/>
<path d="M159.558 56.9513C159.387 56.7284 159.155 56.5591 158.891 56.4633C158.627 56.3675 158.341 56.3492 158.066 56.4106C157.792 56.4721 157.541 56.6106 157.343 56.81C157.145 57.0094 157.008 57.2612 156.948 57.5359C156.888 57.8106 156.908 58.0966 157.005 58.3603C157.103 58.624 157.274 58.8543 157.498 59.0242C157.721 59.194 157.989 59.2963 158.27 59.319C158.55 59.3417 158.831 59.2838 159.079 59.1522C159.151 59.1155 159.219 59.0722 159.283 59.023C159.4 58.9324 159.504 58.8255 159.59 58.7055C159.773 58.4479 159.868 58.1387 159.862 57.8231C159.856 57.5075 159.75 57.202 159.558 56.9513ZM158.923 58.5656C158.861 58.6173 158.789 58.6574 158.713 58.684C158.536 58.7572 158.339 58.7694 158.154 58.7187C157.969 58.6681 157.806 58.5575 157.691 58.4042C157.596 58.2814 157.535 58.1358 157.514 57.982C157.493 57.8282 157.514 57.6716 157.573 57.5281C157.632 57.3847 157.728 57.2593 157.851 57.1647C157.974 57.0701 158.12 57.0096 158.273 56.9893C158.427 56.9691 158.584 56.9898 158.727 57.0493C158.87 57.1088 158.996 57.2051 159.09 57.3284C159.184 57.4517 159.244 57.5977 159.264 57.7516C159.284 57.9055 159.263 58.0619 159.203 58.2051C159.141 58.3422 159.044 58.4609 158.923 58.5495V58.5656Z" fill="#7B7B7B"/>
<path d="M163.405 59.3104C163.427 59.2835 163.454 59.2612 163.485 59.2448C163.515 59.2284 163.549 59.2181 163.583 59.2146C163.618 59.2111 163.652 59.2144 163.686 59.2244C163.719 59.2344 163.75 59.2508 163.776 59.2728C164.048 59.5057 164.388 59.6437 164.745 59.6656C164.971 59.6711 165.193 59.6052 165.38 59.4772C165.443 59.4385 165.497 59.385 165.535 59.3213C165.573 59.2576 165.596 59.1855 165.601 59.1113C165.601 59.0539 165.584 58.9976 165.552 58.9499C165.515 58.8881 165.463 58.8364 165.402 58.7992C165.186 58.6782 164.951 58.5962 164.707 58.5571C164.481 58.5217 164.26 58.4565 164.051 58.3634C163.858 58.2785 163.694 58.1403 163.577 57.9652C163.502 57.8402 163.463 57.6968 163.464 57.5508C163.469 57.4042 163.508 57.2606 163.578 57.1317C163.648 57.0028 163.747 56.892 163.868 56.8082C164.125 56.6292 164.432 56.5352 164.745 56.5392C165.147 56.5586 165.533 56.6993 165.854 56.9428C165.882 56.9617 165.906 56.9861 165.925 57.0146C165.944 57.043 165.957 57.0749 165.964 57.1084C165.97 57.142 165.97 57.1764 165.963 57.2099C165.956 57.2433 165.943 57.2751 165.924 57.3033C165.905 57.3326 165.882 57.3579 165.854 57.3779C165.826 57.3979 165.794 57.412 165.76 57.4195C165.727 57.4271 165.692 57.4278 165.658 57.4217C165.624 57.4156 165.592 57.4028 165.563 57.384C165.331 57.1916 165.045 57.0768 164.745 57.0558C164.552 57.0574 164.365 57.1175 164.207 57.228C164.151 57.262 164.104 57.3092 164.07 57.3654C164.036 57.4217 164.017 57.4853 164.013 57.5508C164.011 57.5995 164.022 57.6479 164.046 57.6907C164.084 57.7437 164.131 57.7893 164.185 57.8253C164.38 57.9406 164.596 58.0156 164.82 58.0459C165.061 58.0901 165.296 58.1624 165.52 58.2611C165.725 58.3502 165.9 58.4958 166.026 58.6808C166.105 58.8105 166.148 58.9593 166.15 59.1113C166.145 59.2684 166.103 59.4221 166.028 59.5597C165.952 59.6973 165.844 59.8148 165.714 59.9023C165.437 60.0931 165.108 60.1928 164.772 60.1875C164.296 60.1648 163.841 59.9872 163.475 59.6817C163.417 59.6414 163.377 59.5799 163.364 59.5104C163.351 59.4409 163.366 59.3691 163.405 59.3104Z" fill="#7B7B7B"/>
<path d="M166.676 58.9028C166.673 58.5706 166.801 58.2508 167.033 58.013C167.265 57.7751 167.581 57.6385 167.913 57.6328C168.231 57.6313 168.536 57.7536 168.764 57.9737C168.992 58.1938 169.125 58.4944 169.135 58.8113C169.138 58.8273 169.138 58.8437 169.135 58.8597C169.124 58.9201 169.091 58.9743 169.042 59.0112C168.993 59.0482 168.932 59.0652 168.871 59.0588H167.257C167.281 59.1858 167.341 59.3034 167.429 59.3978C167.563 59.527 167.736 59.6069 167.921 59.6245C168.106 59.6421 168.291 59.5963 168.446 59.4947C168.5 59.4495 168.567 59.4248 168.637 59.4248C168.707 59.4248 168.775 59.4495 168.828 59.4947C168.871 59.5388 168.894 59.5976 168.894 59.6588C168.894 59.72 168.871 59.7788 168.828 59.8229C168.579 60.0469 168.254 60.1664 167.919 60.1565C167.589 60.1523 167.273 60.0185 167.041 59.784C166.808 59.5495 166.677 59.233 166.676 58.9028ZM167.214 58.6552H168.651C168.594 58.5012 168.492 58.3676 168.359 58.2717C168.226 58.1759 168.067 58.122 167.903 58.1171C167.746 58.1205 167.596 58.1749 167.473 58.2721C167.351 58.3692 167.263 58.5038 167.225 58.6552H167.214Z" fill="#7B7B7B"/>
<path d="M172.085 58.9087V59.9042C172.085 59.9756 172.056 60.044 172.006 60.0944C171.955 60.1449 171.887 60.1732 171.816 60.1732C171.754 60.1714 171.695 60.1492 171.647 60.1103C171.6 60.0714 171.566 60.0179 171.552 59.958C171.32 60.122 171.036 60.1965 170.753 60.1678C170.47 60.1391 170.207 60.0092 170.013 59.802C169.791 59.5574 169.668 59.239 169.668 58.9087C169.668 58.5784 169.791 58.26 170.013 58.0155C170.204 57.802 170.467 57.6675 170.752 57.6387C171.037 57.6098 171.322 57.6885 171.552 57.8594C171.564 57.7975 171.597 57.7416 171.644 57.7005C171.692 57.6595 171.753 57.6359 171.816 57.6334C171.887 57.6348 171.956 57.6643 172.006 57.7157C172.056 57.767 172.085 57.836 172.085 57.9078V58.9087ZM171.546 58.9087C171.55 58.8103 171.535 58.7121 171.501 58.6198C171.466 58.5275 171.414 58.4428 171.347 58.3706C171.288 58.3048 171.215 58.2522 171.134 58.2162C171.053 58.1802 170.965 58.1616 170.877 58.1616C170.788 58.1616 170.7 58.1802 170.619 58.2162C170.538 58.2522 170.465 58.3048 170.406 58.3706C170.281 58.5159 170.213 58.7011 170.213 58.8926C170.213 59.084 170.281 59.2692 170.406 59.4145C170.467 59.4775 170.54 59.5276 170.621 59.5617C170.702 59.5959 170.789 59.6135 170.877 59.6135C170.964 59.6135 171.051 59.5959 171.132 59.5617C171.213 59.5276 171.286 59.4775 171.347 59.4145C171.475 59.2768 171.546 59.0963 171.546 58.9087Z" fill="#7B7B7B"/>
<path d="M174.643 57.8965C174.643 57.9323 174.637 57.9679 174.624 58.0012C174.61 58.0344 174.591 58.0647 174.566 58.0903C174.541 58.1158 174.511 58.1361 174.478 58.15C174.445 58.1638 174.409 58.171 174.373 58.171C174.266 58.1675 174.16 58.1996 174.072 58.2625C173.978 58.3284 173.897 58.4125 173.835 58.51C173.745 58.6401 173.676 58.7835 173.631 58.9351V59.8983C173.63 59.9343 173.622 59.9699 173.608 60.0029C173.594 60.0359 173.573 60.0658 173.547 60.0908C173.521 60.1158 173.49 60.1354 173.457 60.1485C173.423 60.1617 173.387 60.1681 173.351 60.1673C173.28 60.1673 173.211 60.139 173.161 60.0885C173.11 60.0381 173.082 59.9696 173.082 59.8983V57.8965C173.083 57.8261 173.112 57.7591 173.163 57.7098C173.213 57.6605 173.281 57.6329 173.351 57.6329C173.423 57.6314 173.493 57.6582 173.545 57.7075C173.597 57.7568 173.628 57.8247 173.631 57.8965V57.9342C173.661 57.8948 173.698 57.8603 173.739 57.832C173.924 57.7002 174.146 57.6305 174.373 57.6329C174.409 57.6322 174.443 57.6384 174.476 57.6514C174.509 57.6643 174.538 57.6836 174.563 57.7082C174.588 57.7327 174.608 57.762 174.622 57.7944C174.636 57.8267 174.643 57.8615 174.643 57.8965Z" fill="#7B7B7B"/>
<path d="M175 58.9081C175.006 58.5689 175.144 58.2453 175.385 58.0069C175.627 57.7685 175.952 57.6342 176.291 57.6328C176.584 57.6359 176.867 57.7341 177.099 57.9126C177.155 57.9563 177.191 58.0199 177.201 58.0901C177.211 58.1603 177.194 58.2317 177.152 58.2893C177.132 58.3182 177.105 58.3425 177.075 58.361C177.045 58.3794 177.011 58.3915 176.976 58.3965C176.94 58.4015 176.905 58.3994 176.87 58.3902C176.836 58.381 176.804 58.365 176.776 58.3431C176.636 58.2374 176.467 58.179 176.291 58.1763C176.096 58.1776 175.908 58.2544 175.768 58.3908C175.627 58.5272 175.545 58.7125 175.538 58.9081C175.544 59.1037 175.626 59.2892 175.767 59.425C175.907 59.5608 176.096 59.636 176.291 59.6346C176.466 59.633 176.635 59.5766 176.776 59.4731C176.804 59.4519 176.836 59.4365 176.87 59.4277C176.905 59.419 176.94 59.417 176.975 59.422C177.01 59.427 177.044 59.4389 177.074 59.4569C177.105 59.4749 177.131 59.4987 177.152 59.5269C177.174 59.5552 177.189 59.5874 177.198 59.6216C177.207 59.6558 177.209 59.6914 177.204 59.7264C177.199 59.7614 177.187 59.795 177.169 59.8254C177.151 59.8558 177.127 59.8824 177.099 59.9036C176.864 60.0743 176.582 60.1682 176.291 60.1727C175.953 60.1741 175.628 60.0422 175.386 59.8055C175.144 59.5688 175.006 59.2464 175 58.9081Z" fill="#7B7B7B"/>
<path d="M178.642 59.8942C178.642 59.9314 178.635 59.9682 178.621 60.0026C178.606 60.0369 178.585 60.0679 178.559 60.094C178.532 60.1201 178.501 60.1406 178.466 60.1543C178.431 60.168 178.394 60.1747 178.357 60.174C178.297 60.1723 178.238 60.1516 178.19 60.1149C178.142 60.0783 178.106 60.0274 178.088 59.9695C178.085 59.9445 178.085 59.9192 178.088 59.8942V56.9024C178.098 56.8341 178.131 56.7716 178.183 56.7264C178.235 56.6812 178.302 56.6562 178.371 56.6562C178.44 56.6562 178.506 56.6812 178.558 56.7264C178.61 56.7716 178.644 56.8341 178.653 56.9024V57.7848C178.818 57.6914 179.002 57.6397 179.191 57.6342C179.337 57.6349 179.481 57.6643 179.615 57.7206C179.749 57.777 179.871 57.8592 179.974 57.9627C180.076 58.0661 180.157 58.1887 180.212 58.3234C180.267 58.4582 180.295 58.6025 180.294 58.7481V59.8942C180.306 59.9359 180.308 59.9797 180.3 60.0223C180.293 60.0648 180.275 60.105 180.249 60.1396C180.223 60.1742 180.189 60.2022 180.15 60.2215C180.111 60.2408 180.069 60.2509 180.025 60.2509C179.982 60.2509 179.939 60.2408 179.901 60.2215C179.862 60.2022 179.828 60.1742 179.802 60.1396C179.776 60.105 179.758 60.0648 179.75 60.0223C179.742 59.9797 179.744 59.9359 179.756 59.8942V58.7696C179.756 58.6269 179.7 58.49 179.599 58.3891C179.498 58.2882 179.361 58.2315 179.218 58.2315C179.075 58.2315 178.939 58.2882 178.838 58.3891C178.737 58.49 178.68 58.6269 178.68 58.7696L178.642 59.8942Z" fill="#7B7B7B"/>
<path opacity="0.3" d="M125.047 161.344H212.16V88.0218L125.047 88.0218L125.047 161.344Z" fill="#EBEBEB"/>
<path d="M135.26 152.859H133V155.119H135.26V152.859Z" fill="#F42123"/>
<path d="M161.569 152.859H136.832V153.527H161.569V152.859Z" fill="#455A64"/>
<path d="M152.819 154.445H136.832V155.113H152.819V154.445Z" fill="#455A64"/>
<path d="M130.398 100.848C143.135 100.757 155.867 100.778 168.604 100.741C181.341 100.703 194.072 100.741 206.809 100.848C194.072 100.945 181.341 100.918 168.604 100.956C155.867 100.994 143.135 100.945 130.398 100.848Z" fill="#455A64"/>
<path d="M130.398 109.708C143.135 109.616 155.867 109.638 168.604 109.6C181.341 109.562 194.072 109.6 206.809 109.708C194.072 109.799 181.341 109.778 168.604 109.815C155.867 109.853 143.135 109.799 130.398 109.708Z" fill="#455A64"/>
<path d="M130.398 118.553C143.135 118.461 155.867 118.488 168.604 118.445C181.341 118.483 194.072 118.445 206.809 118.553C194.072 118.65 181.341 118.623 168.604 118.666C155.867 118.623 143.135 118.65 130.398 118.553Z" fill="#455A64"/>
<path d="M130.398 127.411C143.135 127.319 155.867 127.341 168.604 127.303C181.341 127.266 194.072 127.303 206.809 127.411C194.072 127.502 181.341 127.481 168.604 127.519C155.867 127.556 143.135 127.492 130.398 127.411Z" fill="#455A64"/>
<path d="M130.398 136.277C143.135 136.18 155.867 136.207 168.604 136.164C181.341 136.207 194.072 136.164 206.809 136.277C194.072 136.369 181.341 136.347 168.604 136.385C155.867 136.422 143.135 136.369 130.398 136.277Z" fill="#455A64"/>
<path d="M145.797 95.0938C145.91 103.37 145.878 111.646 145.926 119.916C145.883 128.192 145.926 136.463 145.797 144.739C145.684 136.463 145.711 128.192 145.668 119.916C145.7 111.646 145.673 103.37 145.797 95.0938Z" fill="#455A64"/>
<path d="M158.996 95.0938C159.109 103.37 159.082 111.646 159.125 119.916C159.082 128.192 159.125 136.463 158.996 144.739C158.883 136.463 158.916 128.192 158.867 119.916C158.916 111.646 158.883 103.37 158.996 95.0938Z" fill="#455A64"/>
<path d="M172.209 95.0938C172.316 103.37 172.289 111.646 172.338 119.916C172.289 128.192 172.338 136.463 172.209 144.739C172.096 136.463 172.123 128.192 172.074 119.916C172.123 111.646 172.096 103.37 172.209 95.0938Z" fill="#455A64"/>
<path d="M185.418 95.0938C185.531 103.37 185.499 111.646 185.547 119.916C185.504 128.192 185.547 136.463 185.418 144.739C185.305 136.463 185.332 128.192 185.289 119.916C185.332 111.646 185.305 103.37 185.418 95.0938Z" fill="#455A64"/>
<path d="M198.633 95.0938C198.746 103.37 198.719 111.646 198.762 119.916C198.719 128.192 198.762 136.463 198.633 144.739C198.52 136.463 198.552 128.192 198.504 119.916C198.531 111.646 198.531 103.37 198.633 95.0938Z" fill="#455A64"/>
<path d="M132.341 95.6328C132.427 103.812 132.497 111.997 132.508 120.181L132.583 144.735L132.341 144.53L169.578 144.584L188.196 144.622L206.82 144.735L188.196 144.842L169.578 144.885L132.341 144.934H132.094V144.713L132.174 120.16C132.169 111.997 132.239 103.817 132.341 95.6328Z" fill="#455A64"/>
<path d="M150.389 133.789H141.188V144.556H150.389V133.789Z" fill="#F42123"/>
<path opacity="0.2" d="M150.389 133.789H141.188V144.556H150.389V133.789Z" fill="white"/>
<path opacity="0.5" d="M150.384 133.789H147.656V144.556H150.384V133.789Z" fill="white"/>
<path d="M163.596 118.469H154.395V144.551H163.596V118.469Z" fill="#F42123"/>
<path opacity="0.2" d="M163.596 118.469H154.395V144.551H163.596V118.469Z" fill="white"/>
<path opacity="0.5" d="M163.591 118.469H160.863V144.551H163.591V118.469Z" fill="white"/>
<path d="M176.811 109.82H167.609V144.56H176.811V109.82Z" fill="#F42123"/>
<path opacity="0.2" d="M176.811 109.82H167.609V144.56H176.811V109.82Z" fill="white"/>
<path opacity="0.5" d="M176.81 109.82H174.082V144.56H176.81V109.82Z" fill="white"/>
<path d="M190.018 114.93H180.816V144.563H190.018V114.93Z" fill="#F42123"/>
<path opacity="0.2" d="M190.018 114.93H180.816V144.563H190.018V114.93Z" fill="white"/>
<path opacity="0.5" d="M190.021 114.93H187.293V144.563H190.021V114.93Z" fill="white"/>
<path d="M203.233 100.961H194.031V144.558H203.233V100.961Z" fill="#F42123"/>
<path opacity="0.2" d="M203.233 100.961H194.031V144.558H203.233V100.961Z" fill="white"/>
<path opacity="0.5" d="M203.232 100.961H200.504V144.558H203.232V100.961Z" fill="white"/>
<path opacity="0.6" d="M175.178 167.125H125.043V219.488H175.178V167.125Z" fill="#EBEBEB"/>
<path d="M138.221 210.219H135.988V212.452H138.221V210.219Z" fill="#F42123"/>
<path d="M164.23 210.219H139.773V210.881H164.23V210.219Z" fill="#455A64"/>
<path d="M155.578 211.789H139.773V212.451H155.578V211.789Z" fill="#455A64"/>
<path d="M130.863 177.682C137.277 177.623 143.697 177.639 150.111 177.617C156.525 177.596 162.945 177.617 169.365 177.682C162.945 177.741 156.531 177.725 150.111 177.747C143.692 177.768 137.277 177.741 130.863 177.682Z" fill="#455A64"/>
<path d="M130.863 183.104C137.277 183.045 143.697 183.061 150.111 183.039C156.525 183.018 162.945 183.039 169.365 183.104C162.945 183.163 156.531 183.147 150.111 183.168C143.692 183.19 137.277 183.163 130.863 183.104Z" fill="#455A64"/>
<path d="M130.863 188.526C137.277 188.467 143.697 188.483 150.111 188.461C156.525 188.44 162.945 188.461 169.365 188.526C162.945 188.585 156.531 188.569 150.111 188.59C143.692 188.612 137.277 188.585 130.863 188.526Z" fill="#455A64"/>
<path d="M130.863 193.948C137.277 193.888 143.697 193.905 150.111 193.883C156.525 193.862 162.945 193.883 169.365 193.948C162.945 194.007 156.531 193.991 150.111 194.012C143.692 194.034 137.277 194.007 130.863 193.948Z" fill="#455A64"/>
<path d="M130.863 199.37C137.277 199.31 143.697 199.326 150.111 199.305C156.525 199.283 162.945 199.305 169.365 199.37C162.945 199.429 156.531 199.413 150.111 199.434C143.692 199.456 137.277 199.429 130.863 199.37Z" fill="#455A64"/>
<path d="M138.61 174.156C138.67 179.22 138.653 184.289 138.675 189.358C138.696 194.427 138.675 199.496 138.61 204.564C138.557 199.496 138.567 194.427 138.546 189.358C138.524 184.289 138.557 179.22 138.61 174.156Z" fill="#455A64"/>
<path d="M145.256 174.156C145.315 179.22 145.299 184.289 145.326 189.358C145.353 194.427 145.326 199.496 145.256 204.564C145.202 199.496 145.218 194.427 145.191 189.358C145.164 184.289 145.213 179.22 145.256 174.156Z" fill="#455A64"/>
<path d="M151.927 174.156C151.981 179.22 151.97 184.289 151.992 189.358C152.014 194.427 151.992 199.496 151.927 204.564C151.868 199.496 151.884 194.427 151.863 189.358C151.841 184.289 151.868 179.22 151.927 174.156Z" fill="#455A64"/>
<path d="M158.587 174.156C158.646 179.22 158.63 184.289 158.652 189.358C158.673 194.427 158.652 199.496 158.587 204.564C158.533 199.496 158.544 194.427 158.522 189.358C158.501 184.289 158.533 179.22 158.587 174.156Z" fill="#455A64"/>
<path d="M165.242 174.156C165.302 179.22 165.285 184.289 165.312 189.358C165.339 194.427 165.312 199.496 165.242 204.564C165.189 199.496 165.199 194.427 165.178 189.358C165.156 184.289 165.167 179.22 165.242 174.156Z" fill="#455A64"/>
<path opacity="0.5" d="M131.836 195.441C133.009 195.441 133.709 189.931 135.377 189.931C137.045 189.931 137.217 193.95 138.605 193.95C139.994 193.95 139.967 186.89 141.834 186.89C143.701 186.89 143.276 189.753 145.245 189.753C147.215 189.753 146.472 183.102 148.533 183.102C150.594 183.102 149.76 192.25 151.907 192.25C153.263 192.25 153.791 189.339 155.41 189.339C156.486 189.339 157.116 190.797 158.52 190.797C159.925 190.797 160.226 185.201 161.98 185.201C163.735 185.201 163.934 188.51 165.209 188.51C166.484 188.51 166.963 183.086 169.331 183.086V204.545H131.836V195.441Z" fill="#F42123"/>
<path d="M131.836 195.713V195.175C132.191 195.175 132.681 193.883 133.041 192.947C133.655 191.333 134.29 189.664 135.377 189.664C136.464 189.664 136.937 190.886 137.395 191.962C137.75 192.807 138.121 193.684 138.616 193.684C139.111 193.684 139.434 191.989 139.692 190.751C140.144 188.717 140.612 186.624 141.845 186.624C142.921 186.624 143.362 187.447 143.739 188.174C144.115 188.9 144.422 189.487 145.256 189.487C146.09 189.487 146.332 187.932 146.601 186.43C146.935 184.66 147.285 182.836 148.544 182.836C149.803 182.836 150.11 185.139 150.449 187.571C150.723 189.546 151.062 192 151.918 192C152.429 192 152.843 191.392 153.29 190.751C153.828 189.971 154.436 189.089 155.443 189.089C156.009 189.148 156.539 189.398 156.944 189.799C157.377 190.23 157.949 190.495 158.558 190.547C159.042 190.547 159.484 189.212 159.844 188.142C160.382 186.57 160.92 184.945 161.997 184.945C163.073 184.945 163.643 186.022 164.122 186.936C164.472 187.614 164.806 188.26 165.236 188.26C165.666 188.26 166.027 187.227 166.398 186.317C167.033 184.768 167.819 182.836 169.358 182.836V183.374C168.174 183.374 167.491 185.053 166.888 186.533C166.35 187.797 165.962 188.798 165.236 188.798C164.51 188.798 164.079 188.018 163.654 187.184C163.229 186.35 162.777 185.483 161.997 185.483C161.216 185.483 160.764 186.99 160.318 188.319C159.828 189.799 159.398 191.08 158.537 191.08C157.811 191.03 157.125 190.727 156.599 190.224C156.285 189.9 155.873 189.688 155.426 189.621C154.716 189.621 154.216 190.353 153.726 191.064C153.236 191.774 152.709 192.533 151.923 192.533C150.61 192.533 150.282 190.165 149.932 187.652C149.669 185.747 149.34 183.347 148.549 183.347C147.758 183.347 147.403 185.031 147.123 186.511C146.779 188.308 146.456 189.998 145.262 189.998C144.067 189.998 143.647 189.153 143.276 188.384C142.905 187.614 142.62 187.119 141.85 187.119C141.081 187.119 140.585 189.18 140.236 190.832C139.816 192.705 139.488 194.179 138.621 194.179C137.755 194.179 137.357 193.189 136.91 192.14C136.464 191.09 136.076 190.16 135.382 190.16C134.688 190.16 134.037 191.774 133.536 193.103C132.982 194.583 132.552 195.713 131.836 195.713Z" fill="#F42123"/>
<path d="M131.831 174.492C131.874 179.507 131.912 184.517 131.912 189.532L131.955 204.599L131.831 204.475L150.594 204.508H159.979L169.363 204.578L159.979 204.642L150.594 204.669L131.831 204.701H131.707V204.578L131.745 189.511C131.75 184.544 131.804 179.507 131.831 174.492Z" fill="#455A64"/>
<path opacity="0.3" d="M212.158 167.125H179.285V219.488H212.158V167.125Z" fill="#EBEBEB"/>
<path d="M199.024 177.137L195.72 188.701V200.722C192.532 200.722 189.475 199.456 187.22 197.201C184.966 194.947 183.699 191.889 183.699 188.701C183.699 185.513 184.966 182.455 187.22 180.201C189.475 177.946 192.532 176.68 195.72 176.68C196.838 176.68 197.949 176.834 199.024 177.137Z" fill="#A6A6A6"/>
<path d="M202.834 198.384C200.775 199.91 198.278 200.731 195.715 200.724V188.703L202.834 198.384Z" fill="#8B8B8B"/>
<path d="M207.749 188.709C207.751 190.596 207.308 192.456 206.455 194.139C205.602 195.822 204.364 197.28 202.842 198.395L195.723 188.709L205.075 181.148C206.807 183.288 207.751 185.957 207.749 188.709Z" fill="#585A5B"/>
<path d="M207.747 177.254L198.395 184.787L201.698 173.234C204.08 173.92 206.192 175.324 207.747 177.254Z" fill="#F42123"/>
<path d="M186.764 210.219H184.531V212.452H186.764V210.219Z" fill="#A6A6A6"/>
<path d="M204.48 210.219H188.32V210.881H204.48V210.219Z" fill="#455A64"/>
<path d="M195.821 211.789H188.32V212.451H195.821V211.789Z" fill="#455A64"/>
<path d="M173.737 48.0746H163.459C163.376 48.0746 163.293 48.0582 163.216 48.0263C163.139 47.9944 163.069 47.9476 163.01 47.8886C162.951 47.8297 162.904 47.7597 162.873 47.6826C162.841 47.6056 162.824 47.523 162.824 47.4396C162.824 47.2712 162.891 47.1097 163.01 46.9907C163.129 46.8716 163.291 46.8047 163.459 46.8047H173.737C173.905 46.8047 174.067 46.8716 174.186 46.9907C174.305 47.1097 174.372 47.2712 174.372 47.4396C174.372 47.523 174.355 47.6056 174.324 47.6826C174.292 47.7597 174.245 47.8297 174.186 47.8886C174.127 47.9476 174.057 47.9944 173.98 48.0263C173.903 48.0582 173.82 48.0746 173.737 48.0746Z" fill="#263238"/>
<path d="M259.453 184.656L258.15 192.461L249.334 245.565H247.914L254.325 192.461L255.272 184.656H259.453Z" fill="#DBDBDB"/>
<path d="M255.271 184.656H259.453L258.149 192.461H254.324L255.271 184.656Z" fill="#A6A6A6"/>
<path d="M287.141 245.565H285.72L276.9 192.461L275.602 184.656H279.783L280.73 192.461L287.141 245.565Z" fill="#919191"/>
<path d="M279.783 184.656L280.73 192.461H276.9L275.602 184.656H279.783Z" fill="#A6A6A6"/>
<path d="M304.109 245.565H302.689L293.874 192.461L292.57 184.656H296.752L297.699 192.461L304.109 245.565Z" fill="#919191"/>
<path d="M297.699 192.461H293.874L292.57 184.656H296.752L297.699 192.461Z" fill="#A6A6A6"/>
<path d="M301.852 188.323H246.727V181.514H270.911L279.04 134.219H299.389L301.852 188.323Z" fill="#919191"/>
<path d="M301.854 188.323H298.332L296.039 134.219H299.391L301.854 188.323Z" fill="#A6A6A6"/>
<path d="M238.229 245.117C239.463 245.271 273.309 238.265 274.405 237.206C274.538 237.089 273.969 234.014 273.123 229.822V229.737C272.591 227.077 263.44 205.43 263.44 205.43L241.474 210.856L250.752 230.987C250.752 230.987 246.565 233.828 242.969 236.53C241.381 237.655 239.862 238.874 238.42 240.18C237.346 241.451 237 244.973 238.229 245.117Z" fill="#AD6359"/>
<path d="M238.235 245.114C239.459 245.268 273.31 238.262 274.411 237.203C274.544 237.086 273.975 234.011 273.129 229.819V229.739C272.932 228.744 271.533 225.111 269.857 220.945C266.245 221.802 253.291 224.893 248.577 226.196L250.78 230.984C250.78 230.984 246.593 233.825 242.991 236.528C241.404 237.651 239.885 238.868 238.443 240.172C237.347 241.449 237.001 244.97 238.235 245.114Z" fill="#EBEBEB"/>
<path d="M238.117 245.268C239.383 245.417 273.255 238.32 274.378 237.235C274.803 236.825 274.218 231.494 272.542 225.812L250.73 230.42C250.73 230.42 239.399 238.852 238.298 240.176C237.196 241.501 236.851 245.124 238.117 245.268Z" fill="#F42123"/>
<path d="M238.322 243.817C243.966 242.487 266.879 237.657 272.561 236.773C272.609 236.773 272.614 236.773 272.561 236.811C266.991 238.247 244.041 242.891 238.327 243.908C238.221 243.929 238.199 243.844 238.322 243.817Z" fill="#262626"/>
<path d="M249.05 231.366C251.316 230.834 254.12 231.105 255.918 232.669C255.987 232.728 255.918 232.829 255.828 232.808C253.622 232.181 251.355 231.794 249.066 231.653C249.047 231.654 249.028 231.652 249.01 231.645C248.992 231.639 248.976 231.629 248.962 231.617C248.934 231.591 248.916 231.556 248.914 231.518C248.912 231.479 248.925 231.442 248.951 231.414C248.976 231.385 249.012 231.368 249.05 231.366Z" fill="#262626"/>
<path d="M247.438 232.415C249.705 231.91 252.508 232.16 254.306 233.724C254.376 233.783 254.306 233.884 254.216 233.863C252.01 233.236 249.743 232.849 247.454 232.708C247.42 232.704 247.388 232.687 247.364 232.662C247.34 232.636 247.326 232.603 247.324 232.568C247.323 232.534 247.333 232.499 247.354 232.471C247.375 232.443 247.404 232.424 247.438 232.415Z" fill="#262626"/>
<path d="M245.829 233.466C248.095 232.934 250.899 233.211 252.702 234.77C252.771 234.834 252.702 234.929 252.606 234.908C250.402 234.285 248.137 233.898 245.85 233.754C245.831 233.755 245.812 233.753 245.794 233.747C245.776 233.741 245.76 233.732 245.745 233.719C245.716 233.694 245.699 233.659 245.696 233.621C245.693 233.583 245.705 233.545 245.73 233.516C245.755 233.487 245.791 233.469 245.829 233.466Z" fill="#262626"/>
<path d="M244.215 234.522C246.482 233.99 249.285 234.261 251.089 235.826C251.158 235.884 251.089 235.985 250.993 235.964C248.789 235.338 246.524 234.951 244.237 234.809C244.199 234.812 244.161 234.8 244.132 234.775C244.103 234.75 244.085 234.715 244.082 234.676C244.08 234.638 244.092 234.601 244.117 234.572C244.142 234.543 244.177 234.525 244.215 234.522Z" fill="#262626"/>
<path opacity="0.1" d="M238.117 245.269C238.51 245.317 242.069 244.663 246.825 243.673L243.766 235.656C241.186 237.651 238.76 239.577 238.276 240.157C237.186 241.498 236.845 245.121 238.117 245.269Z" fill="black"/>
<path d="M249.886 231.518L273.204 226.017C273.204 226.017 253.626 182.925 255.334 180.648C256.19 179.515 277.901 179.18 284.801 173.323C293.771 165.715 287.754 154.086 287.754 154.086L263.521 153.352C263.521 153.352 263.814 158.422 262.867 159.204C262.244 159.736 233.357 162.146 230.186 171.892C226.281 183.83 249.886 231.518 249.886 231.518Z" fill="#262626"/>
<path d="M251.189 178.625C251.739 178.279 252.37 178.082 253.019 178.055L263.521 176.295C266.798 175.763 270.091 175.23 273.347 174.624C276.049 174.092 278.794 173.4 281.125 171.937C283.417 170.497 285.117 168.28 285.913 165.692C286.649 163.1 286.858 160.386 286.524 157.712C286.466 157.063 286.344 156.414 286.221 155.77C286.224 155.762 286.23 155.755 286.237 155.75C286.244 155.745 286.252 155.742 286.261 155.742C286.27 155.742 286.278 155.745 286.285 155.75C286.293 155.755 286.298 155.762 286.301 155.77C287.189 160.739 287.269 166.511 283.545 170.474C281.731 172.406 279.236 173.539 276.693 174.273C273.82 175.103 270.841 175.497 267.873 175.991L257.376 177.742C255.69 178.024 253.982 178.242 252.312 178.593C251.973 178.633 251.654 178.774 251.396 178.997C251.275 179.172 251.199 179.374 251.174 179.586C251.149 179.797 251.176 180.011 251.253 180.21C251.418 181.035 251.641 181.854 251.881 182.663C253.79 189.185 267.527 219.807 267.904 220.525C267.942 220.599 267.825 220.658 267.782 220.584C264.59 214.859 254.386 191.324 252.264 185.158C251.707 183.592 251.249 181.993 250.891 180.37C250.753 179.726 250.678 179.061 251.189 178.625Z" fill="#484B51"/>
<path d="M248.811 225.847C249.449 225.554 255.567 224.096 256.918 223.777C259.626 223.144 268.154 221.282 269.718 221.117C269.755 221.117 269.771 221.181 269.718 221.192C268.394 221.654 262.967 222.979 261.616 223.288C258.908 223.905 249.593 225.98 248.821 225.985C248.768 225.974 248.752 225.879 248.811 225.847Z" fill="#484B51"/>
<path d="M204.027 245.642C205.203 246.041 239.767 245.913 241.044 245.11C241.198 245.019 241.257 241.891 241.257 237.614V237.529C241.257 234.821 242.097 211.657 242.097 211.657L220.466 211.477L219.115 234.283C219.115 234.283 214.449 236.231 210.385 238.167C208.604 238.95 206.872 239.838 205.198 240.827C203.889 241.87 202.873 245.253 204.027 245.642Z" fill="#AD6359"/>
<path d="M204.027 245.636C205.203 246.03 239.767 245.908 241.049 245.104C241.203 245.019 241.256 241.912 241.262 237.614V237.529C241.262 237.342 241.262 237.151 241.262 236.959C241.262 236.768 241.262 236.677 241.262 236.539C241.262 236.401 241.262 236.129 241.262 235.922C241.31 234.124 241.4 231.198 241.506 227.995L219.466 227.852L219.088 234.283C219.088 234.283 214.422 236.236 210.352 238.167C208.574 238.951 206.844 239.839 205.171 240.827C203.894 241.864 202.873 245.248 204.027 245.636Z" fill="#EBEBEB"/>
<path d="M203.884 245.769C205.092 246.163 239.704 245.95 241.018 245.11C241.518 244.796 242.007 239.455 241.496 233.555L219.184 233.72C219.184 233.72 206.416 239.731 205.054 240.806C203.693 241.88 202.671 245.349 203.884 245.769Z" fill="#F42123"/>
<path d="M204.369 244.379C210.173 244.198 233.587 244.028 239.332 244.294C239.38 244.294 239.38 244.331 239.332 244.331C233.587 244.634 210.173 244.613 204.369 244.475C204.247 244.469 204.247 244.384 204.369 244.379Z" fill="#262626"/>
<path d="M217.366 234.314C219.691 234.272 222.388 235.075 223.84 236.974C223.899 237.049 223.793 237.128 223.723 237.091C221.689 236.041 219.549 235.21 217.339 234.612C217.32 234.61 217.301 234.605 217.283 234.596C217.266 234.586 217.251 234.574 217.238 234.559C217.225 234.544 217.216 234.527 217.21 234.508C217.204 234.489 217.202 234.469 217.204 234.45C217.205 234.43 217.211 234.411 217.22 234.394C217.229 234.376 217.242 234.361 217.257 234.348C217.272 234.336 217.289 234.326 217.308 234.32C217.327 234.314 217.346 234.312 217.366 234.314Z" fill="#262626"/>
<path d="M215.576 235.025C217.895 234.978 220.592 235.781 222.05 237.685C222.103 237.76 222.002 237.84 221.933 237.802C219.9 236.751 217.76 235.922 215.549 235.329C215.509 235.325 215.472 235.306 215.446 235.275C215.42 235.244 215.407 235.204 215.411 235.164C215.414 235.124 215.434 235.086 215.465 235.06C215.495 235.035 215.535 235.022 215.576 235.025Z" fill="#262626"/>
<path d="M213.792 235.736C216.111 235.693 218.809 236.497 220.266 238.396C220.319 238.47 220.218 238.545 220.149 238.513C218.115 237.463 215.975 236.632 213.765 236.034C213.726 236.03 213.689 236.011 213.664 235.981C213.638 235.95 213.626 235.911 213.629 235.872C213.633 235.832 213.652 235.796 213.683 235.77C213.713 235.745 213.752 235.732 213.792 235.736Z" fill="#262626"/>
<path d="M212.004 236.447C214.324 236.399 217.021 237.203 218.479 239.107C218.532 239.182 218.426 239.262 218.356 239.224C216.324 238.172 214.183 237.343 211.972 236.751C211.953 236.748 211.933 236.742 211.916 236.733C211.898 236.723 211.882 236.71 211.87 236.695C211.857 236.679 211.848 236.661 211.842 236.642C211.837 236.623 211.835 236.603 211.837 236.583C211.839 236.563 211.845 236.544 211.854 236.526C211.864 236.509 211.877 236.493 211.892 236.48C211.908 236.468 211.926 236.458 211.945 236.453C211.964 236.447 211.984 236.445 212.004 236.447Z" fill="#262626"/>
<path d="M216.961 233.557L242.311 233.333C242.311 233.333 242.007 193.204 243.907 190.773C246.455 187.512 282.126 187.581 289.776 176.941C296.649 167.365 290.84 153.874 290.84 153.874L263.825 153.07C264.431 155.97 265.269 158.817 266.331 161.582C266.331 161.582 233.788 167.583 224.67 177.542C218.546 184.304 216.961 233.557 216.961 233.557Z" fill="#262626"/>
<path d="M261.605 159.73C262.39 159.902 263.156 160.147 263.893 160.464C264.67 160.757 265.43 161.092 266.181 161.459C267.641 162.188 269.062 162.994 270.437 163.875C270.479 163.875 270.437 163.96 270.394 163.938C268.931 163.183 267.42 162.497 265.909 161.848L263.728 160.906C262.976 160.618 262.239 160.291 261.52 159.927C261.446 159.879 261.494 159.698 261.605 159.73Z" fill="#484B51"/>
<path d="M263.225 153.063C263.534 154.297 263.805 155.542 264.156 156.787C264.321 157.35 264.481 157.92 264.688 158.462C264.864 158.92 265.135 159.447 265.667 159.526C266.199 159.606 266.455 159.122 266.407 158.617C266.359 158.111 266.204 157.483 266.093 156.93C265.965 156.292 265.837 155.648 265.72 155.01C265.662 154.685 265.598 154.366 265.545 154.041C265.545 153.962 265.47 153.345 265.428 153.169C265.428 153.169 265.428 153.201 265.396 153.196C265.396 153.196 265.359 153.196 265.359 153.164C265.352 153.147 265.352 153.129 265.356 153.111C265.361 153.094 265.371 153.079 265.385 153.068C265.394 153.064 265.404 153.062 265.414 153.062C265.424 153.062 265.434 153.064 265.444 153.068C265.561 153.137 265.566 153.297 265.609 153.414C265.704 153.728 265.805 154.036 265.896 154.35C266.071 154.941 266.236 155.531 266.385 156.127C266.534 156.723 266.678 157.313 266.827 157.909C266.979 158.348 267.02 158.818 266.944 159.276C266.887 159.494 266.763 159.688 266.589 159.83C266.415 159.972 266.2 160.056 265.976 160.069C266 160.106 266.021 160.145 266.04 160.186C266.098 160.308 266.135 160.436 266.183 160.564C266.231 160.691 266.268 160.819 266.306 160.947C266.326 161.009 266.338 161.073 266.343 161.138C266.343 161.207 266.343 161.282 266.343 161.351C266.347 161.374 266.342 161.398 266.331 161.419C266.319 161.439 266.3 161.455 266.278 161.463C266.256 161.471 266.232 161.471 266.21 161.463C266.188 161.456 266.169 161.44 266.157 161.42C266.119 161.356 266.077 161.309 266.04 161.25C266.004 161.183 265.974 161.114 265.949 161.043C265.907 160.915 265.875 160.793 265.843 160.67C265.811 160.548 265.774 160.42 265.747 160.292C265.72 160.165 265.747 160.138 265.747 160.064C265.489 160.039 265.243 159.945 265.034 159.792C264.687 159.496 264.432 159.107 264.3 158.67C264.114 158.138 263.97 157.606 263.826 157.074C263.45 155.774 263.186 154.445 263.039 153.1C263.047 153.083 263.058 153.068 263.073 153.057C263.087 153.045 263.104 153.037 263.123 153.034C263.141 153.03 263.16 153.031 263.177 153.036C263.195 153.041 263.212 153.05 263.225 153.063Z" fill="#484B51"/>
<path d="M279.291 156.077C279.403 156.694 279.472 157.311 279.616 157.918C279.759 158.524 279.914 159.104 280.11 159.678C280.283 160.243 280.536 160.781 280.861 161.274C281.198 161.736 281.602 162.147 282.058 162.493C282.93 163.178 283.907 163.717 284.952 164.089C285.474 164.276 286.007 164.433 286.548 164.557C286.83 164.621 287.117 164.669 287.404 164.706C287.645 164.715 287.882 164.771 288.101 164.871C288.122 164.883 288.139 164.9 288.152 164.921C288.164 164.942 288.17 164.966 288.17 164.991C288.17 165.015 288.164 165.039 288.152 165.06C288.139 165.081 288.122 165.098 288.101 165.11C287.684 165.234 287.242 165.247 286.819 165.147C286.358 165.102 285.901 165.022 285.452 164.908C284.542 164.671 283.671 164.303 282.866 163.817C282.05 163.357 281.319 162.76 280.706 162.051C280.13 161.306 279.733 160.437 279.546 159.514C279.263 158.389 279.138 157.231 279.174 156.072C279.175 156.056 279.182 156.041 279.193 156.031C279.205 156.02 279.22 156.015 279.235 156.016C279.251 156.016 279.265 156.023 279.276 156.035C279.286 156.046 279.292 156.061 279.291 156.077Z" fill="#484B51"/>
<path d="M240.072 192.383C240.129 191.655 240.291 190.938 240.551 190.255C241.109 188.819 242.306 188.09 243.743 187.723C245.451 187.292 247.211 187.037 248.951 186.755C250.691 186.473 252.505 186.223 254.271 185.962C257.878 185.457 261.49 184.994 265.081 184.366C268.664 183.794 272.207 182.996 275.689 181.977C278.881 181.014 282.153 179.823 284.707 177.61C290.208 172.822 290.41 164.842 289.734 158.176C289.638 157.229 289.527 156.292 289.41 155.351C289.41 155.298 289.479 155.282 289.484 155.351C289.92 159.112 290.426 162.895 290.053 166.688C289.814 169.823 288.78 172.846 287.048 175.471C285.186 178.131 282.43 179.865 279.456 181.068C276.179 182.336 272.797 183.314 269.348 183.988C262.214 185.478 254.941 186.116 247.77 187.34C246.882 187.494 245.998 187.654 245.11 187.824C244.312 187.939 243.529 188.14 242.775 188.425C241.141 189.154 240.678 190.739 240.492 192.383C239.811 198.368 238.795 225.633 238.806 226.586C238.806 226.671 238.673 226.665 238.673 226.586C238.455 216.52 239.391 200.087 240.072 192.383Z" fill="#484B51"/>
<path d="M242.387 204.463C242.424 201.803 242.498 202.984 242.557 200.351C242.61 197.866 242.557 195.334 243.041 192.903C243.238 191.913 243.413 190.604 244.472 190.152C245.034 189.932 245.612 189.754 246.201 189.62C246.823 189.455 247.451 189.296 248.084 189.157C250.994 188.535 253.936 188.136 256.889 187.742C256.942 187.742 256.969 187.811 256.889 187.822C254.394 188.306 251.899 188.796 249.441 189.359C248.201 189.641 246.962 189.934 245.717 190.269C245.211 190.408 244.53 190.509 244.179 190.924C243.859 191.428 243.654 191.996 243.578 192.589C243.009 194.993 243.046 197.504 242.988 199.957C242.919 202.505 242.855 201.255 242.78 203.803C242.7 206.655 242.626 209.522 242.429 212.374C242.425 212.387 242.417 212.399 242.406 212.407C242.395 212.415 242.382 212.419 242.368 212.419C242.354 212.419 242.341 212.415 242.33 212.407C242.319 212.399 242.311 212.387 242.307 212.374C242.28 209.735 242.349 207.096 242.387 204.463Z" fill="#484B51"/>
<path d="M219.363 228.387C220.05 228.232 226.343 228.142 227.727 228.126C230.504 228.099 239.234 228.126 240.803 228.302C240.84 228.302 240.84 228.376 240.803 228.381C239.415 228.541 233.829 228.653 232.445 228.658C229.663 228.658 220.124 228.658 219.369 228.509C219.355 228.506 219.343 228.498 219.335 228.488C219.326 228.477 219.321 228.464 219.32 228.45C219.32 228.436 219.324 228.423 219.331 228.411C219.339 228.4 219.35 228.391 219.363 228.387Z" fill="#484B51"/>
<path d="M266.182 161.649C261.195 162.249 256.266 163.262 251.446 164.676C246.588 166.037 241.837 167.752 237.231 169.81C234.645 170.97 232.145 172.268 229.66 173.635C229.613 173.635 229.66 173.736 229.708 173.709C234.182 171.396 238.803 169.379 243.54 167.671C248.241 165.955 253.053 164.558 257.942 163.49C260.697 162.889 263.469 162.426 266.246 161.963C266.422 161.947 266.374 161.633 266.182 161.649Z" fill="#262626"/>
<path d="M274.693 128.406C273.411 138.716 268.426 151.569 266.846 152.479C263.441 154.426 244.502 158.953 243.72 158.921C241.805 158.815 238.836 145.914 240.363 144.557C240.714 144.249 258.871 141.573 259.648 141.307C260.595 140.982 265.399 133.614 269.841 126.73C272.98 121.878 275.39 122.921 274.693 128.406Z" fill="#F1B4A7"/>
<path d="M245.344 142.171L248.094 158.924C248.094 158.924 262.107 155.418 267.134 152.997C269.832 151.694 274.316 134.691 275.035 128.993C275.748 123.397 273.63 120.093 269.779 125.934C266.145 131.446 259.671 139.995 259.192 140.261C258.713 140.527 245.344 142.171 245.344 142.171Z" fill="#565A62"/>
<path d="M251.009 149.648C250.821 148.509 250.63 147.371 250.435 146.232C250.238 145.104 250.084 143.945 249.807 142.833C249.807 142.785 249.706 142.785 249.711 142.833C249.775 143.939 249.967 145.057 250.11 146.158C250.254 147.259 250.429 148.493 250.6 149.658C250.929 151.967 251.355 154.255 251.818 156.542C251.818 156.596 251.908 156.574 251.903 156.542C251.658 154.228 251.376 151.935 251.009 149.648Z" fill="#262626"/>
<path opacity="0.1" d="M275.029 128.991C274.31 134.694 269.826 151.718 267.128 152.995C264.202 154.404 258.233 156.187 253.754 157.421L274.012 123.102C275.007 123.809 275.396 126.091 275.029 128.991Z" fill="black"/>
<path d="M293.312 162.638C293.232 162.718 262.775 160.713 262.499 160.356C262.485 159.443 262.528 158.53 262.626 157.622C262.626 157.622 260.669 154.871 262.094 150.759C265.073 142.066 271.016 124.691 272.787 122.871C274.915 120.632 278.475 120.11 280.959 121.776C286.173 125.271 292.812 148.673 294.605 154.228C295.493 156.967 293.413 158.547 293.009 159.782C293.165 160.727 293.267 161.681 293.312 162.638Z" fill="#565A62"/>
<path d="M263.272 158.102C264.283 158.102 271.784 158.692 273.742 158.82C277.7 159.064 281.19 159.283 285.148 159.511L288.462 159.692C289.617 159.751 290.761 159.889 291.915 159.953C291.924 159.956 291.933 159.962 291.938 159.97C291.944 159.979 291.947 159.988 291.947 159.998C291.947 160.008 291.944 160.018 291.938 160.026C291.933 160.034 291.924 160.04 291.915 160.043C290.904 160.043 289.888 160.075 288.877 160.043L285.978 159.942C283.999 159.873 282.483 159.777 280.504 159.671C276.546 159.463 264.416 158.394 263.278 158.229C263.192 158.192 263.187 158.102 263.272 158.102Z" fill="#262626"/>
<path d="M284.999 124.369C292.352 131.322 301.805 144.681 300.677 148.591C299.177 153.789 275.556 158.853 271.667 159.609C270.008 159.928 269.683 145.442 271.449 145.059C272.987 144.729 285.845 141.707 286.308 140.877C286.574 140.393 284.308 136.35 280.541 126.279C278.105 119.799 282.994 122.459 284.999 124.369Z" fill="#F1B4A7"/>
<path d="M276.545 146.007C276.545 146.007 275.673 145.922 271.135 144.72C267.996 143.89 259.819 143.869 254.425 151.231C252.361 154.056 253.435 156.738 256.106 154.184C257.984 152.391 259.128 150.992 259.904 150.572C259.904 150.572 259.372 154.514 261.053 156.089C262.523 157.467 264.089 158.738 265.74 159.892C266.019 159.637 266.282 159.366 266.528 159.078C267.247 159.642 268.112 159.99 269.021 160.084C269.93 160.178 270.847 160.014 271.667 159.61L276.545 146.007Z" fill="#F1B4A7"/>
<path d="M268.011 144.406C266.484 145.162 263.276 146.811 261.121 149.072C258.732 151.588 254.801 157.078 256.674 158.823C258.046 160.106 259.733 158.142 259.733 158.142C259.733 158.142 258.583 160.755 260.078 161.638C261.44 162.446 262.653 160.85 262.653 160.85C262.653 160.85 262.233 162.553 263.691 163.074C265.452 163.707 266.047 160.036 268.383 159.132C268.904 158.935 268.011 144.406 268.011 144.406Z" fill="#F1B4A7"/>
<path d="M264.201 151.156C262.036 152.951 260.47 155.364 259.711 158.072C259.711 158.141 259.738 158.189 259.764 158.131C260.965 155.645 262.462 153.314 264.222 151.188L264.201 151.156Z" fill="#262626"/>
<path d="M266.671 153.643C265.607 154.574 263.229 157.691 262.602 160.814C262.602 160.883 262.633 160.931 262.66 160.867C263.732 158.32 265.093 155.903 266.714 153.664C266.714 153.664 266.682 153.632 266.671 153.643Z" fill="#262626"/>
<path d="M271.289 144.61L278.503 159.463C278.503 159.463 299.416 153.808 301.145 149.195C302.592 145.322 292.479 131.639 288.941 127.915C281.823 120.388 278.237 120.228 280.142 126.186C282.349 133.134 285.845 140.268 285.547 140.678C285.249 141.088 271.289 144.61 271.289 144.61Z" fill="#565A62"/>
<path d="M277.981 151.391C277.449 150.284 276.917 149.183 276.385 148.087C275.853 146.991 275.321 145.864 274.73 144.816C274.724 144.807 274.715 144.801 274.704 144.798C274.694 144.796 274.683 144.797 274.673 144.801C274.663 144.805 274.655 144.813 274.65 144.822C274.645 144.831 274.643 144.842 274.645 144.853C275.055 145.959 275.582 147.039 276.06 148.114C276.539 149.189 277.092 150.396 277.619 151.535C278.651 153.79 279.747 155.988 280.912 158.179C280.939 158.233 281.008 158.179 280.987 158.131C280.013 155.86 279.045 153.609 277.981 151.391Z" fill="#262626"/>
<path d="M271.32 144.398C276.054 143.026 280.896 141.983 285.614 140.627C284.901 138.807 284.045 137.03 283.29 135.227C283.151 134.902 283.024 134.578 282.891 134.253C282.359 133.418 281.827 132.577 281.295 131.71C281.773 132.397 282.226 133.093 282.672 133.801C282.103 132.402 281.545 131.003 280.986 129.604C280.986 129.572 281.018 129.545 281.034 129.577C281.885 131.412 282.736 133.248 283.556 135.099C284.375 136.95 285.088 138.855 285.955 140.68C285.964 140.699 285.969 140.72 285.969 140.741C285.97 140.762 285.967 140.783 285.959 140.803C285.952 140.823 285.941 140.841 285.926 140.856C285.912 140.872 285.894 140.884 285.875 140.893C283.508 141.669 281.087 142.254 278.666 142.866C276.246 143.478 273.878 144.106 271.431 144.611C271.431 144.744 271.468 144.877 271.484 145.016C271.484 145.033 271.478 145.049 271.467 145.063C271.456 145.076 271.44 145.085 271.424 145.088C271.407 145.091 271.389 145.088 271.374 145.08C271.359 145.071 271.347 145.058 271.341 145.042L271.208 144.542C271.203 144.525 271.202 144.507 271.205 144.489C271.208 144.472 271.216 144.456 271.227 144.441C271.238 144.427 271.252 144.416 271.268 144.409C271.284 144.401 271.302 144.398 271.32 144.398Z" fill="#262626"/>
<path d="M277.887 158.233L278.536 159.441L278.467 159.409C282.622 158.1 286.771 156.749 290.83 155.18C292.865 154.416 294.858 153.544 296.799 152.567C298.273 151.886 299.615 150.95 300.763 149.801C301.134 149.404 301.371 148.899 301.438 148.359C301.422 148.917 301.222 149.454 300.869 149.886C296.986 154.547 284.505 158.042 278.499 159.521H278.451V159.478L277.919 158.223L277.887 158.233Z" fill="#262626"/>
<path d="M283.795 161.875H253.785V163.221H283.795V161.875Z" fill="#565A62"/>
<path d="M283.795 161.875H263.371V163.221H283.795V161.875Z" fill="#A6A6A6"/>
<path d="M263.933 163.224H240.009L235.875 143.359H259.799L263.933 163.224Z" fill="#A6A6A6"/>
<path d="M262.605 163.224H238.675L234.547 143.359H258.471L262.605 163.224Z" fill="#DBDBDB"/>
<path d="M250.098 153.316C250.124 153.509 250.108 153.705 250.051 153.891C249.994 154.077 249.898 154.248 249.768 154.393C249.639 154.539 249.479 154.654 249.301 154.732C249.123 154.809 248.93 154.847 248.736 154.843C248.314 154.839 247.909 154.681 247.595 154.4C247.281 154.12 247.079 153.734 247.028 153.316C247.002 153.123 247.018 152.927 247.075 152.74C247.132 152.554 247.229 152.382 247.359 152.237C247.489 152.092 247.649 151.977 247.828 151.899C248.007 151.822 248.2 151.785 248.395 151.789C248.816 151.793 249.221 151.95 249.535 152.231C249.848 152.512 250.048 152.898 250.098 153.316Z" fill="white"/>
<path d="M233.197 143.703C232.771 145.773 231.117 148.624 231.308 150.188C231.344 150.572 231.502 150.933 231.759 151.221C232.015 151.508 232.357 151.705 232.734 151.784C232.734 151.784 231.409 152.912 231.814 154.301C232.021 155.013 233.351 155.306 233.351 155.306C233.064 155.578 232.857 155.924 232.753 156.306C232.649 156.688 232.651 157.091 232.761 157.471C233.112 158.434 234.383 158.583 234.383 158.583C234.383 158.583 233.825 159.956 234.495 160.823C235.857 162.589 244.422 160.488 244.97 157.008C245.225 155.386 243.161 156.014 243.161 156.014C243.161 156.014 245.912 154.418 245.523 152.619C245.135 150.821 242.502 151.821 242.502 151.821C242.502 151.821 245.162 150.225 244.566 148.427C243.954 146.549 241.485 147.98 241.485 147.98C241.485 147.98 243.081 146.219 242.31 144.943C241.044 142.815 238.139 146.592 236.15 146.608L234.351 143.756L233.197 143.703Z" fill="#F1B4A7"/>
<path d="M232.134 146.82C232.363 144.82 229.543 143.096 229.474 141.171C229.399 138.543 232.809 140.303 234.326 143.772L235.028 146.672L232.134 146.82Z" fill="#F1B4A7"/>
<path d="M234.559 158.638C234.527 158.638 234.527 158.686 234.559 158.686C237.663 158.691 240.694 157.753 243.252 155.994C243.332 155.936 243.252 155.782 243.172 155.829C240.452 157.178 237.551 158.124 234.559 158.638Z" fill="#262626"/>
<path d="M233.286 155.358C233.249 155.358 233.259 155.417 233.286 155.417C236.708 155.391 240.007 154.139 242.585 151.89C242.67 151.81 242.67 151.65 242.585 151.735C240.75 153.177 236.1 154.911 233.286 155.358Z" fill="#262626"/>
<path d="M241.592 147.769C239.049 149.945 236.069 151.084 232.835 151.813C232.792 151.813 232.808 151.882 232.835 151.882C234.511 151.956 236.522 151.275 238.043 150.616C239.467 150.027 240.712 149.077 241.655 147.86C241.709 147.812 241.65 147.727 241.592 147.769Z" fill="#262626"/>
<path d="M273.721 127.515C275.658 127.866 279.201 124.509 280.376 122.073C280.456 121.908 280.116 120.205 279.807 118.12C279.621 116.854 279.445 115.46 279.382 114.141L271.316 116.54C271.871 118.143 272.228 119.808 272.38 121.498C272.386 121.676 272.375 121.854 272.348 122.03C272.348 122.057 272.348 122.089 272.348 122.121C272.21 123.147 271.848 127.169 273.721 127.515Z" fill="#F1B4A7"/>
<path d="M272.333 122.035C272.333 122.062 272.333 122.088 272.333 122.12C272.612 122.144 272.893 122.144 273.173 122.12C277.892 121.769 278.711 115.928 278.839 114.289L276.823 114.901L271.316 116.539C271.875 118.144 272.232 119.811 272.38 121.503C272.384 121.682 272.367 121.86 272.333 122.035Z" fill="#262626"/>
<path d="M281.954 107.788C282.076 110.815 278.475 118.529 276.006 119.811C272.431 121.673 267.627 120.683 266.313 116.619C265.042 112.687 269.915 102.718 272.57 101.659C276.485 100.116 281.778 103.308 281.954 107.788Z" fill="#F1B4A7"/>
<path d="M272.604 110.953C272.604 110.953 272.636 110.996 272.604 111.017C272.344 111.549 272.136 112.161 272.53 112.549C272.53 112.549 272.53 112.586 272.53 112.576C271.993 112.23 272.28 111.395 272.604 110.953Z" fill="#262626"/>
<path d="M273.322 110.631C274.189 110.95 273.476 112.663 272.673 112.36C271.869 112.057 272.593 110.36 273.322 110.631Z" fill="#262626"/>
<path d="M269.638 109.609C269.638 109.609 269.585 109.609 269.58 109.636C269.372 110.168 269.048 110.753 268.516 110.732C268.516 110.732 268.489 110.732 268.516 110.764C269.112 110.923 269.532 110.147 269.638 109.609Z" fill="#262626"/>
<path d="M269.373 108.864C268.549 108.444 267.777 110.125 268.538 110.513C269.299 110.901 270.086 109.215 269.373 108.864Z" fill="#262626"/>
<path d="M274.471 109.816C274.269 109.663 274.076 109.5 273.891 109.327C273.662 109.184 273.488 108.968 273.396 108.715C273.382 108.63 273.396 108.543 273.436 108.467C273.477 108.39 273.541 108.33 273.62 108.295C273.786 108.247 273.963 108.246 274.13 108.29C274.298 108.334 274.45 108.422 274.572 108.545C274.851 108.76 275.04 109.071 275.104 109.417C275.113 109.495 275.1 109.574 275.066 109.644C275.032 109.715 274.979 109.774 274.913 109.816C274.847 109.858 274.77 109.88 274.692 109.88C274.614 109.88 274.537 109.858 274.471 109.816Z" fill="#262626"/>
<path d="M269.337 107.147C269.585 107.198 269.835 107.234 270.087 107.253C270.347 107.326 270.623 107.313 270.874 107.216C270.947 107.169 271.003 107.099 271.033 107.018C271.063 106.936 271.065 106.847 271.039 106.764C270.961 106.61 270.844 106.48 270.699 106.386C270.554 106.293 270.387 106.24 270.215 106.232C269.868 106.161 269.508 106.222 269.204 106.402C269.138 106.447 269.087 106.51 269.056 106.584C269.025 106.658 269.016 106.739 269.03 106.817C269.044 106.896 269.08 106.969 269.135 107.027C269.189 107.086 269.26 107.127 269.337 107.147Z" fill="#262626"/>
<path d="M271.443 114.136C271.222 114.291 270.971 114.398 270.706 114.451C270.441 114.503 270.168 114.499 269.905 114.439C269.674 114.394 269.452 114.313 269.245 114.2C269.203 114.185 269.164 114.164 269.128 114.136L269.017 114.072C268.991 114.054 268.972 114.028 268.962 113.999C268.951 113.969 268.95 113.938 268.958 113.907C268.956 113.891 268.956 113.875 268.958 113.859V113.812C269.118 113.402 269.41 112.795 269.41 112.795C269.235 112.795 268.346 112.838 268.432 112.631C269.24 110.81 270.233 109.078 271.395 107.46C271.432 107.406 271.517 107.46 271.485 107.513C270.746 109.199 269.719 110.742 268.948 112.423C269.27 112.409 269.592 112.441 269.905 112.519C269.958 112.556 269.315 113.673 269.256 113.865C269.579 114.04 269.934 114.147 270.3 114.181C270.666 114.215 271.035 114.174 271.384 114.062C271.464 114.056 271.501 114.11 271.443 114.136Z" fill="#262626"/>
<path d="M278.275 111.348C278.173 109.625 279.796 107.231 279.2 106.305C277.913 104.31 273.62 106.305 271.22 105.661C268.821 105.017 268.523 103.336 269.454 101.565C270.385 99.7932 272.332 98.9633 275.045 99.2878C277.394 99.6457 279.544 100.814 281.121 102.591C281.121 102.591 280.786 101.49 281.089 101.261C281.392 101.033 282.275 102.24 282.52 102.719C282.683 103.126 282.773 103.558 282.786 103.996C283.156 104.004 283.524 104.064 283.877 104.177C284.382 104.356 284.809 104.706 285.084 105.166C285.084 105.315 284.212 105.193 283.611 105.06C283.611 105.06 284.318 106.832 283.951 108.082C283.584 109.332 280.009 114.764 279.519 114.7C278.897 114.62 278.322 112.045 278.275 111.348Z" fill="#262626"/>
<path d="M283.424 104.852C283.424 104.852 283.371 104.852 283.387 104.852C283.837 105.475 284.104 106.212 284.158 106.98C284.165 107.89 283.93 108.786 283.477 109.576C282.663 111.124 281.45 112.401 280.333 113.731C280.301 113.773 280.365 113.826 280.402 113.789C281.76 112.484 282.905 110.974 283.796 109.315C284.477 107.9 284.6 106.075 283.424 104.852Z" fill="#262626"/>
<path d="M279.864 101.546C279.05 100.82 278.136 100.215 277.151 99.7476C276.22 99.2703 275.214 98.9589 274.177 98.8273C272.379 98.6411 270.501 99.3061 269.612 100.955C269.145 101.804 269.011 102.795 269.235 103.738C269.235 103.75 269.24 103.762 269.249 103.771C269.258 103.78 269.27 103.785 269.282 103.785C269.295 103.785 269.307 103.78 269.316 103.771C269.325 103.762 269.33 103.75 269.33 103.738C269.172 102.884 269.294 102.001 269.677 101.222C270.06 100.443 270.685 99.8081 271.458 99.4124C273.203 98.5719 275.209 99.0188 276.895 99.7742C277.943 100.269 278.936 100.872 279.859 101.572C279.859 101.572 279.869 101.551 279.864 101.546Z" fill="#262626"/>
<path d="M278.498 113.948C278.498 113.948 281.057 111.857 282.057 112.842C283.058 113.826 280.616 117.215 279.078 117.337C278.883 117.366 278.683 117.355 278.492 117.306C278.301 117.256 278.122 117.168 277.965 117.047C277.809 116.926 277.678 116.775 277.581 116.603C277.485 116.431 277.424 116.241 277.402 116.044L278.498 113.948Z" fill="#F1B4A7"/>
<path d="M281.334 113.778C281.334 113.778 281.334 113.815 281.334 113.82C280.27 113.938 279.483 114.693 278.855 115.528C278.939 115.447 279.04 115.385 279.151 115.346C279.262 115.308 279.38 115.294 279.496 115.305C279.613 115.316 279.726 115.352 279.827 115.411C279.929 115.469 280.016 115.549 280.084 115.645C280.084 115.672 280.084 115.704 280.041 115.688C279.883 115.581 279.695 115.527 279.504 115.533C279.313 115.539 279.129 115.604 278.977 115.72C278.733 115.913 278.507 116.129 278.302 116.363C278.232 116.438 278.089 116.363 278.153 116.257C278.509 115.007 279.967 113.528 281.334 113.778Z" fill="#262626"/>
<path d="M272.181 123.304L273.042 127.081L280.256 119.75L280.868 121.878L273.782 130.337L272.92 127.528L271.148 129.267L271.313 124.996L272.181 123.304Z" fill="#EBEBEB"/>
<path d="M280.87 121.881C278.54 124.828 276.146 127.733 273.731 130.595L273.667 130.377L272.816 127.562L273.002 127.61L271.209 129.329L271.055 129.478C271.124 127.983 271.225 126.488 271.321 124.998C271.294 126.424 271.278 127.85 271.236 129.254L271.092 129.19L272.848 127.435L272.975 127.307L273.028 127.477L273.901 130.281L273.688 130.238C276.05 127.419 278.428 124.61 280.87 121.859V121.881Z" fill="#262626"/>
<path d="M128.921 249.159C127.703 249.552 92.9263 249.1 91.6123 248.243C91.1069 247.924 90.8781 242.854 90.777 236.72V236.524C90.7504 235.263 90.7345 233.959 90.7345 232.64C90.7345 232.459 90.7345 232.278 90.7345 232.108C90.6813 223.25 90.8249 214.062 90.8249 214.062L114.089 214.297L113.387 232.172L113.36 232.879L113.222 236.603V236.986C113.222 236.986 126.458 243.11 127.804 244.206C129.15 245.302 130.14 248.77 128.921 249.159Z" fill="#F1B4A7"/>
<path d="M128.921 249.16C127.703 249.554 92.9262 249.101 91.6122 248.245C91.1068 247.926 90.878 242.856 90.7769 236.722V236.525C90.7503 235.264 90.7344 233.961 90.7344 232.641C90.7344 232.46 90.7344 232.28 90.7344 232.109L113.387 232.173L113.36 232.881L113.222 236.605V236.988C113.222 236.988 126.458 243.111 127.804 244.207C129.15 245.303 130.14 248.772 128.921 249.16Z" fill="#EBEBEB"/>
<path d="M128.92 249.158C128.165 249.403 114.695 249.323 104.145 249.025C97.5589 248.845 92.1166 248.573 91.6112 248.243C91.1058 247.914 90.8823 242.998 90.7812 236.976C90.7812 236.891 90.7812 236.805 90.7812 236.72C90.7812 236.635 90.7812 236.587 90.7812 236.523L113.221 236.566V236.949C113.221 236.949 126.457 243.072 127.798 244.168C129.138 245.264 130.139 248.77 128.92 249.158Z" fill="#A0A4AB"/>
<path d="M128.54 247.805C122.688 247.581 99.025 247.246 93.2156 247.475C93.1677 247.475 93.1677 247.512 93.2156 247.512C99.0197 247.858 122.678 248.002 128.54 247.901C128.663 247.895 128.668 247.805 128.54 247.805Z" fill="#262626"/>
<path d="M115.717 236.66C113.414 236.203 110.589 236.516 108.801 238.139C108.732 238.203 108.801 238.299 108.897 238.277C111.116 237.591 113.403 237.147 115.717 236.953C115.751 236.946 115.782 236.928 115.804 236.901C115.826 236.875 115.838 236.841 115.838 236.806C115.838 236.772 115.826 236.738 115.804 236.711C115.782 236.685 115.751 236.667 115.717 236.66Z" fill="#262626"/>
<path d="M117.366 237.686C115.062 237.223 112.237 237.542 110.45 239.165C110.381 239.223 110.45 239.324 110.551 239.298C112.764 238.617 115.043 238.174 117.35 237.978C117.384 237.974 117.416 237.958 117.44 237.932C117.464 237.907 117.478 237.874 117.48 237.839C117.482 237.804 117.471 237.77 117.45 237.742C117.43 237.714 117.4 237.694 117.366 237.686Z" fill="#262626"/>
<path d="M119.014 238.709C116.716 238.247 113.886 238.566 112.098 240.183C112.029 240.247 112.098 240.343 112.194 240.321C114.408 239.638 116.69 239.194 118.998 238.997C119.036 238.999 119.074 238.986 119.102 238.96C119.131 238.935 119.148 238.899 119.15 238.861C119.152 238.823 119.139 238.785 119.114 238.757C119.088 238.729 119.052 238.711 119.014 238.709Z" fill="#262626"/>
<path d="M118.776 231.673C117.887 230.412 116.19 230.95 115.217 231.748C113.571 233.147 112.321 234.954 111.594 236.988C111.59 236.997 111.589 237.006 111.59 237.015C111.591 237.025 111.594 237.034 111.6 237.042C111.605 237.049 111.612 237.056 111.62 237.06C111.628 237.065 111.638 237.067 111.647 237.068C111.647 237.243 111.807 237.435 112.009 237.36C113.924 236.679 116.052 236.19 117.701 234.945C118.664 234.216 119.616 232.86 118.776 231.673ZM114.701 235.738C113.764 236.094 112.823 236.403 111.902 236.802C112.576 235.761 113.304 234.755 114.084 233.791C114.468 233.328 114.882 232.89 115.323 232.482C116.015 231.87 118.749 230.572 118.313 233.099C118.068 234.487 115.813 235.312 114.701 235.738Z" fill="#262626"/>
<path d="M105.741 236.304C107.63 237.139 109.816 237.129 111.838 237.368C112.045 237.395 112.152 237.176 112.12 237.001C112.129 236.998 112.137 236.994 112.144 236.987C112.151 236.981 112.156 236.973 112.159 236.964C112.163 236.955 112.163 236.946 112.162 236.936C112.161 236.927 112.157 236.918 112.152 236.91C110.974 235.103 109.344 233.635 107.422 232.654C106.289 232.122 104.518 231.968 103.938 233.399C103.358 234.83 104.635 235.814 105.741 236.304ZM104.72 234.644C103.709 232.287 106.672 232.92 107.486 233.357C108.01 233.649 108.513 233.978 108.992 234.341C110.003 235.08 110.886 235.937 111.811 236.772C110.827 236.602 109.832 236.517 108.843 236.384C107.662 236.229 105.278 235.947 104.72 234.644Z" fill="#262626"/>
<path d="M104.145 249.026C97.5589 248.845 92.1166 248.574 91.6112 248.244C91.1058 247.914 90.8823 242.999 90.7812 236.977C93.4838 239.387 100.192 245.372 104.145 249.026Z" fill="#262626"/>
<path d="M83.6797 113.875C83.6797 113.875 88.9039 172.64 89.7551 177.124C89.952 178.146 90.0743 183.7 90.1541 190.839C90.335 206.416 90.2233 234.511 90.2233 234.511H114.738C114.738 234.511 114.014 185.833 112.929 176.874C111.844 167.916 104.906 113.875 104.906 113.875H83.6797Z" fill="#565A62"/>
<path d="M113.63 230.242C109.805 230.162 110.906 230.131 107.081 230.099C105.208 230.099 92.9032 229.971 91.1529 230.258C91.1157 230.258 91.1157 230.333 91.1529 230.338C92.9032 230.631 105.208 230.519 107.081 230.503C110.906 230.466 109.805 230.434 113.63 230.354C113.639 230.357 113.648 230.357 113.657 230.356C113.666 230.354 113.675 230.351 113.682 230.345C113.689 230.34 113.695 230.333 113.7 230.325C113.704 230.316 113.706 230.307 113.706 230.298C113.706 230.289 113.704 230.28 113.7 230.272C113.695 230.263 113.689 230.256 113.682 230.251C113.675 230.246 113.666 230.242 113.657 230.24C113.648 230.239 113.639 230.239 113.63 230.242Z" fill="#262626"/>
<path d="M94.8838 202.411L94.8041 191.771C94.7775 188.324 94.804 184.855 94.6178 181.434C94.288 174.471 92.8729 167.602 91.8674 160.734C90.8619 153.866 90.0267 146.902 89.2659 139.986C88.4147 132.219 87.6699 124.441 86.8613 116.669C86.8613 116.621 86.7762 116.621 86.7815 116.669C87.9359 130.543 89.2234 144.418 91.1439 158.213C91.6227 161.646 92.1458 165.07 92.7133 168.486C93.2825 171.949 93.8518 175.402 94.1284 178.907C94.405 182.413 94.437 185.77 94.4742 189.202C94.5061 192.748 94.5398 196.295 94.5753 199.842C94.6551 207.731 94.7296 219.882 94.8094 227.777C94.8094 227.926 95.0434 227.921 95.0434 227.777C94.969 220.744 94.937 209.444 94.8838 202.411Z" fill="#262626"/>
<path d="M78.5117 113.873C78.5117 113.873 88.9017 172.638 89.7529 177.122C89.9497 178.144 90.0721 183.698 90.1519 190.837L101.856 113.852L78.5117 113.873Z" fill="#262626"/>
<path d="M100.451 251.232C99.206 251.535 64.5462 248.625 63.3013 247.673C62.8225 247.321 62.9502 242.246 63.3013 236.117C63.3013 236.054 63.3013 235.99 63.3013 235.926C63.3652 234.665 63.445 233.362 63.5354 232.048L63.5673 231.516C64.1472 222.679 64.9346 213.523 64.9346 213.523L88.1244 215.407L86.1614 233.181L86.0816 233.888L85.6826 237.565L85.64 237.948C85.64 237.948 98.408 244.997 99.6742 246.183C100.94 247.369 101.696 250.944 100.451 251.232Z" fill="#F1B4A7"/>
<path d="M100.451 251.232C99.206 251.535 64.5462 248.625 63.3013 247.672C62.8225 247.321 62.9502 242.246 63.3013 236.117C63.3013 236.054 63.3013 235.99 63.3013 235.926C63.3652 234.665 63.445 233.362 63.5354 232.048L63.5673 231.516L86.1614 233.181L86.0816 233.888L85.6826 237.564L85.64 237.948C85.64 237.948 98.408 244.996 99.6742 246.183C100.94 247.369 101.696 250.944 100.451 251.232Z" fill="#EBEBEB"/>
<path d="M100.451 251.228C99.206 251.531 64.5462 248.621 63.3013 247.668C62.8225 247.317 62.9502 242.242 63.3013 236.113C63.3013 236.05 63.3013 235.986 63.3013 235.922L85.6826 237.55L85.64 237.933C85.64 237.933 98.408 244.982 99.6742 246.168C100.94 247.355 101.696 250.94 100.451 251.228Z" fill="#A0A4AB"/>
<path d="M100.176 249.877C94.3242 249.244 70.7672 247.217 64.9578 247.047C64.9099 247.047 64.9099 247.079 64.9578 247.084C70.7247 247.84 94.3135 249.659 100.171 249.973C100.288 249.952 100.288 249.877 100.176 249.877Z" fill="#262626"/>
<path d="M88.1645 237.831C85.8982 237.208 83.0573 237.299 81.1634 238.815C81.0889 238.873 81.1634 238.975 81.2485 238.959C83.505 238.434 85.811 238.152 88.1273 238.118C88.1605 238.114 88.1916 238.1 88.2156 238.076C88.2395 238.053 88.2548 238.022 88.2591 237.989C88.2634 237.956 88.2564 237.922 88.2393 237.894C88.2221 237.865 88.1958 237.843 88.1645 237.831Z" fill="#262626"/>
<path d="M89.7387 238.972C87.4724 238.35 84.6315 238.467 82.7376 239.957C82.6631 240.015 82.7376 240.116 82.8227 240.1C85.0791 239.573 87.3848 239.286 89.7015 239.244C89.7296 239.236 89.7548 239.22 89.7741 239.198C89.7933 239.176 89.8056 239.149 89.8096 239.12C89.8136 239.091 89.809 239.062 89.7964 239.036C89.7838 239.009 89.7637 238.987 89.7387 238.972Z" fill="#262626"/>
<path d="M91.3144 240.105C89.0534 239.483 86.2072 239.6 84.3133 241.089C84.2441 241.148 84.3133 241.254 84.4037 241.233C86.6603 240.71 88.9663 240.43 91.2825 240.398C91.318 240.396 91.3517 240.382 91.3776 240.358C91.4034 240.333 91.4198 240.3 91.4236 240.265C91.4275 240.23 91.4186 240.194 91.3986 240.165C91.3785 240.136 91.3487 240.115 91.3144 240.105Z" fill="#262626"/>
<path d="M91.5719 233.06C90.7739 231.74 89.0449 232.161 88.0129 232.884C86.2747 234.164 84.9026 235.877 84.0335 237.853C84.0292 237.862 84.0271 237.872 84.0274 237.882C84.0276 237.892 84.0301 237.901 84.0348 237.91C84.0394 237.919 84.046 237.927 84.0541 237.932C84.0622 237.938 84.0716 237.942 84.0814 237.943C84.0814 238.119 84.2144 238.316 84.4165 238.257C86.3743 237.725 88.5342 237.38 90.2685 236.252C91.2793 235.592 92.3061 234.31 91.5719 233.06ZM87.2149 236.826C86.2573 237.119 85.2943 237.358 84.3474 237.688C85.0971 236.698 85.8961 235.746 86.7414 234.837C87.1531 234.401 87.5958 233.995 88.0661 233.624C88.8055 233.06 91.6251 231.958 91.008 234.448C90.6675 235.821 88.3533 236.48 87.2149 236.826Z" fill="#262626"/>
<path d="M78.2418 236.766C80.0666 237.734 82.2478 237.878 84.2481 238.239C84.4556 238.277 84.5779 238.069 84.5567 237.893C84.5655 237.891 84.5737 237.886 84.5806 237.88C84.5874 237.873 84.5928 237.866 84.5964 237.857C84.5999 237.848 84.6015 237.839 84.6011 237.83C84.6007 237.82 84.5982 237.811 84.5939 237.803C83.5487 235.913 82.0262 234.33 80.1783 233.212C79.1143 232.584 77.3321 232.323 76.6511 233.712C76.0127 235.021 77.1725 236.202 78.2418 236.766ZM77.3427 235.042C76.5022 232.616 79.4069 233.446 80.1943 233.951C80.6949 234.283 81.173 234.647 81.6253 235.042C82.5567 235.87 83.4445 236.745 84.2853 237.665C83.3118 237.425 82.3329 237.271 81.354 237.069C80.1677 236.824 77.8056 236.377 77.3427 235.042Z" fill="#262626"/>
<path d="M86.679 235.837L62.207 234.773C62.207 234.773 68.8943 181.041 69.0166 177.727C69.3358 169.156 75.0336 113.828 75.0336 113.828H104.948C104.948 113.828 103.059 126.596 99.8301 134.698C97.6612 135.456 95.5669 136.413 93.5738 137.555C93.5738 137.555 90.7701 174.146 90.6637 178.706C90.4403 187.755 86.679 235.837 86.679 235.837Z" fill="#565A62"/>
<path d="M86.0247 231.344C82.205 231.105 83.3062 231.12 79.4865 230.918C77.6138 230.823 65.3299 230.195 63.569 230.413C63.5318 230.413 63.5265 230.482 63.569 230.487C65.3087 230.854 77.6032 231.264 79.4758 231.328C83.2956 231.45 82.1997 231.376 86.0247 231.456C86.0335 231.458 86.0428 231.459 86.0518 231.458C86.0609 231.456 86.0695 231.452 86.0768 231.447C86.0842 231.441 86.0903 231.434 86.0944 231.426C86.0985 231.418 86.1007 231.409 86.1007 231.4C86.1007 231.391 86.0985 231.382 86.0944 231.373C86.0903 231.365 86.0842 231.358 86.0768 231.353C86.0695 231.347 86.0609 231.344 86.0518 231.342C86.0428 231.341 86.0335 231.341 86.0247 231.344Z" fill="#262626"/>
<path d="M77.2057 117.136C76.0938 131.07 74.9553 145.003 73.6786 158.925C72.4018 172.847 70.9068 186.844 69.0821 200.751C68.0659 208.523 66.9541 219.467 65.7305 227.213C65.7305 227.266 65.7996 227.287 65.8103 227.213C68.2787 213.455 70.0663 196.383 71.6623 182.493C73.2583 168.602 74.4659 154.68 75.5937 140.757C76.2321 132.878 76.8014 124.994 77.4079 117.11C77.4132 117.019 77.2163 117.025 77.2057 117.136Z" fill="#262626"/>
<path d="M100.877 134.171C98.3409 135.093 95.8897 136.234 93.5514 137.581C93.5317 137.59 93.5164 137.607 93.5089 137.627C93.5014 137.647 93.5024 137.67 93.5115 137.69C93.5207 137.71 93.5374 137.725 93.5578 137.732C93.5783 137.74 93.6009 137.739 93.6206 137.73C96.0838 136.666 98.6054 135.66 101.01 134.463C101.049 134.446 101.079 134.413 101.094 134.373C101.109 134.333 101.108 134.289 101.09 134.25C101.072 134.212 101.04 134.181 101 134.166C100.96 134.152 100.916 134.153 100.877 134.171Z" fill="#262626"/>
<path d="M101.662 117.236C101.662 117.151 101.508 117.13 101.508 117.236C101.51 119.99 101.371 122.742 101.093 125.482C100.981 126.754 99.9541 133.781 97.7516 133.265C97.3846 133.18 97.2196 132.818 97.1345 132.26C97.148 131.541 97.2462 130.827 97.4271 130.132C97.6718 128.663 97.8687 127.19 97.9964 125.7C98.2536 122.935 98.2233 120.15 97.9059 117.39C97.9059 117.372 97.8986 117.354 97.8857 117.341C97.8727 117.329 97.8551 117.321 97.8368 117.321C97.8184 117.321 97.8008 117.329 97.7879 117.341C97.7749 117.354 97.7676 117.372 97.7676 117.39C97.8302 121.214 97.6062 125.038 97.0973 128.828C96.826 130.658 95.9056 133.409 97.8155 133.691C99.7254 133.973 101.007 129.366 101.258 128.11C101.865 124.519 102.001 120.863 101.662 117.236Z" fill="#262626"/>
<path d="M97.808 133.445C97.6137 133.92 97.4485 134.407 97.3132 134.903C97.171 135.285 97.1007 135.691 97.1057 136.1C97.1088 136.116 97.1168 136.132 97.1286 136.144C97.1405 136.156 97.1556 136.164 97.1722 136.167C97.1887 136.171 97.2059 136.169 97.2215 136.163C97.2372 136.156 97.2506 136.146 97.26 136.132C97.4944 135.772 97.6737 135.379 97.792 134.966C97.9622 134.514 98.1378 134.067 98.2921 133.615C98.3033 133.583 98.3081 133.55 98.3062 133.516C98.3044 133.482 98.2959 133.449 98.2814 133.419C98.2668 133.389 98.2464 133.361 98.2213 133.339C98.1962 133.316 98.1669 133.299 98.1351 133.288C98.1034 133.277 98.0697 133.272 98.036 133.274C98.0024 133.276 97.9694 133.284 97.9391 133.299C97.9087 133.313 97.8815 133.334 97.859 133.359C97.8365 133.384 97.8191 133.413 97.808 133.445Z" fill="#262626"/>
<path d="M97.0466 86.1349C99.8342 91.1676 114.017 106.319 120.588 106.798C124.87 107.106 140.059 101.313 143.495 99.1529C147.517 96.6259 142.894 86.3158 140.133 86.7786C136.691 87.3478 124.407 92.8168 121.247 93.1626C119.433 93.3648 109.671 86.3051 100.59 79.7296C97.1583 77.2452 95.1526 82.7035 97.0466 86.1349Z" fill="#F1B4A7"/>
<path d="M138.241 83.8946C140.369 83.1711 142.726 82.1656 145.072 82.2295C147.418 82.2933 149.328 85.4215 149.328 86.2939C149.328 87.1664 148.386 92.6779 146.046 92.6779C143.705 92.6779 145.152 88.4219 145.067 87.9378C144.982 87.4537 144.902 86.8259 144.46 86.8738C144.019 86.9217 136.246 90.518 136.246 90.518L138.241 83.8946Z" fill="#F1B4A7"/>
<path d="M138.389 84.2277C138.522 84.2277 144.821 81.8124 147.167 81.8762C149.513 81.9401 151.423 85.0682 151.423 85.9407C151.423 86.8132 150.481 92.3247 148.135 92.3247C145.789 92.3247 147.242 88.0687 147.162 87.5793C147.082 87.0898 146.992 86.4727 146.55 86.5153C146.108 86.5578 138.336 90.1542 138.336 90.1542L138.389 84.2277Z" fill="#F1B4A7"/>
<path d="M147.343 92.0161C147.097 91.5946 146.967 91.1156 146.965 90.6276C146.92 90.1273 146.953 89.6231 147.061 89.1326C147.195 88.7122 147.295 88.2817 147.359 87.8452C147.36 87.4122 147.252 86.986 147.045 86.6056C146.864 86.2758 146.513 86.3822 146.226 86.4833C145.788 86.6479 145.36 86.838 144.944 87.0525C144.492 87.2706 144.05 87.4994 143.603 87.7228C143.133 87.94 142.677 88.1852 142.236 88.457C142.204 88.457 142.236 88.5368 142.263 88.5208C142.669 88.3645 143.067 88.1869 143.454 87.9888C143.906 87.7814 144.353 87.5792 144.806 87.3877C145.258 87.1962 145.635 86.9993 146.061 86.8184C146.21 86.7599 146.508 86.6003 146.678 86.6429C146.848 86.6854 146.944 87.1217 146.981 87.2653C147.077 87.6871 147.045 88.1276 146.891 88.5315C146.764 88.9493 146.678 89.3788 146.636 89.8136C146.589 90.2232 146.618 90.6379 146.721 91.0372C146.856 91.3963 147.035 91.7376 147.253 92.0533C147.301 92.1065 147.375 92.0586 147.343 92.0161Z" fill="#262626"/>
<path d="M130.898 90.3154C130.898 90.3154 137.447 84.4634 138.809 83.293C141.544 80.9575 153.008 76.377 154.604 76.2386C156.2 76.1003 156.732 79.3508 148.96 82.6758C144.853 84.4261 144.108 86.7616 144.172 88.0597C144.236 89.3578 145.454 91.7837 147.64 91.7464C149.827 91.7092 151.263 88.5544 153.274 88.198C155.285 87.8416 153.923 91.523 152.492 93.635C150.987 95.6743 148.934 97.2443 146.571 98.1624C144.683 98.854 138.82 101.317 138.82 101.317L130.898 90.3154Z" fill="#F1B4A7"/>
<path d="M150.361 90.2355C149.536 90.8633 148.595 91.6772 147.515 91.7092C146.435 91.7411 145.679 91.0122 145.169 90.1132C144.609 89.2118 144.419 88.1296 144.637 87.0914C144.899 86.1509 145.425 85.3052 146.153 84.6548C147.045 83.8676 148.047 83.2136 149.127 82.713C149.175 82.713 149.127 82.6226 149.084 82.6439C148.073 83.0854 144.94 84.3356 144.296 87.0861C144.091 88.1492 144.298 89.2507 144.876 90.1663C145.355 91.0388 146.052 91.8847 147.105 91.9805C148.393 92.0922 149.515 91.0548 150.446 90.2834C150.467 90.2302 150.404 90.2036 150.361 90.2355Z" fill="#262626"/>
<path d="M132.765 104.686C132.765 104.686 123.349 109.623 118.04 107.043C115.38 105.761 111.289 102.574 107.32 98.9089L107.128 98.728C103.16 95.036 99.3825 90.8757 97.4194 87.6518C95.0626 83.8001 95.3552 80.5975 97.047 79.3686C97.3888 79.1309 97.7755 78.9654 98.1835 78.8822C98.5914 78.7989 99.0121 78.7997 99.4197 78.8844C99.6803 78.9275 99.9367 78.9934 100.186 79.0813C101.106 79.4127 101.957 79.9105 102.697 80.5496C108.065 84.9812 119.088 92.6154 120.535 92.6898C121.982 92.7643 126.584 90.5086 126.584 90.5086L132.765 104.686Z" fill="#A0A4AB"/>
<path d="M129.755 105.013C129.458 104.518 129.255 103.949 129.005 103.444C128.755 102.938 128.532 102.38 128.303 101.848C127.849 100.784 127.404 99.6984 126.968 98.5919C126.532 97.4853 126.099 96.3965 125.67 95.3254C125.233 94.2242 124.733 93.1176 124.388 91.9844C124.387 91.9755 124.389 91.9665 124.393 91.9587C124.398 91.951 124.405 91.9449 124.413 91.9413C124.421 91.9378 124.431 91.937 124.439 91.939C124.448 91.941 124.456 91.9457 124.462 91.9525C124.994 93.0165 125.441 94.139 125.909 95.235L127.266 98.427C127.713 99.491 128.159 100.555 128.585 101.619C128.808 102.151 129.027 102.726 129.229 103.289C129.431 103.853 129.676 104.407 129.819 104.981C129.83 105.018 129.777 105.056 129.755 105.013ZM100.198 79.1047C99.9484 79.0168 99.6921 78.951 99.4314 78.9079C99.0238 78.8231 98.6032 78.8224 98.1952 78.9056C97.7873 78.9888 97.4006 79.1543 97.0587 79.392C95.3669 80.6209 95.0743 83.8236 97.4311 87.6752C99.3942 90.8992 103.171 95.0594 107.14 98.7515C104.661 92.2185 101.496 82.9032 100.198 79.1047Z" fill="#262626"/>
<path d="M107.146 120.327C106.572 120.896 98.4426 121.561 90.1221 122.024C86.9726 122.2 83.7913 122.343 80.993 122.439C75.8858 122.62 73.0928 122.646 72.9225 122.439C72.4597 121.817 77.8382 99.031 81.6792 90.519C84.1211 85.1245 86.0895 82.3475 87.7334 80.7515C88.7282 79.7886 89.0687 79.2566 89.8614 78.831C90.2817 78.6075 90.6807 78.416 91.0584 78.2032C92.9736 77.1392 98.4745 77.751 99.3523 78.15C100.347 78.5969 103.289 83.5498 104.06 87.6622C104.832 91.7745 107.646 119.827 107.146 120.327Z" fill="#A0A4AB"/>
<path d="M90.1377 122.021C86.9883 122.197 83.8069 122.34 81.0086 122.436C75.9014 122.617 73.1084 122.644 72.9381 122.436C72.4753 121.814 77.8538 99.0282 81.6949 90.5162C84.1367 85.1217 86.1051 82.3446 87.749 80.7486C88.7439 79.7857 89.0843 79.2537 89.877 78.8281L90.1377 122.021ZM100.868 80.057C100.868 79.9453 100.783 79.924 100.772 80.057C100.661 81.4668 100.517 83.1852 99.5754 84.0896C98.3518 85.2653 96.3834 84.4886 95.1119 83.7864C93.0956 82.7224 91.6167 80.9029 90.4356 78.9984C90.4272 78.9836 90.4131 78.9727 90.3967 78.9682C90.3802 78.9637 90.3627 78.966 90.3478 78.9744C90.333 78.9829 90.3222 78.9969 90.3177 79.0134C90.3132 79.0298 90.3154 79.0474 90.3239 79.0622C91.6539 81.6264 93.8457 84.0311 96.7079 84.8344C99.9531 85.6909 101.161 83.0788 100.868 80.057Z" fill="#565A62"/>
<path d="M105.727 123.42L124.448 126.144L131.837 100.156L113.111 97.4375L105.727 123.42Z" fill="#A6A6A6"/>
<path d="M106.641 123.553L125.367 126.277L132.757 100.289L114.03 97.5703L106.641 123.553Z" fill="#DBDBDB"/>
<path d="M122.326 111.119C122.205 111.605 121.91 112.03 121.496 112.313C121.082 112.595 120.578 112.716 120.081 112.651C119.847 112.622 119.622 112.544 119.421 112.421C119.22 112.298 119.047 112.134 118.915 111.939C118.783 111.744 118.693 111.523 118.653 111.291C118.613 111.058 118.623 110.82 118.682 110.592C118.804 110.106 119.1 109.681 119.514 109.398C119.927 109.115 120.43 108.993 120.927 109.055C121.161 109.085 121.386 109.165 121.586 109.288C121.787 109.412 121.959 109.577 122.092 109.772C122.224 109.967 122.313 110.188 122.354 110.42C122.394 110.652 122.385 110.891 122.326 111.119Z" fill="white"/>
<path d="M86.9885 81.3567C81.5195 88.8313 69.7783 108.079 73.3054 111.957C79.0989 118.341 93.048 123.741 97.3891 124.922C99.2617 125.454 105.539 111.723 103.773 110.654C101.645 109.372 87.6375 105.206 87.6747 103.94C87.7013 103.217 89.4782 96.6996 90.7603 88.9431C92.2127 79.9469 88.8398 78.7925 86.9885 81.3567Z" fill="#F1B4A7"/>
<path d="M96.9358 109.875C96.9358 109.875 102.559 108.072 106.294 107.066C108.379 106.502 112.039 105.859 113.742 106.151C116.311 106.582 126.797 110.024 126.015 112.583C125.307 114.897 116.678 110.796 116.678 110.796C116.678 110.796 125.754 114.168 124.392 116.802C123.03 119.435 113.891 113.503 113.891 113.503C113.891 113.503 123.137 117.174 121.301 119.664C119.918 121.547 111.342 116.642 111.342 116.642C111.342 116.642 119.264 119.834 117.923 121.85C116.439 124.064 108.241 120.031 108.241 120.031C103.985 124.537 100.096 124.936 97.3028 124.894C96.6432 124.862 96.9358 109.875 96.9358 109.875Z" fill="#F1B4A7"/>
<path d="M113.632 109.43C114.696 109.791 115.808 110.143 116.856 110.595C117.904 111.047 118.931 111.536 119.925 112.084C121.246 112.772 122.481 113.611 123.607 114.585C121.479 112.989 117.755 111.329 116.723 110.861C115.691 110.393 114.659 109.908 113.616 109.456C113.589 109.456 113.589 109.43 113.632 109.43Z" fill="#262626"/>
<path d="M111.934 113.156C113.291 113.688 114.658 114.135 115.998 114.71C117.339 115.284 118.541 115.944 119.829 116.609C119.925 116.657 119.866 116.694 119.765 116.646C118.451 116.034 117.19 115.582 115.871 114.976C114.551 114.369 113.253 113.731 111.918 113.188L111.934 113.156Z" fill="#262626"/>
<path d="M109.897 116.117C111.999 116.861 114.02 117.816 115.929 118.969C116.025 119.027 115.929 119.064 115.839 119.017C113.855 118.027 112.301 117.24 109.87 116.192C109.864 116.186 109.859 116.179 109.857 116.17C109.855 116.162 109.855 116.153 109.858 116.145C109.861 116.137 109.866 116.13 109.873 116.125C109.88 116.12 109.888 116.117 109.897 116.117Z" fill="#262626"/>
<path d="M95.3719 107.082L88.6208 122.765C88.6208 122.765 73.3364 115.913 72.1288 110.385C70.9212 104.858 84.0935 84.9239 86.6152 81.6574C87.3281 80.737 89.2752 78.6303 90.27 78.8431C91.3766 79.0825 91.334 80.7051 91.334 84.4557C91.3819 89.4512 87.8281 103.283 88.142 103.836C88.4559 104.39 95.3719 107.082 95.3719 107.082Z" fill="#A0A4AB"/>
<path d="M86.8527 119.704C87.007 119.146 87.2624 118.64 87.4699 118.082C87.6774 117.523 87.8955 117.018 88.1242 116.486C88.5871 115.422 89.0659 114.358 89.55 113.294C90.0341 112.23 90.5182 111.166 91.0077 110.102C91.4971 109.038 91.9546 107.899 92.5292 106.862C92.5341 106.851 92.5431 106.843 92.554 106.839C92.565 106.835 92.5771 106.836 92.5877 106.841C92.5983 106.846 92.6065 106.855 92.6105 106.866C92.6145 106.877 92.6139 106.889 92.609 106.899C92.2313 108.027 91.7046 109.118 91.2417 110.208L89.8851 113.4C89.4329 114.464 88.9754 115.528 88.502 116.56C88.2519 117.092 88.0072 117.624 87.7359 118.156C87.4646 118.688 87.2464 119.252 86.9272 119.752C86.9059 119.763 86.8421 119.752 86.8527 119.704ZM95.3115 107.075C94.7795 106.772 90.0926 104.324 88.2838 103.883C88.2306 103.883 88.204 103.925 88.2519 103.957C89.965 105.16 94.7264 107.006 95.285 107.149C95.3328 107.165 95.3435 107.096 95.3115 107.075Z" fill="#262626"/>
<path d="M98.3992 82.8616C96.4787 83.4362 92.9675 80.6591 91.5098 78.329C91.4087 78.1694 91.563 76.4138 91.6428 74.2751C91.6907 72.9771 91.7066 71.5247 91.6428 70.2053C91.6428 69.934 92.5791 70.3756 92.5791 70.3756L94.3134 70.6895L100.054 71.7535C99.6766 73.4341 99.5069 75.1547 99.5483 76.8766C99.5639 77.0561 99.5941 77.2341 99.6388 77.4086C99.6423 77.4369 99.6423 77.4655 99.6388 77.4937C99.8728 78.5045 100.251 82.2977 98.3992 82.8616Z" fill="#F1B4A7"/>
<path d="M99.6286 77.4038C99.6321 77.4321 99.6321 77.4607 99.6286 77.489C99.3499 77.5448 99.0669 77.5769 98.7827 77.5847C93.1914 77.7922 92.0742 70.7326 92.0742 70.7326L94.2873 70.6953L100.028 71.7593C99.6505 73.44 99.4808 75.1605 99.5222 76.8825C99.5436 77.0588 99.5792 77.2332 99.6286 77.4038Z" fill="#262626"/>
<path d="M101.18 55.5859C101.18 55.5859 103.728 56.8681 104.015 59.5759C104.303 62.2838 103.483 65.0343 103.244 65.1566C103.004 65.279 101.18 55.5859 101.18 55.5859Z" fill="#262626"/>
<path d="M90.0478 60.2413C89.2339 63.2099 91.0267 71.674 93.176 73.5094C96.2882 76.1694 101.268 76.2971 103.502 72.5837C105.662 68.9821 103.13 57.991 100.741 56.3365C97.2245 53.8946 91.2448 55.8523 90.0478 60.2413Z" fill="#F1B4A7"/>
<path d="M98.3295 65.2109C98.3295 65.2109 98.2869 65.2482 98.2976 65.2695C98.4306 65.8387 98.4891 66.509 98.0156 66.8069C98.0156 66.8069 98.0156 66.8442 98.0156 66.8335C98.6381 66.6154 98.5476 65.727 98.3295 65.2109Z" fill="#262626"/>
<path d="M97.6969 64.7401C96.7659 64.8572 97.0745 66.7138 97.9363 66.6021C98.7982 66.4904 98.479 64.6178 97.6969 64.7401Z" fill="#262626"/>
<path d="M101.548 64.6875C101.548 64.6875 101.596 64.6875 101.601 64.7301C101.681 65.3099 101.867 65.959 102.415 66.0654V66.0973C101.766 66.1133 101.527 65.2727 101.548 64.6875Z" fill="#262626"/>
<path d="M101.965 64.0033C102.875 63.7799 103.258 65.5993 102.412 65.8281C101.566 66.0569 101.199 64.2108 101.965 64.0033Z" fill="#262626"/>
<path d="M96.8258 63.9919C97.0652 63.8855 97.2727 63.7472 97.5015 63.6195C97.7612 63.5168 97.9787 63.3293 98.1186 63.0875C98.1491 63.0045 98.1516 62.9138 98.1257 62.8292C98.0997 62.7446 98.0468 62.6709 97.9749 62.6193C97.8181 62.5415 97.6436 62.5065 97.4689 62.5177C97.2943 62.5289 97.1256 62.586 96.9801 62.6832C96.6547 62.8381 96.3973 63.1068 96.2566 63.4386C96.223 63.5177 96.2141 63.605 96.231 63.6892C96.248 63.7734 96.29 63.8505 96.3516 63.9103C96.4132 63.9702 96.4915 64.01 96.5761 64.0245C96.6607 64.0391 96.7478 64.0277 96.8258 63.9919Z" fill="#262626"/>
<path d="M102.523 62.948C102.267 62.9381 102.011 62.915 101.757 62.8788C101.483 62.8948 101.211 62.8179 100.986 62.6607C100.924 62.5978 100.885 62.5162 100.874 62.4286C100.863 62.341 100.882 62.2524 100.927 62.1766C101.039 62.0421 101.185 61.9397 101.349 61.8799C101.514 61.8201 101.691 61.805 101.864 61.8361C102.225 61.8446 102.57 61.9867 102.832 62.2351C102.887 62.2957 102.924 62.371 102.938 62.4519C102.951 62.5329 102.941 62.6161 102.908 62.6915C102.876 62.7668 102.822 62.8311 102.754 62.8766C102.685 62.9221 102.605 62.9469 102.523 62.948Z" fill="#262626"/>
<path d="M98.2598 70.71C98.4194 70.8218 98.5843 70.9814 98.7918 70.9654C99.0062 70.9262 99.2095 70.8408 99.3876 70.7154C99.3876 70.7154 99.4249 70.7154 99.4143 70.7154C99.3508 70.8417 99.2547 70.9488 99.1359 71.0255C99.0171 71.1022 98.8799 71.1458 98.7386 71.1516C98.6171 71.1386 98.502 71.0903 98.4075 71.0128C98.313 70.9354 98.2432 70.832 98.2066 70.7154C98.1906 70.71 98.2332 70.6941 98.2598 70.71Z" fill="#262626"/>
<path d="M98.5755 68.8878C98.7595 69.091 98.9834 69.2541 99.2333 69.3667C99.4833 69.4793 99.7538 69.539 100.028 69.5422C100.267 69.551 100.505 69.5223 100.735 69.457C100.781 69.451 100.826 69.4385 100.868 69.4198C100.911 69.4106 100.952 69.3964 100.991 69.3772C101.021 69.3686 101.048 69.3494 101.065 69.3231C101.083 69.2967 101.09 69.265 101.087 69.2336V69.1751V69.1272C101.023 68.6803 100.868 68.0153 100.868 68.0153C101.044 68.0685 101.932 68.3026 101.879 68.0738C101.495 66.0869 100.911 64.144 100.134 62.275C100.129 62.2627 100.12 62.2528 100.108 62.2472C100.096 62.2415 100.082 62.2406 100.069 62.2447C100.056 62.2487 100.046 62.2573 100.039 62.2688C100.032 62.2804 100.03 62.294 100.033 62.307C100.374 64.1477 101.039 65.9139 101.416 67.7546C101.1 67.6656 100.772 67.6226 100.443 67.627C100.384 67.627 100.767 68.9091 100.778 69.1112C100.422 69.2074 100.05 69.2311 99.6843 69.1808C99.3188 69.1305 98.967 69.0074 98.65 68.8186C98.5755 68.8027 98.5329 68.8506 98.5755 68.8878Z" fill="#262626"/>
<path d="M100.438 69.2793C100.248 69.6365 99.9695 69.9387 99.6291 70.1571C99.4397 70.2687 99.2204 70.3189 99.0014 70.3008C98.5226 70.2582 98.4428 69.8379 98.4694 69.4602C98.4863 69.2614 98.5256 69.0651 98.5864 68.875C99.1446 69.2037 99.7933 69.3454 100.438 69.2793Z" fill="#262626"/>
<path d="M99.6291 70.158C99.4397 70.2696 99.2204 70.3198 99.0014 70.3017C98.5226 70.2591 98.4428 69.8388 98.4694 69.4611C98.7127 69.4317 98.9588 69.4842 99.1689 69.6104C99.379 69.7367 99.5409 69.9294 99.6291 70.158Z" fill="#FF98B9"/>
<path d="M101.279 65.2766C101.077 64.0317 101.582 62.9039 102.407 62.7709C103.231 62.6379 104.072 63.5369 104.274 64.7871C104.476 66.0373 103.976 67.1599 103.152 67.2982C102.327 67.4365 101.486 66.5215 101.279 65.2766ZM101.582 65.2287C101.763 66.2927 102.439 67.1013 103.098 66.9949C103.758 66.8885 104.162 65.9309 103.971 64.835C103.779 63.7391 103.114 62.9677 102.455 63.0741C101.795 63.1805 101.407 64.1434 101.582 65.2234V65.2287Z" fill="#A0A4AB"/>
<path d="M95.5898 66.2079C95.5546 65.7964 95.6399 65.3835 95.8353 65.0197C96.0307 64.6558 96.3278 64.3567 96.6904 64.1587C97.0529 63.9608 97.4652 63.8727 97.8769 63.9051C98.2887 63.9375 98.6821 64.089 99.0092 64.3412C99.3364 64.5933 99.583 64.9353 99.7191 65.3252C99.8553 65.7152 99.875 66.1363 99.7758 66.5373C99.6767 66.9382 99.463 67.3017 99.1609 67.5833C98.8587 67.8649 98.4812 68.0525 98.0742 68.1231C97.4911 68.1971 96.9023 68.0372 96.4368 67.6783C95.9712 67.3194 95.6667 66.7907 95.5898 66.2079ZM95.893 66.1601C95.9794 66.5071 96.1649 66.8215 96.427 67.0648C96.6892 67.3081 97.0165 67.4698 97.369 67.5301C97.7215 67.5904 98.084 67.5467 98.4121 67.4043C98.7402 67.2619 99.0197 67.0271 99.2164 66.7284C99.4132 66.4298 99.5187 66.0802 99.52 65.7226C99.5213 65.365 99.4185 65.0147 99.224 64.7146C99.0294 64.4145 98.7517 64.1775 98.4247 64.0327C98.0977 63.8879 97.7356 63.8414 97.3826 63.8991C96.8853 64.0015 96.4491 64.2972 96.1698 64.7212C95.8905 65.1452 95.7909 65.6627 95.893 66.1601Z" fill="#A0A4AB"/>
<path d="M99.6802 65.323C100.744 64.7431 101.319 65.0304 101.324 65.0304L101.473 64.7644C101.473 64.7644 100.765 64.3814 99.5312 65.057L99.6802 65.323Z" fill="#A0A4AB"/>
<path d="M95.7082 65.9844V65.6758C95.5007 65.6758 90.7446 65.5801 90.2392 65.6333C89.7338 65.6865 88.5847 66.5856 88.457 66.6973L88.6486 66.9367C89.1242 66.525 89.6631 66.1926 90.2446 65.9525C90.6702 65.8993 94.0005 65.9525 95.7082 65.9844Z" fill="#A0A4AB"/>
<path d="M91.0511 66.9943C92.014 67.1326 92.6471 64.1959 92.7748 63.0894C92.8918 62.1105 92.7269 59.0887 92.7428 58.8759C92.7588 58.6631 97.1638 60.8816 99.3769 59.8442C101.59 58.8068 102.819 56.4766 102.697 55.5031C102.574 54.5295 99.313 52.5079 96.802 52.7739C94.291 53.0399 91.4128 56.732 91.4128 56.732C91.7554 56.2058 92.0543 55.6524 92.3066 55.0775C92.2534 54.9711 90.7425 55.8648 90.6255 57.0565C90.6255 57.0565 90.7212 55.5669 90.5936 55.5616C90.4659 55.5563 89.4072 56.982 89.8381 57.8705C89.8381 57.8705 88.5879 59.3494 88.6677 60.7486C88.7475 62.1477 89.9179 66.8293 91.0511 66.9943Z" fill="#262626"/>
<path d="M100.953 59.1016C100.324 59.5808 99.6263 59.9612 98.883 60.2294C98.0409 60.4368 97.161 60.4368 96.3188 60.2294C95.4742 60.0421 94.6656 59.7187 93.9248 59.2718C93.2704 58.8888 92.664 58.3887 91.9777 58.0642C91.8075 57.9791 91.6638 58.2291 91.7808 58.3568C93.0418 59.6539 94.6872 60.5101 96.4731 60.7987C97.3021 60.9342 98.1522 60.8514 98.9395 60.5585C99.7269 60.2656 100.424 59.7726 100.963 59.1282C100.963 59.1282 100.963 59.0963 100.953 59.1016Z" fill="#262626"/>
<path d="M92.0566 67.1135C92.0566 67.1135 90.003 64.4535 88.7901 65.2036C87.5771 65.9538 89.2104 69.8639 90.7053 70.3374C90.8917 70.4118 91.0913 70.4475 91.292 70.4425C91.4926 70.4375 91.6902 70.3918 91.8727 70.3083C92.0552 70.2247 92.2189 70.105 92.3538 69.9564C92.4887 69.8078 92.5921 69.6334 92.6577 69.4437L92.0566 67.1135Z" fill="#F1B4A7"/>
<path d="M89.2852 66.3438V66.381C90.3492 66.7481 90.9184 67.6737 91.344 68.642C91.2791 68.5425 91.1936 68.4583 91.0931 68.3949C90.9927 68.3316 90.8798 68.2907 90.7621 68.2751C90.6444 68.2594 90.5247 68.2693 90.4112 68.3042C90.2977 68.3391 90.193 68.398 90.1044 68.4771C90.0993 68.4821 90.0961 68.4887 90.0952 68.4958C90.0943 68.5029 90.0958 68.5101 90.0995 68.5162C90.1032 68.5224 90.1088 68.5271 90.1155 68.5296C90.1222 68.5322 90.1295 68.5324 90.1364 68.5303C90.314 68.4659 90.507 68.4573 90.6896 68.5058C90.8722 68.5543 91.0356 68.6575 91.1578 68.8016C91.3637 69.0455 91.5421 69.3113 91.6898 69.5943C91.743 69.6847 91.9079 69.6262 91.8654 69.5251C91.8068 68.1685 90.7109 66.3863 89.2852 66.3438Z" fill="#262626"/>
<path d="M99.704 77.7148L97.6345 82.7156L91.4633 76.2891L89.6758 78.3053C89.6758 78.3053 95.6608 88.4719 95.7033 88.0143L97.8313 83.7105L100.784 86.7588L100.624 79.1938L99.704 77.7148Z" fill="#EBEBEB"/>
<path d="M100.911 83.011C100.841 81.7661 100.809 80.5053 100.682 79.2604C100.682 79.2178 100.613 79.1965 100.602 79.2604C100.336 80.4627 100.602 85.2294 100.602 86.3732C100.48 86.2402 97.8675 83.7132 97.8409 83.7132C97.3833 84.3942 95.8299 87.533 95.7129 87.8149C94.7659 86.2189 91.1377 80.3297 90.0098 78.8029C90.0042 78.793 89.9948 78.7858 89.9839 78.7828C89.9729 78.7798 89.9612 78.7813 89.9513 78.7869C89.9414 78.7925 89.9342 78.8019 89.9312 78.8129C89.9282 78.8238 89.9297 78.8355 89.9353 78.8454C90.7706 80.5478 95.5745 88.4533 95.649 88.4214C96.4678 86.9434 97.2083 85.4233 97.8675 83.8675C98.309 84.3995 100.942 87.2989 100.953 87.1127C101.013 85.7457 100.999 84.3764 100.911 83.011Z" fill="#262626"/>
</svg>
