<svg width="360" height="253" viewBox="0 0 360 253" fill="none" xmlns="http://www.w3.org/2000/svg">
<path d="M50.996 175.609H35.3906V176.115H50.996V175.609Z" fill="#C7C7C7"/>
<path d="M52.0899 177.208C51.8234 177.208 51.5628 177.129 51.3412 176.981C51.1195 176.833 50.9468 176.623 50.8448 176.377C50.7428 176.131 50.7161 175.86 50.7681 175.599C50.8201 175.338 50.9484 175.098 51.1369 174.91C51.3254 174.722 51.5656 174.593 51.827 174.541C52.0884 174.49 52.3594 174.516 52.6057 174.618C52.8519 174.72 53.0624 174.892 53.2105 175.114C53.3586 175.335 53.4377 175.595 53.4377 175.862C53.4377 176.219 53.2957 176.561 53.0429 176.813C52.7902 177.066 52.4474 177.208 52.0899 177.208ZM52.0899 175.022C51.9236 175.022 51.761 175.071 51.6227 175.163C51.4843 175.255 51.3765 175.387 51.3129 175.54C51.2492 175.694 51.2326 175.863 51.265 176.025C51.2975 176.188 51.3776 176.338 51.4952 176.456C51.6128 176.573 51.7627 176.653 51.9258 176.685C52.089 176.718 52.2581 176.701 52.4118 176.638C52.5655 176.574 52.6968 176.466 52.7892 176.328C52.8817 176.19 52.931 176.028 52.931 175.862C52.931 175.751 52.9092 175.642 52.867 175.54C52.8247 175.438 52.7627 175.346 52.6846 175.268C52.6065 175.19 52.5138 175.128 52.4118 175.086C52.3097 175.043 52.2004 175.022 52.0899 175.022Z" fill="#C7C7C7"/>
<path d="M68.1781 175.047H56.0586V175.593H68.1781V175.047Z" fill="#C7C7C7"/>
<path d="M62.9189 176.141H56.0586V176.687H62.9189V176.141Z" fill="#C7C7C7"/>
<path d="M82.7388 41.9688H77.9609V75.9214H82.7388V41.9688Z" fill="#EBEBEB"/>
<path d="M90.9458 50.1875H86.168V75.9227H90.9458V50.1875Z" fill="#EBEBEB"/>
<path d="M99.1607 63.0547H94.3828V75.9223H99.1607V63.0547Z" fill="#EBEBEB"/>
<path d="M107.372 55.7109H102.594V75.9256H107.372V55.7109Z" fill="#EBEBEB"/>
<path d="M115.583 47.9844H110.805V75.9206H115.583V47.9844Z" fill="#EBEBEB"/>
<path d="M123.793 43.4453H119.016V75.9204H123.793V43.4453Z" fill="#EBEBEB"/>
<path d="M75.188 37.6562L75.2437 47.2247L75.2691 56.7881L75.3096 75.925L75.188 75.8036C79.5791 75.8036 83.9702 75.8036 88.3613 75.8036L101.535 75.8289H114.708L127.881 75.8997L114.708 75.9706L101.535 75.9959H88.3613C83.9685 75.9959 79.5757 75.9959 75.188 75.9959H75.0664V75.8744L75.1069 56.7375L75.1323 47.1741L75.188 37.6562Z" fill="#EBEBEB"/>
<path d="M74.1367 39.5741C74.8275 39.392 75.5537 39.392 76.2445 39.5741C75.5537 39.7562 74.8275 39.7562 74.1367 39.5741Z" fill="#EBEBEB"/>
<path d="M74.1367 42.5038C74.8275 42.3217 75.5537 42.3217 76.2445 42.5038C75.5537 42.6858 74.8275 42.6858 74.1367 42.5038Z" fill="#EBEBEB"/>
<path d="M74.1367 45.3951C74.4798 45.3 74.8346 45.254 75.1906 45.2585C75.5467 45.2515 75.9019 45.2976 76.2445 45.3951C75.9017 45.491 75.5465 45.5354 75.1906 45.5267C74.8348 45.5329 74.48 45.4886 74.1367 45.3951Z" fill="#EBEBEB"/>
<path d="M74.1367 48.2967C74.48 48.2033 74.8348 48.159 75.1906 48.1651C75.5465 48.1564 75.9017 48.2008 76.2445 48.2967C75.9019 48.3942 75.5467 48.4403 75.1906 48.4333C74.8346 48.4378 74.4798 48.3918 74.1367 48.2967Z" fill="#EBEBEB"/>
<path d="M74.1367 51.2097C74.8283 51.0343 75.5529 51.0343 76.2445 51.2097C75.5537 51.3918 74.8275 51.3918 74.1367 51.2097Z" fill="#EBEBEB"/>
<path d="M74.1367 54.1444C74.8275 53.9623 75.5537 53.9623 76.2445 54.1444C75.5537 54.3265 74.8275 54.3265 74.1367 54.1444Z" fill="#EBEBEB"/>
<path d="M74.1367 57.0272C74.8275 56.8451 75.5537 56.8451 76.2445 57.0272C75.5537 57.2093 74.8275 57.2093 74.1367 57.0272Z" fill="#EBEBEB"/>
<path d="M74.1367 59.9334C74.8275 59.7514 75.5537 59.7514 76.2445 59.9334C75.5529 60.1089 74.8283 60.1089 74.1367 59.9334Z" fill="#EBEBEB"/>
<path d="M74.1367 62.8425C74.8283 62.6671 75.5529 62.6671 76.2445 62.8425C75.9019 62.94 75.5467 62.9861 75.1906 62.9791C74.8346 62.9836 74.4798 62.9376 74.1367 62.8425Z" fill="#EBEBEB"/>
<path d="M74.1367 65.7487C74.8283 65.5733 75.5529 65.5733 76.2445 65.7487C75.5537 65.9308 74.8275 65.9308 74.1367 65.7487Z" fill="#EBEBEB"/>
<path d="M74.1367 68.66C74.8275 68.4779 75.5537 68.4779 76.2445 68.66C75.5537 68.8421 74.8275 68.8421 74.1367 68.66Z" fill="#EBEBEB"/>
<path d="M74.1367 71.5663C74.8275 71.3842 75.5537 71.3842 76.2445 71.5663C75.5537 71.7483 74.8275 71.7483 74.1367 71.5663Z" fill="#EBEBEB"/>
<path d="M70.3083 236.472C101.279 236.472 126.386 232.657 126.386 227.951C126.386 223.245 101.279 219.43 70.3083 219.43C39.3374 219.43 14.2305 223.245 14.2305 227.951C14.2305 232.657 39.3374 236.472 70.3083 236.472Z" fill="#EBEBEB"/>
<path d="M13.582 197.597L55.1895 197.475L96.7919 197.43L180.002 197.344L263.212 197.43L304.819 197.47L346.421 197.597L304.819 197.723L263.212 197.764L180.002 197.85L96.7919 197.764L55.1895 197.718L13.582 197.597Z" fill="#262626"/>
<path d="M290.989 70.9531H97.5742V200.16H290.989V70.9531Z" fill="#CCCCCC"/>
<path d="M289.587 72.5312H98.9844V198.586H289.587V72.5312Z" fill="#262626"/>
<path d="M316.176 209.852H72.3828V218.722H316.176V209.852Z" fill="#A6A6A6"/>
<path d="M72.3828 209.854L97.5743 200.164H290.989L316.181 209.854H72.3828Z" fill="white"/>
<path d="M99.8242 206.418L116.083 200.164H272.481L288.74 206.418H99.8242Z" fill="#262626"/>
<path d="M278.813 82.1016H109.754V189.004H278.813V82.1016Z" fill="white"/>
<path d="M278.811 82.1016H109.609V86.2153H278.811V82.1016Z" fill="#565A62"/>
<path d="M111.863 85.1849C112.429 85.1849 112.887 84.7272 112.887 84.1627C112.887 83.5982 112.429 83.1406 111.863 83.1406C111.298 83.1406 110.84 83.5982 110.84 84.1627C110.84 84.7272 111.298 85.1849 111.863 85.1849Z" fill="#C7C7C7"/>
<path d="M116.031 85.1849C116.597 85.1849 117.055 84.7272 117.055 84.1627C117.055 83.5982 116.597 83.1406 116.031 83.1406C115.466 83.1406 115.008 83.5982 115.008 84.1627C115.008 84.7272 115.466 85.1849 116.031 85.1849Z" fill="white"/>
<path d="M120.203 85.1849C120.768 85.1849 121.227 84.7272 121.227 84.1627C121.227 83.5982 120.768 83.1406 120.203 83.1406C119.638 83.1406 119.18 83.5982 119.18 84.1627C119.18 84.7272 119.638 85.1849 120.203 85.1849Z" fill="#F42123"/>
<path d="M117.312 165.908C118.088 165.229 118.898 164.592 119.719 163.97C120.54 163.347 121.376 162.75 122.217 162.153C123.058 161.556 123.914 160.989 124.781 160.438C125.647 159.886 126.524 159.34 127.431 158.844C126.655 159.522 125.845 160.159 125.024 160.782C124.203 161.404 123.367 162.001 122.526 162.598C121.685 163.195 120.829 163.757 119.962 164.314C119.096 164.87 118.219 165.412 117.312 165.908Z" fill="white"/>
<path d="M234.173 151.945H226V183.788H234.173V151.945Z" fill="#F42123"/>
<path d="M234.173 185.359H226V190.602H234.173V185.359Z" fill="#F42123"/>
<path d="M234.173 192.172H226V195.405H234.173V192.172Z" fill="#F42123"/>
<path d="M234.173 196.984H226V198.588H234.173V196.984Z" fill="#F42123"/>
<path d="M236.893 151.943H223.273L230.083 142.531L236.893 151.943Z" fill="#F42123"/>
<path d="M250.434 141.82H242.262V183.783H250.434V141.82Z" fill="#F42123"/>
<path d="M250.434 185.359H242.262V190.602H250.434V185.359Z" fill="#F42123"/>
<path d="M250.434 192.172H242.262V195.405H250.434V192.172Z" fill="#F42123"/>
<path d="M250.434 196.984H242.262V198.588H250.434V196.984Z" fill="#F42123"/>
<path d="M253.163 141.826H239.539L246.354 132.414L253.163 141.826Z" fill="#F42123"/>
<path d="M266.704 131.703H258.531V183.786H266.704V131.703Z" fill="#F42123"/>
<path d="M266.704 185.359H258.531V190.602H266.704V185.359Z" fill="#F42123"/>
<path d="M266.704 192.172H258.531V195.405H266.704V192.172Z" fill="#F42123"/>
<path d="M266.704 196.984H258.531V198.588H266.704V196.984Z" fill="#F42123"/>
<path d="M269.424 131.701H255.805L262.614 122.289L269.424 131.701Z" fill="#F42123"/>
<path d="M282.969 121.586H274.797V183.789H282.969V121.586Z" fill="#F42123"/>
<path d="M282.969 185.359H274.797V190.602H282.969V185.359Z" fill="#F42123"/>
<path d="M282.969 192.172H274.797V195.405H282.969V192.172Z" fill="#F42123"/>
<path d="M282.969 196.984H274.797V198.588H282.969V196.984Z" fill="#F42123"/>
<path d="M285.693 121.583H272.074L278.884 112.172L285.693 121.583Z" fill="#F42123"/>
<path opacity="0.6" d="M146.485 177.158C146.485 177.867 146.275 178.561 145.88 179.151C145.485 179.741 144.924 180.201 144.268 180.472C143.611 180.744 142.889 180.815 142.192 180.676C141.495 180.538 140.855 180.196 140.353 179.695C139.851 179.193 139.508 178.554 139.37 177.858C139.231 177.162 139.302 176.441 139.574 175.785C139.846 175.129 140.307 174.569 140.897 174.175C141.488 173.781 142.183 173.57 142.893 173.57C143.846 173.57 144.759 173.948 145.433 174.621C146.107 175.294 146.485 176.206 146.485 177.158Z" fill="#E8EBEE"/>
<path opacity="0.6" d="M150.858 170.3C150.859 170.647 150.757 170.986 150.564 171.275C150.372 171.564 150.098 171.789 149.778 171.922C149.457 172.055 149.104 172.09 148.764 172.023C148.423 171.955 148.111 171.789 147.865 171.543C147.62 171.298 147.452 170.986 147.385 170.646C147.318 170.306 147.353 169.953 147.486 169.633C147.619 169.313 147.845 169.04 148.134 168.848C148.423 168.656 148.763 168.554 149.11 168.555C149.573 168.555 150.018 168.739 150.346 169.066C150.674 169.393 150.858 169.837 150.858 170.3Z" fill="#E8EBEE"/>
<path opacity="0.6" d="M227.752 175.423C227.752 175.769 227.649 176.107 227.457 176.395C227.264 176.683 226.99 176.908 226.67 177.04C226.35 177.173 225.997 177.207 225.657 177.14C225.317 177.072 225.005 176.905 224.76 176.661C224.514 176.416 224.347 176.104 224.28 175.764C224.212 175.425 224.247 175.073 224.38 174.753C224.512 174.433 224.737 174.159 225.025 173.967C225.314 173.775 225.652 173.672 225.999 173.672C226.464 173.672 226.91 173.856 227.239 174.185C227.568 174.513 227.752 174.958 227.752 175.423Z" fill="#F42123"/>
<path opacity="0.6" d="M262.83 191.386C262.831 191.733 262.729 192.072 262.537 192.36C262.345 192.649 262.072 192.874 261.752 193.007C261.431 193.141 261.079 193.176 260.738 193.109C260.398 193.042 260.085 192.876 259.839 192.631C259.594 192.387 259.426 192.075 259.358 191.735C259.29 191.395 259.325 191.043 259.457 190.723C259.59 190.402 259.814 190.129 260.103 189.936C260.391 189.743 260.73 189.641 261.077 189.641C261.541 189.641 261.986 189.824 262.315 190.152C262.644 190.479 262.829 190.923 262.83 191.386Z" fill="#F42123"/>
<path opacity="0.6" d="M260.145 196.506C260.144 197.058 259.924 197.588 259.532 197.978C259.141 198.369 258.611 198.589 258.058 198.59H127.814C127.26 198.59 126.729 198.371 126.338 197.98C125.946 197.589 125.727 197.059 125.727 196.506C125.727 195.953 125.946 195.423 126.338 195.032C126.729 194.641 127.26 194.421 127.814 194.421C127.984 194.42 128.154 194.439 128.321 194.477C128.321 193.66 128.566 192.861 129.023 192.183C129.479 191.505 130.128 190.979 130.886 190.67C131.643 190.362 132.476 190.286 133.277 190.452C134.078 190.618 134.811 191.019 135.384 191.603H135.424C135.424 191.35 135.384 191.097 135.384 190.833C135.385 189.517 135.72 188.223 136.359 187.072C136.998 185.92 137.919 184.95 139.037 184.252C140.154 183.553 141.43 183.15 142.746 183.079C144.062 183.008 145.375 183.271 146.561 183.846C146.649 182.589 147.161 181.4 148.014 180.472C148.867 179.544 150.009 178.933 151.255 178.737C152.5 178.542 153.776 178.774 154.872 179.395C155.969 180.017 156.822 180.992 157.292 182.161C157.993 181.049 158.964 180.132 160.116 179.498C161.268 178.863 162.563 178.531 163.879 178.533C164.378 178.533 164.877 178.581 165.368 178.674C165.262 178.076 165.209 177.47 165.211 176.863C165.21 174.851 165.788 172.88 166.876 171.187C167.963 169.493 169.515 168.147 171.347 167.308C173.179 166.47 175.213 166.174 177.208 166.457C179.203 166.74 181.074 167.589 182.6 168.903C182.774 168.562 183.04 168.276 183.367 168.076C183.694 167.876 184.071 167.77 184.454 167.77C184.729 167.771 185.001 167.826 185.255 167.932L187.211 115.773H198.681L200.637 167.932C201.123 167.725 201.669 167.71 202.165 167.89C202.661 168.071 203.069 168.433 203.307 168.903C204.833 167.589 206.705 166.74 208.7 166.457C210.694 166.174 212.729 166.47 214.56 167.308C216.392 168.147 217.944 169.493 219.032 171.187C220.119 172.88 220.697 174.851 220.696 176.863C220.698 177.47 220.645 178.076 220.539 178.674C221.028 178.581 221.525 178.533 222.024 178.533C223.339 178.531 224.634 178.863 225.786 179.498C226.938 180.132 227.91 181.049 228.61 182.161C229.099 181.024 229.954 180.082 231.039 179.484C232.124 178.886 233.378 178.667 234.601 178.86C235.825 179.053 236.95 179.648 237.797 180.551C238.645 181.454 239.167 182.613 239.281 183.846C240.466 183.267 241.78 183 243.097 183.068C244.415 183.136 245.694 183.537 246.813 184.234C247.933 184.932 248.857 185.902 249.498 187.053C250.139 188.205 250.476 189.501 250.478 190.818C250.478 191.076 250.478 191.324 250.438 191.587H250.478C251.05 191.003 251.784 190.603 252.585 190.437C253.386 190.271 254.218 190.347 254.976 190.655C255.734 190.964 256.382 191.49 256.839 192.168C257.296 192.846 257.54 193.644 257.541 194.461C257.707 194.424 257.877 194.405 258.048 194.406C258.324 194.404 258.598 194.458 258.853 194.563C259.109 194.668 259.341 194.823 259.536 195.018C259.731 195.214 259.885 195.446 259.99 195.701C260.094 195.956 260.147 196.23 260.145 196.506Z" fill="#A0A4AB"/>
<path d="M227.127 179.339L224.422 179.835L223.814 182.689L223.211 179.835L220.5 179.334L223.195 178.676L223.814 175.984L224.432 178.676L227.127 179.339Z" fill="#FCFCFC"/>
<path d="M200.783 156.472L198.073 156.973L197.47 159.822L196.867 156.973L194.156 156.472L196.852 155.814L197.47 153.117L198.088 155.814L200.783 156.472Z" fill="#FCFCFC"/>
<path d="M161.426 184.768L159.911 185.046L159.572 186.64L159.238 185.046L157.723 184.763L159.227 184.399L159.572 182.891L159.917 184.399L161.426 184.768Z" fill="#FCFCFC"/>
<path d="M242.872 189.521L241.357 189.799L241.022 191.393L240.683 189.799L239.168 189.521L240.673 189.151L241.022 187.648L241.367 189.151L242.872 189.521Z" fill="#FCFCFC"/>
<path d="M140.59 195.104L139.081 195.382L138.741 196.976L138.402 195.382L136.887 195.104L138.397 194.734L138.741 193.227L139.086 194.734L140.59 195.104Z" fill="#FCFCFC"/>
<path d="M206.438 193.776L204.923 194.054L204.584 195.648L204.249 194.054L202.734 193.776L204.239 193.406L204.584 191.898L204.928 193.406L206.438 193.776Z" fill="#FCFCFC"/>
<path d="M195.356 152.138L193.841 152.416L193.502 154.01L193.162 152.416L191.652 152.138L193.157 151.768L193.502 150.266L193.846 151.768L195.356 152.138Z" fill="#FCFCFC"/>
<path d="M246.456 192.961C246.348 192.973 246.248 193.024 246.175 193.104C246.103 193.185 246.062 193.29 246.062 193.399C246.062 193.507 246.103 193.612 246.175 193.693C246.248 193.774 246.348 193.825 246.456 193.836C246.564 193.825 246.664 193.774 246.737 193.693C246.81 193.612 246.85 193.507 246.85 193.399C246.85 193.29 246.81 193.185 246.737 193.104C246.664 193.024 246.564 192.973 246.456 192.961Z" fill="#FCFCFC"/>
<path d="M189.495 146.609C189.387 146.621 189.287 146.672 189.214 146.753C189.142 146.834 189.102 146.938 189.102 147.047C189.102 147.156 189.142 147.26 189.214 147.341C189.287 147.422 189.387 147.473 189.495 147.485C189.603 147.473 189.703 147.422 189.776 147.341C189.849 147.26 189.889 147.156 189.889 147.047C189.889 146.938 189.849 146.834 189.776 146.753C189.703 146.672 189.603 146.621 189.495 146.609Z" fill="#FCFCFC"/>
<path d="M152.062 195.102C151.953 195.113 151.853 195.164 151.781 195.245C151.708 195.326 151.668 195.431 151.668 195.539C151.668 195.648 151.708 195.753 151.781 195.833C151.853 195.914 151.953 195.965 152.062 195.977C152.17 195.965 152.27 195.914 152.342 195.833C152.415 195.753 152.455 195.648 152.455 195.539C152.455 195.431 152.415 195.326 152.342 195.245C152.27 195.164 152.17 195.113 152.062 195.102Z" fill="#FCFCFC"/>
<path d="M179.874 189.078C179.757 189.078 179.645 189.124 179.563 189.207C179.48 189.29 179.434 189.402 179.434 189.518C179.434 189.635 179.48 189.747 179.563 189.83C179.645 189.912 179.757 189.959 179.874 189.959C179.991 189.959 180.103 189.912 180.186 189.83C180.269 189.747 180.315 189.635 180.315 189.518C180.315 189.402 180.269 189.29 180.186 189.207C180.103 189.124 179.991 189.078 179.874 189.078Z" fill="#FCFCFC"/>
<path d="M235.461 185.086C235.379 185.086 235.301 185.118 235.243 185.176C235.185 185.234 235.152 185.313 235.152 185.395C235.152 185.476 235.185 185.555 235.243 185.613C235.301 185.671 235.379 185.703 235.461 185.703C235.543 185.703 235.622 185.671 235.68 185.613C235.738 185.555 235.77 185.476 235.77 185.395C235.77 185.313 235.738 185.234 235.68 185.176C235.622 185.118 235.543 185.086 235.461 185.086Z" fill="#FCFCFC"/>
<path d="M197.106 180.438C197.031 180.447 196.961 180.484 196.91 180.541C196.86 180.599 196.832 180.672 196.832 180.749C196.832 180.825 196.86 180.899 196.91 180.956C196.961 181.013 197.031 181.05 197.106 181.06C197.182 181.05 197.252 181.013 197.302 180.956C197.353 180.899 197.381 180.825 197.381 180.749C197.381 180.672 197.353 180.599 197.302 180.541C197.252 180.484 197.182 180.447 197.106 180.438Z" fill="#FCFCFC"/>
<path d="M169.028 174.375C168.946 174.375 168.867 174.408 168.809 174.465C168.751 174.523 168.719 174.602 168.719 174.684C168.719 174.766 168.751 174.844 168.809 174.902C168.867 174.96 168.946 174.992 169.028 174.992C169.11 174.992 169.188 174.96 169.246 174.902C169.304 174.844 169.337 174.766 169.337 174.684C169.337 174.602 169.304 174.523 169.246 174.465C169.188 174.408 169.11 174.375 169.028 174.375Z" fill="#FCFCFC"/>
<path d="M217.064 175.641C216.841 175.641 216.627 175.729 216.469 175.887C216.311 176.044 216.223 176.258 216.223 176.481C216.223 176.703 216.311 176.917 216.469 177.075C216.627 177.232 216.841 177.321 217.064 177.321C217.287 177.321 217.501 177.232 217.658 177.075C217.816 176.917 217.905 176.703 217.905 176.481C217.905 176.258 217.816 176.044 217.658 175.887C217.501 175.729 217.287 175.641 217.064 175.641Z" fill="#FCFCFC"/>
<path d="M173.005 171.531C172.782 171.531 172.568 171.62 172.41 171.777C172.253 171.935 172.164 172.148 172.164 172.371C172.164 172.594 172.253 172.808 172.41 172.965C172.568 173.123 172.782 173.211 173.005 173.211C173.228 173.211 173.442 173.123 173.6 172.965C173.758 172.808 173.846 172.594 173.846 172.371C173.846 172.148 173.758 171.935 173.6 171.777C173.442 171.62 173.228 171.531 173.005 171.531Z" fill="#FCFCFC"/>
<path d="M173.414 74.5469C173.004 74.5469 157.708 81.6005 156.791 98.9766C155.96 114.946 167.015 130.116 168.444 129.109C170.192 127.879 167.218 117.931 170.618 106.546C171.823 102.498 177.093 98.926 177.093 98.926L173.414 74.5469Z" fill="#F42123"/>
<path opacity="0.1" d="M177.098 98.9241C175.557 100.021 174.151 101.295 172.908 102.719C170.633 97.6591 166.387 88.1716 163.641 82.0288C168.125 76.8524 173.181 74.5703 173.414 74.5703L177.098 98.9241Z" fill="#262626"/>
<path d="M212.366 74.5781C212.777 74.5781 228.073 81.6621 228.954 99.028C229.765 115.002 218.684 130.152 217.256 129.145C215.513 127.916 218.497 117.968 215.117 106.578C213.917 102.53 208.652 98.9521 208.652 98.9521L212.366 74.5781Z" fill="#F42123"/>
<path opacity="0.1" d="M222.185 82.1097C219.414 88.2981 215.163 97.7957 212.913 102.805C211.651 101.356 210.221 100.061 208.652 98.9494L212.366 74.5703C212.599 74.5703 217.701 76.8827 222.185 82.1097Z" fill="#262626"/>
<path d="M204.462 114.513H181.373C181.373 114.513 170.495 95.0879 171.782 71.9283C172.43 60.3662 175.455 48.7231 179.098 39.094C184.109 25.7912 190.305 16.3543 192.991 16.3594C195.676 16.3644 201.857 25.8064 206.853 39.094C210.471 48.708 213.48 60.3763 214.114 71.9384C215.37 95.098 204.462 114.513 204.462 114.513Z" fill="white" stroke="#DEDEDE"/>
<path d="M206.773 68.9406C206.772 71.5719 205.99 74.1437 204.525 76.3309C203.061 78.5181 200.979 80.2223 198.545 81.2281C196.11 82.2339 193.431 82.496 190.848 81.9813C188.264 81.4666 185.891 80.1983 184.029 78.3366C182.167 76.475 180.9 74.1037 180.387 71.5227C179.875 68.9417 180.14 66.2669 181.15 63.8366C182.16 61.4063 183.869 59.3297 186.061 57.8695C188.252 56.4092 190.829 55.6308 193.463 55.6328C196.995 55.6355 200.381 57.0389 202.877 59.5345C205.373 62.03 206.775 65.4134 206.773 68.9406Z" fill="#C7C7C7"/>
<path d="M206.301 67.5812C206.3 70.2125 205.517 72.7843 204.053 74.9715C202.588 77.1587 200.507 78.8629 198.072 79.8687C195.637 80.8745 192.959 81.1366 190.375 80.622C187.791 80.1073 185.418 78.8389 183.556 76.9773C181.694 75.1156 180.427 72.7444 179.915 70.1633C179.402 67.5823 179.668 64.9075 180.678 62.4773C181.687 60.047 183.396 57.9704 185.588 56.5101C187.78 55.0498 190.356 54.2714 192.991 54.2734C196.522 54.2761 199.909 55.6795 202.405 58.1751C204.901 60.6706 206.302 64.054 206.301 67.5812Z" fill="#F42123"/>
<path d="M202.219 67.5759C202.219 69.4004 201.677 71.1838 200.663 72.7007C199.648 74.2177 198.205 75.4 196.517 76.0982C194.83 76.7963 192.972 76.979 191.181 76.6231C189.389 76.2672 187.743 75.3886 186.451 74.0986C185.16 72.8085 184.28 71.1649 183.924 69.3755C183.567 67.5862 183.75 65.7315 184.449 64.0459C185.148 62.3604 186.332 60.9197 187.851 59.9062C189.37 58.8926 191.156 58.3516 192.983 58.3516C194.196 58.3516 195.397 58.5902 196.517 59.0537C197.638 59.5173 198.656 60.1968 199.514 61.0533C200.372 61.9099 201.052 62.9268 201.516 64.0459C201.98 65.1651 202.219 66.3646 202.219 67.5759Z" fill="white"/>
<path d="M202.225 67.5736C202.226 68.7178 202.013 69.8522 201.596 70.9183L196.332 76.1756C195.266 76.5907 194.132 76.8018 192.988 76.798C192.152 76.7996 191.32 76.6855 190.516 76.459L201.885 65.1094C202.11 65.9116 202.224 66.7406 202.225 67.5736Z" fill="#EBEBEB"/>
<path d="M194.34 58.453L183.847 68.9272C183.78 68.48 183.746 68.0284 183.746 67.5762C183.748 66.2513 184.035 64.9423 184.589 63.7384C185.142 62.5344 185.95 61.4638 186.955 60.5994C187.96 59.7351 189.14 59.0973 190.415 58.7295C191.689 58.3617 193.028 58.2726 194.34 58.4682V58.453Z" fill="#EBEBEB"/>
<path d="M201.069 63.1068L188.514 75.6405C188.27 75.5088 188.033 75.3635 187.805 75.2053L200.633 62.3984C200.775 62.6261 200.927 62.864 201.069 63.1068Z" fill="#EBEBEB"/>
<path d="M206.854 39.094H179.094C184.105 25.7912 190.301 16.3543 192.987 16.3594C195.672 16.3644 201.858 25.8064 206.854 39.094Z" fill="#F42123"/>
<path d="M183.878 36.2163C183.874 36.3685 183.825 36.5161 183.738 36.6408C183.65 36.7654 183.528 36.8614 183.386 36.917C183.244 36.9725 183.089 36.9849 182.94 36.9528C182.791 36.9207 182.655 36.8454 182.548 36.7364C182.442 36.6273 182.37 36.4894 182.342 36.3398C182.313 36.1902 182.33 36.0356 182.389 35.8953C182.448 35.755 182.548 35.6353 182.675 35.5511C182.802 35.4669 182.951 35.4219 183.103 35.4219C183.207 35.4218 183.309 35.4425 183.404 35.4827C183.5 35.5228 183.586 35.5817 183.659 35.6557C183.731 35.7298 183.787 35.8175 183.825 35.9138C183.863 36.0101 183.881 36.1129 183.878 36.2163Z" fill="white"/>
<path d="M188.818 36.2163C188.815 36.37 188.767 36.5193 188.679 36.6455C188.591 36.7718 188.468 36.8693 188.325 36.9258C188.182 36.9823 188.025 36.9953 187.875 36.9631C187.724 36.9309 187.587 36.855 187.479 36.745C187.372 36.6349 187.299 36.4956 187.271 36.3445C187.243 36.1935 187.26 36.0374 187.32 35.896C187.38 35.7546 187.481 35.6341 187.61 35.5498C187.738 35.4654 187.889 35.4209 188.043 35.4219C188.146 35.4225 188.249 35.4437 188.344 35.4841C188.439 35.5245 188.525 35.5834 188.597 35.6573C188.669 35.7312 188.726 35.8186 188.764 35.9146C188.802 36.0106 188.82 36.1131 188.818 36.2163Z" fill="white"/>
<path d="M193.756 36.2195C193.757 36.3741 193.712 36.5254 193.626 36.6543C193.541 36.7832 193.419 36.8839 193.277 36.9435C193.134 37.0031 192.976 37.019 192.825 36.9891C192.673 36.9592 192.533 36.8848 192.424 36.7756C192.314 36.6663 192.24 36.527 192.21 36.3753C192.18 36.2237 192.196 36.0666 192.256 35.924C192.315 35.7814 192.416 35.6598 192.545 35.5745C192.674 35.4893 192.826 35.4443 192.981 35.4453C193.186 35.4453 193.383 35.5269 193.529 35.6721C193.674 35.8173 193.756 36.0142 193.756 36.2195Z" fill="white"/>
<path d="M198.697 36.2246C198.697 36.3787 198.651 36.5293 198.566 36.6575C198.48 36.7856 198.358 36.8855 198.216 36.9445C198.073 37.0035 197.916 37.0189 197.765 36.9888C197.613 36.9588 197.474 36.8846 197.365 36.7756C197.256 36.6666 197.182 36.5277 197.152 36.3766C197.122 36.2254 197.137 36.0688 197.196 35.9264C197.255 35.784 197.355 35.6623 197.483 35.5767C197.612 35.491 197.763 35.4453 197.917 35.4453C198.02 35.4447 198.121 35.4644 198.216 35.5033C198.311 35.5422 198.398 35.5996 198.47 35.6721C198.543 35.7446 198.6 35.8307 198.639 35.9256C198.678 36.0204 198.698 36.122 198.697 36.2246Z" fill="white"/>
<path d="M203.631 36.2273C203.632 36.3819 203.587 36.5332 203.501 36.6621C203.416 36.7911 203.294 36.8917 203.152 36.9513C203.009 37.0109 202.851 37.0268 202.7 36.9969C202.548 36.967 202.408 36.8927 202.299 36.7834C202.189 36.6741 202.115 36.5348 202.085 36.3832C202.055 36.2315 202.071 36.0744 202.131 35.9318C202.19 35.7892 202.291 35.6676 202.42 35.5824C202.549 35.4971 202.701 35.4521 202.856 35.4531C203.061 35.4545 203.257 35.5365 203.402 35.6814C203.547 35.8263 203.63 36.0224 203.631 36.2273Z" fill="white"/>
<path d="M183.846 110.951C183.846 111.105 183.8 111.256 183.714 111.385C183.628 111.513 183.506 111.613 183.363 111.672C183.22 111.73 183.063 111.745 182.911 111.715C182.76 111.685 182.621 111.61 182.512 111.5C182.403 111.391 182.329 111.252 182.3 111.1C182.27 110.949 182.286 110.792 182.346 110.649C182.406 110.507 182.507 110.386 182.636 110.301C182.765 110.216 182.916 110.171 183.07 110.172C183.277 110.173 183.474 110.256 183.619 110.402C183.764 110.548 183.846 110.745 183.846 110.951Z" fill="#C7C7C7"/>
<path d="M188.787 110.954C188.788 111.108 188.743 111.259 188.658 111.388C188.573 111.517 188.451 111.618 188.309 111.677C188.166 111.737 188.009 111.753 187.858 111.724C187.706 111.694 187.567 111.62 187.457 111.512C187.347 111.403 187.272 111.264 187.242 111.113C187.211 110.962 187.227 110.805 187.285 110.662C187.344 110.519 187.444 110.397 187.573 110.311C187.701 110.226 187.852 110.18 188.007 110.18C188.213 110.18 188.411 110.261 188.557 110.406C188.703 110.551 188.786 110.748 188.787 110.954Z" fill="#C7C7C7"/>
<path d="M193.725 110.959C193.725 111.113 193.679 111.264 193.593 111.392C193.507 111.52 193.386 111.62 193.243 111.679C193.1 111.738 192.943 111.753 192.792 111.723C192.641 111.693 192.502 111.619 192.393 111.51C192.283 111.401 192.209 111.262 192.179 111.111C192.149 110.96 192.164 110.803 192.223 110.661C192.283 110.518 192.383 110.397 192.511 110.311C192.639 110.225 192.79 110.18 192.944 110.18C193.047 110.18 193.148 110.2 193.243 110.239C193.338 110.278 193.424 110.336 193.496 110.408C193.569 110.48 193.626 110.566 193.665 110.661C193.704 110.755 193.725 110.857 193.725 110.959Z" fill="#C7C7C7"/>
<path d="M198.662 110.959C198.662 111.113 198.616 111.264 198.53 111.392C198.444 111.521 198.322 111.621 198.179 111.679C198.036 111.738 197.879 111.753 197.728 111.723C197.576 111.692 197.437 111.618 197.328 111.508C197.219 111.399 197.145 111.259 197.116 111.108C197.086 110.956 197.103 110.8 197.162 110.657C197.222 110.515 197.323 110.394 197.452 110.309C197.581 110.224 197.732 110.179 197.887 110.18C198.093 110.181 198.29 110.264 198.435 110.41C198.581 110.556 198.662 110.753 198.662 110.959Z" fill="#C7C7C7"/>
<path d="M203.6 110.962C203.601 111.116 203.556 111.268 203.47 111.397C203.385 111.525 203.263 111.626 203.12 111.686C202.977 111.745 202.82 111.761 202.668 111.731C202.517 111.701 202.377 111.627 202.268 111.518C202.158 111.408 202.084 111.269 202.054 111.118C202.024 110.966 202.04 110.809 202.099 110.666C202.159 110.524 202.26 110.402 202.389 110.317C202.518 110.231 202.67 110.187 202.824 110.188C203.03 110.189 203.226 110.271 203.371 110.416C203.516 110.561 203.598 110.757 203.6 110.962Z" fill="#C7C7C7"/>
<path d="M202.334 121.447L183.552 121.432L182.676 114.5L203.221 114.515L202.334 121.447Z" fill="#F42123"/>
<path opacity="0.1" d="M203.22 114.515L202.784 117.89L183.009 117.151L182.68 114.5L203.22 114.515Z" fill="#262626"/>
<path d="M103.463 224.501C102.378 224.87 71.2893 224.977 70.0986 224.233C69.6477 223.955 69.3639 219.431 69.1815 213.961C69.141 212.777 69.1106 211.558 69.0802 210.318L66.5469 193.757L87.3202 193.625L89.3063 210.186L89.2303 213.83C89.2303 213.83 101.152 219.107 102.363 220.063C103.574 221.02 104.547 224.157 103.463 224.501Z" fill="#F1B4A7"/>
<path d="M103.463 224.502C102.379 224.872 71.2899 224.978 70.0993 224.234C69.5521 223.89 69.2481 217.287 69.0859 210.319L89.3121 210.188L89.2361 213.831C89.2361 213.831 101.158 219.108 102.369 220.065C103.58 221.021 104.548 224.158 103.463 224.502Z" fill="white"/>
<path d="M103.461 224.5C102.376 224.869 71.2874 224.975 70.0968 224.231C69.6458 223.953 69.3621 219.43 69.1797 213.96L89.2285 213.828C89.2285 213.828 101.15 219.106 102.361 220.062C103.572 221.018 104.545 224.156 103.461 224.5Z" fill="#F42123"/>
<path d="M103.01 223.266C97.7964 223.154 76.7647 223.205 71.5967 223.493C71.5511 223.493 71.5511 223.524 71.5967 223.524C76.7596 223.746 97.7914 223.524 103.01 223.352C103.122 223.347 103.122 223.266 103.01 223.266Z" fill="#262626"/>
<path d="M91.2512 214.344C89.1638 214.344 86.747 215.067 85.46 216.778C85.4094 216.843 85.5006 216.914 85.5664 216.879C87.3866 215.919 89.3042 215.155 91.2867 214.602C91.3172 214.593 91.3435 214.574 91.3608 214.547C91.3782 214.521 91.3853 214.489 91.381 214.457C91.3767 214.426 91.3612 214.397 91.3374 214.376C91.3135 214.356 91.2829 214.344 91.2512 214.344Z" fill="#262626"/>
<path d="M92.8523 214.969C90.7648 214.969 88.3531 215.692 87.0611 217.398C87.0104 217.468 87.1067 217.534 87.1675 217.504C88.9876 216.544 90.9053 215.78 92.8878 215.227C92.9183 215.218 92.9446 215.199 92.9619 215.172C92.9793 215.146 92.9864 215.114 92.9821 215.082C92.9778 215.051 92.9623 215.022 92.9384 215.001C92.9146 214.981 92.884 214.969 92.8523 214.969Z" fill="#262626"/>
<path d="M94.4734 215.586C92.391 215.586 89.9742 216.31 88.6822 218.015C88.6315 218.081 88.7278 218.151 88.7886 218.121C90.6095 217.159 92.5291 216.395 94.5139 215.844C94.5449 215.835 94.5716 215.816 94.589 215.788C94.6063 215.761 94.6132 215.729 94.6082 215.697C94.6032 215.665 94.5867 215.637 94.5619 215.616C94.5371 215.596 94.5056 215.585 94.4734 215.586Z" fill="#262626"/>
<path d="M33.6992 120.68C33.6992 120.68 60.9782 161.666 61.6216 164.565C62.635 168.993 67.9094 213.359 67.9094 213.359L90.6688 212.908C90.6688 212.908 85.5262 173.708 81.4272 161.018C78.4734 151.875 57.1731 121.55 57.1731 121.55L33.6992 120.68Z" fill="#484B51"/>
<path d="M89.9899 209.018C86.3824 208.993 73.6043 208.851 68.8011 209.296C68.7917 209.296 68.7827 209.3 68.776 209.307C68.7694 209.313 68.7656 209.322 68.7656 209.332C68.7656 209.341 68.7694 209.35 68.776 209.357C68.7827 209.363 68.7917 209.367 68.8011 209.367C70.4528 209.605 86.3875 209.235 89.9899 209.119C90.0033 209.119 90.0162 209.114 90.0257 209.104C90.0352 209.095 90.0406 209.082 90.0406 209.069C90.0406 209.055 90.0352 209.042 90.0257 209.033C90.0162 209.023 90.0033 209.018 89.9899 209.018Z" fill="#262626"/>
<path d="M55.0388 231.422C53.8937 231.498 23.0478 223.377 22.1054 222.36C22.0638 222.296 22.0394 222.223 22.0345 222.147C21.9078 221.135 23.4886 217.356 24.5678 212.533C24.6388 212.225 25.2214 210.752 26.0321 208.769C28.2716 203.314 32.2641 193.953 32.2641 193.953L52.4041 199.114L44.9865 214.001L43.9732 217.502C43.9732 217.502 54.1572 225.639 55.0894 226.873C56.0217 228.108 56.1788 231.347 55.0388 231.422Z" fill="#F1B4A7"/>
<path d="M55.0388 231.427C53.8937 231.503 23.0478 223.382 22.1054 222.365C22.0638 222.301 22.0394 222.228 22.0345 222.152C21.9078 221.14 23.4886 217.36 24.5678 212.538C24.6388 212.229 25.2214 210.757 26.0321 208.773L44.9865 214.005L43.9732 217.507C43.9732 217.507 54.1572 225.643 55.0894 226.878C56.0217 228.113 56.1788 231.351 55.0388 231.427Z" fill="white"/>
<path d="M55.0343 231.425C53.8943 231.506 23.0484 223.379 22.1009 222.357C21.7361 221.973 22.5367 217.803 24.5887 212.516L44.0041 217.49C44.0041 217.49 54.1881 225.621 55.1204 226.856C56.0527 228.09 56.1793 231.344 55.0343 231.425Z" fill="#F42123"/>
<path d="M54.9178 230.114C49.9018 228.687 29.549 223.384 24.4874 222.352C24.4469 222.352 24.4368 222.352 24.4874 222.382C29.4274 223.9 49.8208 229.046 54.8874 230.2C55.004 230.235 55.0242 230.144 54.9178 230.114Z" fill="#262626"/>
<path d="M45.8192 218.494C43.7925 217.942 41.2592 218.048 39.5973 219.369C39.5315 219.425 39.5973 219.516 39.6733 219.501C41.6788 219.031 43.7292 218.78 45.7888 218.752C45.8201 218.75 45.85 218.738 45.873 218.717C45.8959 218.696 45.9106 218.667 45.9143 218.636C45.9179 218.605 45.9104 218.573 45.8929 218.547C45.8755 218.521 45.8494 218.502 45.8192 218.494Z" fill="#262626"/>
<path d="M47.2175 219.509C45.1909 218.958 42.6575 219.064 40.9957 220.385C40.9298 220.435 40.9957 220.526 41.0767 220.511C43.0811 220.046 45.1296 219.797 47.1871 219.767C47.2184 219.766 47.2483 219.754 47.2713 219.732C47.2943 219.711 47.3089 219.682 47.3126 219.651C47.3162 219.62 47.3087 219.589 47.2913 219.563C47.2738 219.537 47.2477 219.518 47.2175 219.509Z" fill="#262626"/>
<path d="M48.62 220.517C46.5933 219.965 44.06 220.072 42.3981 221.397C42.3323 221.448 42.3981 221.539 42.4741 221.524C44.48 221.057 46.5302 220.806 48.5896 220.775C48.6209 220.774 48.6507 220.761 48.6737 220.74C48.6967 220.719 48.7114 220.69 48.715 220.659C48.7187 220.628 48.7111 220.596 48.6937 220.57C48.6763 220.544 48.6502 220.525 48.62 220.517Z" fill="#262626"/>
<path d="M45.3783 217.538L22.8164 211.623C22.8164 211.623 45.4137 164.656 45.2263 161.721C45.0743 159.126 29.4031 136.34 28.5367 132.075C27.118 125.092 30.5228 118.858 33.8263 114.992L57.1633 121.57C57.1633 121.57 55.3039 125.618 51.8889 128.148C51.8889 128.148 66.5823 152.603 66.9319 160.654C67.2815 168.704 45.3783 217.538 45.3783 217.538Z" fill="#484B51"/>
<path d="M45.7314 213.476C42.4583 212.54 43.4109 212.762 40.1277 211.862C38.5215 211.422 27.9677 208.542 26.3919 208.391C26.3565 208.391 26.3413 208.446 26.3919 208.461C27.8309 209.104 38.4405 211.806 40.0719 212.211C43.3754 213.051 42.433 212.773 45.7415 213.572C45.7493 213.574 45.7573 213.573 45.765 213.571C45.7726 213.569 45.7797 213.565 45.7855 213.56C45.7914 213.554 45.7959 213.548 45.7987 213.54C45.8015 213.533 45.8026 213.525 45.8018 213.517C45.8009 213.509 45.7982 213.502 45.7939 213.495C45.7896 213.488 45.7838 213.483 45.777 213.479C45.7701 213.475 45.7625 213.472 45.7545 213.472C45.7466 213.471 45.7387 213.473 45.7314 213.476Z" fill="#262626"/>
<path d="M55.482 127.199C53.2464 128.026 51.0852 129.042 49.022 130.235C49.0124 130.238 49.0035 130.243 48.996 130.25C48.9884 130.257 48.9825 130.265 48.9785 130.274C48.9744 130.283 48.9725 130.294 48.9727 130.304C48.9729 130.314 48.9753 130.324 48.9796 130.333C48.984 130.342 48.9903 130.35 48.9981 130.357C49.0059 130.363 49.015 130.368 49.0248 130.371C49.0346 130.373 49.0448 130.374 49.0548 130.372C49.0648 130.371 49.0744 130.367 49.0828 130.361C51.2615 129.415 53.4858 128.504 55.6087 127.442C55.6318 127.421 55.6473 127.392 55.6527 127.362C55.6582 127.331 55.6533 127.299 55.6389 127.272C55.6244 127.244 55.6012 127.222 55.5728 127.209C55.5445 127.195 55.5126 127.192 55.482 127.199Z" fill="#262626"/>
<path d="M52.7388 126.626C52.5723 127.035 52.4335 127.454 52.3233 127.881C52.2068 128.205 52.1518 128.549 52.1612 128.893C52.1612 128.959 52.2574 128.964 52.298 128.893C52.4939 128.58 52.6408 128.238 52.7337 127.881C52.8756 127.491 53.0225 127.102 53.1543 126.712C53.153 126.663 53.1352 126.616 53.1037 126.578C53.0722 126.54 53.0288 126.514 52.9807 126.505C52.9325 126.495 52.8824 126.501 52.8385 126.523C52.7946 126.545 52.7595 126.582 52.7388 126.626Z" fill="#262626"/>
<path d="M52.7426 124.51C52.8338 124.151 52.925 123.797 53.0263 123.443C53.1276 123.089 53.2594 122.709 53.3303 122.335C53.3303 122.323 53.3351 122.311 53.3436 122.302C53.3522 122.294 53.3638 122.289 53.3759 122.289C53.388 122.289 53.3996 122.294 53.4081 122.302C53.4167 122.311 53.4215 122.323 53.4215 122.335C53.3303 122.694 53.2898 123.068 53.229 123.433C53.1682 123.797 53.0922 124.161 53.0212 124.526C52.8877 125.209 52.7186 125.884 52.5146 126.55C52.872 126.52 53.2182 126.411 53.5279 126.231C53.843 125.97 54.0666 125.615 54.1663 125.219C54.3082 124.809 54.4399 124.399 54.5919 123.994C54.7822 123.555 54.9331 123.099 55.0428 122.633C55.0428 122.577 55.1492 122.603 55.134 122.664C54.9558 123.647 54.6774 124.61 54.3031 125.538C54.141 125.902 54.0244 126.276 53.6647 126.453C53.2691 126.621 52.843 126.706 52.4132 126.701C52.3626 126.701 52.2916 126.701 52.3018 126.631C52.4124 125.917 52.5595 125.209 52.7426 124.51Z" fill="#262626"/>
<path d="M52.3537 128.944C53.2404 130.543 54.2537 132.081 55.2062 133.645C56.1588 135.208 57.015 136.731 57.8764 138.295C59.6227 141.459 61.2356 144.692 62.715 147.995C63.4497 149.629 64.1388 151.274 64.7873 152.944C65.4746 154.604 66.0402 156.312 66.4796 158.054C66.8994 159.792 66.9768 161.595 66.7076 163.362C66.3844 165.162 65.9254 166.935 65.3345 168.665C64.1235 172.655 62.6509 176.562 60.9265 180.359C60.8708 180.485 60.658 180.389 60.7036 180.258C61.9398 176.786 63.2369 173.325 64.3212 169.809C65.3953 166.398 66.6721 162.861 66.0793 159.238C65.752 157.499 65.2548 155.796 64.5948 154.153C63.9665 152.466 63.291 150.797 62.5681 149.144C61.1545 145.885 59.5636 142.717 57.9372 139.56C57.0252 137.794 56.0676 136.048 55.1505 134.287C54.2334 132.527 53.3164 130.7 52.2726 128.985C52.2422 128.939 52.3182 128.893 52.3537 128.944Z" fill="#262626"/>
<path d="M35.3572 125.522C35.7828 125.451 36.4009 125.597 38.23 125.471C38.7421 125.429 39.2503 125.348 39.75 125.228C40.2531 125.147 40.7312 124.954 41.1484 124.661C41.8098 124.036 42.3492 123.293 42.7393 122.47C43.2255 121.624 43.5986 120.717 43.8489 119.773C43.8489 119.718 43.9452 119.743 43.9351 119.799C43.8388 120.33 43.7881 120.866 43.6463 121.393C43.5082 121.891 43.3285 122.377 43.1092 122.845C42.7753 123.771 42.2144 124.599 41.4777 125.253C40.6519 125.876 39.5017 125.992 38.4985 126.058C37.9209 126.098 35.6561 126.058 35.3471 125.714C35.2761 125.658 35.2812 125.532 35.3572 125.522Z" fill="#262626"/>
<path d="M27.3966 207.774C29.8438 201.378 43.1033 173.052 45.6923 167.137C46.3105 165.725 47.0553 164.293 47.3745 162.775C47.7241 161.121 47.2174 159.628 46.5182 158.145C45.2159 155.433 43.7611 152.795 42.1609 150.247C40.575 147.681 38.8979 145.187 37.2411 142.657C35.5255 140.19 33.9522 137.627 32.5291 134.981C31.2473 132.425 30.5329 129.698 30.9027 126.829C31.2726 123.96 32.4987 121.308 33.8262 118.794C34.1758 118.131 34.5305 117.473 34.8851 116.81C34.8851 116.76 34.9865 116.81 34.9611 116.856C33.4817 119.492 32.0681 122.26 31.3841 125.22C31.027 126.681 30.9157 128.191 31.0547 129.688C31.241 131.202 31.6686 132.676 32.3214 134.055C33.5475 136.747 35.2601 139.226 36.8814 141.695C38.5027 144.165 40.2153 146.725 41.8214 149.285C43.4565 151.843 44.9566 154.485 46.3155 157.199C46.9134 158.413 47.567 159.678 47.7089 161.045C47.871 162.537 47.3289 163.969 46.7513 165.315C44.2433 171.19 27.8982 207.141 27.5435 207.865C27.4929 207.971 27.3611 207.865 27.3966 207.774Z" fill="#262626"/>
<path d="M58.6437 95.2546C62.2309 97.2786 75.4042 104.565 80.3138 103.892C88.1266 102.824 99.6229 91.242 102.465 88.3123C103.702 87.0422 93.8519 76.315 92.4586 77.58C91.501 78.4301 80.4607 90.736 79.1434 91.242C77.8261 91.748 66.6997 90.2705 60.0015 88.9448C53.6226 87.6849 51.0386 90.9637 58.6437 95.2546Z" fill="#F1B4A7"/>
<path d="M106.198 83.8592C104.805 86.541 99.8094 90.9129 98.1982 91.5049C96.587 92.0969 88.8654 83.8592 89.1441 82.1186C89.4227 80.3779 94.8137 71.7152 97.6358 70.4806C100.458 69.2459 107.642 81.0813 106.198 83.8592Z" fill="#F1B4A7"/>
<path d="M93.6764 73.2578C93.7828 74.8568 95.6068 73.8195 95.6068 73.8195C95.6068 73.8195 93.342 75.9447 94.0868 77.5487C94.8316 79.1527 96.9697 77.7663 97.1268 77.6702C97.0052 77.7865 94.9735 79.7903 95.8905 81.3285C96.8076 82.8668 98.7836 81.2172 98.9305 81.1059C98.8495 81.2476 97.8412 83.1299 98.8039 84.1419C100.456 85.8724 103.166 81.1059 105.056 80.6454C105.056 80.6454 106.166 83.7573 106.216 83.8434C106.216 83.8434 108.892 79.34 108.152 76.8302C108.052 76.4631 107.829 76.1414 107.52 75.9186C107.211 75.6958 106.835 75.5853 106.455 75.6057C106.455 75.6057 107.468 74.2496 106.794 73.015C106.439 72.3875 105.117 72.3875 105.117 72.3875C105.331 72.0675 105.453 71.695 105.47 71.3105C105.487 70.926 105.398 70.5442 105.213 70.2067C104.676 69.3616 103.43 69.4932 103.43 69.4932C103.43 69.4932 103.673 68.0764 102.847 67.3882C101.155 66.017 93.4585 69.8272 93.6764 73.2578Z" fill="#F1B4A7"/>
<path d="M103.213 69.5014V69.4609C100.253 70.114 97.5643 71.6554 95.5067 73.8783C95.4408 73.9492 95.5067 74.0858 95.6182 74.02C97.9169 72.1538 100.475 70.6317 103.213 69.5014Z" fill="#262626"/>
<path d="M105.13 72.3614C105.161 72.3614 105.13 72.2956 105.13 72.3057C101.876 73.0546 98.9995 74.9454 97.0236 77.6339C96.9578 77.7301 97.0236 77.8819 97.0794 77.7807C98.4879 76.0299 102.546 73.3734 105.13 72.3614Z" fill="#262626"/>
<path d="M98.8424 81.3468C100.798 78.7409 103.402 77.0255 106.311 75.6442C106.351 75.6442 106.311 75.5733 106.285 75.5784C104.674 75.8668 102.906 76.9395 101.599 77.8959C100.37 78.7572 99.3888 79.9241 98.7512 81.281C98.7258 81.3367 98.8018 81.4024 98.8424 81.3468Z" fill="#262626"/>
<path d="M95.6083 73.8203C95.2119 74.2677 94.8574 74.7504 94.5493 75.2624C94.2296 75.7468 94.0442 76.3073 94.0123 76.8867C94.0135 77.1538 94.1126 77.4112 94.2909 77.6103C94.4749 77.8078 94.7071 77.9543 94.9648 78.0353C95.2242 78.0964 95.4936 78.1023 95.7555 78.0526C96.0174 78.0029 96.2659 77.8987 96.4848 77.7469L97.5944 77.0435L96.7989 78.0859C96.4407 78.5431 96.16 79.0559 95.968 79.6039C95.8639 79.8538 95.8146 80.1231 95.8233 80.3937C95.8321 80.6642 95.8987 80.9298 96.0187 81.1725C96.1312 81.3968 96.3172 81.5759 96.5458 81.6799C96.7745 81.784 97.0318 81.8067 97.2752 81.7443C97.8178 81.5919 98.3129 81.3047 98.7141 80.9094L99.8592 79.8518L99.1245 81.218C98.9222 81.5968 98.769 81.9998 98.6685 82.4173C98.5472 82.8078 98.5472 83.2259 98.6685 83.6165C98.7301 83.7904 98.8401 83.9431 98.9854 84.0569C99.1308 84.1707 99.3055 84.2408 99.4893 84.2591C99.9056 84.2435 100.308 84.1082 100.65 83.8695C101.399 83.3701 102.105 82.8099 102.762 82.1946C103.107 81.8961 103.457 81.5975 103.816 81.3142C104.161 81.0093 104.567 80.7815 105.007 80.6463C104.591 80.8263 104.214 81.0859 103.897 81.4103C103.563 81.719 103.244 82.0428 102.919 82.3667C102.29 83.0377 101.597 83.6476 100.852 84.1883C100.451 84.4849 99.9725 84.6605 99.4741 84.6943C99.2006 84.6813 98.9367 84.5893 98.7145 84.4294C98.4924 84.2695 98.3215 84.0486 98.2227 83.7936C98.0518 83.3155 98.0288 82.7972 98.1568 82.3059C98.2647 81.8367 98.4351 81.384 98.6635 80.96L99.0739 81.2686C98.6077 81.7475 98.0244 82.0964 97.3816 82.2806C97.0236 82.3692 96.646 82.3317 96.3125 82.1744C95.9874 82.0103 95.7204 81.7507 95.5475 81.4305C95.3967 81.1223 95.3133 80.7856 95.3028 80.4428C95.2924 80.0999 95.355 79.7588 95.4867 79.442C95.7038 78.8387 96.0206 78.276 96.424 77.7772L96.7381 78.1163C96.4575 78.2972 96.1407 78.4146 95.8098 78.46C95.4789 78.5055 95.142 78.478 94.8229 78.3794C94.5103 78.2625 94.2341 78.0653 94.0224 77.8076C93.8058 77.5449 93.6939 77.2115 93.7083 76.8715C93.7732 76.2483 94.012 75.6557 94.3973 75.1612C94.7504 74.6712 95.1565 74.2215 95.6083 73.8203Z" fill="#262626"/>
<path d="M89.8125 80.4863C89.8125 80.4863 90.76 67.7047 95.5784 70.5231C97.0122 71.358 101.896 76.504 100.878 77.5059C99.5658 78.7962 97.1288 77.0252 95.7709 75.6742C95.7709 75.6742 96.0648 80.0663 93.0602 81.1795C92.5075 81.3744 91.9116 81.4128 91.3384 81.2905C90.7652 81.1681 90.2371 80.8898 89.8125 80.4863Z" fill="#F1B4A7"/>
<path d="M95.1529 70.3359C95.7546 70.5989 96.3145 70.9484 96.8148 71.3732C97.326 71.7834 97.8084 72.228 98.2588 72.704C99.1765 73.6431 100.012 74.6588 100.757 75.74C100.952 76.0293 101.105 76.3444 101.213 76.6761C101.275 76.8668 101.294 77.0691 101.268 77.2681C101.253 77.3787 101.221 77.4863 101.172 77.5869C101.121 77.683 101.054 77.7701 100.975 77.845C100.691 78.1163 100.318 78.2762 99.9257 78.2953C99.5652 78.3091 99.205 78.2594 98.8617 78.1486C98.2176 77.9288 97.616 77.6002 97.0833 77.1771C96.5576 76.7765 96.063 76.3367 95.6039 75.8615L95.9889 75.6793C96.0065 76.1872 95.9742 76.6956 95.8927 77.1973C95.8162 77.6893 95.6906 78.1724 95.5177 78.6394C95.3371 79.105 95.0915 79.5428 94.7881 79.9398C94.4838 80.3295 94.1092 80.659 93.6836 80.9113C94.0641 80.6129 94.3928 80.2539 94.6564 79.8487C94.9105 79.4439 95.1082 79.0064 95.2441 78.5483C95.385 78.0919 95.4784 77.6222 95.5228 77.1467C95.5658 76.6771 95.5658 76.2046 95.5228 75.735L95.4671 75.1531L95.9079 75.5528C96.3686 75.9926 96.8577 76.4016 97.3721 76.7773C97.8686 77.1512 98.4209 77.4449 99.0087 77.6476C99.2621 77.7559 99.5392 77.7974 99.8133 77.7681C100.087 77.7389 100.349 77.6399 100.574 77.4807C100.914 77.1922 100.62 76.5446 100.301 76.0284C99.962 75.4867 99.595 74.9631 99.2012 74.4598C98.8111 73.9538 98.4108 73.4478 97.9903 72.9418C97.1859 71.9311 96.2286 71.0519 95.1529 70.3359Z" fill="#262626"/>
<path d="M89.0727 80.8672L98.4815 94.4786C98.4815 94.4786 88.3786 102.645 80.2821 104.573C76.9482 105.368 64.0991 99.3817 58.4954 95.8751C52.8917 92.3686 51.0018 87.4502 60.9325 88.7051C70.8631 89.96 78.1591 91.2807 78.8077 91.0833C79.4562 90.886 89.0727 80.8672 89.0727 80.8672Z" fill="#F42123"/>
<path d="M87.4037 84.2941C87.9058 85.2709 88.4571 86.2217 89.0554 87.1429C89.6431 88.1195 90.2613 89.0707 90.8744 90.0271C91.4874 90.9834 94.0663 94.7278 94.7098 95.6639C94.7165 95.6709 94.7254 95.6753 94.7351 95.6763C94.7447 95.6773 94.7543 95.6748 94.7623 95.6693C94.7702 95.6638 94.776 95.6557 94.7784 95.6463C94.7809 95.637 94.7799 95.6271 94.7757 95.6184C94.188 94.6469 91.8674 90.781 91.2594 89.8449C90.6514 88.9088 90.0536 87.9677 89.4253 87.0518C88.8141 86.0918 88.1528 85.1646 87.4442 84.2738C87.4442 84.2738 87.3936 84.2688 87.4037 84.2941Z" fill="#262626"/>
<path d="M74.5061 103.493C68.9317 101.474 63.565 98.924 58.4802 95.8776C54.8981 93.636 52.841 90.8176 54.3965 89.4109L54.5535 89.3047L74.5061 103.493Z" fill="#262626"/>
<path d="M59.8686 126.336C59.2606 126.731 30.7707 119.333 30.6643 119.1C30.3704 118.468 45.763 90.2127 54.1179 86.4835C55.9115 85.679 60.2688 87.6574 61.1251 88.9578C61.6622 89.7776 62.1384 94.3822 62.3867 98.1266C62.8579 105.625 60.3955 125.992 59.8686 126.336Z" fill="#F42123"/>
<path d="M59.9204 92.0938C59.7228 94.9375 59.4695 97.7761 59.2111 100.61C58.9527 103.443 58.6487 106.282 58.37 109.116C58.0913 111.949 57.7468 114.778 57.4073 117.606L56.9007 121.852C56.7081 123.263 56.5359 124.675 56.3281 126.087C56.4193 124.665 56.546 123.243 56.6575 121.821L57.0375 117.566C57.2959 114.732 57.5999 111.899 57.8785 109.06C58.1572 106.221 58.4967 103.398 58.8412 100.569C59.1857 97.7407 59.51 94.9071 59.9204 92.0938Z" fill="#262626"/>
<path d="M61.0889 101.004C61.0789 101.108 61.0388 101.206 60.9735 101.287C60.9082 101.368 60.8206 101.428 60.7215 101.459C60.6224 101.491 60.5162 101.493 60.4161 101.465C60.3159 101.437 60.2261 101.38 60.1579 101.302C60.0896 101.223 60.0459 101.127 60.0321 101.024C60.0182 100.921 60.0349 100.816 60.0801 100.723C60.1252 100.629 60.1969 100.551 60.2861 100.497C60.3753 100.444 60.4783 100.418 60.5822 100.422C60.6544 100.425 60.7252 100.443 60.7903 100.475C60.8554 100.506 60.9134 100.55 60.9608 100.605C61.0082 100.659 61.044 100.723 61.066 100.791C61.0881 100.86 61.0958 100.932 61.0889 101.004Z" fill="#262626"/>
<path d="M60.4241 106.46C60.416 106.566 60.3769 106.666 60.3119 106.749C60.2468 106.833 60.1586 106.895 60.0584 106.928C59.9581 106.961 59.8502 106.964 59.7482 106.937C59.6462 106.909 59.5546 106.852 59.4849 106.773C59.4152 106.694 59.3705 106.595 59.3564 106.491C59.3423 106.386 59.3594 106.28 59.4055 106.185C59.4517 106.09 59.5249 106.011 59.616 105.957C59.707 105.903 59.8119 105.878 59.9174 105.884C59.9892 105.887 60.0595 105.904 60.1242 105.935C60.1889 105.966 60.2467 106.01 60.294 106.064C60.3414 106.118 60.3773 106.181 60.3997 106.249C60.422 106.317 60.4303 106.389 60.4241 106.46Z" fill="#262626"/>
<path d="M59.7093 111.921C59.7011 112.027 59.6621 112.127 59.597 112.21C59.532 112.293 59.4438 112.356 59.3435 112.389C59.2432 112.422 59.1353 112.425 59.0333 112.398C58.9313 112.37 58.8397 112.313 58.77 112.234C58.7003 112.154 58.6556 112.056 58.6415 111.952C58.6274 111.847 58.6445 111.741 58.6907 111.646C58.7369 111.551 58.8101 111.472 58.9011 111.418C58.9922 111.364 59.0971 111.339 59.2026 111.345C59.2741 111.348 59.3441 111.366 59.4084 111.398C59.4728 111.429 59.5303 111.473 59.5775 111.526C59.6247 111.58 59.6607 111.643 59.6833 111.711C59.706 111.778 59.7148 111.85 59.7093 111.921Z" fill="#262626"/>
<path d="M59.0151 117.39C59.0061 117.494 58.9667 117.592 58.902 117.674C58.8372 117.756 58.7498 117.816 58.6508 117.849C58.5517 117.881 58.4453 117.884 58.3447 117.856C58.2442 117.829 58.1539 117.772 58.0852 117.694C58.0164 117.616 57.9722 117.519 57.9581 117.416C57.9439 117.313 57.9604 117.208 58.0055 117.114C58.0506 117.02 58.1223 116.942 58.2117 116.888C58.3011 116.835 58.4043 116.808 58.5085 116.813C58.5802 116.816 58.6505 116.834 58.7152 116.865C58.78 116.896 58.8377 116.94 58.8851 116.993C58.9324 117.047 58.9683 117.11 58.9907 117.178C59.013 117.246 59.0213 117.318 59.0151 117.39Z" fill="#262626"/>
<path d="M58.3276 122.843C58.3186 122.947 58.2792 123.045 58.2145 123.127C58.1497 123.209 58.0623 123.269 57.9633 123.302C57.8642 123.334 57.7578 123.337 57.6572 123.309C57.5567 123.282 57.4664 123.226 57.3977 123.147C57.3289 123.069 57.2847 122.972 57.2706 122.869C57.2564 122.766 57.2729 122.661 57.318 122.567C57.3631 122.473 57.4348 122.395 57.5242 122.341C57.6136 122.288 57.7168 122.262 57.821 122.266C57.8927 122.269 57.963 122.287 58.0277 122.318C58.0925 122.349 58.1502 122.393 58.1976 122.447C58.2449 122.5 58.2808 122.563 58.3032 122.631C58.3255 122.7 58.3338 122.772 58.3276 122.843Z" fill="#262626"/>
<path d="M58.4439 92.6023C56.6554 92.4708 54.5983 89.0198 54.1221 86.6012C54.0917 86.4342 54.7807 85.0123 55.5357 83.2464C55.9917 82.1737 56.473 80.9643 56.8327 79.8359L63.4194 83.808C62.5663 85.0972 61.8738 86.4855 61.3573 87.9421C61.3071 88.0984 61.2731 88.2595 61.2559 88.4228C61.2574 88.448 61.2574 88.4734 61.2559 88.4987C61.0837 89.4196 60.1767 92.7187 58.4439 92.6023Z" fill="#F1B4A7"/>
<path d="M57.1423 80.0078C56.9143 81.4904 56.3874 86.8995 60.4762 88.2961C60.7178 88.3778 60.965 88.442 61.2159 88.4884C61.2204 88.4599 61.2204 88.4309 61.2159 88.4024C61.2343 88.2414 61.2665 88.0822 61.3122 87.9267C61.8326 86.4699 62.5284 85.0817 63.3844 83.7927L57.1423 80.0078Z" fill="#262626"/>
<path d="M57.0495 72.686C55.9551 75.216 56.4972 82.9629 58.1794 84.8655C60.6164 87.6181 65.0295 88.3467 67.4767 85.3209C69.853 82.3911 68.9663 72.3217 67.046 70.5507C64.2239 67.9448 58.6708 68.9416 57.0495 72.686Z" fill="#F1B4A7"/>
<path d="M63.9099 78.1406C63.9099 78.1406 63.8693 78.1406 63.8744 78.1862C63.9251 78.6922 63.8744 79.3145 63.4336 79.5169V79.5473C64.0112 79.4411 64.0416 78.6264 63.9099 78.1406Z" fill="#262626"/>
<path d="M63.4087 77.625C62.5676 77.625 62.6081 79.3049 63.4087 79.31C64.2092 79.315 64.118 77.6351 63.4087 77.625Z" fill="#262626"/>
<path d="M66.8076 78.0859C66.8076 78.0859 66.8481 78.0859 66.8481 78.1264C66.8481 78.6324 66.9292 79.2497 67.4105 79.4117V79.442C66.8278 79.3762 66.7214 78.5768 66.8076 78.0859Z" fill="#262626"/>
<path d="M67.2582 77.5188C68.0993 77.4328 68.2107 79.1178 67.4305 79.1987C66.6502 79.2797 66.559 77.5947 67.2582 77.5188Z" fill="#262626"/>
<path d="M62.7266 76.8767C62.9472 76.806 63.1637 76.7233 63.3751 76.6288C63.6136 76.5743 63.8273 76.4427 63.9831 76.2544C64.0216 76.1856 64.0361 76.1059 64.0241 76.028C64.0122 75.9501 63.9746 75.8784 63.9173 75.8243C63.7877 75.7336 63.6362 75.6793 63.4785 75.6668C63.3208 75.6544 63.1627 75.6843 63.0205 75.7534C62.7124 75.8508 62.4509 76.0579 62.2858 76.3353C62.2512 76.4011 62.2367 76.4756 62.2441 76.5495C62.2515 76.6235 62.2804 76.6936 62.3273 76.7513C62.3743 76.8089 62.4371 76.8515 62.5081 76.8738C62.5791 76.8961 62.6551 76.8972 62.7266 76.8767Z" fill="#262626"/>
<path d="M67.8943 76.6551C67.6669 76.6154 67.4419 76.563 67.2204 76.4982C66.9751 76.477 66.7436 76.3756 66.5618 76.2098C66.5141 76.1472 66.4883 76.0708 66.4883 75.9922C66.4883 75.9136 66.5141 75.8372 66.5618 75.7746C66.6786 75.6676 66.8217 75.5935 66.9766 75.5597C67.1314 75.5259 67.2925 75.5337 67.4434 75.5823C67.7611 75.6371 68.0478 75.8063 68.249 76.058C68.2917 76.1179 68.3161 76.1889 68.3192 76.2624C68.3223 76.3358 68.3039 76.4086 68.2663 76.4719C68.2288 76.5351 68.1736 76.5861 68.1075 76.6187C68.0415 76.6512 67.9674 76.6638 67.8943 76.6551Z" fill="#262626"/>
<path d="M63.4002 83.0088C63.5319 83.1302 63.6586 83.2972 63.8511 83.3073C64.0449 83.2963 64.2345 83.2464 64.4085 83.1606C64.4085 83.1606 64.444 83.1606 64.4085 83.1859C64.336 83.2905 64.2365 83.3735 64.1205 83.4261C64.0045 83.4786 63.8764 83.4988 63.7498 83.4844C63.5117 83.4541 63.3901 83.2517 63.3242 83.0341C63.3445 82.9835 63.385 82.9835 63.4002 83.0088Z" fill="#262626"/>
<path d="M63.9118 81.429C64.049 81.6327 64.227 81.8057 64.4345 81.9372C64.6421 82.0687 64.8747 82.1559 65.1176 82.1931C65.331 82.2234 65.5477 82.2234 65.7611 82.1931C65.8015 82.1983 65.8423 82.1983 65.8827 82.1931H65.9992C66.027 82.1865 66.0519 82.1711 66.0702 82.1492C66.0885 82.1273 66.0991 82.1001 66.1006 82.0716C66.1006 82.0716 66.1006 82.0413 66.1006 82.021V81.9755C66.1006 81.5757 66.0448 80.9635 66.0448 80.9635C66.1968 81.0343 66.9568 81.348 66.9366 81.1406C66.844 79.329 66.5655 77.5318 66.1056 75.777C66.1023 75.7669 66.0958 75.758 66.0872 75.7518C66.0786 75.7456 66.0682 75.7422 66.0575 75.7422C66.0468 75.7422 66.0364 75.7456 66.0278 75.7518C66.0191 75.758 66.0127 75.7669 66.0094 75.777C66.0904 77.4518 66.4603 79.1014 66.5667 80.7813C66.2957 80.6632 66.009 80.5848 65.7155 80.5486C65.6598 80.5486 65.8422 81.7276 65.832 81.9097C65.5039 81.9543 65.1702 81.9324 64.8508 81.8455C64.5313 81.7586 64.2326 81.6083 63.9726 81.4037C63.9168 81.3531 63.8763 81.3885 63.9118 81.429Z" fill="#262626"/>
<path d="M65.4596 82.1032C65.2234 82.3726 64.9214 82.5765 64.5831 82.6952C64.3975 82.7584 64.1962 82.7584 64.0106 82.6952C63.6052 82.5637 63.6154 82.1892 63.7116 81.8654C63.7646 81.6889 63.8377 81.5191 63.9295 81.3594C64.3466 81.7646 64.883 82.0254 65.4596 82.1032Z" fill="#262626"/>
<path d="M64.5831 82.697C64.3975 82.7603 64.1962 82.7603 64.0106 82.697C63.6052 82.5655 63.6154 82.191 63.7116 81.8672C63.9291 81.8877 64.1333 81.9807 64.2914 82.1313C64.4495 82.2818 64.5522 82.4811 64.5831 82.697Z" fill="#F291B8"/>
<path d="M68.3749 73.6041C65.8415 75.5016 62.1581 72.9514 62.1581 72.9514C61.96 73.5296 61.5804 74.0287 61.0755 74.3742C60.5707 74.7197 59.9677 74.8933 59.3562 74.8691C59.3562 74.8691 59.0269 79.3017 57.8615 79.3421C56.0882 79.4029 55.2877 73.4118 55.7943 72.2075C56.301 71.0033 57.7957 70.6339 57.7957 70.6339C57.9297 69.9107 58.3358 69.2662 58.9306 68.8325C60.101 67.8559 64.3367 68.9236 64.3367 68.9236C64.5528 68.3551 64.9 67.8455 65.3501 67.436C65.4577 67.334 65.5849 67.2549 65.7239 67.2033C65.863 67.1518 66.0111 67.1289 66.1592 67.136C66.3074 67.143 66.4526 67.18 66.5861 67.2446C66.7196 67.3092 66.8386 67.4001 66.936 67.5119C66.7262 67.8474 66.5962 68.2265 66.556 68.62C66.3989 69.9204 67.4578 69.8749 67.397 68.701C67.3913 68.2621 67.2277 67.84 66.936 67.5119C67.4426 66.7276 68.2634 66.4391 68.8005 66.8288C69.7631 67.5321 70.4826 72.0304 68.3749 73.6041Z" fill="#262626"/>
<path d="M58.5002 78.8587C58.5002 78.8587 57.0056 76.2426 55.8301 76.7537C54.6546 77.2648 55.6274 80.9484 56.8941 81.5556C57.0516 81.6443 57.2254 81.7003 57.4052 81.7203C57.5849 81.7403 57.7668 81.7237 57.94 81.6718C58.1132 81.6198 58.2741 81.5334 58.413 81.4178C58.5519 81.3022 58.666 81.1598 58.7485 80.999L58.5002 78.8587Z" fill="#F1B4A7"/>
<path d="M56.1324 77.8047C56.1324 77.8047 56.107 77.83 56.1324 77.8351C57.019 78.2905 57.4244 79.1861 57.6828 80.1019C57.6384 80.005 57.5735 79.9188 57.4925 79.8495C57.4115 79.7801 57.3163 79.7293 57.2136 79.7004C57.1109 79.6715 57.0031 79.6653 56.8978 79.6822C56.7924 79.6991 56.692 79.7387 56.6036 79.7983C56.5782 79.7983 56.6036 79.854 56.6036 79.854C56.7695 79.8165 56.9429 79.8315 57.0999 79.8967C57.2569 79.962 57.3898 80.0744 57.4801 80.2183C57.627 80.4619 57.7492 80.7196 57.8449 80.9874C57.8804 81.0735 58.0324 81.0431 58.007 80.947C58.1438 79.7579 57.3838 78.0324 56.1324 77.8047Z" fill="#262626"/>
<path d="M61.2162 88.4837L59.6962 91.8739L54.3458 85.8828L52.6484 87.4919C52.6484 87.4919 57.0818 96.696 57.1527 96.3064L59.8026 92.7644L61.6266 95.6081L62.042 90.0826L61.2162 88.4837Z" fill="#F42123"/>
<path d="M61.9951 92.372C62.0255 91.2891 62.0913 91.2132 62.0711 90.1355C62.0711 90.095 62.0153 90.0697 62.0001 90.1355C61.686 91.1475 61.5847 94.2796 61.4935 95.2612C61.3972 95.1398 59.8316 92.7312 59.8012 92.7818C59.3604 93.3384 57.2679 95.9292 57.1665 96.167C56.4673 94.7046 53.7567 89.3714 52.8953 87.9748C52.8897 87.9684 52.8822 87.9639 52.8738 87.962C52.8654 87.96 52.8567 87.9608 52.8488 87.9642C52.8409 87.9676 52.8343 87.9734 52.8299 87.9807C52.8255 87.9881 52.8236 87.9967 52.8244 88.0052C53.4223 89.5232 56.9993 96.7033 57.0652 96.6932C58.0684 95.5005 58.9893 94.241 59.8215 92.9235C60.1609 93.4295 61.7215 96.1063 61.7468 95.9595C61.8943 94.769 61.9772 93.5714 61.9951 92.372Z" fill="#262626"/>
<path d="M89.2342 134.525L85.2539 133.078L54.209 218.261L58.1893 219.708L89.2342 134.525Z" fill="#DBDBDB"/>
<path d="M89.2297 134.525L86.818 141.134L82.4961 140.633L85.2473 133.078L89.2297 134.525Z" fill="#A6A6A6"/>
<path d="M96.8889 117.753L90.1758 115.312L82.7486 135.692L89.4617 138.132L96.8889 117.753Z" fill="#F42123"/>
<path d="M86.4575 232.578H27.9375L30.4708 227.953H83.9292L86.4575 232.578Z" fill="#262626"/>
<path d="M79.3697 230.419H35.0312C35.0312 230.419 38.1321 211.93 57.1979 211.93C76.2638 211.93 79.3697 230.419 79.3697 230.419Z" fill="#A6A6A6"/>
<path d="M69.7981 230.419H44.6016C44.6016 230.419 46.3648 219.914 57.1973 219.914C68.0298 219.914 69.7981 230.419 69.7981 230.419Z" fill="#C7C7C7"/>
<path d="M47.9544 96.6459C47.5845 100.744 48.1266 118.541 49.8138 121.44C52.8538 126.682 69.3205 133.791 73.156 135.173C74.828 135.775 80.5634 122.411 78.8256 121.642C77.6552 121.136 61.8928 116.147 60.8744 115.16C59.856 114.174 55.8077 101.934 54.2877 95.2949C52.793 88.9597 48.7346 87.9579 47.9544 96.6459Z" fill="#F1B4A7"/>
<path d="M94.257 126.068C94.3009 126.509 94.2089 126.954 93.9935 127.341C93.778 127.729 93.4493 128.042 93.0511 128.239C93.5335 128.817 93.7972 129.546 93.7959 130.298C93.7351 131.624 91.6274 132.11 91.6274 132.11C92.0034 132.813 92.1571 133.614 92.0682 134.407C91.8858 135.667 89.8237 136.461 89.8237 136.461C89.8109 137.298 89.4981 138.102 88.9421 138.728C87.3815 140.337 84.0375 139.624 81.9045 139.194C79.7714 138.763 74.1322 135.54 72.9922 135.039L75.6269 121.347C75.6269 121.347 85.7602 120.568 88.1719 121.428C90.2442 122.157 94.0239 124.388 94.257 126.068Z" fill="#F1B4A7"/>
<path d="M92.9998 128.018C91.0035 126.723 88.7337 126.085 86.5043 125.321C86.4948 125.319 86.485 125.321 86.4767 125.326C86.4684 125.331 86.4622 125.339 86.4591 125.348C86.4561 125.357 86.4564 125.367 86.46 125.376C86.4637 125.385 86.4704 125.392 86.479 125.397C88.7033 126.13 90.7553 127.299 92.9491 128.119C93.0099 128.119 93.0505 128.018 92.9998 128.018Z" fill="#262626"/>
<path d="M91.617 131.922C91.1381 131.668 90.6267 131.481 90.097 131.366C89.5397 131.209 88.9874 131.057 88.4301 130.915C87.3154 130.637 86.1906 130.379 85.0608 130.156C85.0101 130.156 84.9848 130.222 85.0354 130.237C86.1501 130.516 87.2546 130.814 88.3541 131.143C88.9064 131.31 89.4536 131.477 90.0008 131.649C90.5065 131.842 91.0313 131.981 91.5664 132.064C91.5826 132.063 91.5982 132.058 91.6113 132.048C91.6244 132.039 91.6344 132.025 91.6398 132.01C91.6453 131.995 91.646 131.978 91.642 131.963C91.6379 131.947 91.6292 131.933 91.617 131.922Z" fill="#262626"/>
<path d="M89.7778 136.446C89.3398 136.224 88.8668 136.078 88.3794 136.016L86.8594 135.657C85.8461 135.409 84.8327 135.151 83.8194 134.883C83.8116 134.886 83.8049 134.891 83.8002 134.898C83.7955 134.904 83.793 134.912 83.793 134.921C83.793 134.929 83.7955 134.937 83.8002 134.944C83.8049 134.951 83.8116 134.956 83.8194 134.959C84.8327 135.252 85.8461 135.556 86.8949 135.839L88.4149 136.244C88.8634 136.413 89.339 136.498 89.8183 136.497C89.8217 136.494 89.8244 136.491 89.8265 136.487C89.8285 136.484 89.8298 136.479 89.8303 136.475C89.8308 136.471 89.8304 136.467 89.8292 136.463C89.828 136.459 89.8261 136.455 89.8234 136.451C89.8207 136.448 89.8174 136.445 89.8137 136.443C89.81 136.441 89.8059 136.44 89.8016 136.439C89.7974 136.439 89.7931 136.439 89.789 136.441C89.7849 136.442 89.7811 136.444 89.7778 136.446Z" fill="#262626"/>
<path d="M76.13 120.351L72.3097 135.951C72.3097 135.951 53.9633 128.361 49.079 121.626C47.0524 118.853 46.4342 102.54 47.5236 96.0122C48.6129 89.4848 52.2001 86.5247 54.85 96.1387C57.4998 105.753 60.175 114.243 60.7982 114.517C61.4214 114.79 76.13 120.351 76.13 120.351Z" fill="#F42123"/>
<path d="M52.2485 124.738C50.9869 123.797 49.6189 122.638 48.8589 121.282C48.4948 120.569 48.2729 119.792 48.2053 118.995C48.0533 118.064 47.9165 117.132 47.7949 116.201C47.3274 112.578 47.1225 108.925 47.1818 105.272C47.2122 103.207 47.3237 101.143 47.5314 99.0885C47.529 99.0831 47.5251 99.0785 47.5202 99.0753C47.5152 99.072 47.5094 99.0703 47.5035 99.0703C47.4976 99.0703 47.4918 99.072 47.4869 99.0753C47.4819 99.0785 47.478 99.0831 47.4757 99.0885C47.2122 100.748 47.0247 102.413 46.9031 104.083C46.9031 103.84 46.8626 103.577 46.8474 103.354C46.8069 102.691 46.7917 102.023 46.8119 101.355C46.8119 101.325 46.7562 101.325 46.7562 101.355C46.7063 102.029 46.7063 102.706 46.7562 103.379C46.7866 103.754 46.8322 104.123 46.8879 104.493C46.7613 106.42 46.7207 108.353 46.7815 110.291C46.8423 112.229 46.9639 114.086 47.197 115.974C47.3135 116.895 47.4453 117.811 47.6074 118.726C47.717 119.621 47.9542 120.495 48.3117 121.322C49.0818 122.876 50.6981 123.893 52.2231 124.783C52.2383 124.819 52.2839 124.768 52.2485 124.738Z" fill="#262626"/>
<path d="M61.1227 114.511C60.54 114.405 60.3475 113.499 60.1803 113.044L59.5266 111.243C59.101 110.054 58.721 108.854 58.341 107.65C58.032 106.663 57.7432 105.677 57.4544 104.685C57.3632 104.058 57.2821 103.43 57.1757 102.803C57.1757 102.767 57.1048 102.803 57.1099 102.803C57.1605 103.243 57.2264 103.678 57.2923 104.113C56.9275 102.848 56.5677 101.583 56.1877 100.318C56.1877 100.288 56.132 100.318 56.137 100.318C56.5728 102.383 57.0642 104.422 57.6266 106.461C58.1587 108.495 58.8222 110.493 59.6128 112.442C59.8067 112.947 60.03 113.44 60.2816 113.919C60.358 114.084 60.4722 114.227 60.6149 114.339C60.7575 114.451 60.9245 114.527 61.1024 114.562C61.153 114.598 61.1733 114.522 61.1227 114.511Z" fill="#262626"/>
<path d="M73.0424 120.462C72.6514 121.49 72.3132 122.537 72.0291 123.599C71.7048 124.692 71.4161 125.79 71.1171 126.888C70.8182 127.986 69.7896 132.409 69.5312 133.512C69.5341 133.52 69.5393 133.526 69.5461 133.531C69.5529 133.536 69.561 133.538 69.5692 133.538C69.5775 133.538 69.5856 133.536 69.5924 133.531C69.5992 133.526 69.6044 133.52 69.6072 133.512C69.9366 132.424 71.2286 128.108 71.5123 127.03C71.7961 125.952 72.0899 124.875 72.3483 123.792C72.6457 122.695 72.8859 121.584 73.0678 120.462C73.0931 120.457 73.0526 120.427 73.0424 120.462Z" fill="#262626"/>
<path d="M278.219 55.6131C289.09 55.6131 297.903 46.8118 297.903 35.955C297.903 25.0981 289.09 16.2969 278.219 16.2969C267.348 16.2969 258.535 25.0981 258.535 35.955C258.535 46.8118 267.348 55.6131 278.219 55.6131Z" fill="#F42123"/>
<path d="M278.218 50.9589C286.515 50.9589 293.241 44.2419 293.241 35.956C293.241 27.6701 286.515 20.9531 278.218 20.9531C269.921 20.9531 263.195 27.6701 263.195 35.956C263.195 44.2419 269.921 50.9589 278.218 50.9589Z" fill="white"/>
<path d="M288.67 38.4498C290.045 32.6895 286.484 26.9066 280.716 25.5333C274.949 24.16 269.158 27.7162 267.783 33.4765C266.408 39.2367 269.969 45.0196 275.737 46.3929C281.504 47.7662 287.295 44.21 288.67 38.4498Z" fill="#F42123"/>
<path d="M284.009 37.2858C284.742 34.0935 282.745 30.912 279.549 30.1797C276.352 29.4473 273.166 31.4416 272.433 34.6339C271.7 37.8262 273.697 41.0077 276.893 41.74C280.09 42.4723 283.275 40.4781 284.009 37.2858Z" fill="white"/>
<path d="M280.906 35.9552C280.906 36.4856 280.748 37.0042 280.453 37.4452C280.158 37.8862 279.739 38.2299 279.248 38.4329C278.757 38.6359 278.218 38.689 277.697 38.5855C277.176 38.482 276.697 38.2266 276.322 37.8516C275.946 37.4765 275.69 36.9987 275.587 36.4784C275.483 35.9582 275.536 35.419 275.74 34.929C275.943 34.4389 276.287 34.0201 276.729 33.7254C277.17 33.4307 277.689 33.2734 278.22 33.2734C278.573 33.2728 278.923 33.3417 279.249 33.4762C279.575 33.6108 279.871 33.8083 280.121 34.0574C280.37 34.3066 280.568 34.6025 280.703 34.9282C280.837 35.2538 280.906 35.6029 280.906 35.9552Z" fill="#F42123"/>
<path d="M305.105 8.50273L279.668 33.9062L280.277 34.5145L305.714 9.11098L305.105 8.50273Z" fill="#565A62"/>
<path d="M281.542 35.0667L278.219 35.9572L279.11 32.6328L281.542 35.0667Z" fill="#262626"/>
<path d="M309.664 7.15047L304.897 11.9119L301.152 13.0504L302.297 9.31615L307.065 4.55469L305.925 8.28897L309.664 7.15047Z" fill="#262626"/>
</svg>
