<svg width="360" height="285" viewBox="0 0 360 285" fill="none" xmlns="http://www.w3.org/2000/svg">
<g clip-path="url(#clip0_18763_23047)">
<g clip-path="url(#clip1_18763_23047)">
<path d="M254.901 76.0703H233.102V83.0081H254.901V76.0703Z" fill="#E8EBEE"/>
<path d="M126.618 159.172H125.359V210.006H126.618V159.172Z" fill="#A0A4AB"/>
<path d="M106.696 173.422H99.0703V196.132H106.696V173.422Z" fill="#E8EBEE"/>
<path d="M116.387 180.976H95.4375V169.227H116.387V180.976ZM96.0575 180.356H115.767V169.847H96.0575V180.356Z" fill="#E8EBEE"/>
<path d="M24.9961 263.004C115.333 262.332 216.659 262.332 306.996 263.004C216.659 263.665 115.333 263.665 24.9961 263.004Z" fill="#484B51"/>
<path d="M288.33 184.723H193.129V49.6328H298.665V174.377L288.33 184.723Z" fill="white"/>
<path d="M206.965 98.758L247.982 98.6953L289.005 98.758L247.982 98.8259L206.965 98.758Z" fill="#A0A4AB"/>
<path d="M206.965 102.11L247.982 102.047L289.005 102.11L247.982 102.177L206.965 102.11Z" fill="#A0A4AB"/>
<path d="M206.965 105.459L247.982 105.391L289.005 105.459L247.982 105.521L206.965 105.459Z" fill="#A0A4AB"/>
<path d="M206.965 108.805L247.982 108.742L289.005 108.805L247.982 108.873L206.965 108.805Z" fill="#A0A4AB"/>
<path d="M206.965 112.146L247.982 112.078L289.005 112.146L247.982 112.209L206.965 112.146Z" fill="#A0A4AB"/>
<path d="M206.965 115.492L247.982 115.43L289.005 115.492L247.982 115.56L206.965 115.492Z" fill="#A0A4AB"/>
<path d="M206.965 118.834L247.982 118.766L289.005 118.834L247.982 118.896L206.965 118.834Z" fill="#A0A4AB"/>
<path d="M206.965 122.18L247.982 122.117L289.005 122.18L247.982 122.248L206.965 122.18Z" fill="#A0A4AB"/>
<path d="M206.965 125.531L247.982 125.469L289.005 125.531L247.982 125.594L206.965 125.531Z" fill="#A0A4AB"/>
<path d="M206.965 128.873L247.982 128.805L289.005 128.873L247.982 128.935L206.965 128.873Z" fill="#A0A4AB"/>
<path d="M206.965 132.219L247.982 132.156L289.005 132.219L247.982 132.287L206.965 132.219Z" fill="#A0A4AB"/>
<path d="M206.965 135.568L247.982 135.5L289.005 135.568L247.982 135.631L206.965 135.568Z" fill="#A0A4AB"/>
<path d="M206.965 138.906L247.982 138.844L289.005 138.906L247.982 138.974L206.965 138.906Z" fill="#A0A4AB"/>
<path d="M206.965 142.248L247.982 142.18L289.005 142.248L247.982 142.31L206.965 142.248Z" fill="#A0A4AB"/>
<path d="M206.965 145.594L247.982 145.531L289.005 145.594L247.982 145.662L206.965 145.594Z" fill="#A0A4AB"/>
<path d="M221.861 122.188H215.641V149.506H221.861V122.188Z" fill="#F42123"/>
<path d="M233.4 110.625H227.18V149.496H233.4V110.625Z" fill="#A0A4AB"/>
<path d="M244.943 118.953H238.723V149.5H244.943V118.953Z" fill="#F42123"/>
<path d="M256.486 108.797H250.266V149.496H256.486V108.797Z" fill="#A0A4AB"/>
<path d="M268.021 114.258H261.801V149.499H268.021V114.258Z" fill="#F42123"/>
<path d="M279.564 134.227H273.344V149.502H279.564V134.227Z" fill="#A0A4AB"/>
<path d="M209.193 96.4219L209.298 109.692C209.34 114.116 209.334 118.539 209.35 122.963L209.418 149.503L209.193 149.279C215.847 149.279 222.495 149.227 229.148 149.279L249.098 149.331L269.054 149.383L289.009 149.519L269.054 149.66L249.098 149.712L229.148 149.764C222.495 149.796 215.847 149.764 209.193 149.764H208.969V149.54L209.037 122.999C209.037 118.576 209.037 114.152 209.094 109.729L209.193 96.4219Z" fill="#A0A4AB"/>
<path d="M233.4 152.305H227.18V152.869H233.4V152.305Z" fill="#A0A4AB"/>
<path d="M221.911 152.305H215.691V152.869H221.911V152.305Z" fill="#A0A4AB"/>
<path d="M244.943 152.305H238.723V152.869H244.943V152.305Z" fill="#A0A4AB"/>
<path d="M256.486 152.305H250.266V152.869H256.486V152.305Z" fill="#A0A4AB"/>
<path d="M268.021 152.305H261.801V152.869H268.021V152.305Z" fill="#A0A4AB"/>
<path d="M279.564 152.305H273.344V152.869H279.564V152.305Z" fill="#A0A4AB"/>
<path d="M287.94 69.2656H271.285V70.5295H287.94V69.2656Z" fill="#A0A4AB"/>
<path d="M285.767 71.9062H271.285V73.1701H285.767V71.9062Z" fill="#A0A4AB"/>
<path d="M289.642 74.5547H271.285V75.8185H289.642V74.5547Z" fill="#A0A4AB"/>
<path d="M268.004 69.2656H264.934V72.3365H268.004V69.2656Z" fill="#CECECE"/>
<path d="M251.983 69.2656H242.039V70.5295H251.983V69.2656Z" fill="#A0A4AB"/>
<path d="M257.519 71.9062H242.039V73.1701H257.519V71.9062Z" fill="#A0A4AB"/>
<path d="M254.819 74.5547H242.039V75.8185H254.819V74.5547Z" fill="#A0A4AB"/>
<path d="M238.758 69.2656H235.688V72.3365H238.758V69.2656Z" fill="#F42123"/>
<path d="M228.904 75.5312C228.904 77.272 228.471 78.9851 227.644 80.5149C226.818 82.0446 225.624 83.3426 224.171 84.2907C222.718 85.2389 221.052 85.8071 219.325 85.9439C217.598 86.0807 215.864 85.7817 214.281 85.074L218.508 75.5312H228.904Z" fill="#A0A4AB"/>
<path d="M226.813 73.3503H216.634L212.489 82.8455C212.304 82.7682 212.127 82.6812 211.956 82.5845C211.75 82.4758 211.537 82.3598 211.338 82.2366L211.032 82.0337C210.642 81.7772 210.274 81.4887 209.93 81.1711C209.768 81.0383 209.613 80.8955 209.468 80.7435C209.34 80.613 209.212 80.4825 209.091 80.3448L208.928 80.1491L208.508 79.6273L208.473 79.5765C208.345 79.3881 208.217 79.2069 208.096 79.0184C207.975 78.83 207.84 78.598 207.719 78.3806C207.493 77.9661 207.299 77.5348 207.136 77.0904C207.11 77.0394 207.089 76.986 207.072 76.9309C206.927 76.5331 206.806 76.1264 206.71 75.7132C206.61 75.2617 206.539 74.8041 206.497 74.3433C206.497 74.1983 206.497 74.0534 206.461 73.9084C206.426 73.7634 206.461 73.5387 206.461 73.3575C206.468 71.8185 206.811 70.3004 207.463 68.9123C208.115 67.5243 209.06 66.301 210.232 65.3305C211.403 64.3599 212.771 63.6664 214.237 63.2997C215.703 62.933 217.23 62.9024 218.709 63.21C220.993 63.7019 223.043 64.9763 224.517 66.8213C225.991 68.6662 226.802 70.9704 226.813 73.3503Z" fill="#F42123"/>
<path d="M288.331 184.721C288.284 184.721 193.12 184.763 193.073 184.778C193.026 184.794 193.026 49.6567 193 49.6306V49.5H193.131C193.183 49.5 298.688 49.5731 298.74 49.5574C298.792 49.5418 298.646 174.375 298.672 174.375C298.698 174.375 288.331 184.716 288.331 184.721ZM288.331 184.721L298.656 174.375L298.594 49.6306C299.053 49.7872 193.031 49.7246 193.131 49.7611L193.261 49.6306L193.188 184.721C192.833 184.585 288.41 184.757 288.331 184.721Z" fill="#484B51"/>
<path d="M298.665 49.6328H193.129V53.3982H298.665V49.6328Z" fill="#F42123"/>
<path d="M195.895 51.5043C195.895 51.6303 195.858 51.7535 195.788 51.8583C195.718 51.9631 195.618 52.0448 195.502 52.093C195.386 52.1412 195.258 52.1538 195.134 52.1292C195.01 52.1046 194.897 52.044 194.808 51.9549C194.719 51.8658 194.658 51.7522 194.633 51.6286C194.609 51.505 194.621 51.3769 194.67 51.2605C194.718 51.1441 194.799 51.0446 194.904 50.9746C195.009 50.9046 195.132 50.8672 195.258 50.8672C195.427 50.8672 195.589 50.9343 195.709 51.0538C195.828 51.1733 195.895 51.3354 195.895 51.5043Z" fill="#A0A4AB"/>
<path d="M198.493 51.5044C198.493 51.6304 198.456 51.7536 198.386 51.8583C198.316 51.9631 198.216 52.0448 198.1 52.093C197.983 52.1412 197.855 52.1538 197.732 52.1293C197.608 52.1047 197.494 52.044 197.405 51.9549C197.316 51.8658 197.256 51.7522 197.231 51.6287C197.206 51.5051 197.219 51.377 197.267 51.2605C197.315 51.1441 197.397 51.0446 197.502 50.9746C197.607 50.9046 197.73 50.8672 197.856 50.8672C197.94 50.8665 198.023 50.8825 198.101 50.9143C198.178 50.9461 198.249 50.993 198.308 51.0523C198.367 51.1116 198.414 51.1821 198.446 51.2597C198.478 51.3373 198.494 51.4205 198.493 51.5044Z" fill="white"/>
<path d="M201.095 51.5043C201.095 51.6303 201.057 51.7535 200.987 51.8583C200.917 51.9631 200.818 52.0448 200.701 52.093C200.585 52.1412 200.457 52.1538 200.333 52.1292C200.21 52.1046 200.096 52.044 200.007 51.9549C199.918 51.8658 199.857 51.7522 199.833 51.6286C199.808 51.505 199.821 51.3769 199.869 51.2605C199.917 51.1441 199.999 51.0446 200.103 50.9746C200.208 50.9046 200.331 50.8672 200.457 50.8672C200.541 50.8672 200.624 50.8837 200.701 50.9157C200.779 50.9477 200.849 50.9946 200.908 51.0538C200.967 51.113 201.014 51.1832 201.046 51.2605C201.078 51.3378 201.095 51.4207 201.095 51.5043Z" fill="#484B51"/>
<path d="M288.328 184.721L298.674 174.375H288.328V184.721Z" fill="#A0A4AB"/>
<path d="M123.678 159.24C129.189 190.309 141.949 227.862 147.858 234.149C155.36 242.103 204.067 256.035 206.652 256.469C213.063 257.442 230.361 217.545 223.553 216.206C213.187 214.179 176.012 206.906 173.854 204.463C171.616 201.903 156.6 180.903 141.261 157.225C130.702 140.839 120.255 139.952 123.678 159.24Z" fill="#F1B4A7"/>
<path d="M203.181 255.583C203.869 255.862 213.671 259.73 219.617 260.89C224.056 261.752 236.896 263.897 238.328 259.104C239.314 255.837 231.911 253.692 226.71 252.055C223.969 251.193 220.466 248.719 221.092 246.952C222.19 243.852 229.252 246.227 233.957 248.422C243.053 252.669 255.385 260.673 260.27 255.812C262.13 253.952 259.526 251.162 255.868 248.508C261.684 251.46 267.803 253.766 269.936 251.801C271.176 250.685 271.095 249.321 270.221 247.808C271.97 248.211 273.464 247.963 274.412 246.766C276.031 244.733 274.908 242.048 272.701 239.394C273.036 239.324 273.348 239.174 273.614 238.959C273.879 238.743 274.089 238.467 274.226 238.154C277.494 232.035 257.046 217.167 250.35 216.206C230.647 213.361 210.404 216.045 210.404 216.045C203.373 222.803 203.162 255.576 203.181 255.583Z" fill="#F1B4A7"/>
<path d="M229.94 235.274C234.592 235.577 239.125 236.868 243.239 239.062C248.422 241.852 252.005 245.336 256.451 248.771C256.562 248.858 256.451 249.044 256.314 248.957C254.194 247.32 245.483 241.257 243.251 239.899C239.211 237.389 234.652 235.833 229.921 235.348C229.878 235.348 229.89 235.268 229.94 235.274Z" fill="#262626"/>
<path d="M232.798 226.766C237.993 227.696 243.338 228.626 248.229 230.603C253.617 232.767 258.032 236.679 262.365 240.437C264.969 242.693 267.52 245.008 270.016 247.381C270.122 247.48 270.016 247.666 269.88 247.567C265.478 243.681 260.96 239.926 256.327 236.301C252.05 232.915 247.147 230.408 241.899 228.923C238.898 228.08 235.842 227.466 232.785 226.859C232.776 226.854 232.768 226.847 232.764 226.837C232.759 226.828 232.757 226.818 232.758 226.808C232.76 226.797 232.764 226.788 232.771 226.78C232.778 226.773 232.788 226.768 232.798 226.766Z" fill="#262626"/>
<path d="M237.566 219.117C242.582 219.688 246.959 220.165 251.56 222.409C257.648 225.385 263.749 230.767 265.894 232.683C268.263 234.791 270.557 236.979 272.82 239.205C272.913 239.292 272.758 239.453 272.658 239.366C267.5 234.51 262.035 229.992 256.297 225.838C253.593 223.822 250.594 222.234 247.406 221.132C244.219 220.091 240.865 219.638 237.566 219.154V219.117Z" fill="#262626"/>
<path d="M215.567 209.926L196.967 259.947C196.967 259.947 154.187 245.371 146.648 236.387C139.109 227.403 126.709 182.497 123.473 160.859C120.236 139.221 131.043 140.293 140.318 154.299C149.593 168.305 172.744 202.281 174.096 203.062C175.447 203.843 215.567 209.926 215.567 209.926Z" fill="#F42123"/>
<path d="M271.163 169.118L209.41 165.734L204.149 261.74L265.902 265.124L271.163 169.118Z" fill="#262626"/>
<path d="M266.69 168.868L204.938 165.484L199.676 261.49L261.429 264.874L266.69 168.868Z" fill="#262626"/>
<path d="M220.225 190.893L208.352 190.242L207.701 202.116L219.574 202.766L220.225 190.893Z" fill="#E8EBEE"/>
<path d="M233.678 191.627L221.805 190.977L221.154 202.85L233.027 203.501L233.678 191.627Z" fill="#E8EBEE"/>
<path d="M247.135 192.369L235.262 191.719L234.611 203.592L246.485 204.243L247.135 192.369Z" fill="#F42123"/>
<path d="M260.592 193.112L248.719 192.461L248.068 204.334L259.942 204.985L260.592 193.112Z" fill="#F42123"/>
<path d="M219.475 204.502L207.602 203.852L206.951 215.725L218.824 216.376L219.475 204.502Z" fill="#A0A4AB"/>
<path d="M232.936 205.252L221.062 204.602L220.412 216.475L232.285 217.126L232.936 205.252Z" fill="#A0A4AB"/>
<path d="M246.393 205.987L234.52 205.336L233.869 217.209L245.742 217.86L246.393 205.987Z" fill="#A0A4AB"/>
<path d="M259.842 206.799L247.969 206.148L247.318 218.022L259.192 218.673L259.842 206.799Z" fill="#E8EBEE"/>
<path d="M218.729 218.127L206.855 217.477L206.205 229.35L218.078 230.001L218.729 218.127Z" fill="#A0A4AB"/>
<path d="M232.19 218.862L220.316 218.211L219.666 230.084L231.539 230.735L232.19 218.862Z" fill="#A0A4AB"/>
<path d="M245.647 219.604L233.773 218.953L233.123 230.827L244.996 231.477L245.647 219.604Z" fill="#A0A4AB"/>
<path d="M259.104 220.346L247.23 219.695L246.58 231.569L258.453 232.219L259.104 220.346Z" fill="#E8EBEE"/>
<path d="M217.983 231.744L206.109 231.094L205.459 242.967L217.332 243.618L217.983 231.744Z" fill="#A0A4AB"/>
<path d="M231.436 232.487L219.562 231.836L218.912 243.709L230.785 244.36L231.436 232.487Z" fill="#A0A4AB"/>
<path d="M244.901 233.221L233.027 232.57L232.377 244.444L244.25 245.094L244.901 233.221Z" fill="#A0A4AB"/>
<path d="M258.358 233.955L246.484 233.305L245.834 245.178L257.707 245.829L258.358 233.955Z" fill="#E8EBEE"/>
<path d="M217.237 245.369L205.363 244.719L204.713 256.592L216.586 257.243L217.237 245.369Z" fill="#A0A4AB"/>
<path d="M230.702 246.112L218.828 245.461L218.177 257.334L230.051 257.985L230.702 246.112Z" fill="#A0A4AB"/>
<path d="M244.151 246.846L232.277 246.195L231.627 258.069L243.5 258.719L244.151 246.846Z" fill="#E8EBEE"/>
<path d="M257.608 247.58L245.734 246.93L245.084 258.803L256.957 259.454L257.608 247.58Z" fill="#E8EBEE"/>
<path d="M212.259 195.259C212.258 195.148 212.28 195.038 212.323 194.935C212.367 194.833 212.43 194.741 212.51 194.664C212.59 194.587 212.685 194.527 212.79 194.488C212.894 194.449 213.004 194.432 213.115 194.437C213.226 194.443 213.335 194.471 213.435 194.519C213.535 194.568 213.623 194.637 213.696 194.721C213.768 194.805 213.823 194.904 213.856 195.01C213.889 195.116 213.9 195.227 213.888 195.338C213.89 195.451 213.868 195.563 213.825 195.667C213.781 195.771 213.717 195.865 213.636 195.944C213.554 196.022 213.458 196.083 213.352 196.123C213.247 196.163 213.134 196.181 213.021 196.176C212.91 196.169 212.801 196.14 212.701 196.09C212.601 196.039 212.513 195.969 212.441 195.883C212.37 195.797 212.317 195.697 212.286 195.59C212.254 195.482 212.245 195.37 212.259 195.259ZM213.449 195.323C213.471 195.206 213.447 195.086 213.381 194.987C213.316 194.888 213.214 194.819 213.098 194.793C212.863 194.784 212.71 195.002 212.698 195.268C212.68 195.547 212.825 195.781 213.048 195.791C213.271 195.802 213.43 195.59 213.449 195.323ZM212.695 197.6L215.114 194.646C215.133 194.619 215.159 194.597 215.189 194.582C215.219 194.567 215.252 194.561 215.285 194.562C215.337 194.565 215.386 194.588 215.422 194.626C215.458 194.664 215.477 194.715 215.477 194.767C215.47 194.814 215.451 194.858 215.421 194.895L212.985 197.869C212.965 197.897 212.938 197.919 212.907 197.933C212.876 197.946 212.841 197.951 212.807 197.947C212.782 197.947 212.757 197.941 212.734 197.93C212.711 197.92 212.691 197.905 212.673 197.886C212.656 197.868 212.643 197.846 212.634 197.822C212.625 197.799 212.622 197.774 212.623 197.748C212.63 197.692 212.656 197.64 212.695 197.6ZM214.251 197.143C214.245 197.028 214.263 196.913 214.304 196.805C214.345 196.697 214.408 196.599 214.489 196.518C214.57 196.436 214.667 196.372 214.775 196.33C214.882 196.289 214.997 196.27 215.112 196.275C215.227 196.281 215.34 196.31 215.443 196.362C215.546 196.414 215.637 196.487 215.71 196.576C215.783 196.665 215.836 196.769 215.867 196.88C215.897 196.991 215.904 197.107 215.887 197.221C215.887 197.332 215.866 197.442 215.822 197.545C215.779 197.647 215.715 197.739 215.635 197.816C215.555 197.893 215.46 197.953 215.356 197.992C215.252 198.031 215.141 198.048 215.03 198.043C214.919 198.038 214.81 198.01 214.711 197.961C214.611 197.912 214.522 197.843 214.45 197.759C214.377 197.675 214.323 197.576 214.29 197.47C214.257 197.364 214.246 197.253 214.257 197.142L214.251 197.143ZM215.442 197.213C215.459 196.933 215.315 196.7 215.092 196.69C214.869 196.679 214.709 196.891 214.69 197.158C214.673 197.443 214.824 197.67 215.047 197.68C215.27 197.691 215.429 197.479 215.442 197.213Z" fill="#262626"/>
<path d="M237.876 197.486C237.906 197.15 238.029 196.828 238.23 196.556C238.431 196.285 238.703 196.074 239.017 195.946C239.33 195.819 239.672 195.78 240.005 195.834C240.339 195.888 240.652 196.033 240.908 196.253C240.962 196.302 240.994 196.371 240.999 196.444C241.003 196.517 240.978 196.588 240.931 196.644C240.883 196.699 240.816 196.734 240.743 196.741C240.67 196.748 240.598 196.726 240.541 196.681C240.324 196.489 240.048 196.377 239.759 196.364C239.427 196.347 239.102 196.459 238.85 196.675C238.608 196.89 238.461 197.192 238.44 197.515C238.431 197.675 238.454 197.835 238.508 197.986C238.562 198.137 238.646 198.275 238.755 198.393C238.982 198.635 239.293 198.781 239.625 198.8C239.913 198.819 240.2 198.738 240.436 198.572C240.499 198.535 240.573 198.522 240.645 198.536C240.717 198.55 240.781 198.589 240.826 198.647C240.866 198.709 240.881 198.785 240.869 198.858C240.856 198.931 240.816 198.997 240.757 199.042C240.416 199.273 240.008 199.387 239.596 199.364C239.123 199.333 238.68 199.12 238.359 198.77C238.039 198.42 237.866 197.961 237.876 197.486Z" fill="#262626"/>
<path d="M241.759 199.219L241.917 196.3C241.921 196.228 241.953 196.161 242.007 196.113C242.06 196.066 242.13 196.041 242.202 196.045L243.801 196.133C243.873 196.139 243.939 196.173 243.986 196.227C244.032 196.281 244.057 196.352 244.053 196.423C244.049 196.495 244.017 196.562 243.965 196.611C243.913 196.66 243.843 196.686 243.772 196.685L242.432 196.61L242.386 197.515L243.533 197.576C243.605 197.583 243.671 197.617 243.72 197.671C243.768 197.725 243.794 197.795 243.794 197.867C243.788 197.94 243.755 198.007 243.701 198.056C243.646 198.104 243.576 198.13 243.503 198.128L242.356 198.066L242.303 198.972L243.642 199.047C243.715 199.052 243.782 199.086 243.829 199.14C243.877 199.195 243.901 199.266 243.897 199.338C243.893 199.41 243.861 199.477 243.808 199.526C243.755 199.574 243.685 199.6 243.613 199.598L242.013 199.51C241.977 199.509 241.941 199.501 241.909 199.485C241.876 199.47 241.846 199.448 241.823 199.42C241.799 199.393 241.781 199.361 241.77 199.326C241.759 199.292 241.755 199.255 241.759 199.219Z" fill="#262626"/>
<path d="M252.799 198.304C252.84 197.832 253.062 197.394 253.418 197.081C253.774 196.768 254.238 196.605 254.711 196.624C255.124 196.643 255.519 196.8 255.831 197.071C255.886 197.12 255.92 197.189 255.927 197.262C255.934 197.336 255.913 197.409 255.868 197.468C255.82 197.526 255.751 197.562 255.677 197.569C255.602 197.575 255.528 197.552 255.47 197.505C255.253 197.315 254.978 197.205 254.689 197.194C254.358 197.175 254.033 197.285 253.78 197.499C253.541 197.716 253.396 198.019 253.379 198.341C253.361 198.664 253.471 198.98 253.685 199.222C253.914 199.461 254.224 199.604 254.554 199.624C254.843 199.646 255.131 199.565 255.366 199.395C255.429 199.359 255.503 199.346 255.575 199.36C255.646 199.374 255.71 199.413 255.755 199.471C255.796 199.533 255.811 199.608 255.798 199.682C255.786 199.755 255.746 199.821 255.687 199.866C255.347 200.1 254.938 200.214 254.526 200.188C254.05 200.158 253.605 199.945 253.283 199.594C252.961 199.243 252.787 198.781 252.799 198.304Z" fill="#262626"/>
<path d="M214.373 208.824L212.975 211.678C212.939 211.74 212.883 211.786 212.816 211.809C212.749 211.832 212.676 211.831 212.61 211.804C212.548 211.77 212.501 211.713 212.477 211.646C212.454 211.579 212.457 211.505 212.484 211.44L213.688 208.961L212.417 208.892C212.345 208.887 212.277 208.853 212.229 208.799C212.18 208.745 212.154 208.674 212.156 208.602C212.162 208.529 212.195 208.461 212.249 208.413C212.304 208.364 212.374 208.338 212.447 208.341L214.14 208.438L214.189 208.434L214.292 208.48C214.291 208.49 214.292 208.501 214.295 208.511C214.304 208.547 214.307 208.584 214.305 208.621L214.373 208.824Z" fill="white"/>
<path d="M227.715 211.474C227.707 211.68 227.646 211.88 227.537 212.055C227.428 212.23 227.275 212.373 227.094 212.471C226.913 212.569 226.71 212.618 226.504 212.613C226.298 212.608 226.097 212.55 225.92 212.444C225.744 212.338 225.598 212.188 225.497 212.008C225.396 211.829 225.344 211.626 225.345 211.42C225.347 211.214 225.402 211.012 225.505 210.834C225.608 210.656 225.756 210.508 225.933 210.404C225.835 210.257 225.788 210.081 225.801 209.904C225.82 209.693 225.92 209.497 226.08 209.357C226.241 209.218 226.449 209.147 226.661 209.159C226.873 209.171 227.072 209.265 227.216 209.421C227.36 209.577 227.437 209.783 227.432 209.995C227.424 210.172 227.357 210.341 227.241 210.475C227.396 210.591 227.519 210.742 227.602 210.916C227.685 211.09 227.723 211.282 227.715 211.474ZM227.176 211.444C227.177 211.324 227.144 211.207 227.08 211.107C227.016 211.006 226.924 210.926 226.815 210.877C226.706 210.828 226.586 210.811 226.468 210.83C226.35 210.848 226.24 210.9 226.151 210.98C226.062 211.059 225.999 211.163 225.968 211.279C225.938 211.394 225.941 211.516 225.978 211.629C226.016 211.742 226.085 211.842 226.179 211.917C226.272 211.991 226.385 212.037 226.503 212.048C226.589 212.056 226.675 212.046 226.757 212.018C226.838 211.991 226.913 211.947 226.976 211.889C227.039 211.831 227.09 211.76 227.124 211.681C227.158 211.602 227.176 211.517 227.175 211.431L227.176 211.444ZM226.34 209.923C226.336 209.96 226.341 209.997 226.352 210.032C226.363 210.068 226.382 210.1 226.406 210.128C226.43 210.156 226.46 210.179 226.493 210.196C226.527 210.212 226.563 210.221 226.6 210.223C226.637 210.225 226.674 210.22 226.709 210.207C226.744 210.194 226.776 210.175 226.803 210.15C226.83 210.124 226.852 210.094 226.867 210.06C226.882 210.026 226.891 209.989 226.891 209.952C226.894 209.917 226.89 209.881 226.878 209.847C226.867 209.813 226.849 209.782 226.825 209.755C226.801 209.729 226.772 209.707 226.74 209.692C226.708 209.677 226.673 209.668 226.637 209.667C226.601 209.664 226.564 209.667 226.529 209.678C226.494 209.689 226.461 209.707 226.433 209.731C226.406 209.755 226.383 209.784 226.367 209.817C226.351 209.85 226.341 209.886 226.34 209.923Z" fill="white"/>
<path d="M238.886 210.971C238.911 210.656 239.056 210.362 239.292 210.151C239.527 209.939 239.835 209.827 240.152 209.838C240.445 209.86 240.72 209.986 240.928 210.193C241.136 210.4 241.263 210.675 241.285 210.968C241.294 211.065 241.303 211.157 241.311 211.249C241.293 211.594 241.216 211.932 241.082 212.251C240.945 212.587 240.705 212.872 240.398 213.066C240.17 213.198 239.908 213.263 239.644 213.252C239.608 213.252 239.572 213.245 239.539 213.231C239.505 213.217 239.475 213.197 239.449 213.171C239.424 213.145 239.404 213.114 239.391 213.081C239.377 213.047 239.371 213.011 239.372 212.975C239.375 212.902 239.405 212.834 239.457 212.783C239.508 212.733 239.577 212.704 239.649 212.703C239.816 212.711 239.981 212.672 240.126 212.591C240.261 212.511 240.374 212.399 240.454 212.265L240.529 212.141C240.373 212.189 240.208 212.204 240.046 212.185C239.735 212.168 239.442 212.033 239.227 211.807C239.011 211.582 238.89 211.283 238.886 210.971ZM239.438 211.001C239.426 211.09 239.432 211.181 239.456 211.268C239.481 211.354 239.523 211.435 239.58 211.504C239.637 211.574 239.708 211.631 239.789 211.671C239.869 211.712 239.957 211.736 240.047 211.741C240.136 211.746 240.226 211.732 240.311 211.701C240.395 211.669 240.472 211.621 240.536 211.558C240.601 211.495 240.652 211.42 240.686 211.336C240.72 211.253 240.736 211.164 240.734 211.074C240.744 210.988 240.735 210.9 240.709 210.818C240.683 210.735 240.639 210.659 240.581 210.594C240.524 210.53 240.453 210.478 240.374 210.443C240.295 210.407 240.209 210.389 240.122 210.39C240.034 210.379 239.944 210.387 239.859 210.415C239.774 210.442 239.696 210.488 239.631 210.548C239.565 210.609 239.514 210.683 239.48 210.766C239.446 210.848 239.43 210.937 239.434 211.026L239.438 211.001Z" fill="white"/>
<path d="M252.51 212.371C252.511 212.332 252.52 212.294 252.536 212.259C252.552 212.223 252.576 212.191 252.604 212.165C252.633 212.139 252.667 212.119 252.703 212.106C252.74 212.093 252.779 212.088 252.818 212.09L254.355 212.171C254.394 212.174 254.431 212.184 254.466 212.201C254.501 212.218 254.532 212.242 254.558 212.271C254.583 212.3 254.603 212.334 254.615 212.371C254.628 212.408 254.633 212.447 254.63 212.485C254.629 212.524 254.621 212.561 254.605 212.596C254.589 212.63 254.566 212.661 254.538 212.687C254.51 212.713 254.477 212.732 254.441 212.745C254.405 212.757 254.367 212.762 254.329 212.76L252.785 212.679C252.708 212.674 252.636 212.639 252.585 212.581C252.534 212.524 252.507 212.448 252.51 212.371Z" fill="#262626"/>
<path d="M213.75 224.537C213.744 224.609 213.711 224.677 213.657 224.726C213.603 224.774 213.532 224.8 213.459 224.798L213.41 224.802L213.389 225.18C213.387 225.216 213.378 225.251 213.363 225.284C213.347 225.316 213.325 225.345 213.299 225.369C213.272 225.393 213.241 225.411 213.207 225.423C213.173 225.435 213.137 225.44 213.101 225.438C213.066 225.436 213.031 225.427 212.998 225.412C212.966 225.396 212.937 225.374 212.913 225.348C212.889 225.321 212.871 225.29 212.859 225.256C212.847 225.222 212.842 225.186 212.844 225.15L212.865 224.772L211.315 224.692C211.253 224.693 211.194 224.67 211.149 224.627C211.121 224.604 211.098 224.576 211.081 224.544C211.064 224.513 211.053 224.478 211.05 224.442C211.047 224.406 211.051 224.37 211.062 224.335C211.073 224.301 211.09 224.269 211.114 224.242L213.067 222.07L213.098 222.068L213.257 222.053C213.256 222.063 213.257 222.074 213.26 222.084L213.153 224.086L213.49 224.055C213.552 224.031 213.621 224.032 213.684 224.055C213.746 224.078 213.798 224.124 213.83 224.183C213.862 224.241 213.871 224.31 213.856 224.375C213.841 224.44 213.804 224.497 213.75 224.537ZM212.961 222.999L211.908 224.163L212.894 224.22L212.961 222.999Z" fill="white"/>
<path d="M226.595 224.063C226.702 224.183 226.785 224.324 226.838 224.477C226.892 224.63 226.914 224.792 226.904 224.953C226.885 225.278 226.738 225.583 226.495 225.799C226.252 226.015 225.934 226.126 225.61 226.108C225.286 226.09 224.982 225.945 224.765 225.704C224.74 225.677 224.721 225.645 224.709 225.61C224.696 225.575 224.691 225.538 224.693 225.501C224.696 225.463 224.706 225.427 224.722 225.394C224.739 225.361 224.762 225.331 224.79 225.307C224.846 225.258 224.918 225.232 224.993 225.236C225.067 225.239 225.137 225.272 225.187 225.327C225.243 225.394 225.313 225.449 225.392 225.488C225.471 225.527 225.557 225.548 225.645 225.55C225.733 225.555 225.821 225.543 225.904 225.515C225.987 225.486 226.064 225.441 226.13 225.382C226.261 225.264 226.341 225.1 226.353 224.924C226.359 224.835 226.347 224.745 226.317 224.661C226.287 224.576 226.24 224.499 226.178 224.434C226.122 224.367 226.052 224.313 225.973 224.276C225.894 224.239 225.808 224.218 225.721 224.217C225.633 224.208 225.544 224.219 225.46 224.248C225.377 224.277 225.3 224.323 225.236 224.385C225.209 224.41 225.177 224.429 225.142 224.441C225.107 224.453 225.07 224.459 225.032 224.456C224.995 224.454 224.959 224.444 224.926 224.427C224.893 224.411 224.863 224.388 224.839 224.359L224.79 224.296L224.786 224.253C224.786 224.253 224.786 224.253 224.783 224.216C224.777 224.188 224.774 224.159 224.775 224.131L224.993 222.877C225.015 222.799 225.063 222.731 225.13 222.686L225.167 222.682C225.208 222.669 225.252 222.665 225.295 222.671L226.758 222.752C226.795 222.754 226.832 222.762 226.866 222.778C226.899 222.794 226.929 222.816 226.954 222.844C226.978 222.872 226.997 222.904 227.008 222.94C227.02 222.975 227.024 223.012 227.02 223.049C227.018 223.086 227.009 223.122 226.993 223.155C226.977 223.189 226.954 223.218 226.927 223.243C226.899 223.267 226.867 223.286 226.832 223.297C226.797 223.309 226.76 223.314 226.723 223.311L225.484 223.246L225.398 223.728C225.509 223.706 225.622 223.695 225.735 223.697C226.058 223.701 226.367 223.832 226.595 224.063Z" fill="white"/>
<path d="M240.485 225.728C240.425 226.001 240.272 226.246 240.053 226.421C239.834 226.596 239.562 226.69 239.282 226.689C239.002 226.688 238.73 226.592 238.513 226.415C238.295 226.239 238.144 225.993 238.085 225.719C238.085 225.719 238.069 225.536 238.091 225.441C238.105 225.094 238.183 224.753 238.319 224.434C238.459 224.1 238.698 223.818 239.004 223.625C239.232 223.493 239.493 223.426 239.757 223.432C239.83 223.433 239.899 223.463 239.95 223.515C240.001 223.567 240.029 223.637 240.029 223.71C240.025 223.782 239.994 223.851 239.941 223.902C239.888 223.952 239.819 223.981 239.746 223.982C239.581 223.979 239.419 224.02 239.275 224.099C239.14 224.181 239.026 224.293 238.941 224.426C238.945 224.463 238.893 224.504 238.872 224.549C239.029 224.501 239.193 224.486 239.356 224.505C239.666 224.521 239.958 224.658 240.169 224.887C240.381 225.115 240.494 225.417 240.485 225.728ZM239.94 225.698C239.949 225.525 239.89 225.356 239.775 225.227C239.659 225.098 239.498 225.02 239.325 225.011C239.152 225.001 238.983 225.061 238.854 225.176C238.725 225.291 238.648 225.453 238.638 225.626C238.628 225.798 238.688 225.968 238.803 226.096C238.919 226.225 239.08 226.303 239.253 226.313C239.426 226.322 239.595 226.263 239.724 226.147C239.853 226.032 239.93 225.87 239.94 225.698Z" fill="white"/>
<path d="M251.866 226.058C251.833 226.056 251.8 226.047 251.77 226.033C251.74 226.018 251.713 225.998 251.69 225.973C251.668 225.948 251.651 225.919 251.64 225.888C251.629 225.856 251.624 225.823 251.626 225.79C251.628 225.756 251.636 225.724 251.65 225.693C251.665 225.663 251.685 225.636 251.71 225.614C251.735 225.592 251.764 225.574 251.795 225.563C251.827 225.552 251.86 225.547 251.894 225.549L253.889 225.656C253.924 225.658 253.957 225.666 253.988 225.681C254.019 225.695 254.046 225.716 254.069 225.742C254.091 225.767 254.108 225.797 254.119 225.83C254.13 225.862 254.133 225.896 254.13 225.93C254.126 225.997 254.095 226.06 254.045 226.105C253.995 226.15 253.93 226.173 253.863 226.171L251.866 226.058ZM253.278 224.836C253.263 224.92 253.218 224.995 253.152 225.047C253.085 225.1 253.002 225.126 252.918 225.12C252.833 225.115 252.754 225.079 252.694 225.019C252.635 224.959 252.6 224.879 252.595 224.794C252.603 224.707 252.644 224.626 252.71 224.569C252.777 224.512 252.863 224.484 252.95 224.49C253.039 224.493 253.124 224.531 253.185 224.596C253.247 224.661 253.28 224.747 253.278 224.836ZM253.164 226.895C253.161 226.939 253.15 226.982 253.13 227.022C253.111 227.062 253.083 227.097 253.05 227.126C253.016 227.155 252.977 227.177 252.935 227.19C252.893 227.204 252.848 227.209 252.804 227.205C252.716 227.201 252.632 227.162 252.572 227.097C252.512 227.033 252.48 226.947 252.482 226.858C252.485 226.814 252.496 226.771 252.516 226.731C252.536 226.691 252.563 226.656 252.597 226.627C252.63 226.598 252.669 226.576 252.712 226.563C252.754 226.549 252.798 226.544 252.842 226.548C252.931 226.552 253.014 226.591 253.074 226.656C253.134 226.72 253.166 226.806 253.164 226.895Z" fill="#262626"/>
<path d="M212.322 235.845L212.163 238.765C212.155 238.837 212.12 238.904 212.065 238.951C212.01 238.998 211.939 239.023 211.866 239.02C211.795 239.016 211.728 238.984 211.68 238.931C211.632 238.877 211.608 238.807 211.612 238.735L211.746 236.299L211.54 236.404C211.496 236.423 211.446 236.428 211.399 236.417C211.341 236.41 211.287 236.385 211.244 236.346C211.201 236.307 211.171 236.255 211.158 236.198C211.145 236.141 211.151 236.082 211.173 236.028C211.196 235.974 211.234 235.928 211.284 235.897L211.914 235.574L212.073 235.56L212.104 235.557C212.108 235.567 212.109 235.577 212.107 235.588C212.105 235.6 212.106 235.612 212.11 235.624L212.322 235.845Z" fill="white"/>
<path d="M226.194 239.534C226.193 239.57 226.185 239.605 226.17 239.637C226.155 239.67 226.133 239.699 226.106 239.722C226.08 239.746 226.048 239.764 226.015 239.776C225.981 239.787 225.945 239.791 225.909 239.788L224.155 239.696C224.117 239.696 224.079 239.687 224.044 239.67C224.009 239.653 223.979 239.628 223.955 239.597C223.91 239.541 223.888 239.469 223.895 239.397C223.903 239.324 223.938 239.258 223.994 239.211L225.527 237.967C225.597 237.912 225.654 237.843 225.695 237.763C225.736 237.684 225.759 237.597 225.762 237.508C225.77 237.423 225.761 237.338 225.734 237.257C225.707 237.176 225.664 237.102 225.608 237.039C225.551 236.975 225.481 236.925 225.404 236.89C225.327 236.855 225.243 236.836 225.158 236.835C224.999 236.823 224.843 236.873 224.72 236.974L224.56 237.106C224.532 237.129 224.499 237.146 224.464 237.156C224.429 237.167 224.393 237.17 224.357 237.165C224.321 237.161 224.286 237.15 224.254 237.132C224.223 237.114 224.195 237.09 224.173 237.061C224.128 237.004 224.108 236.931 224.116 236.858C224.124 236.786 224.161 236.72 224.218 236.674L224.379 236.549C224.5 236.45 224.639 236.375 224.788 236.331C224.938 236.286 225.095 236.271 225.25 236.287C225.405 236.303 225.556 236.35 225.693 236.425C225.83 236.5 225.95 236.601 226.048 236.723C226.147 236.844 226.222 236.983 226.267 237.133C226.312 237.283 226.326 237.441 226.31 237.596C226.294 237.752 226.247 237.903 226.173 238.041C226.098 238.178 225.996 238.3 225.875 238.398L224.892 239.191L225.946 239.249C225.981 239.251 226.016 239.26 226.048 239.275C226.079 239.291 226.108 239.312 226.131 239.339C226.154 239.366 226.171 239.397 226.182 239.43C226.193 239.464 226.197 239.499 226.194 239.534Z" fill="white"/>
<path d="M239.339 238.409C239.503 238.59 239.609 238.815 239.644 239.057C239.679 239.299 239.642 239.545 239.536 239.765C239.431 239.986 239.262 240.169 239.051 240.293C238.841 240.417 238.598 240.475 238.355 240.46C238.03 240.441 237.725 240.294 237.509 240.051C237.46 239.995 237.434 239.923 237.439 239.849C237.443 239.775 237.476 239.706 237.532 239.657C237.587 239.608 237.659 239.582 237.733 239.587C237.807 239.591 237.876 239.624 237.925 239.679C237.983 239.744 238.054 239.797 238.132 239.834C238.211 239.872 238.296 239.893 238.383 239.897C238.471 239.902 238.559 239.89 238.642 239.861C238.725 239.833 238.802 239.787 238.867 239.729C238.934 239.671 238.988 239.599 239.027 239.52C239.065 239.44 239.086 239.353 239.09 239.264C239.098 239.177 239.087 239.09 239.058 239.007C239.029 238.925 238.983 238.849 238.923 238.786C238.805 238.655 238.641 238.575 238.464 238.563C238.426 238.562 238.388 238.553 238.353 238.536C238.319 238.519 238.288 238.494 238.264 238.464C238.215 238.409 238.19 238.337 238.192 238.264C238.195 238.19 238.225 238.12 238.277 238.068L238.812 237.581L238.013 237.537C237.976 237.535 237.94 237.526 237.907 237.51C237.873 237.494 237.844 237.472 237.819 237.444C237.795 237.416 237.776 237.384 237.765 237.349C237.753 237.314 237.748 237.277 237.751 237.241C237.752 237.204 237.761 237.168 237.776 237.135C237.792 237.102 237.814 237.072 237.841 237.048C237.868 237.024 237.9 237.005 237.934 236.993C237.969 236.981 238.005 236.977 238.042 236.98L239.498 237.056C239.552 237.062 239.604 237.083 239.646 237.116C239.689 237.15 239.721 237.195 239.739 237.246C239.757 237.297 239.761 237.352 239.749 237.405C239.737 237.458 239.711 237.507 239.673 237.546L239.013 238.155C239.135 238.221 239.245 238.306 239.339 238.409Z" fill="white"/>
<path d="M252.94 239.225L252.308 240.005L252.848 240.849C252.885 240.905 252.898 240.973 252.886 241.039C252.873 241.104 252.836 241.162 252.782 241.201C252.735 241.236 252.677 241.252 252.619 241.247C252.578 241.243 252.539 241.231 252.503 241.211C252.467 241.191 252.436 241.163 252.411 241.13L251.952 240.426L251.396 241.093C251.372 241.124 251.34 241.149 251.304 241.167C251.269 241.184 251.229 241.193 251.19 241.193C251.132 241.19 251.077 241.167 251.036 241.127C251.009 241.106 250.988 241.08 250.972 241.051C250.956 241.022 250.946 240.989 250.943 240.956C250.94 240.923 250.944 240.889 250.954 240.858C250.964 240.826 250.981 240.797 251.003 240.772L251.64 239.986L251.094 239.141C251.059 239.086 251.046 239.018 251.06 238.953C251.074 238.889 251.112 238.832 251.167 238.795C251.225 238.759 251.294 238.746 251.361 238.759C251.428 238.773 251.487 238.812 251.526 238.867L251.984 239.559L252.512 238.925C252.558 238.872 252.624 238.838 252.694 238.832C252.765 238.826 252.835 238.846 252.891 238.89C252.938 238.931 252.969 238.987 252.978 239.049C252.987 239.11 252.973 239.173 252.94 239.225Z" fill="#262626"/>
<path d="M211.111 251.934C211.159 251.937 211.207 251.948 211.251 251.969C211.295 251.99 211.334 252.019 211.366 252.055C211.399 252.091 211.424 252.133 211.44 252.179C211.457 252.225 211.464 252.273 211.461 252.321C211.453 252.419 211.408 252.511 211.335 252.576C211.261 252.641 211.166 252.676 211.068 252.672C210.97 252.666 210.878 252.622 210.813 252.549C210.748 252.475 210.715 252.379 210.72 252.281C210.726 252.184 210.77 252.092 210.844 252.027C210.917 251.962 211.013 251.928 211.111 251.934Z" fill="white"/>
<path d="M222.998 251.549C223.017 251.133 223.156 250.73 223.398 250.39C223.503 250.234 223.645 250.107 223.811 250.019C223.978 249.932 224.163 249.887 224.351 249.89C224.536 249.908 224.714 249.973 224.868 250.077C225.022 250.181 225.147 250.322 225.233 250.487C225.432 250.856 225.525 251.272 225.503 251.69C225.48 252.108 225.342 252.511 225.104 252.855C225.008 253.022 224.867 253.159 224.697 253.251C224.528 253.343 224.336 253.386 224.143 253.376C223.951 253.365 223.765 253.302 223.606 253.192C223.447 253.082 223.322 252.931 223.244 252.754C223.048 252.385 222.962 251.966 222.998 251.549ZM224.951 251.66C224.972 251.35 224.908 251.041 224.765 250.765C224.628 250.549 224.47 250.44 224.322 250.441C224.225 250.445 224.13 250.472 224.045 250.519C223.961 250.567 223.889 250.634 223.835 250.714C223.658 250.969 223.559 251.269 223.55 251.579C223.526 251.887 223.59 252.196 223.736 252.469C223.78 252.557 223.844 252.633 223.924 252.692C224.003 252.75 224.095 252.788 224.193 252.803C224.288 252.796 224.381 252.767 224.463 252.717C224.545 252.668 224.615 252.6 224.666 252.519C224.841 252.266 224.94 251.968 224.951 251.66Z" fill="white"/>
<path d="M236.854 251.941C236.86 251.864 236.897 251.792 236.956 251.742C237.014 251.692 237.091 251.666 237.168 251.672L238.681 251.755C238.757 251.759 238.829 251.793 238.88 251.85C238.932 251.906 238.959 251.981 238.955 252.057C238.953 252.095 238.944 252.132 238.928 252.166C238.911 252.2 238.889 252.23 238.86 252.255C238.832 252.28 238.799 252.299 238.764 252.311C238.728 252.323 238.69 252.328 238.653 252.325L237.134 252.242C237.057 252.239 236.985 252.205 236.933 252.149C236.88 252.093 236.852 252.018 236.854 251.941ZM236.807 252.852C236.809 252.814 236.819 252.776 236.835 252.741C236.852 252.707 236.875 252.676 236.904 252.65C236.932 252.624 236.966 252.605 237.002 252.592C237.038 252.58 237.077 252.575 237.115 252.577L238.634 252.66C238.672 252.663 238.709 252.673 238.743 252.69C238.777 252.706 238.808 252.73 238.833 252.759C238.858 252.787 238.877 252.821 238.889 252.857C238.901 252.893 238.906 252.931 238.903 252.969C238.902 253.007 238.893 253.045 238.877 253.08C238.862 253.114 238.839 253.146 238.811 253.172C238.783 253.198 238.75 253.218 238.714 253.232C238.678 253.245 238.64 253.251 238.602 253.249L237.083 253.166C237.044 253.164 237.006 253.154 236.972 253.136C236.937 253.119 236.906 253.096 236.88 253.066C236.854 253.037 236.835 253.003 236.822 252.966C236.81 252.93 236.805 252.891 236.807 252.852Z" fill="#262626"/>
<path d="M251.086 253.353L250.385 253.313C250.349 253.312 250.314 253.303 250.282 253.288C250.25 253.273 250.221 253.251 250.197 253.225C250.173 253.198 250.155 253.167 250.144 253.133C250.132 253.099 250.128 253.063 250.131 253.028C250.135 252.956 250.167 252.888 250.22 252.84C250.273 252.791 250.343 252.765 250.415 252.767L251.116 252.808L251.152 252.12C251.154 252.083 251.164 252.047 251.181 252.013C251.197 251.98 251.22 251.95 251.249 251.926C251.277 251.902 251.309 251.883 251.345 251.871C251.38 251.86 251.417 251.855 251.455 251.858C251.491 251.86 251.527 251.869 251.561 251.885C251.594 251.901 251.623 251.924 251.648 251.951C251.672 251.979 251.691 252.011 251.702 252.046C251.714 252.081 251.719 252.118 251.716 252.155L251.68 252.843L252.381 252.877C252.453 252.883 252.521 252.916 252.569 252.97C252.618 253.024 252.644 253.095 252.642 253.168C252.635 253.239 252.601 253.306 252.546 253.353C252.492 253.4 252.422 253.425 252.35 253.423L251.65 253.382L251.614 254.07C251.61 254.145 251.577 254.215 251.521 254.265C251.466 254.315 251.392 254.341 251.318 254.338C251.28 254.337 251.244 254.328 251.21 254.312C251.176 254.297 251.146 254.274 251.121 254.247C251.096 254.219 251.076 254.187 251.064 254.151C251.052 254.116 251.047 254.079 251.05 254.041L251.086 253.353Z" fill="#262626"/>
<path d="M229.202 195.665C229.2 195.721 229.175 195.775 229.133 195.813C229.092 195.852 229.037 195.872 228.98 195.87L228.36 195.835C228.061 196.54 227.306 198.398 227.124 198.908C227.1 198.97 227.061 199.025 227.009 199.067C226.967 199.101 226.914 199.119 226.86 199.118C226.823 199.116 226.787 199.106 226.755 199.088C226.722 199.071 226.694 199.047 226.672 199.018C226.672 199.018 226.042 198.335 225.854 198.1C225.576 197.755 225.71 197.607 225.757 197.584C225.796 197.569 225.839 197.565 225.88 197.573C225.947 197.581 226.009 197.61 226.06 197.655L226.26 197.89L226.432 198.077L226.59 198.254L226.768 198.454C226.951 197.962 227.78 196.03 227.97 195.55C227.987 195.524 228.008 195.502 228.032 195.482C228.053 195.461 228.078 195.445 228.106 195.434C228.133 195.423 228.163 195.417 228.193 195.418L229.004 195.461C229.057 195.465 229.105 195.488 229.142 195.526C229.178 195.563 229.2 195.613 229.202 195.665Z" fill="#262626"/>
<path d="M261.655 173.683L209.414 170.82L208.729 183.319L260.97 186.182L261.655 173.683Z" fill="white"/>
<path d="M214.087 180.853C214.327 180.864 214.549 180.835 214.752 180.765C214.956 180.694 215.133 180.591 215.284 180.454C215.435 180.317 215.551 180.155 215.632 179.966C215.721 179.778 215.771 179.568 215.782 179.337C215.806 178.841 215.677 178.447 215.395 178.153C215.121 177.859 214.756 177.701 214.301 177.679C214.061 177.668 213.839 177.701 213.635 177.779C213.439 177.85 213.266 177.954 213.115 178.091C212.973 178.228 212.861 178.391 212.779 178.579C212.699 178.759 212.653 178.949 212.644 179.149C212.621 179.628 212.734 180.026 212.983 180.343C213.232 180.659 213.6 180.829 214.087 180.853ZM213.341 177.393C213.693 177.073 214.137 176.926 214.672 176.952C214.976 176.967 215.261 177.033 215.528 177.15C215.795 177.259 216.027 177.414 216.226 177.616C216.424 177.818 216.577 178.062 216.683 178.347C216.79 178.633 216.834 178.955 216.817 179.315C216.8 179.666 216.72 179.991 216.577 180.288C216.435 180.578 216.243 180.829 216 181.041C215.758 181.246 215.474 181.404 215.148 181.517C214.823 181.629 214.464 181.676 214.072 181.657C213.681 181.638 213.332 181.561 213.026 181.426C212.721 181.283 212.462 181.094 212.249 180.86C212.044 180.626 211.889 180.346 211.785 180.021C211.688 179.695 211.65 179.337 211.668 178.946C211.685 178.61 211.774 178.262 211.935 177.901C212.105 177.533 212.356 177.145 212.688 176.736L214.706 174.263C214.757 174.201 214.832 174.153 214.929 174.117C215.028 174.074 215.141 174.056 215.268 174.062L216.179 174.106L213.79 176.814C213.697 176.921 213.612 177.021 213.535 177.114C213.467 177.206 213.402 177.299 213.341 177.393ZM219.06 177.08C219.431 177.018 219.785 176.995 220.121 177.011C220.512 177.03 220.857 177.107 221.155 177.242C221.453 177.368 221.697 177.54 221.887 177.758C222.084 177.975 222.228 178.227 222.319 178.511C222.409 178.796 222.447 179.098 222.431 179.418C222.412 179.817 222.322 180.177 222.163 180.498C222.011 180.819 221.806 181.09 221.547 181.309C221.288 181.521 220.988 181.683 220.646 181.794C220.313 181.898 219.954 181.941 219.571 181.923C219.115 181.901 218.708 181.801 218.348 181.623C217.988 181.438 217.694 181.235 217.464 181.016L217.796 180.611C217.864 180.527 217.958 180.487 218.078 180.493C218.15 180.496 218.229 180.528 218.314 180.588C218.407 180.641 218.512 180.706 218.629 180.784C218.753 180.854 218.898 180.921 219.064 180.985C219.229 181.041 219.428 181.075 219.659 181.086C220.179 181.111 220.59 180.971 220.893 180.665C221.204 180.36 221.373 179.943 221.398 179.416C221.42 178.952 221.306 178.579 221.056 178.294C220.806 178.002 220.409 177.842 219.865 177.816C219.474 177.797 219.075 177.846 218.669 177.962L218.03 177.751L218.813 174.233L222.433 174.408L222.413 174.828C222.406 174.963 222.353 175.077 222.252 175.168C222.16 175.252 222.01 175.289 221.802 175.279L219.489 175.167L219.06 177.08ZM228.983 178.509C228.951 179.172 228.851 179.744 228.684 180.225C228.525 180.698 228.314 181.088 228.051 181.395C227.788 181.695 227.481 181.917 227.129 182.06C226.787 182.195 226.419 182.254 226.028 182.235C225.644 182.216 225.288 182.123 224.96 181.955C224.632 181.779 224.352 181.529 224.119 181.205C223.895 180.874 223.722 180.465 223.602 179.979C223.49 179.485 223.449 178.906 223.481 178.243C223.514 177.58 223.609 177.008 223.769 176.527C223.936 176.047 224.147 175.656 224.402 175.356C224.665 175.049 224.968 174.827 225.311 174.691C225.654 174.548 226.018 174.485 226.401 174.504C226.793 174.523 227.153 174.62 227.481 174.796C227.817 174.965 228.101 175.215 228.333 175.546C228.566 175.87 228.738 176.279 228.851 176.773C228.971 177.267 229.015 177.846 228.983 178.509ZM227.916 178.458C227.944 177.882 227.919 177.4 227.842 177.012C227.773 176.616 227.664 176.295 227.516 176.047C227.376 175.8 227.204 175.624 227.001 175.518C226.798 175.404 226.585 175.342 226.361 175.331C226.138 175.32 225.919 175.362 225.707 175.455C225.502 175.542 225.314 175.701 225.143 175.933C224.98 176.165 224.84 176.475 224.726 176.862C224.619 177.241 224.552 177.718 224.524 178.294C224.496 178.869 224.517 179.354 224.586 179.75C224.663 180.138 224.772 180.456 224.912 180.703C225.061 180.943 225.233 181.119 225.427 181.233C225.631 181.339 225.844 181.397 226.068 181.408C226.291 181.419 226.51 181.381 226.722 181.295C226.935 181.201 227.123 181.042 227.286 180.818C227.457 180.586 227.596 180.28 227.702 179.901C227.817 179.514 227.888 179.033 227.916 178.458ZM231.7 181.163C231.615 181.44 231.508 181.739 231.381 182.061C231.253 182.383 231.113 182.701 230.962 183.014C230.818 183.335 230.676 183.637 230.534 183.918L229.755 183.881C229.849 183.581 229.941 183.257 230.03 182.909C230.127 182.569 230.215 182.233 230.295 181.9C230.376 181.56 230.443 181.251 230.496 180.973L231.623 181.027L231.7 181.163ZM234.476 177.825C234.847 177.763 235.201 177.74 235.536 177.757C235.928 177.776 236.272 177.852 236.57 177.987C236.869 178.113 237.112 178.285 237.302 178.503C237.5 178.721 237.644 178.972 237.734 179.256C237.825 179.541 237.862 179.843 237.847 180.163C237.827 180.562 237.738 180.923 237.578 181.243C237.427 181.564 237.221 181.835 236.962 182.054C236.704 182.266 236.404 182.428 236.062 182.54C235.728 182.644 235.37 182.686 234.986 182.668C234.531 182.646 234.123 182.546 233.763 182.368C233.404 182.183 233.109 181.98 232.88 181.761L233.212 181.357C233.28 181.272 233.374 181.232 233.494 181.238C233.566 181.242 233.644 181.273 233.729 181.334C233.823 181.386 233.928 181.451 234.044 181.529C234.169 181.599 234.314 181.666 234.479 181.73C234.645 181.786 234.843 181.82 235.075 181.831C235.594 181.856 236.006 181.716 236.309 181.41C236.62 181.105 236.788 180.688 236.814 180.161C236.836 179.698 236.722 179.324 236.471 179.039C236.221 178.747 235.824 178.587 235.281 178.561C234.889 178.542 234.491 178.591 234.085 178.708L233.446 178.497L234.229 174.978L237.849 175.153L237.828 175.573C237.822 175.709 237.768 175.822 237.668 175.913C237.576 175.997 237.426 176.034 237.218 176.024L234.905 175.912L234.476 177.825ZM244.399 179.254C244.367 179.917 244.267 180.489 244.099 180.97C243.94 181.443 243.729 181.833 243.466 182.141C243.203 182.44 242.896 182.662 242.545 182.805C242.202 182.94 241.835 182.999 241.443 182.98C241.06 182.961 240.704 182.868 240.376 182.7C240.048 182.524 239.767 182.274 239.535 181.951C239.311 181.619 239.138 181.211 239.017 180.724C238.905 180.23 238.865 179.652 238.897 178.988C238.929 178.325 239.025 177.753 239.184 177.272C239.352 176.792 239.563 176.401 239.818 176.101C240.081 175.794 240.384 175.572 240.727 175.436C241.07 175.293 241.433 175.23 241.817 175.249C242.209 175.268 242.568 175.365 242.896 175.541C243.232 175.71 243.517 175.96 243.749 176.291C243.982 176.615 244.154 177.024 244.266 177.518C244.387 178.012 244.431 178.591 244.399 179.254ZM243.332 179.203C243.36 178.627 243.335 178.146 243.258 177.757C243.189 177.362 243.08 177.04 242.932 176.793C242.792 176.545 242.62 176.369 242.417 176.263C242.214 176.149 242.001 176.087 241.777 176.076C241.553 176.065 241.335 176.107 241.122 176.2C240.918 176.287 240.73 176.446 240.559 176.678C240.395 176.91 240.256 177.22 240.141 177.607C240.035 177.986 239.968 178.463 239.94 179.039C239.912 179.614 239.933 180.1 240.002 180.495C240.079 180.884 240.188 181.201 240.328 181.448C240.477 181.688 240.648 181.864 240.843 181.978C241.046 182.084 241.26 182.142 241.483 182.153C241.707 182.164 241.925 182.126 242.138 182.04C242.35 181.946 242.538 181.787 242.701 181.563C242.873 181.331 243.012 181.025 243.118 180.646C243.233 180.259 243.304 179.778 243.332 179.203ZM250.965 179.572C250.933 180.235 250.833 180.807 250.666 181.287C250.507 181.76 250.296 182.15 250.033 182.458C249.77 182.758 249.463 182.979 249.112 183.122C248.769 183.258 248.401 183.316 248.01 183.297C247.626 183.279 247.27 183.185 246.942 183.017C246.614 182.841 246.334 182.592 246.101 182.268C245.877 181.937 245.705 181.528 245.584 181.042C245.472 180.548 245.432 179.969 245.464 179.306C245.496 178.642 245.591 178.07 245.751 177.59C245.918 177.109 246.129 176.719 246.384 176.419C246.647 176.111 246.95 175.889 247.293 175.754C247.637 175.61 248 175.548 248.384 175.566C248.775 175.585 249.135 175.683 249.463 175.859C249.799 176.027 250.083 176.277 250.315 176.609C250.548 176.932 250.721 177.341 250.833 177.835C250.953 178.33 250.997 178.908 250.965 179.572ZM249.898 179.52C249.926 178.945 249.901 178.463 249.824 178.075C249.755 177.679 249.647 177.357 249.498 177.11C249.358 176.863 249.186 176.686 248.983 176.58C248.781 176.467 248.567 176.404 248.344 176.393C248.12 176.383 247.902 176.424 247.689 176.518C247.484 176.604 247.297 176.763 247.125 176.995C246.962 177.228 246.823 177.537 246.708 177.924C246.601 178.303 246.534 178.781 246.506 179.356C246.479 179.931 246.499 180.417 246.568 180.813C246.646 181.201 246.754 181.519 246.895 181.766C247.043 182.005 247.215 182.182 247.41 182.295C247.613 182.401 247.826 182.459 248.05 182.47C248.274 182.481 248.492 182.444 248.704 182.358C248.917 182.264 249.105 182.105 249.268 181.88C249.439 181.648 249.578 181.343 249.685 180.963C249.799 180.576 249.871 180.095 249.898 179.52Z" fill="#262626"/>
<path opacity="0.1" d="M175.421 251.862L173.53 251.093C169.977 249.618 166.357 248.049 162.953 246.449C162.513 246.251 162.079 246.046 161.657 245.829C160.969 245.507 160.287 245.172 159.63 244.844C159.295 244.682 158.972 244.509 158.644 244.348L158.297 244.174L157.274 243.641C155.928 242.934 154.651 242.233 153.467 241.533C153.194 241.378 152.909 241.21 152.642 241.043C150.788 239.965 149.053 238.695 147.465 237.255C147.316 237.106 147.174 236.963 147.044 236.821C146.913 236.678 146.777 236.536 146.659 236.399C139.151 227.44 126.714 182.509 123.477 160.871C123.446 160.617 123.409 160.369 123.372 160.121C123.369 160.067 123.369 160.013 123.372 159.959C123.161 158.316 123.006 156.289 122.907 154.1C122.839 143.412 127.972 141.924 133.974 146.921C147.881 181.058 168.923 237.354 175.421 251.862Z" fill="#262626"/>
<path d="M155.198 263.13H53.3633C57.6661 243.941 75.5097 171.99 107.08 143.179L107.781 142.559C112.362 138.491 122.704 139.403 129.481 142.757C129.951 143.037 130.371 143.396 130.721 143.817C133.424 146.806 138.334 155.126 141.062 163.657C141.542 165.134 141.945 166.634 142.271 168.152C142.339 168.444 142.408 168.772 142.476 169.188C142.544 169.485 142.6 169.808 142.668 170.186C142.755 170.7 142.848 171.265 142.953 171.885C145.687 188.414 152.662 242.366 155.198 263.13Z" fill="#F42123"/>
<path d="M123.312 168.383L128.124 161.055L133.127 166.926L131.862 172.487L126.195 173.411L123.312 168.383Z" fill="#262626"/>
<path d="M126.193 173.408L125.629 237.467L133.925 257.387L141.445 235.83L131.86 172.484L126.193 173.408Z" fill="#262626"/>
<path d="M95.6396 160.36C79.966 194.509 69.333 251.14 79.0422 259.752C89.855 269.337 110.228 229.136 109.348 227.127C108.678 225.608 109.168 189.072 109.906 162.362C110.644 135.653 99.5146 151.915 95.6396 160.36Z" fill="#F1B4A7"/>
<path d="M109.592 227.082C109.4 223.269 110.559 174.902 110.423 159.793C110.286 144.684 104.396 142.129 95.3506 159.297C86.3048 176.465 72.981 219.697 74.128 243.902C75.2316 267.214 86.0816 265.565 96.8076 250.722C102.088 243.437 106.387 235.489 109.592 227.082Z" fill="#F42123"/>
<path d="M109.475 233.322C108.892 215.243 109.161 197.161 110.281 179.078C110.868 197.157 110.599 215.239 109.475 233.322Z" fill="#262626"/>
<path d="M110.309 189.575C110.604 187.211 111.136 184.883 111.896 182.625C111.758 185.014 111.221 187.363 110.309 189.575Z" fill="#262626"/>
<path d="M81.7775 260.238C90.6125 266.37 109.126 263.016 151.218 256.196C157.039 255.247 158.658 211.351 152.377 212.039C144.478 212.907 114.018 217.979 111.841 218.636C93.4335 224.135 75.7821 256.078 81.7775 260.238Z" fill="#F1B4A7"/>
<path d="M160.277 209.461C172.516 207.118 176.019 208.395 185.294 200.936C191.389 196.038 197.13 197.836 193.888 205.276C188.593 217.472 173.428 223.808 167.55 224.496L160.277 209.461Z" fill="#F1B4A7"/>
<path d="M133.398 219.921C133.398 219.921 141.595 214.564 154.392 210.776C163.239 208.159 183.129 204.607 203.279 223.386C208.059 227.838 211.711 237.578 201.264 233.139C193.824 229.983 190.104 225.742 185.435 224.695C185.435 224.695 188.616 237.634 183.966 242.247C179.898 246.283 175.547 250.023 170.946 253.438C170.127 252.741 169.354 251.991 168.633 251.193C168.633 251.193 164.386 256.048 150.405 256.339L133.398 219.921Z" fill="#F1B4A7"/>
<path d="M163.259 209.625C167.654 211.64 176.899 216.067 183.21 222.323C190.21 229.273 201.81 244.537 196.646 249.658C192.845 253.409 187.897 247.966 187.897 247.966C187.897 247.966 191.369 255.294 187.197 257.929C183.396 260.335 179.819 255.896 179.819 255.896C179.819 255.896 181.158 260.701 177.054 262.313C172.094 264.247 170.11 253.862 163.414 251.494C161.876 250.998 163.259 209.625 163.259 209.625Z" fill="#F1B4A7"/>
<path d="M174.611 228.501C178.43 231.074 185.616 239.153 187.928 247.777C187.984 247.969 187.86 248.112 187.78 247.944C184.168 240.974 179.723 234.468 174.543 228.569C174.505 228.526 174.567 228.47 174.611 228.501Z" fill="#262626"/>
<path d="M167.802 235.767C170.871 238.328 177.908 246.983 179.948 255.8C179.991 255.998 179.867 256.134 179.787 255.961C176.54 248.818 172.497 242.065 167.734 235.829C167.697 235.786 167.759 235.736 167.802 235.767Z" fill="#262626"/>
<path d="M185.434 224.611C189.507 225.591 192.254 227.426 195.732 229.609C197.456 230.713 199.241 231.721 201.077 232.628C202.757 233.428 205.237 234.643 206.911 233.167C207.841 232.349 207.754 230.942 207.481 229.85C206.911 228.244 206.089 226.739 205.045 225.393C205.001 225.337 205.088 225.269 205.131 225.318C206.138 226.542 207.017 227.865 207.754 229.268C208.233 230.226 208.414 231.305 208.275 232.368C207.797 234.618 205.175 235.04 203.315 234.525C202.191 234.178 201.104 233.719 200.072 233.155C199.068 232.647 198.094 232.089 197.133 231.506C195.156 230.315 193.252 229.026 191.293 227.786C189.387 226.641 187.409 225.62 185.372 224.729C185.304 224.711 185.353 224.593 185.434 224.611Z" fill="#262626"/>
<path d="M194.564 238.316C193.41 236.077 187.297 226.821 185.357 224.707C185.346 224.696 185.34 224.681 185.34 224.666C185.34 224.651 185.346 224.637 185.357 224.626C185.367 224.615 185.382 224.609 185.397 224.609C185.412 224.609 185.426 224.615 185.437 224.626C188.723 227.435 194.154 235.061 195.45 237.528C196.746 239.996 198.234 243.108 198.377 245.873C198.594 250.071 195.847 251.007 194.83 251.261C193.619 251.543 192.347 251.401 191.228 250.858C189.913 250.141 188.758 249.162 187.837 247.981C187.787 247.926 187.837 247.845 187.911 247.895C189.449 249.476 191.953 250.995 194.216 250.573C194.718 250.498 195.199 250.324 195.632 250.061C196.065 249.798 196.442 249.452 196.74 249.042C197.311 248 197.489 246.788 197.242 245.625C196.889 243.034 195.754 240.616 194.564 238.316Z" fill="#262626"/>
<path d="M145.168 211.281L125.44 262.475C125.44 262.475 88.1591 267.435 79.6713 260.503C74.0913 255.94 90.7445 222.602 111.484 217.859L145.168 211.281Z" fill="#F42123"/>
<path d="M90.3763 233.017C92.6703 229.507 99.5647 220.734 111.512 217.82C111.618 217.82 111.68 217.957 111.574 217.994C102.894 221.026 93.0051 229.941 90.4941 233.128C90.4383 233.209 90.3143 233.097 90.3763 233.017Z" fill="#262626"/>
<path d="M113.658 259.676C115.518 253.929 117.694 248.293 119.858 242.657C122.021 237.021 124.198 231.379 126.547 225.793C127.868 222.637 129.164 219.475 130.59 216.369C130.596 216.349 130.611 216.331 130.63 216.322C130.649 216.312 130.672 216.31 130.692 216.316C130.713 216.323 130.73 216.337 130.74 216.357C130.749 216.376 130.751 216.398 130.745 216.419C128.885 222.154 126.733 227.808 124.588 233.45C122.443 239.092 120.248 244.734 117.96 250.345C116.683 253.513 115.344 256.663 113.918 259.769C113.868 259.905 113.596 259.825 113.658 259.676Z" fill="#262626"/>
<path d="M145.036 210.759C142.692 210.933 140.362 211.262 138.061 211.745C135.742 212.166 133.436 212.625 131.13 213.103C126.548 214.057 116.733 215.552 108.766 218.614C108.679 218.645 109.293 218.906 109.386 218.862C113.106 217.213 142.37 212.259 144.67 211.565C144.632 211.744 144.609 211.927 144.602 212.111C144.602 212.235 144.763 212.34 144.85 212.216C145.055 211.918 145.166 211.596 145.352 211.298C145.389 211.244 145.409 211.181 145.411 211.115C145.413 211.05 145.397 210.986 145.364 210.929C145.331 210.873 145.282 210.827 145.224 210.797C145.166 210.767 145.101 210.754 145.036 210.759Z" fill="#262626"/>
<path d="M86.9543 263.436C79.6941 262.251 76.4701 259.585 74.7465 252.319C72.5455 242.647 73.8723 232.609 75.3107 222.931C77.9581 207.431 82.1989 192.303 86.9853 177.367C85.2927 184.187 82.8437 193.45 81.2813 200.165C77.9767 215.045 70.5987 243.868 77.3877 257.583C79.3841 261.365 83.0731 262.444 86.9543 263.436Z" fill="#262626"/>
<path d="M84.8967 178.75C84.6239 181.149 84.2085 183.456 84.4627 185.868C83.5575 183.598 83.9977 180.957 84.8967 178.75Z" fill="#262626"/>
<path d="M128.305 160.977C122.253 161.504 113.53 151.094 110.635 143.27C110.436 142.731 111.968 137.609 113.53 131.298C114.466 127.466 115.421 123.176 116.01 119.202C116.128 118.383 140.06 128.929 140.06 128.929C140.06 128.929 136.383 136.903 135.41 143.847C135.335 144.395 135.313 144.949 135.342 145.502C135.342 145.576 135.342 145.669 135.342 145.775C135.36 148.949 134.151 160.475 128.305 160.977Z" fill="#F1B4A7"/>
<path d="M117.52 119.555C117.687 126.449 119.479 143.307 132.747 145.564C133.596 145.718 134.457 145.799 135.32 145.805C135.332 145.713 135.332 145.619 135.32 145.526C135.298 144.974 135.319 144.42 135.382 143.871C136.368 136.921 140.05 128.948 140.05 128.948C140.05 128.948 122.783 121.315 117.52 119.555Z" fill="#EA8F7B"/>
<path d="M119.789 87.9356C115.089 95.9956 113.781 122.234 118.654 129.296C125.722 139.526 140.23 143.754 149.654 134.584C158.806 125.7 159.903 91.5006 154.187 84.786C145.773 74.866 126.727 75.9758 119.789 87.9356Z" fill="#F1B4A7"/>
<path d="M140.937 109.814C140.937 109.746 140.794 109.895 140.794 109.969C140.794 111.736 140.447 113.758 138.822 114.272C138.773 114.272 138.773 114.378 138.822 114.371C140.8 114.185 141.203 111.501 140.937 109.814Z" fill="#262626"/>
<path d="M139.448 107.898C136.615 107.557 136.138 113.242 138.76 113.564C141.383 113.887 141.823 108.189 139.448 107.898Z" fill="#262626"/>
<path d="M150.801 110.696C150.801 110.628 150.931 110.789 150.925 110.864C150.72 112.618 150.782 114.664 152.326 115.383C152.376 115.383 152.363 115.495 152.326 115.483C150.379 115.042 150.323 112.327 150.801 110.696Z" fill="#262626"/>
<path d="M152.532 109.016C155.384 109.016 155.124 114.745 152.483 114.72C149.841 114.695 150.139 108.966 152.532 109.016Z" fill="#262626"/>
<path d="M137.579 104.132C138.356 104.046 139.127 103.92 139.891 103.754C140.778 103.599 141.497 103.568 142.179 102.917C142.351 102.714 142.452 102.46 142.464 102.194C142.476 101.928 142.4 101.666 142.247 101.448C141.534 100.549 140.387 100.468 139.327 100.611C138.24 100.718 137.232 101.226 136.5 102.037C135.719 102.861 136.525 104.2 137.579 104.132Z" fill="#262626"/>
<path d="M155.707 106.069C154.942 105.903 154.187 105.696 153.444 105.449C152.582 105.195 151.869 105.084 151.268 104.364C151.124 104.142 151.056 103.879 151.073 103.614C151.09 103.35 151.191 103.098 151.361 102.895C152.167 102.083 153.302 102.126 154.356 102.387C155.423 102.616 156.369 103.232 157.009 104.116C157.143 104.326 157.212 104.57 157.209 104.819C157.207 105.067 157.132 105.31 156.994 105.517C156.856 105.724 156.661 105.886 156.433 105.984C156.204 106.082 155.952 106.112 155.707 106.069Z" fill="#262626"/>
<path d="M135.905 125.371C136.259 125.842 136.593 126.468 137.22 126.611C137.872 126.695 138.535 126.643 139.166 126.456C139.179 126.453 139.192 126.454 139.204 126.459C139.216 126.464 139.226 126.472 139.232 126.483C139.239 126.494 139.243 126.507 139.242 126.52C139.241 126.532 139.236 126.545 139.228 126.555C138.927 126.862 138.549 127.082 138.133 127.191C137.717 127.3 137.279 127.294 136.866 127.175C136.521 127.031 136.227 126.787 136.022 126.474C135.817 126.161 135.712 125.794 135.719 125.42C135.713 125.315 135.849 125.302 135.905 125.371Z" fill="#262626"/>
<path d="M138.526 120.409C138.866 121.167 139.36 121.847 139.975 122.406C140.591 122.965 141.315 123.391 142.103 123.657C142.788 123.898 143.504 124.04 144.23 124.079C144.368 124.088 144.507 124.088 144.645 124.079H145.036C145.132 124.075 145.224 124.039 145.298 123.977C145.372 123.916 145.423 123.832 145.445 123.738C145.454 123.678 145.454 123.618 145.445 123.558V123.403C145.68 122.064 145.86 119.993 145.86 119.993C146.313 120.316 148.65 121.822 148.718 121.109C149.245 115.238 149.834 108.709 149.121 102.745C149.114 102.707 149.094 102.672 149.064 102.648C149.034 102.623 148.996 102.609 148.957 102.609C148.918 102.609 148.881 102.623 148.851 102.648C148.821 102.672 148.8 102.707 148.793 102.745C148.061 108.374 148.328 114.091 147.683 119.751C146.927 119.33 145.705 118.567 144.998 118.48C144.8 118.48 144.726 122.479 144.571 123.075C144.575 123.095 144.575 123.116 144.571 123.137C142.264 123.081 140.665 122.145 138.693 120.297C138.6 120.179 138.457 120.253 138.526 120.409Z" fill="#262626"/>
<path d="M143.538 123.275C142.656 124.126 141.568 124.735 140.382 125.042C139.731 125.187 139.052 125.128 138.435 124.875C137.09 124.292 137.251 123.015 137.672 121.948C137.9 121.389 138.194 120.858 138.547 120.367C139.86 121.842 141.608 122.86 143.538 123.275Z" fill="#262626"/>
<path d="M140.382 125.039C139.731 125.184 139.052 125.126 138.435 124.872C137.09 124.289 137.251 123.012 137.672 121.945C139.142 122.324 140.475 123.564 140.382 125.039Z" fill="#FF98B9"/>
<path d="M115.159 107.313C118.668 108.894 122.71 103.971 124 101.832C125.289 99.6928 126.015 89.2458 128.34 86.0962C130.665 82.9466 134.744 81.626 137.64 82.9962C140.535 84.3664 143.809 88.9048 146.059 89.0412C148.31 89.1776 149.587 84.447 151.137 84.7012C154.541 85.222 157.66 96.3324 157.703 100.158C157.703 100.158 160.933 81.9298 143.35 78.0672C127.552 74.5952 120.342 83.0272 118.221 87.6214C114.111 96.3696 115.159 107.313 115.159 107.313Z" fill="#262626"/>
<path d="M135.83 118.569C134.411 118.315 133.092 117.667 132.023 116.7C130.954 115.733 130.178 114.485 129.783 113.099C129.388 111.713 129.39 110.243 129.789 108.858C130.188 107.473 130.968 106.227 132.04 105.263C133.112 104.3 134.433 103.656 135.853 103.406C137.272 103.156 138.734 103.309 140.07 103.849C141.407 104.388 142.566 105.292 143.414 106.457C144.263 107.623 144.767 109.003 144.87 110.441C145.013 112.477 144.343 114.487 143.006 116.029C141.669 117.571 139.775 118.521 137.74 118.668C137.101 118.717 136.46 118.683 135.83 118.569ZM138.372 104.421C137.826 104.326 137.27 104.297 136.717 104.334C135.025 104.456 133.444 105.219 132.295 106.466C131.146 107.714 130.516 109.352 130.533 111.048C130.55 112.743 131.213 114.369 132.386 115.593C133.56 116.818 135.155 117.548 136.849 117.637C138.542 117.726 140.206 117.166 141.501 116.071C142.796 114.976 143.625 113.429 143.819 111.744C144.013 110.06 143.558 108.364 142.546 107.004C141.534 105.643 140.041 104.719 138.372 104.421Z" fill="#E8EBEE"/>
<path d="M153.468 119.558C150.573 119.037 148.471 115.59 148.719 111.579C148.804 109.661 149.487 107.818 150.672 106.309C151.141 105.628 151.778 105.08 152.521 104.718C153.263 104.356 154.087 104.193 154.912 104.243C155.737 104.294 156.535 104.557 157.228 105.007C157.921 105.457 158.486 106.078 158.868 106.811C159.86 108.454 160.313 110.366 160.164 112.279C159.904 116.52 157.126 119.806 153.964 119.614C153.798 119.604 153.632 119.585 153.468 119.558ZM155.235 105.298C155.106 105.272 154.976 105.255 154.845 105.248C154.188 105.239 153.538 105.387 152.95 105.681C152.362 105.974 151.853 106.404 151.466 106.935C150.419 108.278 149.816 109.914 149.742 111.616C149.519 115.292 151.435 118.405 154.032 118.566C156.63 118.727 158.912 115.863 159.135 112.192C159.274 110.495 158.877 108.797 158 107.338C157.708 106.823 157.311 106.376 156.834 106.024C156.358 105.673 155.813 105.425 155.235 105.298Z" fill="#E8EBEE"/>
<path d="M144.558 111.312L143.938 110.481C145.178 109.576 147.936 108.422 149.691 110.549L148.898 111.2C147.335 109.297 144.657 111.231 144.558 111.312Z" fill="#E8EBEE"/>
<path d="M112.044 111.637L111.164 111.11C111.406 110.695 113.644 107.074 115.95 106.838C118.114 106.628 129.956 108.32 130.539 108.413L130.378 109.43C126.453 108.81 117.724 107.7 116.05 107.868C114.524 108.016 112.64 110.639 112.044 111.637Z" fill="#E8EBEE"/>
<path d="M120.353 109.637C120.353 109.637 116.385 100.251 112.244 101.497C108.102 102.743 109.869 115.496 113.874 118.045C114.365 118.406 114.924 118.665 115.518 118.806C116.112 118.946 116.728 118.965 117.329 118.861C117.93 118.758 118.504 118.534 119.016 118.203C119.528 117.871 119.968 117.44 120.31 116.935L120.353 109.637Z" fill="#F1B4A7"/>
<path d="M112.842 105.164C112.774 105.164 112.743 105.232 112.798 105.276C115.582 107.136 116.587 110.335 117.083 113.503C116.413 112.182 115.316 111.302 113.567 112.058C113.48 112.096 113.53 112.238 113.617 112.238C114.19 112.182 114.766 112.304 115.266 112.589C115.767 112.873 116.168 113.305 116.413 113.825C116.815 114.699 117.121 115.614 117.324 116.553C117.411 116.857 117.944 116.82 117.901 116.485C117.898 116.458 117.898 116.431 117.901 116.405C118.794 112.536 116.934 106.447 112.842 105.164Z" fill="#262626"/>
<path d="M135.357 145.033L127.775 157.947L111.698 138.43L106.992 144.456C106.992 144.456 121.066 172.585 121.289 171.395L128.072 160.607L135.456 169.318L136.758 149.428L135.357 145.033Z" fill="#F42123"/>
<path d="M136.68 159.521C136.779 156.228 136.978 152.918 136.916 149.601C136.916 149.483 136.73 149.415 136.692 149.545C135.694 152.645 135.384 165.225 135.074 168.219L135.037 168.182C134.733 167.81 128.155 160.482 128.074 160.581C126.667 162.261 121.695 170.116 121.341 170.842C119.115 166.372 109.561 148.683 106.821 144.399C106.74 144.275 106.548 144.349 106.604 144.492C108.501 149.167 120.808 172.472 121.019 172.435C121.149 172.553 127.318 162.887 128.124 161.027C129.203 162.583 135.769 170.767 135.837 170.284C136.315 166.714 136.597 163.121 136.68 159.521Z" fill="#262626"/>
<path d="M50.1427 73.7009C50.5938 78.0386 52.2417 82.1654 54.9025 85.6207C57.5633 89.0759 61.1322 91.7235 65.2106 93.2678C69.2891 94.8121 73.7165 95.1923 77.9985 94.3659C82.2805 93.5396 86.2485 91.5392 89.4595 88.5882L101.231 90.3193L95.339 80.1393C96.6879 76.8269 97.264 73.2505 97.0234 69.682C96.7828 66.1135 95.7319 62.6468 93.9505 59.5454C92.1692 56.4439 89.7043 53.7894 86.7431 51.7835C83.782 49.7776 80.4025 48.4731 76.8616 47.9691C73.3207 47.4652 69.7115 47.7751 66.3083 48.8752C62.9051 49.9753 59.7975 51.8368 57.2216 54.3181C54.6457 56.7994 52.6693 59.8353 51.4427 63.195C50.2161 66.5546 49.7715 70.1497 50.1427 73.707V73.7009Z" fill="white"/>
<path d="M57.191 54.271C59.7527 51.739 62.8633 49.8311 66.2814 48.6956C69.6996 47.5601 73.3335 47.2274 76.901 47.7233C80.4938 48.1937 83.9307 49.482 86.9474 51.4892C91.5137 54.5408 94.8857 59.0762 96.4928 64.3281C98.0999 69.5799 97.8434 75.2256 95.7668 80.3101V79.9031L101.622 90.1013L102.053 90.8545L101.203 90.7269L89.4438 88.9048L89.7171 88.8197C86.4484 91.7811 82.4179 93.7712 78.0794 94.5657C77.0052 94.7669 75.9164 94.8807 74.8237 94.9058C73.7344 94.9646 72.6423 94.9443 71.5559 94.8451C67.1988 94.4184 63.0428 92.8027 59.5416 90.1742C58.6712 89.5254 57.8415 88.8235 57.0574 88.0726C56.3008 87.3042 55.589 86.493 54.9254 85.643C51.4065 81.0396 49.6969 75.3061 50.1199 69.5272C50.543 63.7484 53.0695 58.325 57.2214 54.2832L57.191 54.271ZM54.968 85.5519C55.6395 86.4061 56.3637 87.2175 57.1364 87.9815C57.9022 88.7295 58.7136 89.4293 59.5659 90.077C61.2987 91.3641 63.2125 92.3875 65.2451 93.114C67.2642 93.8649 69.378 94.331 71.5256 94.4989C72.5974 94.5718 73.6729 94.5718 74.7448 94.4989C75.8184 94.4548 76.8868 94.3248 77.9397 94.1101C82.1624 93.2603 86.0644 91.2494 89.2069 88.3034L89.3223 88.1941H89.4863L101.27 89.8462L100.845 90.4536L94.9225 80.298L94.8131 80.1036L94.8982 79.8971C96.2046 76.6449 96.769 73.1422 96.5503 69.6442C96.3163 66.1667 95.3011 62.7867 93.5801 59.7558C91.8213 56.7124 89.4187 54.09 86.5404 52.0723C83.637 50.0666 80.3124 48.7534 76.8221 48.2335C72.2104 47.5196 67.4905 48.2092 63.2759 50.2127C59.0612 52.2162 55.5465 55.4409 53.1884 59.468C50.8304 63.495 49.7379 68.1382 50.0531 72.7942C50.3683 77.4502 52.0765 81.9037 54.9558 85.5762L54.968 85.5519Z" fill="#484B51"/>
<path d="M70.6344 84.5406L60.582 74.3667L63.9592 71.0321L69.8327 76.9724L82.0292 57.8516L86.0319 60.4026L70.6344 84.5406Z" fill="#F42123"/>
</g>
</g>
<defs>
<clipPath id="clip0_18763_23047">
<rect width="360" height="285" rx="16" fill="white"/>
</clipPath>
<clipPath id="clip1_18763_23047">
<rect width="310" height="310" fill="white" transform="translate(25 -12.5)"/>
</clipPath>
</defs>
</svg>
