<svg width="24" height="24" viewBox="0 0 24 24" fill="none" xmlns="http://www.w3.org/2000/svg">
<path fill-rule="evenodd" clip-rule="evenodd" d="M18.7002 18.6988C15.9496 21.4497 11.8767 22.044 8.54371 20.5026C8.05167 20.3044 7.64827 20.1443 7.26477 20.1443C6.19658 20.1507 4.86699 21.1864 4.17596 20.4962C3.48494 19.8051 4.52147 18.4745 4.52147 17.3998C4.52147 17.0163 4.36771 16.6201 4.16963 16.1271C2.62749 12.7946 3.22264 8.72036 5.97317 5.97042C9.48438 2.45793 15.189 2.45793 18.7002 5.96952C22.2177 9.48744 22.2114 15.1872 18.7002 18.6988Z" stroke="#262626" stroke-width="0.9" stroke-linecap="round" stroke-linejoin="round"/>
<path d="M15.8795 12.7078H15.8876" stroke="#E42628" stroke-width="1.5" stroke-linecap="round" stroke-linejoin="round"/>
<path d="M12.2741 12.7078H12.2822" stroke="#E42628" stroke-width="1.5" stroke-linecap="round" stroke-linejoin="round"/>
<path d="M8.6647 12.7078H8.6728" stroke="#E42628" stroke-width="1.5" stroke-linecap="round" stroke-linejoin="round"/>
</svg>
