<svg width="24" height="24" viewBox="0 0 24 24" fill="none" xmlns="http://www.w3.org/2000/svg">
<path d="M4.6531 17.0339L4.18996 17.2223L4.18996 17.2223L4.6531 17.0339ZM4.30609 11.4047L4.78874 11.5353L4.30609 11.4047ZM19.6939 11.4047L19.2113 11.5353L19.6939 11.4047ZM19.3469 17.0339L19.81 17.2223L19.81 17.2223L19.3469 17.0339ZM14.0365 20.8494L13.9592 20.3554L14.0365 20.8494ZM9.96352 20.8494L10.0408 20.3554H10.0408L9.96352 20.8494ZM8.65619 7.60973L8.55655 7.11976L8.65619 7.60973ZM15.3438 7.60973L15.4435 7.11976L15.4435 7.11976L15.3438 7.60973ZM9.21479 20.7323L9.13753 21.2263H9.13753L9.21479 20.7323ZM4.74598 17.2622L5.20912 17.0738L5.20912 17.0738L4.74598 17.2622ZM14.7852 20.7323L14.8625 21.2263L14.7852 20.7323ZM19.254 17.2622L18.7909 17.0738L18.7909 17.0738L19.254 17.2622ZM15.6199 7.66589L15.5203 8.15586L15.5203 8.15586L15.6199 7.66589ZM8.38009 7.66589L8.47974 8.15586L8.38009 7.66589ZM8.38009 7.66589L8.47974 8.15586L8.75584 8.0997L8.65619 7.60973L8.55655 7.11976L8.28044 7.17592L8.38009 7.66589ZM15.3438 7.60973L15.2442 8.0997L15.5203 8.15586L15.6199 7.66589L15.7196 7.17592L15.4435 7.11976L15.3438 7.60973ZM14.7852 20.7323L14.7079 20.2383L13.9592 20.3554L14.0365 20.8494L14.1137 21.3434L14.8625 21.2263L14.7852 20.7323ZM9.96352 20.8494L10.0408 20.3554L9.29205 20.2383L9.21479 20.7323L9.13753 21.2263L9.88626 21.3434L9.96352 20.8494ZM19.3469 17.0339L18.8838 16.8455L18.7909 17.0738L19.254 17.2622L19.7171 17.4507L19.81 17.2223L19.3469 17.0339ZM4.74598 17.2622L5.20912 17.0738L5.11624 16.8455L4.6531 17.0339L4.18996 17.2223L4.28285 17.4506L4.74598 17.2622ZM4.6531 17.0339L5.11624 16.8455C4.42729 15.1521 4.31292 13.294 4.78874 11.5353L4.30609 11.4047L3.82344 11.2741C3.29031 13.2447 3.41882 15.3269 4.18996 17.2223L4.6531 17.0339ZM19.6939 11.4047L19.2113 11.5353C19.6871 13.294 19.5727 15.1521 18.8838 16.8455L19.3469 17.0339L19.81 17.2223C20.5812 15.3269 20.7097 13.2447 20.1766 11.2741L19.6939 11.4047ZM14.0365 20.8494L13.9592 20.3554C12.6616 20.5583 11.3383 20.5583 10.0408 20.3554L9.96352 20.8494L9.88626 21.3434C11.2862 21.5623 12.7138 21.5623 14.1137 21.3434L14.0365 20.8494ZM8.65619 7.60973L8.75584 8.0997C10.8949 7.66468 13.1052 7.66468 15.2442 8.0997L15.3438 7.60973L15.4435 7.11976C13.1729 6.658 10.8271 6.658 8.55655 7.11976L8.65619 7.60973ZM9.21479 20.7323L9.29205 20.2383C7.43462 19.9478 5.88651 18.7388 5.20912 17.0738L4.74598 17.2622L4.28285 17.4506C5.09791 19.4541 6.94799 20.8838 9.13753 21.2263L9.21479 20.7323ZM14.7852 20.7323L14.8625 21.2263C17.052 20.8838 18.9021 19.4541 19.7171 17.4507L19.254 17.2622L18.7909 17.0738C18.1135 18.7388 16.5654 19.9478 14.7079 20.2383L14.7852 20.7323ZM15.6199 7.66589L15.5203 8.15586C17.3294 8.52379 18.7523 9.83897 19.2113 11.5353L19.6939 11.4047L20.1766 11.2741C19.6143 9.196 17.8823 7.61576 15.7196 7.17592L15.6199 7.66589ZM8.38009 7.66589L8.28044 7.17592C6.11773 7.61576 4.38568 9.196 3.82344 11.2741L4.30609 11.4047L4.78874 11.5353C5.24767 9.83897 6.67061 8.52379 8.47974 8.15586L8.38009 7.66589Z" fill="#262626"/>
<path d="M12 13.5078L12 15.5078" stroke="#E42628" stroke-linecap="round"/>
<path d="M7.14453 7.43841C7.14453 7.71455 7.36839 7.93841 7.64453 7.93841C7.92067 7.93841 8.14453 7.71455 8.14453 7.43841H7.64453H7.14453ZM7.64453 7.13552H7.14453H7.64453ZM16.3565 7.13553H15.8565H16.3565ZM15.8565 7.43841C15.8565 7.71455 16.0804 7.93841 16.3565 7.93841C16.6327 7.93841 16.8565 7.71455 16.8565 7.43841H16.3565H15.8565ZM10.8523 3.14907L10.7309 2.66402L10.7309 2.66402L10.8523 3.14907ZM13.1488 3.14907L13.2701 2.66402L13.1488 3.14907ZM7.64453 7.43841H8.14453V7.13552H7.64453H7.14453V7.43841H7.64453ZM16.3565 7.13553H15.8565V7.43841H16.3565H16.8565V7.13553H16.3565ZM10.8523 3.14907L10.9736 3.63413C11.6469 3.46571 12.3542 3.46571 13.0275 3.63413L13.1488 3.14907L13.2701 2.66402C12.4375 2.45574 11.5635 2.45574 10.7309 2.66402L10.8523 3.14907ZM16.3565 7.13553H16.8565C16.8565 5.01851 15.3697 3.18922 13.2701 2.66402L13.1488 3.14907L13.0275 3.63413C14.7063 4.05409 15.8565 5.50202 15.8565 7.13553H16.3565ZM7.64453 7.13552H8.14453C8.14453 5.50202 9.29474 4.05409 10.9736 3.63413L10.8523 3.14907L10.7309 2.66402C8.63137 3.18922 7.14453 5.01851 7.14453 7.13552H7.64453Z" fill="#E42628"/>
</svg>
