<svg width="24" height="24" viewBox="0 0 24 24" fill="none" xmlns="http://www.w3.org/2000/svg">
<mask id="mask0_15149_6980" style="mask-type:alpha" maskUnits="userSpaceOnUse" x="4" y="8" width="16" height="13">
<path d="M4 8H20V13C20 17.4183 16.4183 21 12 21C7.58172 21 4 17.4183 4 13V8Z" fill="white"/>
</mask>
<g mask="url(#mask0_15149_6980)">
<circle cx="8.5" cy="11.75" r="0.75" fill="#A0A4AB"/>
<circle cx="12" cy="11.75" r="0.75" fill="#A0A4AB"/>
<circle cx="15.5" cy="11.75" r="0.75" fill="#A0A4AB"/>
<circle cx="8.5" cy="15.75" r="0.75" fill="#A0A4AB"/>
<circle cx="12" cy="15.75" r="0.75" fill="#A0A4AB"/>
<circle cx="15.5" cy="15.75" r="0.75" fill="#A0A4AB"/>
</g>
<path d="M3.83327 15.2485L3.34591 15.3602L3.83327 15.2485ZM3.83327 9.35323L3.34591 9.24153L3.83327 9.35323ZM20.1667 9.35323L20.6541 9.24153L20.1667 9.35323ZM20.1667 15.2485L19.6794 15.1368L20.1667 15.2485ZM14.8801 20.6589L14.9969 21.1451L14.8801 20.6589ZM9.11986 20.6589L9.00314 21.1451L9.11986 20.6589ZM9.11985 3.94279L9.00314 3.45661L9.11985 3.94279ZM14.8801 3.94279L14.9969 3.45661L14.8801 3.94279ZM8.57008 3C8.57008 2.72386 8.34622 2.5 8.07008 2.5C7.79394 2.5 7.57008 2.72386 7.57008 3H8.57008ZM7.57008 5.51374C7.57008 5.78989 7.79394 6.01374 8.07008 6.01374C8.34622 6.01374 8.57008 5.78989 8.57008 5.51374H7.57008ZM16.4299 3C16.4299 2.72386 16.2061 2.5 15.9299 2.5C15.6538 2.5 15.4299 2.72386 15.4299 3H16.4299ZM15.4299 5.51374C15.4299 5.78989 15.6538 6.01374 15.9299 6.01374C16.2061 6.01374 16.4299 5.78989 16.4299 5.51374H15.4299ZM3.83327 15.2485L4.32064 15.1368C3.89312 13.2715 3.89312 11.3302 4.32064 9.46493L3.83327 9.35323L3.34591 9.24153C2.8847 11.2538 2.8847 13.3479 3.34591 15.3602L3.83327 15.2485ZM20.1667 9.35323L19.6794 9.46494C20.1069 11.3302 20.1069 13.2715 19.6794 15.1368L20.1667 15.2485L20.6541 15.3602C21.1153 13.3479 21.1153 11.2538 20.6541 9.24153L20.1667 9.35323ZM14.8801 20.6589L14.7634 20.1727C12.9458 20.6091 11.0542 20.6091 9.23657 20.1727L9.11986 20.6589L9.00314 21.1451C10.9742 21.6183 13.0258 21.6183 14.9969 21.1451L14.8801 20.6589ZM9.11985 3.94279L9.23657 4.42898C11.0542 3.99262 12.9458 3.99262 14.7634 4.42898L14.8801 3.94279L14.9969 3.45661C13.0258 2.98341 10.9742 2.98342 9.00314 3.45661L9.11985 3.94279ZM9.11986 20.6589L9.23657 20.1727C6.80296 19.5885 4.89465 17.6412 4.32064 15.1368L3.83327 15.2485L3.34591 15.3602C4.0025 18.2249 6.19051 20.4699 9.00314 21.1451L9.11986 20.6589ZM14.8801 20.6589L14.9969 21.1451C17.8095 20.4699 19.9975 18.2249 20.6541 15.3602L20.1667 15.2485L19.6794 15.1368C19.1054 17.6412 17.197 19.5885 14.7634 20.1727L14.8801 20.6589ZM14.8801 3.94279L14.7634 4.42898C17.197 5.0132 19.1054 6.96049 19.6794 9.46494L20.1667 9.35323L20.6541 9.24153C19.9975 6.37681 17.8095 4.13182 14.9969 3.45661L14.8801 3.94279ZM9.11985 3.94279L9.00314 3.45661C6.1905 4.13182 4.0025 6.37681 3.34591 9.24153L3.83327 9.35323L4.32064 9.46493C4.89465 6.96049 6.80296 5.0132 9.23657 4.42898L9.11985 3.94279ZM4.14016 8.27886V8.77886H19.8598V8.27886V7.77886H4.14016V8.27886ZM8.07008 3H7.57008V5.51374H8.07008H8.57008V3H8.07008ZM15.9299 3H15.4299V5.51374H15.9299H16.4299V3H15.9299Z" fill="#A0A4AB"/>
</svg>
