<svg width="72" height="22" viewBox="0 0 72 22" fill="none" xmlns="http://www.w3.org/2000/svg">
<g clip-path="url(#clip0_18930_10783)">
<path d="M54.7539 18.2257C57.2992 21.4306 61.8271 22.7072 65.7924 20.9417C71.526 18.3886 72.946 11.6257 69.2219 6.89975L65.337 10.0504C67.4536 13.2281 65.4709 15.8084 63.8366 16.7047C61.7736 17.8454 59.6837 16.8405 58.7192 15.6183C58.1298 14.8849 57.8619 13.9615 57.969 13.0109C58.0762 12.0602 58.5317 11.2183 59.2551 10.6479C59.9785 10.0504 60.8894 9.77876 61.8271 9.8874C62.7113 9.99604 63.5151 10.4035 64.0777 11.1096L67.9626 7.95901C65.4173 4.29234 60.166 3.88493 56.4151 6.49234C52.8517 8.93678 51.8336 14.5318 54.7539 18.2257Z" fill="white"/>
<path d="M65.8189 20.956C71.5524 18.403 72.9727 11.6399 69.2486 6.91406L65.3637 10.0647C67.4803 13.2424 65.4976 15.8227 63.8633 16.719L65.8189 20.956Z" fill="url(#paint0_radial_18930_10783)"/>
<path d="M70.6968 0L69.0893 2.52593C68.6338 3.2321 67.8568 3.66667 67.0262 3.66667H60.3281L61.9357 1.14074C62.3911 0.434571 63.1681 0 63.9987 0H70.6968Z" fill="white"/>
<path d="M47.36 9.39531L44.7075 10.4274C44.6808 10.4274 44.6808 10.4546 44.6808 10.4817V15.7509C44.6808 16.0768 44.4396 16.3212 44.1181 16.3212H36.3751C35.1158 16.3212 34.1245 15.2891 34.1245 14.0398C34.1245 12.7904 35.1426 11.7583 36.3751 11.7583H40.2868C40.5815 11.7583 40.7958 12.0027 40.7958 12.2743V13.3064C40.7958 13.3607 40.7691 13.3879 40.7155 13.3879H37.0985C37.0717 13.3879 37.0449 13.4151 37.0181 13.4422L36.3215 14.5558C36.2947 14.6101 36.3215 14.6916 36.4019 14.6916H43.2608C43.4215 14.6916 43.5287 14.5558 43.5287 14.42V12.1114C43.5287 11.2151 42.8053 10.4817 41.9211 10.4817H34.8747C32.9457 10.4817 31.3917 12.0299 31.3381 13.9583V14.0398V15.1805C31.3381 15.8052 30.8291 16.3212 30.2128 16.3212C29.5966 16.3212 29.0875 15.8052 29.0875 15.1805V13.9311V7.24963C29.0875 7.22247 29.0608 7.19531 29.034 7.19531H26.3815C26.3547 7.19531 26.3279 7.22247 26.3279 7.24963V15.5336C26.3279 15.9682 25.9796 16.2941 25.5777 16.2941H4.89396C3.98302 16.2941 3.25962 15.5607 3.25962 14.6373C3.25962 13.7138 3.98302 12.9805 4.89396 12.9805H7.84113C8.43057 12.9805 8.88604 13.4422 8.88604 14.0398V14.6101C8.88604 14.6373 8.91283 14.6373 8.93962 14.6373H11.5921C11.6189 14.6373 11.6457 14.6373 11.6457 14.6101V14.2027C11.6457 12.8175 10.5472 11.6768 9.15396 11.6768H3.42038C1.81284 11.6768 0.526794 12.9805 0.526794 14.6101C0.526794 16.2398 1.81284 17.5435 3.42038 17.5435H8.88604C8.88604 18.9558 7.76075 20.1237 6.34075 20.1237H1.14302C0.794722 20.1237 0.5 20.4225 0.5 20.7756C0.5 21.1286 0.794722 21.4274 1.14302 21.4274H7.81434C9.93094 21.4274 11.6189 19.6891 11.6189 17.5706H27.0781C27.6408 17.5706 28.1498 17.3262 28.4981 16.9459C28.9 17.3262 29.4358 17.5706 30.0253 17.5706H30.3468C31.1774 17.5706 31.9008 17.1089 32.2758 16.457C32.9189 17.1361 33.8298 17.5706 34.8479 17.5706H45.297C46.4758 17.5706 47.4136 16.62 47.4136 15.4249V9.42247C47.4136 9.42247 47.3868 9.39531 47.36 9.39531Z" fill="white"/>
</g>
<defs>
<radialGradient id="paint0_radial_18930_10783" cx="0" cy="0" r="1" gradientTransform="matrix(1.33962 15.4815 -10.7431 0.955318 67.4803 7.60687)" gradientUnits="userSpaceOnUse">
<stop stop-color="#525252"/>
<stop offset="0.536153" stop-color="white"/>
<stop offset="0.97248" stop-color="white"/>
</radialGradient>
<clipPath id="clip0_18930_10783">
<rect width="71" height="22" fill="white" transform="translate(0.5)"/>
</clipPath>
</defs>
</svg>
