<svg width="32" height="32" viewBox="0 0 32 32" fill="none" xmlns="http://www.w3.org/2000/svg">
<g clip-path="url(#clip0_18930_10777)">
<path d="M15.6543 5C15.9303 5.0001 16.1542 5.22404 16.1543 5.5V6.23633C16.8509 6.27381 17.5439 6.40147 18.2119 6.62207L18.2754 6.64355C18.0161 6.89169 17.7891 7.1732 17.6016 7.48145C16.9724 7.30516 16.3214 7.21973 15.6709 7.22461C15.6655 7.22484 15.6598 7.22656 15.6543 7.22656C15.6502 7.22649 15.6457 7.22471 15.6416 7.22461C15.0297 7.23178 14.418 7.31885 13.8252 7.48535L13.5605 7.56543C11.412 8.26196 9.70522 9.9445 8.97949 12.0742L8.84766 12.5059L8.79297 12.708C8.37359 14.256 8.29579 15.8778 8.56641 17.459L8.59473 17.6201L8.60645 17.7559C8.60785 18.0241 8.47782 18.2705 8.27344 18.4268L8.16504 18.4971C7.47098 18.8757 7.0001 19.6153 7 20.4648C7.00022 21.5297 7.74683 22.4442 8.78125 22.6553L9.23047 22.7471L10.0264 22.8994C10.9401 23.0617 11.8596 23.181 12.7812 23.2637C12.8762 23.2722 12.9714 23.2814 13.0664 23.2891C13.2433 23.3033 13.4206 23.3148 13.5977 23.3262C13.7134 23.3336 13.8295 23.3415 13.9453 23.3477C14.1642 23.3593 14.3835 23.3678 14.6025 23.375C15.3019 23.3979 16.0018 23.3978 16.7012 23.375C16.9222 23.3678 17.1434 23.3594 17.3643 23.3477C17.4782 23.3416 17.5922 23.3335 17.7061 23.3262C17.8841 23.3148 18.0624 23.3034 18.2402 23.2891C18.3359 23.2813 18.4317 23.2722 18.5273 23.2637C19.717 23.157 20.9029 22.9865 22.0781 22.7471L22.5264 22.6553L22.7168 22.6084C23.6517 22.3304 24.3084 21.4635 24.3086 20.4648C24.3085 19.6764 23.9023 18.9832 23.2891 18.585L23.1641 18.5088C22.85 18.3328 22.6533 17.971 22.7188 17.5889L22.748 17.4189L22.7939 17.126C22.971 15.8947 22.9383 14.6436 22.7002 13.4248C23.0274 13.289 23.3331 13.1126 23.6113 12.9014C23.9334 14.3343 23.9933 15.8141 23.7842 17.2686L23.7344 17.5879L23.7188 17.6768C24.669 18.2391 25.3085 19.2768 25.3086 20.4648C25.3084 21.9061 24.3604 23.1626 23.0029 23.5664L22.7266 23.6357L22.2773 23.7266C21.4405 23.897 20.5986 24.0345 19.7539 24.1396C19.7443 24.1986 19.7345 24.2578 19.7227 24.3164L19.6797 24.5098L19.5791 24.917C19.2435 26.2815 18.223 27.3636 16.8984 27.7803L16.6299 27.8545C16.0687 27.9887 15.4863 28.006 14.9199 27.9053L14.6787 27.8545C13.3152 27.5282 12.2297 26.5109 11.8047 25.1855L11.7285 24.917L11.6289 24.5098C11.5989 24.3875 11.5739 24.2638 11.5537 24.1396C10.9849 24.0688 10.417 23.9842 9.85156 23.8838L9.03027 23.7266L8.58203 23.6357C7.07847 23.3293 6.00022 22.002 6 20.4648C6.0001 19.2769 6.63866 18.2382 7.58887 17.6758L7.58105 17.6279C7.28587 15.9035 7.36973 14.1347 7.82715 12.4463L7.88184 12.2441L7.95312 11.9961C8.7307 9.45144 10.723 7.4342 13.252 6.61426L13.5547 6.52246C14.0782 6.37543 14.6147 6.28251 15.1543 6.24414V5.5C15.1544 5.22407 15.3784 5.00015 15.6543 5ZM18.2812 24.2891C18.1034 24.3032 17.9251 24.3149 17.7471 24.3262C17.6449 24.3326 17.5426 24.3392 17.4404 24.3447C17.2039 24.3575 16.9671 24.3673 16.7305 24.375C16.6716 24.3769 16.6126 24.3802 16.5537 24.3818C15.954 24.3981 15.3537 24.3981 14.7539 24.3818C14.696 24.3803 14.6379 24.3769 14.5801 24.375C14.3415 24.3673 14.1027 24.3576 13.8643 24.3447C13.7657 24.3394 13.6669 24.3324 13.5684 24.3262C13.3877 24.3148 13.2069 24.3024 13.0264 24.2881C12.8825 24.2767 12.7385 24.2643 12.5947 24.251C12.5963 24.2577 12.598 24.2648 12.5996 24.2715L12.7002 24.6777L12.7568 24.8799C13.0761 25.8756 13.8909 26.6376 14.9111 26.8818L15.0957 26.9209C15.5267 26.9975 15.9694 26.9839 16.3965 26.8818L16.5977 26.8262C17.5894 26.5144 18.3562 25.7034 18.6084 24.6777L18.708 24.2715L18.7119 24.251C18.5685 24.2643 18.4248 24.2777 18.2812 24.2891Z" fill="white"/>
<circle cx="21.668" cy="9" r="3" fill="#FD5C63"/>
</g>
<defs>
<clipPath id="clip0_18930_10777">
<rect width="32" height="32" fill="white"/>
</clipPath>
</defs>
</svg>
