<svg width="360" height="285" viewBox="0 0 360 285" fill="none" xmlns="http://www.w3.org/2000/svg">
<g clip-path="url(#clip0_18763_23407)">
<path d="M162.146 99.4943C162.175 100.6 162.215 101.695 162.227 102.778L162.065 102.616C164.681 102.616 167.296 102.524 169.916 102.518L177.767 102.484L177.468 102.778L177.502 96.142L177.767 96.407C176.471 96.407 175.181 96.407 173.885 96.407L169.98 96.3378L162.065 96.1708L162.146 99.4943ZM169.847 95.9807L173.793 95.9116C175.118 95.8828 176.442 95.9116 177.767 95.8828H178.026V96.1478L178.061 102.783V103.083H177.767L169.916 103.042C167.296 103.042 164.681 102.979 162.065 102.945H161.898V102.754C161.898 101.631 161.95 100.514 161.979 99.4022L162.065 96.119L169.847 95.9807Z" fill="#EBEBEB"/>
<path d="M170.877 91.1329C170.877 92.2388 170.94 93.3275 170.951 94.4161L170.79 94.2548C173.411 94.2203 176.026 94.1569 178.641 94.1569L186.492 94.1166L186.198 94.4161L186.227 87.7806L186.492 88.0456C185.202 88.0456 183.911 88.0455 182.61 88.011L178.71 87.9476L170.784 87.7806L170.877 91.1329ZM178.572 87.6136L182.523 87.5502C183.842 87.5502 185.173 87.5502 186.492 87.5156H186.757V87.7806L186.791 94.4161V94.6926H186.492H178.641C176.026 94.6926 173.411 94.6235 170.79 94.5947H170.629V94.4334C170.629 93.2814 170.681 92.187 170.71 91.0811L170.784 87.7806L178.572 87.6136Z" fill="#EBEBEB"/>
<path d="M179.998 257.812C233.83 257.812 277.469 253.851 277.469 248.965C277.469 244.078 233.83 240.117 179.998 240.117C126.166 240.117 82.5273 244.078 82.5273 248.965C82.5273 253.851 126.166 257.812 179.998 257.812Z" fill="#E8EBEE"/>
<path d="M202.836 45.3203C220.679 45.3175 233.563 53.6826 241.691 64.7041C249.833 75.7428 253.19 89.4298 251.967 100.007C250.077 116.189 243.939 125.742 237.849 132.335C234.792 135.644 231.753 138.203 229.221 140.514C226.715 142.8 224.662 144.877 223.741 147.174V147.175C222.79 149.567 221.693 153.769 220.84 157.343C220.412 159.136 220.042 160.782 219.779 161.979C219.648 162.578 219.543 163.065 219.472 163.402C219.462 163.447 219.454 163.49 219.445 163.529H186.192C186.184 163.49 186.176 163.447 186.166 163.402C186.095 163.065 185.991 162.578 185.86 161.979C185.599 160.782 185.23 159.137 184.803 157.344C183.951 153.77 182.853 149.566 181.89 147.173C180.968 144.879 178.915 142.804 176.41 140.52C173.878 138.211 170.84 135.653 167.785 132.345C161.699 125.753 155.568 116.201 153.698 100.019V100.018C152.461 89.4411 155.821 75.754 163.967 64.7139C172.1 53.691 184.993 45.3232 202.836 45.3203Z" stroke="#565A62"/>
<path d="M252.464 100.064C248.657 132.666 227.696 138.656 224.205 147.36C222.333 152.066 219.851 164.029 219.851 164.029H185.786C185.786 164.029 183.321 152.066 181.426 147.36C177.935 138.668 156.969 132.678 153.202 100.076C150.696 78.6546 166.795 44.8261 202.836 44.8203C238.876 44.8146 254.941 78.643 252.464 100.064Z" fill="white"/>
<path d="M184.629 112.004L184.062 112.109L194.183 166.29L194.749 166.184L184.629 112.004Z" fill="#FFFFFF"/>
<path d="M221.04 112.032L210.91 166.211L211.476 166.317L221.606 112.138L221.04 112.032Z" fill="#FFFFFF"/>
<path d="M202.821 129.825C199.802 129.825 196.974 126.824 195.004 123.074C194.088 124.226 193.057 124.923 192.015 124.923C187.148 124.923 185.149 114.636 185.062 114.198L185.345 114.14C185.345 114.244 187.384 124.635 192.015 124.635C192.994 124.635 193.979 123.915 194.86 122.792C193.253 119.63 192.262 115.983 192.257 113.167C192.251 110.35 193.236 108.818 195.016 108.818C197.107 108.818 198.259 110.465 198.259 113.426C198.183 116.79 197.115 120.056 195.189 122.815C197.101 126.524 199.866 129.508 202.821 129.508C205.044 129.508 207.262 127.78 209.059 124.67C209.237 124.358 209.41 124.036 209.577 123.708C207.429 121.444 206.403 117.567 206.403 114.63C206.403 111.03 207.717 108.789 209.825 108.789C210.217 108.785 210.602 108.89 210.937 109.094C211.272 109.298 211.543 109.591 211.72 109.941C213.183 112.47 212.296 118.823 209.917 123.638C210.404 124.152 210.99 124.561 211.639 124.843C212.288 125.125 212.988 125.274 213.695 125.28C217.676 125.28 220.607 114.849 220.648 114.745L220.924 114.82C220.803 115.263 217.894 125.568 213.695 125.568C212.966 125.564 212.244 125.415 211.573 125.129C210.901 124.843 210.293 124.426 209.784 123.903C209.629 124.209 209.468 124.479 209.301 124.79C207.999 127.094 205.81 129.825 202.821 129.825ZM209.83 109.089C207.526 109.089 206.697 111.969 206.697 114.641C206.697 117.521 207.676 121.237 209.715 123.454C212.019 118.731 212.895 112.568 211.484 110.12C211.332 109.81 211.097 109.549 210.805 109.367C210.513 109.185 210.175 109.088 209.83 109.089ZM195.016 109.089C192.867 109.089 192.545 111.635 192.545 113.121C192.545 115.868 193.501 119.416 195.039 122.504C196.862 119.813 197.88 116.658 197.971 113.409C197.971 111.807 197.585 109.089 195.016 109.089Z" fill="#FFFFFF"/>
<path d="M223.837 162.578H181.812V170.792H223.837V162.578Z" fill="#FFFFFF"/>
<path d="M223.845 172.117H181.82V180.331H223.845V172.117Z" fill="#FFFFFF"/>
<path d="M223.845 181.656H181.82V189.87H223.845V181.656Z" fill="#FFFFFF"/>
<path d="M202.234 38.9781C201.992 36.9284 201.859 34.8672 201.836 32.8034C201.782 30.7397 201.839 28.6746 202.009 26.6172C202.25 28.667 202.383 30.7281 202.407 32.7919C202.458 34.8556 202.401 36.9206 202.234 38.9781Z" fill="#484B51"/>
<path d="M174.009 46.8817C172.768 45.2263 171.615 43.5075 170.553 41.7323C169.477 39.9707 168.494 38.1538 167.609 36.2891C170.073 39.6093 172.216 43.1561 174.009 46.8817Z" fill="#484B51"/>
<path d="M153.503 67.7836C151.604 66.9716 149.751 66.0583 147.95 65.0476C146.139 64.0573 144.38 62.9749 142.68 61.8047C144.579 62.6155 146.432 63.5288 148.232 64.5407C150.043 65.531 151.802 66.6133 153.503 67.7836Z" fill="#484B51"/>
<path d="M146.216 96.1661C142.112 96.6268 137.974 96.7039 133.855 96.3965C135.905 96.1531 137.966 96.0185 140.03 95.9933C142.094 95.9446 144.159 96.0022 146.216 96.1661Z" fill="#484B51"/>
<path d="M154.077 124.391C152.424 125.634 150.705 126.788 148.928 127.847C147.166 128.922 145.349 129.905 143.484 130.79C145.138 129.546 146.857 128.393 148.634 127.334C150.395 126.258 152.212 125.276 154.077 124.391Z" fill="#484B51"/>
<path d="M252.127 123.383C254.025 124.198 255.878 125.113 257.679 126.125C259.491 127.111 261.248 128.193 262.944 129.367C259.159 127.712 255.535 125.709 252.121 123.383H252.127Z" fill="#484B51"/>
<path d="M259.418 95.0007C263.522 94.54 267.66 94.4629 271.779 94.7703C269.73 95.0166 267.668 95.1512 265.604 95.1735C263.541 95.2251 261.476 95.1674 259.418 95.0007Z" fill="#484B51"/>
<path d="M251.543 66.7744C253.197 65.5326 254.916 64.379 256.692 63.3184C258.451 62.2381 260.269 61.2555 262.136 60.375C260.483 61.6187 258.764 62.7724 256.986 63.831C255.225 64.9069 253.408 65.8893 251.543 66.7744Z" fill="#484B51"/>
<path d="M230.613 46.2704C231.43 44.3748 232.345 42.5233 233.355 40.7235C234.341 38.91 235.424 37.1507 236.598 35.4531C235.785 37.3503 234.87 39.202 233.856 41C232.871 42.8142 231.789 44.5736 230.613 46.2704Z" fill="#484B51"/>
<path d="M234.103 153.887L230.658 154.527L229.892 158.15L229.12 154.527L225.676 153.887L229.103 153.052L229.892 149.625L230.675 153.052L234.103 153.887Z" fill="#F42123"/>
<path d="M151.622 114.362L148.178 114.996L147.412 118.624L146.64 114.996L143.195 114.356L146.628 113.521L147.412 110.094L148.195 113.521L151.622 114.362Z" fill="#F42123"/>
<path d="M221.693 40.6353L218.248 41.2689L217.476 44.8977L216.71 41.2689L213.266 40.6296L216.693 39.7944L217.476 36.3672L218.265 39.7944L221.693 40.6353Z" fill="#F42123"/>
<path d="M151.391 86.5878L149.468 86.9449L149.036 88.9666L148.604 86.9449L146.68 86.5878L148.598 86.1154L149.036 84.2031L149.473 86.1154L151.391 86.5878Z" fill="#F42123"/>
<path d="M163.159 149.385L161.235 149.742L160.803 151.769L160.377 149.742L158.453 149.385L160.365 148.918L160.803 147L161.241 148.918L163.159 149.385Z" fill="#F42123"/>
<path d="M260.311 112.244L258.388 112.601L257.956 114.629L257.529 112.601L255.605 112.244L257.518 111.772L257.956 109.859L258.399 111.772L260.311 112.244Z" fill="#F42123"/>
<path d="M238.817 147.236L236.888 147.593L236.461 149.621L236.029 147.593L234.105 147.236L236.024 146.77L236.461 144.852L236.899 146.77L238.817 147.236Z" fill="#F42123"/>
<path d="M157.054 122.674L155.13 123.031L154.698 125.058L154.271 123.031L152.348 122.674L154.26 122.207L154.698 120.289L155.135 122.207L157.054 122.674Z" fill="#F42123"/>
<path d="M211.128 34.1971L209.204 34.5485L208.772 36.576L208.346 34.5485L206.422 34.1971L208.334 33.7248L208.772 31.8125L209.21 33.7248L211.128 34.1971Z" fill="#F42123"/>
<path d="M163.085 55.9862L161.161 56.3376L160.735 58.3651L160.303 56.3376L158.379 55.9804L160.291 55.5139L160.735 53.6016L161.173 55.5139L163.085 55.9862Z" fill="#F42123"/>
<path d="M241.311 154.867C241.186 154.898 241.076 154.97 240.997 155.072C240.918 155.173 240.875 155.298 240.875 155.426C240.875 155.554 240.918 155.679 240.997 155.78C241.076 155.881 241.186 155.953 241.311 155.985C241.436 155.953 241.546 155.881 241.625 155.78C241.704 155.679 241.747 155.554 241.747 155.426C241.747 155.298 241.704 155.173 241.625 155.072C241.546 154.97 241.436 154.898 241.311 154.867Z" fill="#F42123"/>
<path d="M165.687 48.6094C165.565 48.6425 165.457 48.7149 165.38 48.8154C165.303 48.9158 165.262 49.0388 165.262 49.1652C165.262 49.2917 165.303 49.4146 165.38 49.515C165.457 49.6155 165.565 49.6879 165.687 49.7211C165.809 49.6879 165.916 49.6155 165.993 49.515C166.07 49.4146 166.112 49.2917 166.112 49.1652C166.112 49.0388 166.07 48.9158 165.993 48.8154C165.916 48.7149 165.809 48.6425 165.687 48.6094Z" fill="#F42123"/>
<path d="M245.534 64.7344C245.409 64.7656 245.299 64.8375 245.22 64.9388C245.141 65.04 245.098 65.1647 245.098 65.2931C245.098 65.4215 245.141 65.5462 245.22 65.6474C245.299 65.7487 245.409 65.8206 245.534 65.8518C245.658 65.8206 245.769 65.7487 245.848 65.6474C245.927 65.5462 245.97 65.4215 245.97 65.2931C245.97 65.1647 245.927 65.04 245.848 64.9388C245.769 64.8375 245.658 64.7656 245.534 64.7344Z" fill="#F42123"/>
<path d="M269.241 108.383C269.119 108.416 269.012 108.488 268.935 108.589C268.858 108.689 268.816 108.812 268.816 108.939C268.816 109.065 268.858 109.188 268.935 109.288C269.012 109.389 269.119 109.461 269.241 109.494C269.363 109.461 269.471 109.389 269.548 109.288C269.625 109.188 269.666 109.065 269.666 108.939C269.666 108.812 269.625 108.689 269.548 108.589C269.471 108.488 269.363 108.416 269.241 108.383Z" fill="#F42123"/>
<path d="M169.378 150.398C169.256 150.432 169.148 150.504 169.072 150.604C168.995 150.705 168.953 150.828 168.953 150.954C168.953 151.081 168.995 151.204 169.072 151.304C169.148 151.405 169.256 151.477 169.378 151.51C169.5 151.477 169.608 151.405 169.685 151.304C169.761 151.204 169.803 151.081 169.803 150.954C169.803 150.828 169.761 150.705 169.685 150.604C169.608 150.504 169.5 150.432 169.378 150.398Z" fill="#F42123"/>
<path d="M261.74 105.141C261.644 105.152 261.555 105.199 261.491 105.272C261.426 105.344 261.391 105.438 261.391 105.535C261.391 105.632 261.426 105.726 261.491 105.799C261.555 105.871 261.644 105.918 261.74 105.93C261.837 105.918 261.926 105.871 261.99 105.799C262.054 105.726 262.09 105.632 262.09 105.535C262.09 105.438 262.054 105.344 261.99 105.272C261.926 105.199 261.837 105.152 261.74 105.141Z" fill="#F42123"/>
<path d="M166.947 158C166.851 158.012 166.762 158.058 166.698 158.131C166.633 158.204 166.598 158.297 166.598 158.395C166.598 158.492 166.633 158.585 166.698 158.658C166.762 158.731 166.851 158.777 166.947 158.789C167.044 158.777 167.133 158.731 167.197 158.658C167.261 158.585 167.297 158.492 167.297 158.395C167.297 158.297 167.261 158.204 167.197 158.131C167.133 158.058 167.044 158.012 166.947 158Z" fill="#F42123"/>
<path d="M142.877 79.5156C142.781 79.5273 142.692 79.5739 142.627 79.6466C142.563 79.7193 142.527 79.813 142.527 79.9102C142.527 80.0073 142.563 80.1011 142.627 80.1738C142.692 80.2465 142.781 80.2931 142.877 80.3047C142.973 80.2931 143.062 80.2465 143.127 80.1738C143.191 80.1011 143.227 80.0073 143.227 79.9102C143.227 79.813 143.191 79.7193 143.127 79.6466C143.062 79.5739 142.973 79.5273 142.877 79.5156Z" fill="#F42123"/>
<path d="M245.532 58.7188C245.262 58.7386 245.01 58.8598 244.826 59.0579C244.641 59.2561 244.539 59.5167 244.539 59.7872C244.539 60.0578 244.641 60.3183 244.826 60.5165C245.01 60.7147 245.262 60.8359 245.532 60.8557C245.802 60.8359 246.054 60.7147 246.238 60.5165C246.422 60.3183 246.525 60.0578 246.525 59.7872C246.525 59.5167 246.422 59.2561 246.238 59.0579C246.054 58.8598 245.802 58.7386 245.532 58.7188Z" fill="#F42123"/>
<path d="M138.673 87.9062C138.403 87.9261 138.15 88.0473 137.966 88.2454C137.782 88.4436 137.68 88.7042 137.68 88.9747C137.68 89.2453 137.782 89.5058 137.966 89.704C138.15 89.9022 138.403 90.0234 138.673 90.0432C138.942 90.0234 139.195 89.9022 139.379 89.704C139.563 89.5058 139.665 89.2453 139.665 88.9747C139.665 88.7042 139.563 88.4436 139.379 88.2454C139.195 88.0473 138.942 87.9261 138.673 87.9062Z" fill="#F42123"/>
<path d="M102.459 174.071C106.796 193.598 115.891 217.029 119.819 220.848C124.79 225.681 157.835 234.712 159.477 234.908C163.567 235.346 171.965 205.976 167.616 205.313C160.998 204.311 136.909 202.825 135.475 201.333C134.041 199.841 123.909 186.87 113.553 172.303C106.41 162.234 99.7689 161.958 102.459 174.071Z" fill="#F1B4A7"/>
<path d="M156.207 233.301C156.697 233.549 163.586 237.08 167.854 238.353C171.039 239.297 180.278 241.78 181.678 238.353C182.634 236.049 177.369 233.935 173.683 232.368C171.742 231.544 169.357 229.488 169.939 228.238C170.958 226.055 175.958 228.29 179.241 230.231C185.577 233.987 194.045 240.714 197.961 237.506C199.442 236.296 197.748 234.05 195.26 231.855C199.292 234.43 203.618 236.55 205.317 235.265C206.29 234.534 206.342 233.537 205.812 232.385C207.062 232.806 208.168 232.731 208.946 231.924C210.276 230.548 209.648 228.509 208.22 226.406C208.468 226.381 208.706 226.297 208.915 226.162C209.124 226.027 209.299 225.844 209.424 225.629C212.252 221.389 198.353 209.057 193.52 207.876C179.316 204.392 164.317 204.91 164.317 204.91C158.667 209.316 156.196 233.29 156.207 233.301Z" fill="#F1B4A7"/>
<path d="M177.229 220.352C180.612 220.906 183.838 222.175 186.693 224.073C190.281 226.481 192.654 229.286 195.661 232.137C195.742 232.212 195.627 232.333 195.552 232.258C194.117 230.916 188.179 225.859 186.641 224.707C183.863 222.585 180.638 221.124 177.212 220.433C177.177 220.404 177.189 220.346 177.229 220.352Z" fill="#263238"/>
<path d="M179.927 214.328C183.659 215.376 187.484 216.436 190.94 218.233C194.724 220.197 197.673 223.371 200.576 226.43C202.316 228.265 204.017 230.141 205.68 232.057C205.749 232.138 205.639 232.259 205.564 232.178C202.619 229.022 199.582 225.95 196.452 222.962C193.567 220.182 190.161 217.999 186.43 216.54C184.293 215.71 182.098 215.042 179.909 214.38C179.903 214.382 179.897 214.382 179.89 214.381C179.884 214.379 179.878 214.376 179.874 214.372C179.869 214.367 179.866 214.361 179.864 214.355C179.863 214.349 179.863 214.342 179.865 214.336C179.867 214.33 179.871 214.325 179.876 214.32C179.881 214.316 179.887 214.314 179.893 214.313C179.9 214.312 179.906 214.313 179.912 214.316C179.918 214.318 179.923 214.322 179.927 214.328Z" fill="#263238"/>
<path d="M183.957 209.079C187.586 209.851 190.748 210.513 193.951 212.483C198.196 215.092 202.274 219.464 203.708 221.014C205.286 222.742 206.813 224.47 208.316 226.278C208.374 226.353 208.247 226.457 208.183 226.388C204.76 222.467 201.085 218.773 197.182 215.328C195.347 213.661 193.266 212.286 191.013 211.25C188.725 210.339 186.365 209.621 183.957 209.102C183.957 209.102 183.94 209.073 183.957 209.079Z" fill="#263238"/>
<path d="M162.022 203.683L151.608 235.864C151.608 235.864 124.104 227.8 119.104 222.328C114.104 216.856 105.015 188.742 102.4 175.131C99.785 161.52 106.634 161.883 112.889 170.523C119.144 179.163 134.725 200.026 135.601 200.475C136.476 200.924 162.022 203.683 162.022 203.683Z" fill="#F42123"/>
<path d="M148.585 221.133C149.737 217.538 150.97 213.956 152.041 210.315C152.617 208.247 153.239 206.185 153.809 204.112C153.809 204.037 153.7 203.985 153.671 204.06C152.346 207.62 151.027 211.191 149.864 214.808C148.7 218.425 147.519 222.002 146.408 225.62C145.774 227.676 145.21 229.744 144.68 231.84C144.68 231.881 144.737 231.904 144.755 231.84C146.2 228.35 147.393 224.75 148.585 221.133Z" fill="#263238"/>
<path d="M137.74 231.335L136.519 230.897C134.215 230.062 131.911 229.169 129.699 228.248L128.864 227.896L127.551 227.32C127.332 227.228 127.124 227.124 126.911 227.032C126.836 226.998 126.761 226.969 126.687 226.929L126.024 226.618C125.154 226.214 124.296 225.805 123.553 225.391L123.023 225.103C121.818 224.471 120.683 223.714 119.636 222.845L119.36 222.58C119.271 222.5 119.186 222.415 119.106 222.326C114.107 216.854 105.012 188.74 102.402 175.094C102.374 174.939 102.345 174.783 102.31 174.628C102.313 174.593 102.313 174.559 102.31 174.524C102.132 173.493 101.982 172.22 101.855 170.826C101.527 164.058 104.735 162.981 108.669 165.982C118.381 187.248 133.236 222.321 137.74 231.335Z" fill="#263238"/>
<path d="M125.343 239.979L57.6172 239.87C57.7785 238.534 76.8729 175.272 89.8732 164.483C95.4085 159.875 105.575 163.256 106.871 164.316C119.399 174.563 126.288 239.196 125.343 239.979Z" fill="#F42123"/>
<path d="M122.625 150.242C122.625 150.242 119.745 144.793 116.174 147.074C112.602 149.355 116.358 154.262 116.358 154.262L122.625 150.242Z" fill="#484B51"/>
<path d="M139.632 190.621L145.902 186.602L122.481 150.062L116.21 154.081L139.632 190.621Z" fill="#E0E0E0"/>
<path d="M116.503 155.667L123.82 150.977L122.888 149.522L115.57 154.212L116.503 155.667Z" fill="#37474F"/>
<path d="M117.526 157.269L124.844 152.578L123.911 151.123L116.594 155.814L117.526 157.269Z" fill="#37474F"/>
<path d="M139.656 190.6L144.904 193.601L146.632 194.597L146.465 192.604L145.935 186.579L144.714 186.078C144.714 186.078 144.679 187.363 144.679 187.386L143.458 186.879C143.458 186.879 143.458 188.163 143.423 188.186L142.219 187.674C142.219 187.674 142.173 188.97 142.168 188.993L140.964 188.48C140.964 188.48 140.918 189.776 140.912 189.799L139.708 189.286C139.708 189.286 139.656 190.577 139.656 190.6Z" fill="#EBEBEB"/>
<path d="M144.887 193.598L146.615 194.595L146.448 192.602L144.887 193.598Z" fill="#37474F"/>
<path d="M82.0007 176.784C75.4803 192.03 65.4695 223.924 72.56 234.078C79.3856 243.87 119.268 222.501 127.361 218.123C130.678 216.326 122.234 187.947 118.473 189.421C110.219 192.647 93.3363 203.919 92.8928 203.706C92.4493 203.493 93.2096 190.556 93.4688 177.786C93.8202 159.25 86.6663 165.84 82.0007 176.784Z" fill="#F1B4A7"/>
<path d="M142.121 171.922C144.828 174.226 142.38 177.008 142.38 177.008C143.938 176.981 145.457 177.501 146.671 178.477C148.733 180.297 146.781 184.324 146.781 184.324C148.403 184.634 149.894 185.425 151.061 186.593C152.858 188.534 151.469 192.877 151.469 192.877C152.803 193.983 153.693 195.534 153.975 197.243C154.551 201.851 149.096 206.344 145.606 209.184C140.422 213.4 129.645 216.971 127.358 218.146L108.719 196.109C108.719 196.109 120.734 179.071 125.106 176C129.57 172.861 139.46 169.63 142.121 171.922Z" fill="#F1B4A7"/>
<path d="M141.962 176.781C137.285 178.313 133.322 181.147 129.198 183.751C129.106 183.808 129.198 183.947 129.29 183.889C133.357 181.257 137.896 179.46 142.06 176.977C142.075 176.959 142.083 176.937 142.086 176.915C142.088 176.892 142.084 176.869 142.074 176.848C142.063 176.828 142.047 176.81 142.028 176.799C142.008 176.787 141.985 176.781 141.962 176.781Z" fill="#263238"/>
<path d="M146.47 184.087C145.438 184.534 144.47 185.115 143.59 185.815C142.617 186.5 141.655 187.197 140.71 187.917C138.815 189.346 136.943 190.797 135.123 192.352C135.042 192.421 135.123 192.56 135.215 192.496C137.11 191.068 139.028 189.674 140.975 188.332C141.954 187.66 142.937 186.995 143.924 186.339C144.897 185.777 145.804 185.111 146.631 184.352C146.649 184.324 146.658 184.293 146.659 184.261C146.659 184.228 146.65 184.196 146.633 184.169C146.617 184.141 146.592 184.119 146.564 184.104C146.535 184.09 146.502 184.084 146.47 184.087Z" fill="#263238"/>
<path d="M151.39 192.932C150.468 193.226 149.662 194.044 148.89 194.631C148.038 195.305 147.162 195.967 146.321 196.63C144.593 197.955 142.865 199.274 141.137 200.535C141.051 200.599 141.137 200.743 141.229 200.679C143.026 199.406 144.847 198.156 146.632 196.872C147.508 196.238 148.381 195.599 149.253 194.954C149.996 194.412 150.981 193.802 151.476 193.018C151.488 193.007 151.494 192.991 151.494 192.975C151.494 192.959 151.488 192.943 151.476 192.932C151.465 192.92 151.449 192.914 151.433 192.914C151.417 192.914 151.401 192.92 151.39 192.932Z" fill="#263238"/>
<path d="M108.552 193.286L123.39 222.697C123.39 222.697 89.1007 238.531 77.1199 236.78C65.1391 235.029 70.9912 212.156 71.7861 207.006C72.3621 203.32 78.917 181.058 83.9397 172.032C88.9624 163.006 93.2997 162.902 93.8296 175.28C94.3595 187.659 93.1672 202.681 93.6684 202.462C94.1695 202.243 108.552 193.286 108.552 193.286Z" fill="#F42123"/>
<path d="M93.6121 202.047C92.1286 203.627 90.7997 205.346 89.6435 207.179C88.5086 208.931 87.4684 210.742 86.5273 212.605C86.5273 212.646 86.6137 212.669 86.6368 212.605C87.7369 210.82 89.0445 209.092 90.2541 207.341C91.4637 205.59 92.8576 203.885 93.9462 202.122C94.0211 202.03 93.7158 201.944 93.6121 202.047Z" fill="#263238"/>
<path d="M74.0407 198.406C73.1018 202.075 72.2551 205.773 71.5812 209.494C70.8502 213.196 70.3691 216.943 70.1412 220.709C70.0565 222.579 70.1104 224.452 70.3025 226.313C70.4553 228.153 70.8784 229.96 71.5582 231.676C72.2088 233.342 73.4547 234.707 75.0545 235.506C76.7185 236.214 78.5273 236.514 80.3306 236.382C84.0228 236.221 87.6862 235.195 91.2746 234.141C94.8631 233.087 98.4689 231.837 102.04 230.587C105.611 229.337 109.171 228.041 112.719 226.705C116.267 225.369 119.81 224.038 123.341 222.673L123.306 222.76L122.39 220.795L123.421 222.702L123.456 222.76H123.387C119.931 224.315 116.45 225.818 112.944 227.27C109.438 228.721 105.909 230.113 102.357 231.446C98.8049 232.782 95.2126 234.016 91.5799 235.149C87.9396 236.226 84.2474 237.344 80.3422 237.511C78.364 237.635 76.3849 237.284 74.5706 236.486C73.6526 236.039 72.8338 235.412 72.163 234.642C71.5043 233.88 70.9733 233.017 70.5905 232.085C69.8842 230.268 69.4532 228.356 69.3118 226.411C69.1317 224.496 69.1162 222.569 69.2657 220.651C69.9108 213.037 71.7598 205.629 74.0407 198.406Z" fill="#263238"/>
<path d="M93.9689 182.539C94.0092 184.1 94.0034 185.661 94.0265 187.216V191.893C94.0265 195.004 93.9573 198.126 93.9861 201.219V201.795V202.071V202.198V202.238L93.9516 202.169C93.9038 202.092 93.8303 202.035 93.7442 202.008H93.6809C93.6468 201.999 93.6112 201.999 93.5772 202.008H93.5253L93.629 201.956L93.8767 201.829L94.3778 201.547C95.046 201.167 95.7199 200.769 96.3823 200.395L100.414 198.01L104.446 195.637L108.478 193.333H108.519V193.368L108.801 194.013L108.45 193.402H108.501C107.223 194.297 105.938 195.178 104.648 196.046L100.743 198.621C99.4351 199.473 98.1103 200.297 96.7913 201.121C96.1231 201.53 95.4549 201.933 94.7753 202.33L94.2626 202.624L93.9919 202.768L93.8306 202.843H93.7903H93.7097C93.6505 202.852 93.5903 202.852 93.5311 202.843C93.5005 202.848 93.4695 202.848 93.4389 202.843C93.3415 202.807 93.2585 202.741 93.2028 202.653C93.1857 202.63 93.1721 202.605 93.1625 202.578V202.532C93.1594 202.507 93.1594 202.482 93.1625 202.457V202.359V202.192V201.887V201.311C93.1625 198.172 93.2546 195.067 93.4101 191.951L93.6578 187.28C93.7269 185.649 93.8191 184.094 93.9689 182.539Z" fill="#263238"/>
<path d="M110.443 214.112C108.755 210.725 107.096 207.327 105.259 204.003C104.234 202.114 103.214 200.219 102.166 198.341C102.126 198.272 101.999 198.341 102.028 198.405C103.589 201.861 105.155 205.317 106.872 208.732C108.588 212.148 110.282 215.495 112.01 218.847C113.008 220.767 114.06 222.641 115.166 224.469C115.166 224.509 115.258 224.469 115.241 224.44C113.824 220.92 112.142 217.516 110.443 214.112Z" fill="#263238"/>
<path d="M95.1447 186.234C94.8809 188.058 94.4292 189.849 93.7969 191.58C94.0607 189.756 94.5124 187.965 95.1447 186.234Z" fill="#263238"/>
<path d="M106.375 173.598C102.884 175.216 95.4305 170.891 92.0206 166.859C91.7902 166.576 91.5944 163.195 91.1681 159.1C90.8974 156.612 90.5403 153.853 90.0161 151.353C89.9124 150.84 106.449 151.963 106.449 151.963C106.449 151.963 105.983 157.51 106.899 161.853C106.972 162.197 107.078 162.532 107.215 162.855C107.215 162.902 107.256 162.959 107.273 163.023C107.976 164.9 109.75 172.025 106.375 173.598Z" fill="#F1B4A7"/>
<path d="M91.0078 151.217C92.5918 155.289 97.3035 164.954 105.696 163.433C106.235 163.341 106.765 163.203 107.28 163.019C107.266 162.961 107.247 162.905 107.222 162.852C107.088 162.529 106.982 162.196 106.905 161.855C105.99 157.501 106.462 151.954 106.462 151.954C106.462 151.954 94.5329 151.136 91.0078 151.217Z" fill="#263238"/>
<path d="M85.0627 131.833C84.1008 137.679 89.233 153.502 93.7027 156.601C100.194 161.071 109.744 160.305 113.287 152.747C116.708 145.421 109.646 124.909 104.745 122.219C97.5159 118.245 86.4855 123.199 85.0627 131.833Z" fill="#F1B4A7"/>
<path d="M102.275 139.617C102.275 139.577 102.211 139.698 102.228 139.738C102.637 140.781 102.937 142.042 102.113 142.739C102.113 142.739 102.113 142.809 102.142 142.791C103.248 142.215 102.833 140.545 102.275 139.617Z" fill="#263238"/>
<path d="M100.931 138.861C99.2026 139.344 100.285 142.789 101.898 142.317C103.511 141.844 102.394 138.463 100.931 138.861Z" fill="#263238"/>
<path d="M108.258 137.754C108.258 137.714 108.361 137.783 108.373 137.824C108.678 138.906 109.208 140.087 110.291 140.128C110.291 140.128 110.337 140.185 110.291 140.191C109.07 140.404 108.379 138.826 108.258 137.754Z" fill="#263238"/>
<path d="M108.865 136.33C110.541 135.656 111.745 139.055 110.213 139.682C108.681 140.31 107.459 136.9 108.865 136.33Z" fill="#263238"/>
<path d="M99.1172 138.151C99.5702 137.95 100.012 137.725 100.442 137.477C100.941 137.303 101.37 136.972 101.663 136.532C101.726 136.376 101.736 136.204 101.692 136.041C101.647 135.879 101.55 135.736 101.415 135.634C101.12 135.471 100.787 135.39 100.449 135.399C100.112 135.408 99.7835 135.507 99.4973 135.686C98.8619 135.961 98.3509 136.461 98.0631 137.091C98.0059 137.239 97.9928 137.4 98.0252 137.554C98.0576 137.709 98.1342 137.851 98.2458 137.964C98.3574 138.076 98.4991 138.153 98.6537 138.186C98.8084 138.22 98.9694 138.207 99.1172 138.151Z" fill="#263238"/>
<path d="M109.641 133.312C109.15 133.365 108.656 133.392 108.161 133.393C107.641 133.493 107.103 133.42 106.629 133.185C106.495 133.082 106.4 132.937 106.357 132.773C106.314 132.61 106.327 132.437 106.393 132.281C106.568 131.993 106.816 131.757 107.113 131.597C107.41 131.437 107.744 131.359 108.08 131.371C108.769 131.289 109.463 131.468 110.027 131.872C110.151 131.97 110.244 132.103 110.294 132.253C110.344 132.404 110.348 132.566 110.307 132.719C110.266 132.872 110.181 133.01 110.063 133.115C109.945 133.22 109.798 133.289 109.641 133.312Z" fill="#263238"/>
<path d="M103.646 150.114C103.96 150.351 104.347 150.471 104.74 150.454C105.136 150.32 105.499 150.104 105.806 149.82C105.812 149.815 105.82 149.813 105.828 149.813C105.836 149.812 105.844 149.814 105.851 149.819C105.858 149.823 105.863 149.829 105.867 149.837C105.87 149.844 105.871 149.853 105.869 149.861C105.785 150.117 105.634 150.347 105.432 150.525C105.229 150.703 104.982 150.824 104.717 150.874C104.479 150.889 104.242 150.832 104.037 150.711C103.832 150.59 103.667 150.41 103.565 150.195C103.519 150.137 103.594 150.091 103.646 150.114Z" fill="#263238"/>
<path d="M103.748 146.562C104.154 146.898 104.625 147.146 105.131 147.292C105.638 147.438 106.169 147.477 106.691 147.408C107.148 147.352 107.594 147.232 108.016 147.051C108.1 147.025 108.181 146.99 108.258 146.947L108.483 146.832C108.536 146.803 108.578 146.758 108.603 146.703C108.628 146.648 108.634 146.586 108.621 146.527C108.611 146.489 108.595 146.452 108.575 146.418L108.546 146.325C108.304 145.496 107.826 144.269 107.826 144.269C108.177 144.327 109.928 144.528 109.767 144.102C108.425 140.646 106.933 136.735 104.86 133.544C104.847 133.519 104.826 133.499 104.799 133.49C104.773 133.481 104.744 133.483 104.719 133.495C104.693 133.507 104.674 133.529 104.665 133.555C104.656 133.582 104.657 133.611 104.67 133.636C105.822 137.04 107.578 140.22 108.794 143.618C108.169 143.531 107.535 143.531 106.91 143.618C106.807 143.693 107.878 145.974 107.953 146.354C107.955 146.368 107.955 146.381 107.953 146.394C106.628 147.011 105.453 146.924 103.817 146.423C103.719 146.4 103.656 146.498 103.748 146.562Z" fill="#263238"/>
<path d="M107.402 146.788C107.139 147.518 106.69 148.167 106.1 148.672C105.774 148.941 105.371 149.098 104.948 149.121C104.027 149.167 103.756 148.395 103.699 147.675C103.673 147.291 103.692 146.904 103.756 146.523C104.913 146.995 106.189 147.088 107.402 146.788Z" fill="#263238"/>
<path d="M106.097 148.668C105.771 148.937 105.367 149.095 104.945 149.118C104.024 149.164 103.753 148.392 103.695 147.672C104.634 147.476 105.734 147.804 106.097 148.668Z" fill="#FF98B9"/>
<path d="M91.3186 140.451C92.0098 136.995 89.4236 131.759 90.8751 130.083C94.0201 126.437 102.078 131.633 107.072 131.022C111.916 130.446 113.138 127.111 111.761 123.298C110.384 119.485 106.709 117.262 101.174 117.152C95.4486 117.031 90.6159 119.951 88.0642 122.088C88.0642 122.088 89.0319 119.974 88.4962 119.422C87.9606 118.869 85.8351 121.057 85.213 121.956C84.7692 122.723 84.4686 123.564 84.326 124.438C83.5802 124.35 82.8256 124.369 82.0854 124.496C80.8585 124.68 79.4358 125.844 79.3839 126.143C79.3321 126.443 81.1119 126.443 82.3618 126.351C82.3618 126.351 80.4553 129.703 80.8354 132.312C81.2156 134.922 86.8834 146.828 87.8799 146.839C89.1586 146.845 91.0364 141.845 91.3186 140.451Z" fill="#263238"/>
<path d="M82.804 125.964C82.8385 125.936 82.9076 125.964 82.8731 126.028C81.7954 127.145 81.0512 128.542 80.7246 130.06C80.454 131.884 80.6747 133.747 81.364 135.457C82.5678 138.798 84.6472 141.695 86.5134 144.673C86.5652 144.759 86.4213 144.851 86.3637 144.771C84.1806 141.735 81.94 138.435 80.8052 134.835C79.8376 131.788 80.1025 128.096 82.804 125.964Z" fill="#263238"/>
<path d="M90.5236 128.83C91.9679 128.462 93.4684 128.368 94.9473 128.553C96.3585 128.726 97.6372 129.429 98.9793 129.936C101.917 131.088 105.085 131.854 108.236 131.249C108.242 131.252 108.247 131.256 108.251 131.262C108.254 131.267 108.256 131.274 108.256 131.281C108.256 131.287 108.254 131.294 108.251 131.3C108.247 131.305 108.242 131.31 108.236 131.312C105.356 132.05 102.424 131.549 99.682 130.592C98.2996 130.114 96.9518 129.342 95.5175 129.031C93.8932 128.68 92.2171 128.916 90.587 129.089C90.57 129.093 90.5523 129.094 90.535 129.091C90.5176 129.089 90.501 129.083 90.4861 129.073C90.4711 129.064 90.458 129.052 90.4477 129.038C90.4373 129.024 90.4299 129.008 90.4257 128.991C90.4215 128.974 90.4208 128.956 90.4234 128.939C90.4261 128.922 90.4322 128.905 90.4412 128.89C90.4503 128.875 90.4623 128.862 90.4764 128.852C90.4906 128.841 90.5066 128.834 90.5236 128.83Z" fill="#263238"/>
<path d="M90.8695 120.327C92.7058 119.101 94.7073 118.143 96.8139 117.481C98.817 116.785 100.925 116.44 103.046 116.462C106.71 116.589 110.298 118.449 111.606 122.026C112.311 123.855 112.311 125.882 111.606 127.711C111.593 127.732 111.573 127.748 111.55 127.756C111.527 127.763 111.502 127.763 111.479 127.754C111.456 127.745 111.437 127.728 111.426 127.707C111.414 127.685 111.411 127.66 111.415 127.636C111.974 125.967 111.979 124.163 111.427 122.491C110.876 120.82 109.799 119.372 108.357 118.363C105.091 116.191 100.938 116.52 97.3438 117.574C95.1028 118.272 92.9407 119.203 90.8926 120.35C90.8926 120.35 90.858 120.338 90.8695 120.327Z" fill="#263238"/>
<path d="M90.3012 144.591C90.3012 144.591 85.8372 139.925 83.6657 141.596C81.4941 143.266 85.3937 150.426 88.3601 151.03C88.7323 151.132 89.1212 151.158 89.5037 151.106C89.8861 151.055 90.2543 150.927 90.5864 150.73C90.9184 150.534 91.2075 150.272 91.4366 149.962C91.6656 149.651 91.83 149.298 91.9197 148.922L90.3012 144.591Z" fill="#F1B4A7"/>
<path d="M84.8379 143.649C84.8304 143.652 84.824 143.657 84.8194 143.664C84.8149 143.67 84.8125 143.678 84.8125 143.686C84.8125 143.694 84.8149 143.702 84.8194 143.709C84.824 143.715 84.8304 143.721 84.8379 143.724C86.9115 144.213 88.2247 145.872 89.2327 147.635C88.5415 147.001 87.6891 146.73 86.8251 147.571C86.779 147.612 86.8251 147.687 86.8942 147.663C87.2209 147.502 87.5896 147.446 87.9496 147.502C88.3096 147.559 88.6432 147.726 88.9044 147.98C89.3405 148.406 89.727 148.879 90.0564 149.391C90.1774 149.547 90.4769 149.391 90.379 149.219C90.381 149.203 90.381 149.188 90.379 149.173C90.0219 146.644 87.5508 143.459 84.8379 143.649Z" fill="#263238"/>
<path d="M107.18 162.781L105.038 172.688L91.5075 162.896L88.8867 167.268C88.8867 167.268 103.339 183.972 103.287 183.131L105.74 174.491L112.209 179.099L109.381 165.212L107.18 162.781Z" fill="#EBEBEB"/>
<path d="M111.184 172.136C110.637 169.861 110.153 167.528 109.502 165.299C109.502 165.219 109.347 165.207 109.347 165.299C109.26 167.603 111.392 176.301 111.737 178.409H111.708C111.438 178.207 105.764 174.377 105.724 174.469C105.113 175.88 103.305 182.182 103.201 182.741C100.897 180.085 91.3526 169.7 88.7663 167.263C88.7526 167.247 88.7327 167.236 88.7111 167.234C88.6895 167.232 88.6679 167.238 88.6511 167.252C88.6343 167.266 88.6237 167.286 88.6215 167.307C88.6193 167.329 88.6258 167.35 88.6396 167.367C90.7478 170.247 103.155 183.962 103.287 183.898C104.295 180.895 105.147 177.842 105.839 174.751C106.841 175.627 112.665 180.033 112.624 179.688C112.274 177.148 111.793 174.627 111.184 172.136Z" fill="#263238"/>
<path d="M200.358 248.273H128.082V251.517H200.358V248.273Z" fill="#455A64"/>
<path d="M164.464 248.273H128.082V251.517H164.464V248.273Z" fill="#FFFFFF"/>
<path d="M163.613 251.503L234.056 251.49L244.001 203.648L173.559 203.661L163.613 251.503Z" fill="#484B51"/>
<path d="M198.35 228.639C198.27 229.233 198.319 229.837 198.495 230.409C198.671 230.982 198.968 231.509 199.367 231.956C199.766 232.403 200.257 232.757 200.806 232.996C201.356 233.235 201.95 233.352 202.549 233.339C203.836 233.313 205.07 232.823 206.026 231.959C206.981 231.096 207.593 229.917 207.749 228.639C207.828 228.046 207.777 227.443 207.601 226.872C207.425 226.3 207.127 225.773 206.729 225.327C206.33 224.881 205.839 224.527 205.29 224.289C204.742 224.05 204.148 223.934 203.55 223.946C202.263 223.97 201.028 224.458 200.072 225.32C199.116 226.183 198.505 227.361 198.35 228.639Z" fill="white"/>
<path d="M95.3812 43.8438C67.0008 43.8438 66.9534 84.2059 95.3812 84.2059C123.809 84.2059 123.809 43.8438 95.3812 43.8438Z" fill="white"/>
<path d="M112.643 67.8117C111.13 74.7593 105.37 80.7773 95.3832 80.7773C71.7928 80.7773 71.8267 47.2812 95.3832 47.2812H95.8445C73.679 47.6883 73.7875 79.4136 96.2788 79.4136C105.452 79.4204 110.92 74.1079 112.643 67.8117Z" fill="#E0E0E0"/>
<path d="M95.5676 51.6897C95.755 51.6841 95.9371 51.7519 96.0753 51.8786C96.2134 52.0053 96.2966 52.181 96.3071 52.3681V53.4944C98.2762 53.6248 100.169 54.3067 101.769 55.462C102.047 55.6587 102.203 55.8283 102.203 56.1065C102.181 56.3002 102.086 56.4782 101.937 56.6042C101.788 56.7302 101.597 56.7949 101.402 56.785C101.201 56.7902 101.005 56.7201 100.853 56.5882C99.5145 55.5663 97.9207 54.9326 96.2461 54.7564V62.6266C100.914 63.5222 102.875 65.1234 102.875 67.878C102.875 70.8564 100.161 72.9665 96.3071 73.075V75.2665C96.2895 75.4495 96.2044 75.6195 96.0683 75.7431C95.9322 75.8668 95.7549 75.9353 95.571 75.9353C95.3871 75.9353 95.2098 75.8668 95.0737 75.7431C94.9376 75.6195 94.8525 75.4495 94.8349 75.2665V73.0547C92.3031 72.896 89.8849 71.9468 87.9213 70.3408C87.8212 70.2772 87.738 70.1903 87.6789 70.0875C87.6198 69.9847 87.5866 69.869 87.582 69.7505C87.6053 69.5623 87.697 69.3891 87.8396 69.264C87.9822 69.139 88.1658 69.0706 88.3555 69.0721C88.5564 69.0694 88.7515 69.1392 88.905 69.2688C90.5753 70.743 92.676 71.6399 94.8959 71.8267V63.8207C90.2891 62.8912 88.3826 61.3443 88.3826 58.5354C88.3826 55.7266 91.0965 53.5351 94.8349 53.4537V52.3614C94.8355 52.2681 94.8554 52.1759 94.8932 52.0907C94.9311 52.0054 94.9861 51.9289 95.0549 51.8658C95.1236 51.8028 95.2046 51.7546 95.2929 51.7243C95.3811 51.694 95.4746 51.6822 95.5676 51.6897ZM94.8891 62.3688V54.6953C91.9107 54.7496 89.9431 56.3779 89.9431 58.4065C89.9295 60.313 90.9133 61.5207 94.8891 62.3688ZM96.2461 64.0785V71.8334C99.3128 71.7792 101.314 70.1508 101.314 68.0137C101.294 66.0732 100.215 64.9131 96.2461 64.0785Z" fill="#E0E0E0"/>
<path d="M296.961 179.616C296.382 183.517 294.694 187.17 292.1 190.14C289.505 193.11 286.112 195.272 282.324 196.37C278.536 197.468 274.512 197.455 270.731 196.332C266.951 195.21 263.572 193.025 260.996 190.038C258.421 187.052 256.758 183.388 256.204 179.483C255.65 175.578 256.23 171.597 257.873 168.011C259.516 164.426 262.155 161.388 265.474 159.259C268.794 157.13 272.655 155.999 276.599 156V176.586L296.961 179.616Z" fill="#E0E0E0"/>
<path d="M300.84 172.875C300.842 173.886 300.766 174.895 300.616 175.894L280.254 172.875V152.289C282.958 152.287 285.636 152.818 288.135 153.851C290.633 154.885 292.904 156.402 294.816 158.314C296.728 160.226 298.244 162.496 299.278 164.995C300.311 167.493 300.842 170.171 300.84 172.875Z" fill="#FFFFFF"/>
<path d="M290.406 138.942L290.406 160.836L290.982 160.836L290.982 138.942L290.406 138.942Z" fill="#FFFFFF"/>
<path d="M292.515 137.403C292.516 137.764 292.41 138.118 292.21 138.419C292.01 138.72 291.724 138.955 291.391 139.094C291.057 139.233 290.689 139.27 290.334 139.2C289.98 139.129 289.654 138.955 289.398 138.7C289.142 138.444 288.968 138.118 288.898 137.763C288.828 137.409 288.864 137.041 289.003 136.707C289.142 136.373 289.377 136.088 289.678 135.888C289.98 135.688 290.333 135.581 290.695 135.583C291.177 135.584 291.639 135.776 291.98 136.117C292.321 136.458 292.514 136.92 292.515 137.403ZM289.445 137.403C289.444 137.65 289.516 137.892 289.653 138.099C289.79 138.305 289.984 138.466 290.213 138.562C290.441 138.657 290.692 138.683 290.935 138.635C291.178 138.587 291.401 138.469 291.577 138.294C291.752 138.12 291.872 137.897 291.92 137.654C291.969 137.412 291.945 137.16 291.85 136.931C291.756 136.703 291.596 136.507 291.39 136.37C291.184 136.232 290.942 136.159 290.695 136.159C290.364 136.159 290.047 136.289 289.813 136.523C289.579 136.756 289.447 137.072 289.445 137.403Z" fill="#FFFFFF"/>
<path d="M307.599 130.977H290.59V131.743H307.599V130.977Z" fill="#FFFFFF"/>
<path d="M300.215 132.508H290.59V133.274H300.215V132.508Z" fill="#FFFFFF"/>
<path d="M36 239.585C119.926 238.961 214.061 238.961 297.987 239.585C214.061 240.2 119.926 240.2 36 239.585Z" fill="#484B51"/>
</g>
<defs>
<clipPath id="clip0_18763_23407">
<rect width="360" height="285" rx="16" fill="white"/>
</clipPath>
</defs>
</svg>
