<svg width="24" height="24" viewBox="0 0 24 24" fill="none" xmlns="http://www.w3.org/2000/svg">
<path d="M8 9L12 9" stroke="#FF6B6B" stroke-linecap="round"/>
<path d="M2.88539 15.1513L3.37066 15.0308L2.88539 15.1513ZM2.88539 8.84875L3.37066 8.96924L2.88539 8.84875ZM21.1146 8.84875L21.5999 8.72826L21.1146 8.84875ZM21.1146 15.1512L20.6293 15.0308L21.1146 15.1512ZM15.1156 20.659L15.0074 20.1708L15.1156 20.659ZM8.88443 20.659L8.9926 20.1708L8.88443 20.659ZM8.88443 3.34105L8.9926 3.82921L8.88443 3.34105ZM15.1156 3.34105L15.2237 2.85289V2.85289L15.1156 3.34105ZM8.43056 20.5584L8.32239 21.0465L8.43056 20.5584ZM15.5694 20.5584L15.6776 21.0465L15.5694 20.5584ZM15.5694 3.44162L15.4613 3.92978L15.5694 3.44162ZM8.43056 3.44162L8.32239 2.95346V2.95346L8.43056 3.44162ZM18.6933 14.5037L18.6037 14.9955H18.6037L18.6933 14.5037ZM18.6347 14.493L18.7244 14.0011L18.7244 14.0011L18.6347 14.493ZM18.6347 9.50703L18.7244 9.99892L18.7244 9.99892L18.6347 9.50703ZM18.6933 9.49635L18.6037 9.00446L18.6037 9.00446L18.6933 9.49635ZM21.1002 10.2583C21.3532 10.3689 21.648 10.2535 21.7587 10.0005C21.8694 9.74754 21.754 9.45274 21.501 9.34207L21.1002 10.2583ZM21.501 14.6579C21.754 14.5473 21.8694 14.2525 21.7587 13.9995C21.648 13.7465 21.3532 13.6311 21.1002 13.7417L21.501 14.6579ZM16.5782 12.6282L16.0974 12.7655L16.5782 12.6282ZM16.5782 11.3718L17.0589 11.5091L16.5782 11.3718ZM8.43056 3.44162L8.53873 3.92978L8.9926 3.82921L8.88443 3.34105L8.77626 2.85289L8.32239 2.95346L8.43056 3.44162ZM15.1156 3.34105L15.0074 3.82921L15.4613 3.92978L15.5694 3.44162L15.6776 2.95346L15.2237 2.85289L15.1156 3.34105ZM15.5694 20.5584L15.4613 20.0702L15.0074 20.1708L15.1156 20.659L15.2237 21.1471L15.6776 21.0465L15.5694 20.5584ZM8.88443 20.659L8.9926 20.1708L8.53872 20.0702L8.43056 20.5584L8.32239 21.0465L8.77626 21.1471L8.88443 20.659ZM2.88539 15.1513L3.37066 15.0308C2.87645 13.0405 2.87645 10.9595 3.37066 8.96924L2.88539 8.84875L2.40013 8.72825C1.86662 10.8768 1.86662 13.1232 2.40013 15.2718L2.88539 15.1513ZM21.1146 8.84875L20.6293 8.96925C21.1236 10.9595 21.1236 13.0405 20.6293 15.0308L21.1146 15.1512L21.5999 15.2717C22.1334 13.1232 22.1334 10.8768 21.5999 8.72826L21.1146 8.84875ZM15.1156 20.659L15.0074 20.1708C13.0265 20.6097 10.9735 20.6097 8.9926 20.1708L8.88443 20.659L8.77626 21.1471C10.8997 21.6176 13.1003 21.6176 15.2237 21.1471L15.1156 20.659ZM8.88443 3.34105L8.9926 3.82921C10.9735 3.39026 13.0265 3.39026 15.0074 3.82921L15.1156 3.34105L15.2237 2.85289C13.1003 2.38237 10.8997 2.38237 8.77626 2.85289L8.88443 3.34105ZM8.43056 20.5584L8.53872 20.0702C5.99952 19.5076 3.99759 17.5555 3.37066 15.0308L2.88539 15.1513L2.40013 15.2718C3.11851 18.1648 5.41251 20.4018 8.32239 21.0465L8.43056 20.5584ZM15.5694 20.5584L15.6776 21.0465C18.5875 20.4018 20.8815 18.1648 21.5999 15.2717L21.1146 15.1512L20.6293 15.0308C20.0024 17.5555 18.0005 19.5076 15.4613 20.0702L15.5694 20.5584ZM15.5694 3.44162L15.4613 3.92978C18.0005 4.49243 20.0024 6.44448 20.6293 8.96925L21.1146 8.84875L21.5999 8.72826C20.8815 5.8352 18.5875 3.59825 15.6776 2.95346L15.5694 3.44162ZM8.43056 3.44162L8.32239 2.95346C5.41251 3.59825 3.11851 5.8352 2.40013 8.72825L2.88539 8.84875L3.37066 8.96924C3.99759 6.44447 5.99952 4.49243 8.53873 3.92978L8.43056 3.44162ZM18.6933 14.5037L18.783 14.0118L18.7244 14.0011L18.6347 14.493L18.545 14.9849L18.6037 14.9955L18.6933 14.5037ZM18.6347 9.50703L18.7244 9.99892L18.783 9.98824L18.6933 9.49635L18.6037 9.00446L18.545 9.01514L18.6347 9.50703ZM18.6933 9.49635L18.783 9.98824C19.5651 9.84565 20.3719 9.93966 21.1002 10.2583L21.3006 9.80016L21.501 9.34207C20.5903 8.94372 19.5815 8.82616 18.6037 9.00446L18.6933 9.49635ZM18.6933 14.5037L18.6037 14.9955C19.5815 15.1738 20.5903 15.0563 21.501 14.6579L21.3006 14.1998L21.1002 13.7417C20.3719 14.0603 19.5651 14.1544 18.783 14.0118L18.6933 14.5037ZM16.5782 12.6282L17.0589 12.4909C16.9673 12.17 16.9673 11.83 17.0589 11.5091L16.5782 11.3718L16.0974 11.2345C15.9545 11.7348 15.9545 12.2652 16.0974 12.7655L16.5782 12.6282ZM18.6347 9.50703L18.5451 9.01514C17.3733 9.22878 16.4245 10.0891 16.0974 11.2345L16.5782 11.3718L17.0589 11.5091C17.2816 10.7297 17.9272 10.1443 18.7244 9.99892L18.6347 9.50703ZM18.6347 14.493L18.7244 14.0011C17.9272 13.8557 17.2816 13.2703 17.0589 12.4909L16.5782 12.6282L16.0974 12.7655C16.4245 13.9109 17.3733 14.7712 18.545 14.9849L18.6347 14.493Z" fill="#F5F5F5"/>
</svg>
