<svg width="24" height="24" viewBox="0 0 24 24" fill="none" xmlns="http://www.w3.org/2000/svg">
<path d="M3.35288 8.95043C4.00437 6.17301 6.17301 4.00437 8.95043 3.35288C10.9563 2.88237 13.0437 2.88237 15.0496 3.35288C17.827 4.00437 19.9956 6.17301 20.6471 8.95043C21.1176 10.9563 21.1176 13.0437 20.6471 15.0496C19.9956 17.827 17.827 19.9956 15.0496 20.6471C13.0437 21.1176 10.9563 21.1176 8.95044 20.6471C6.17301 19.9956 4.00437 17.827 3.35288 15.0496C2.88237 13.0437 2.88237 10.9563 3.35288 8.95043Z" stroke="#F5F5F5" stroke-width="0.9"/>
<path d="M8.03516 16.2734H16.2852" stroke="#FF6B6B" stroke-width="0.9" stroke-linecap="round"/>
<path d="M13.0742 10.6797H16.2839" stroke="#FF6B6B" stroke-width="0.9" stroke-linecap="round"/>
<path d="M9.07422 8.28906C8.31453 8.28906 7.69922 8.75106 7.69922 9.32031C7.69922 9.88956 8.31453 10.3516 9.07422 10.3516C9.83391 10.3516 10.4492 10.8136 10.4492 11.3828C10.4492 11.9521 9.83391 12.4141 9.07422 12.4141M9.07422 8.28906C9.67234 8.28906 10.1825 8.57575 10.3708 8.97656M9.07422 8.28906V7.60156M9.07422 12.4141C8.47609 12.4141 7.96597 12.1274 7.77759 11.7266M9.07422 12.4141V13.1016" stroke="#FF6B6B" stroke-width="0.9" stroke-linecap="round" stroke-linejoin="round"/>
</svg>
