<svg width="24" height="24" viewBox="0 0 24 24" fill="none" xmlns="http://www.w3.org/2000/svg">
<path d="M15 22H9V16C9 15.4477 9.44772 15 10 15H14C14.5523 15 15 15.4477 15 16V22Z" stroke="#FF6B6B" stroke-width="0.9"/>
<path d="M7.5 22H18.0271C19.9451 22 21.5 20.4607 21.5 18.5618V9.83784C21.4898 9.09083 21.1355 8.38935 20.538 7.93303L13.9577 2.6853C12.8049 1.77157 11.1662 1.77157 10.0134 2.6853L3.46203 7.94256C2.86226 8.39702 2.50739 9.09967 2.5 9.84736V18.5618C2.5 20.4607 4.05488 22 5.97291 22H7.89696" stroke="#F5F5F5" stroke-width="0.9" stroke-linecap="round" stroke-linejoin="round"/>
</svg>
