<svg width="24" height="24" viewBox="0 0 24 24" fill="none" xmlns="http://www.w3.org/2000/svg">
<g clip-path="url(#clip0_18776_10979)">
<path d="M2.88539 8.84875C3.55805 6.13983 5.70602 4.04534 8.43056 3.44162L8.88443 3.34105C10.9366 2.88632 13.0634 2.88632 15.1156 3.34105L15.5694 3.44162C18.294 4.04534 20.442 6.13984 21.1146 8.84875C21.6285 10.9182 21.6285 13.0819 21.1146 15.1512C20.442 17.8602 18.294 19.9547 15.5694 20.5584L15.1156 20.659C13.0634 21.1137 10.9366 21.1137 8.88443 20.659L8.43056 20.5584C5.70601 19.9547 3.55805 17.8602 2.88539 15.1513C2.37154 13.0819 2.37154 10.9181 2.88539 8.84875Z" stroke="#F5F5F5"/>
<path d="M14.2447 9.30778C13.7255 8.78056 12.8118 8.41444 11.9719 8.39111M11.9719 8.39111C10.9729 8.36389 10.0784 8.82333 10.0784 10.0767C10.0784 12.3844 14.2447 11.2306 14.2447 13.5383C14.2447 14.855 13.1357 15.4206 11.9719 15.3778M11.9719 8.39111V7M9.69922 14.3078C10.1878 14.9689 11.0955 15.3456 11.9719 15.3778M11.9719 15.3778V17" stroke="#FF6B6B" stroke-linecap="round" stroke-linejoin="round"/>
</g>
<defs>
<clipPath id="clip0_18776_10979">
<rect width="24" height="24" fill="white"/>
</clipPath>
</defs>
</svg>
