<svg width="24" height="24" viewBox="0 0 24 24" fill="none" xmlns="http://www.w3.org/2000/svg">
<path d="M1.69922 11.5653C1.69922 10.6042 2.25625 9.72275 3.12457 9.47971C3.72565 9.31137 4.52612 9.11896 5.32145 9.02574C6.08955 8.93558 6.83815 9.45311 6.97829 10.3861L7.00833 10.6012C7.07617 11.1301 7.12779 11.85 7.12779 12.8157C7.12778 13.9198 7.05981 14.702 6.97829 15.2445C6.83785 16.1771 6.09008 16.6952 5.3218 16.6056C4.52642 16.5124 3.72577 16.3195 3.12493 16.1513C2.25672 15.9084 1.69925 15.0279 1.69922 14.0669V11.5653ZM2.78493 14.0669C2.78496 14.4832 3.00691 14.829 3.32355 14.9515L3.38823 14.9728C3.96427 15.1342 4.71001 15.3126 5.43454 15.3976C5.7068 15.4292 5.87441 15.2644 5.90777 15.0432C5.97752 14.5791 6.04207 13.8656 6.04208 12.8157C6.04208 11.7658 5.97779 11.0522 5.90777 10.5881C5.87676 10.3812 5.72752 10.2227 5.48438 10.2303L5.43454 10.2338C4.80051 10.3081 4.15033 10.4536 3.61194 10.5968L3.38823 10.6581C3.03781 10.7562 2.78493 11.1205 2.78493 11.5653V14.0669Z" fill="#FFFFFF"/>
<path d="M21.2413 11.5653C21.2413 11.1483 21.0192 10.8019 20.7027 10.6795L20.638 10.6581C20.1342 10.517 19.5002 10.363 18.8642 10.2698L18.5917 10.2338C18.3192 10.2018 18.1515 10.3671 18.1185 10.5877V10.5881C18.0484 11.0522 17.9842 11.7658 17.9842 12.8157C17.9842 13.8656 18.0487 14.5791 18.1185 15.0432C18.1518 15.2644 18.3194 15.4292 18.5917 15.3975L18.8642 15.3616C19.5001 15.2683 20.134 15.114 20.638 14.9728C20.9886 14.8748 21.2413 14.5109 21.2413 14.0669V11.5653ZM22.327 14.0669C22.327 15.0279 21.7695 15.9088 20.9013 16.1517L20.9009 16.1513C20.3001 16.3195 19.5 16.5124 18.7048 16.6056H18.7044C17.9361 16.6952 17.1884 16.1775 17.0479 15.2449V15.2445C16.9664 14.702 16.8984 13.9198 16.8984 12.8157C16.8984 11.7121 16.966 10.9295 17.0479 10.3861C17.1881 9.45311 17.9367 8.93558 18.7048 9.02574C19.5001 9.11896 20.3006 9.31137 20.9017 9.47971C21.77 9.72275 22.327 10.6042 22.327 11.5653V14.0669Z" fill="#FFFFFF"/>
<path d="M12.3354 2.5C16.8747 2.5 19.8053 6.0895 20.0877 9.55949C20.1175 9.92616 19.8444 10.2475 19.4778 10.2775C19.111 10.3073 18.7892 10.0343 18.7594 9.66751C18.5354 6.91565 16.1117 3.83268 12.3354 3.83268C8.55911 3.83268 6.13546 6.91565 5.91148 9.66751C5.8816 10.0343 5.86489 9.587 5.4981 9.55714C5.13145 9.52719 4.55336 9.92616 4.58313 9.55949C4.86557 6.0895 7.79616 2.5 12.3354 2.5Z" fill="#FFFFFF"/>
<path d="M18.5297 16.6141C18.5279 20.4126 12.5575 20.4125 12.5575 20.4125" stroke="#E42628" stroke-linecap="round"/>
<path d="M12.5586 19.8281C12.882 19.8282 13.1445 20.0907 13.1445 20.4141C13.1444 20.7374 12.8819 20.9999 12.5586 21C12.2352 21 11.9728 20.7374 11.9727 20.4141C11.9727 20.0906 12.2351 19.8281 12.5586 19.8281Z" fill="#E42628" stroke="#E42628"/>
</svg>
