<svg width="140" height="140" viewBox="0 0 140 140" fill="none" xmlns="http://www.w3.org/2000/svg">
<path fill-rule="evenodd" clip-rule="evenodd" d="M70.0017 0C108.659 0 139.996 31.3293 139.996 69.997C139.996 108.665 108.666 139.99 70.0017 139.99C31.3373 139.99 0.0078125 108.661 0.0078125 69.997C0.0078125 31.333 31.3373 0 70.0017 0Z" fill="#E8EBEE"/>
<path fill-rule="evenodd" clip-rule="evenodd" d="M96.4699 85.568C93.6502 84.2669 87.7603 82.4314 87.1447 78.0527C86.9087 76.2413 86.7856 74.417 86.7762 72.5904C86.7762 70.2057 86.8278 67.762 87.0452 65.2188C83.8533 71.1676 78.5678 74.9677 70.916 74.8018C65.5495 74.6876 60.8243 70.2241 57.754 64.3047C58.1424 67.3118 58.3762 70.3369 58.4543 73.3681C58.4543 73.5007 58.4248 74.4738 58.3916 75.4726C58.2405 79.844 53.4157 82.9843 49.1328 84.466C60.1055 103.584 84.631 104.001 96.4699 85.5717V85.568Z" fill="white"/>
<path fill-rule="evenodd" clip-rule="evenodd" d="M70.9486 74.8705C78.6114 75.029 83.8859 71.229 87.0778 65.2875C88.2179 63.119 89.0846 60.8175 89.6579 58.4356C89.6247 57.1271 90.0596 55.052 90.2439 52.2545C90.3358 50.362 90.6311 48.485 91.1248 46.6558V46.6226C91.0658 46.7037 91.0032 46.7811 90.9368 46.8658C90.6051 41.4772 88.7733 32.1005 87.9882 29.7969C86.2521 28.3595 84.1107 25.4145 65.8474 25.9563C63.7354 25.3408 57.9229 29.7564 57.8381 29.8706C57.1931 30.899 56.3085 32.9372 55.7741 35.967C53.9901 46.0144 54.8895 43.1911 54.2997 46.8732C54.062 46.6537 53.838 46.4198 53.6289 46.1729L53.6952 46.8769C54.0943 48.5707 54.3324 50.2984 54.4066 52.037C54.4914 53.5519 54.6499 54.8567 54.7752 55.944C55.3953 58.8725 56.4043 61.705 57.7755 64.366C60.8458 70.2854 65.571 74.7452 70.9412 74.8595L70.9486 74.8705Z" fill="white"/>
<path fill-rule="evenodd" clip-rule="evenodd" d="M53.4433 45.952L53.6423 46.1695C53.8514 46.4164 54.0754 46.6503 54.3131 46.8698C54.9029 43.184 54.0035 46.011 55.7875 35.9635C56.3219 32.9338 57.2065 30.8955 57.8515 29.8672C59.0716 27.9469 87.5003 33.306 87.5888 33.3798C88.3628 35.6834 89.8777 42.2625 90.9355 46.8624C91.0019 46.7776 91.0645 46.7002 91.1235 46.6191C91.7243 44.6251 92.5978 43.3793 93.8031 43.4604C93.9195 43.4693 94.0345 43.4916 94.1459 43.5268C94.5145 39.4724 94.3928 35.0494 94.1975 30.5786C94.3191 17.634 79.8522 12.5513 69.4693 13.2037C51.2281 14.3426 47.8408 26.8154 50.6273 43.4825C52.2896 43.4825 53.0047 44.6841 53.4322 45.9668L53.4433 45.952Z" fill="#F5F5F5"/>
<path fill-rule="evenodd" clip-rule="evenodd" d="M88.9505 31.5C88.9369 31.5205 88.9222 31.5402 88.9062 31.559C88.9179 31.5536 88.9281 31.5454 88.9358 31.5351C88.9436 31.5248 88.9486 31.5127 88.9505 31.5Z" fill="white"/>
<path fill-rule="evenodd" clip-rule="evenodd" d="M87.3867 33.2969L87.5895 33.389C87.5895 33.3632 87.5047 33.33 87.3867 33.2969Z" fill="white"/>
<path fill-rule="evenodd" clip-rule="evenodd" d="M55.1323 39.9688C55.1078 39.9705 55.0831 39.9705 55.0586 39.9688C55.0823 39.9778 55.1086 39.9778 55.1323 39.9688Z" fill="white"/>
<path fill-rule="evenodd" clip-rule="evenodd" d="M55.087 55.967C54.9653 54.8797 54.8069 53.5749 54.7184 52.0601C54.6436 50.3217 54.4067 48.5942 54.0107 46.8999C53.9296 46.5756 53.8375 46.2697 53.7416 45.9785C53.163 44.2388 52.3373 43.1699 51.2353 43.2289C50.9575 43.2459 50.6897 43.339 50.4613 43.498C48.9021 44.5263 48.3087 48.3743 49.5546 52.0085C50.992 56.1992 51.8656 59.9845 53.9775 59.8666C55.4445 59.7744 55.3634 58.4365 55.087 55.967Z" fill="white"/>
<path fill-rule="evenodd" clip-rule="evenodd" d="M94.1474 43.5154C94.0361 43.4802 93.921 43.458 93.8046 43.449C92.6067 43.368 91.7258 44.6138 91.125 46.6078C91.1234 46.6237 91.1234 46.6397 91.125 46.6557C90.6313 48.4849 90.336 50.362 90.2441 52.2544C90.0598 55.0519 89.6249 57.127 89.658 58.4355C89.6802 59.4491 89.9861 59.9983 90.9075 60.0572C93.0158 60.1936 93.9299 56.4194 95.4079 52.2433C96.7901 48.3069 96.0124 44.0977 94.1474 43.5154Z" fill="white"/>
<path fill-rule="evenodd" clip-rule="evenodd" d="M128.971 107.719C127.935 102.828 126.092 98.6888 121.356 95.5191C113.045 89.9609 96.8159 85.9065 90.7454 82.3128C84.2067 102.271 56.6441 98.0254 53.2753 81.9922C46.1285 84.6091 27.0211 89.0984 19.7601 95.6886C17.884 97.3951 16.1664 102.459 15.7056 104.479L14.4414 112.588C21.2829 121.514 30.1742 128.659 40.3626 133.421C50.5511 138.182 61.7367 140.418 72.9726 139.941C84.2085 139.463 95.1639 136.285 104.912 130.677C114.659 125.068 122.912 117.193 128.971 107.719Z" fill="#A0A4AB"/>
<path d="M87.0324 65.4481C85.9267 79.2698 88.6173 80.5599 90.6445 82.7713C90.2759 84.0614 90.2759 84.0614 88.433 87.1943C79.1493 87.3653 59.9774 81.1367 57.8407 64.7109C68.5296 84.9828 82.6094 72.4511 87.0324 65.4481Z" fill="#D9D9D9"/>
</svg>
