<svg width="24" height="24" viewBox="0 0 24 24" fill="none" xmlns="http://www.w3.org/2000/svg">
<path d="M13.5 13.7031H10.5C9.94772 13.7031 9.5 13.2554 9.5 12.7031V8.5H14.5V12.7031C14.5 13.2554 14.0523 13.7031 13.5 13.7031Z" stroke="#FF6B6B" stroke-width="0.8"/>
<path d="M4 8.5V13.5C4 16.8 4 18.45 5.025 19.475C6.05 20.5 7.7 20.5 11 20.5H14C17.3 20.5 17.95 20.5 18.975 19.475C20 18.45 20 16.8 20 13.5V8.5M5.41217 8.49999C6.34717 8.49999 19.5 8.6764 20.25 8.34C20.4675 8.24246 20.6564 8.09101 20.799 7.9C21 7.621 21 6.248 21 5.5C21 4.752 21 4.378 20.799 4.1C20.667 3.918 20.478 3.766 20.25 3.66C19.902 3.5 19.435 3.5 18.5 3.5H12H5.5C4.565 3.5 4.098 3.5 3.75 3.66C3.53253 3.75754 3.34356 3.90899 3.201 4.1C3 4.378 3 4.752 3 5.5C3 6.248 3 7.621 3.201 7.9C3.34356 8.09101 3.53253 8.24246 3.75 8.34C4.098 8.5 4.565 8.5 5.5 8.5" stroke="#F5F5F5" stroke-width="0.9" stroke-linecap="round" stroke-linejoin="round"/>
</svg>
