<svg width="72" height="22" viewBox="0 0 72 22" fill="none" xmlns="http://www.w3.org/2000/svg">
<g clip-path="url(#clip0_18930_20354)">
<path d="M54.9156 18.4468C57.4569 21.6957 62.0124 22.982 65.987 21.1872C71.7392 18.5897 73.1752 11.7649 69.4211 6.96581L65.5325 10.146C67.6436 13.3646 65.6724 15.9703 64.0239 16.8801C61.9425 18.029 59.8557 17.012 58.8822 15.7669C58.2986 15.0193 58.0324 14.0848 58.1373 13.1365C58.2395 12.1854 58.6993 11.3334 59.4308 10.7369C60.1622 10.1405 61.0766 9.86836 62.007 9.97555C62.8971 10.0773 63.6985 10.5115 64.2767 11.2014L68.1653 8.02128C65.624 4.30514 60.3397 3.89834 56.5829 6.53977C53.0224 9.04652 51.9925 14.7059 54.9183 18.4468H54.9156Z" fill="#ED1C24"/>
<path d="M70.933 0L69.3222 2.54798C68.8677 3.26812 68.0852 3.7024 67.2489 3.7024H60.5312L62.1421 1.15442C62.5965 0.434283 63.3791 0 64.2154 0L70.933 0Z" fill="#ED1C24"/>
<path opacity="0.68" d="M65.9855 21.1874C62.0108 22.9822 57.458 21.6931 54.9141 18.447L58.8779 15.7698C59.8514 17.0122 61.9382 18.0292 64.0197 16.883C65.6654 15.976 67.6339 13.3758 65.5391 10.1654L69.4169 6.96875C73.1575 11.7651 71.7296 18.5954 65.9828 21.1901H65.9855V21.1874Z" fill="url(#paint0_linear_18930_20354)"/>
<path d="M47.5017 9.51125L44.8313 10.5475C44.8152 10.553 44.8017 10.5722 44.8017 10.5887V15.9265C44.8017 16.2454 44.5489 16.5038 44.237 16.5038H36.4787C35.2255 16.5038 34.2063 15.4648 34.2063 14.1812C34.2063 12.9003 35.2228 11.8586 36.4787 11.8586H40.4049C40.6873 11.8586 40.9158 12.0922 40.9158 12.3808V13.439C40.9158 13.4885 40.8755 13.5297 40.8271 13.5297H37.2048C37.1725 13.5297 37.1456 13.5462 37.1295 13.5737L36.4383 14.6897C36.4007 14.7501 36.4437 14.8326 36.5163 14.8326L43.3953 14.8271C43.5513 14.8271 43.675 14.6979 43.675 14.5412V12.2159C43.675 11.3006 42.9489 10.5612 42.0561 10.5612H34.9916C33.0634 10.5612 31.4983 12.1334 31.4499 14.0905V14.1839V15.3466C31.4499 15.987 30.9416 16.5065 30.3151 16.5065C29.6885 16.5065 29.1802 15.987 29.1802 15.3466V7.31235C29.1802 7.28761 29.1614 7.26562 29.1345 7.26562H26.4641C26.4399 7.26562 26.4184 7.28487 26.4184 7.31235V15.7286C26.4184 16.1574 26.0796 16.5038 25.6601 16.5038H4.89414C3.99057 16.5038 3.25911 15.7561 3.25911 14.8326C3.25911 13.9091 3.99057 13.1614 4.89414 13.1614H7.86031C8.43849 13.1614 8.90641 13.6397 8.90641 14.2306V14.8216C8.90641 14.8463 8.92523 14.8683 8.95213 14.8683H11.6225C11.6467 14.8683 11.6682 14.8491 11.6682 14.8216V14.4066C11.6682 12.9993 10.5522 11.8586 9.17533 11.8586H3.40702C1.80157 11.8586 0.5 13.1889 0.5 14.8298C0.5 16.4708 1.80157 17.8011 3.40702 17.8011H8.90641C8.90641 19.2414 7.7635 20.4096 6.35437 20.4096H1.13734C0.785054 20.4096 0.5 20.7009 0.5 21.061C0.5 21.421 0.785054 21.7124 1.13734 21.7124H7.84149C9.95519 21.7124 11.6655 19.9615 11.6655 17.8039H27.1741C27.7388 17.8039 28.2471 17.5647 28.6101 17.1827C29.0108 17.5675 29.5513 17.8039 30.1429 17.8039H30.4764C31.302 17.8039 32.0227 17.3476 32.4126 16.6687C33.058 17.3668 33.975 17.8039 34.9889 17.8039H45.431C46.6062 17.8039 47.5581 16.8308 47.5581 15.6297V9.55248C47.5581 9.5195 47.5259 9.49751 47.499 9.51125H47.5017Z" fill="#231F20"/>
</g>
<defs>
<linearGradient id="paint0_linear_18930_20354" x1="63.2021" y1="15.6929" x2="63.4044" y2="5.29775" gradientUnits="userSpaceOnUse">
<stop stop-opacity="0"/>
<stop offset="0.77" stop-opacity="0.8"/>
</linearGradient>
<clipPath id="clip0_18930_20354">
<rect width="71" height="22" fill="white" transform="translate(0.5)"/>
</clipPath>
</defs>
</svg>
