<svg width="32" height="32" viewBox="0 0 32 32" fill="none" xmlns="http://www.w3.org/2000/svg">
<path d="M4.66797 15.6683C4.66705 13.246 5.46569 10.8911 6.93996 8.96915C8.41423 7.04718 10.4817 5.66557 12.8215 5.03875C15.1612 4.41193 17.6425 4.57494 19.8801 5.50249C22.1178 6.43004 23.9867 8.07026 25.1969 10.1686M26.668 15.6683C26.6686 18.0903 25.8699 20.4449 24.3957 22.3666C22.9214 24.2884 20.8541 25.6698 18.5146 26.2966C16.175 26.9234 13.694 26.7605 11.4565 25.8332C9.21893 24.9058 7.35003 23.2659 6.13974 21.1679" stroke="#262626" stroke-linecap="round" stroke-linejoin="round"/>
<path d="M19.571 19.1014L15.668 16.6181V11.5391" stroke="#E42628" stroke-width="0.9" stroke-linecap="round" stroke-linejoin="round"/>
<path d="M21.8552 10.1642H25.2921L25.2926 6.72656M10.1679 21.1636H6.04297V25.2887" stroke="#262626" stroke-linecap="round" stroke-linejoin="round"/>
</svg>
