<svg width="32" height="32" viewBox="0 0 32 32" fill="none" xmlns="http://www.w3.org/2000/svg">
<g clip-path="url(#clip0_18930_20348)">
<path d="M15.6543 5C15.9303 5.0001 16.1542 5.22404 16.1543 5.5V6.23633C16.8509 6.27381 17.5439 6.40147 18.2119 6.62207C18.233 6.62904 18.2544 6.63641 18.2754 6.64355C18.0161 6.89169 17.7891 7.1732 17.6016 7.48145C16.9724 7.30516 16.3214 7.21973 15.6709 7.22461C15.6655 7.22484 15.6598 7.22656 15.6543 7.22656C15.6502 7.22649 15.6457 7.22471 15.6416 7.22461C14.9382 7.23285 14.2351 7.34676 13.5605 7.56543C11.2689 8.30836 9.47974 10.1733 8.84766 12.5059L8.79297 12.708C8.37359 14.256 8.29579 15.8778 8.56641 17.459L8.59473 17.6201C8.65702 17.9851 8.46877 18.3313 8.16504 18.4971C7.47098 18.8757 7.0001 19.6153 7 20.4648C7.00022 21.5297 7.74683 22.4442 8.78125 22.6553L9.23047 22.7471C10.4058 22.9865 11.5916 23.157 12.7812 23.2637C12.8762 23.2722 12.9714 23.2814 13.0664 23.2891C13.2433 23.3033 13.4206 23.3148 13.5977 23.3262C13.7134 23.3336 13.8295 23.3415 13.9453 23.3477C14.1642 23.3593 14.3835 23.3678 14.6025 23.375C14.6607 23.3769 14.7191 23.3802 14.7773 23.3818C15.3612 23.3978 15.9455 23.3977 16.5293 23.3818C16.5865 23.3803 16.644 23.3769 16.7012 23.375C16.9222 23.3678 17.1434 23.3594 17.3643 23.3477C17.4782 23.3416 17.5922 23.3335 17.7061 23.3262C17.8841 23.3148 18.0624 23.3034 18.2402 23.2891C18.3359 23.2813 18.4317 23.2722 18.5273 23.2637C19.717 23.157 20.9029 22.9865 22.0781 22.7471L22.5264 22.6553C23.5612 22.4445 24.3084 21.53 24.3086 20.4648C24.3085 19.6239 23.8468 18.8908 23.1641 18.5088C22.85 18.3328 22.6533 17.971 22.7188 17.5889L22.748 17.4189C22.9749 16.0938 22.9572 14.7404 22.7002 13.4248C23.0278 13.2889 23.3338 13.112 23.6123 12.9004C23.9582 14.4385 24.0009 16.0312 23.7344 17.5879L23.7188 17.6768C24.669 18.2391 25.3085 19.2768 25.3086 20.4648C25.3084 22.002 24.2301 23.3293 22.7266 23.6357L22.2773 23.7266C21.4405 23.897 20.5986 24.0345 19.7539 24.1396C19.7338 24.2638 19.7097 24.3875 19.6797 24.5098L19.5791 24.917C19.2212 26.3724 18.084 27.5065 16.6299 27.8545C15.9886 28.0079 15.32 28.0079 14.6787 27.8545C13.2245 27.5065 12.0864 26.3724 11.7285 24.917L11.6289 24.5098C11.5989 24.3875 11.5739 24.2638 11.5537 24.1396C10.7092 24.0345 9.86688 23.897 9.03027 23.7266L8.58203 23.6357C7.07847 23.3293 6.00022 22.002 6 20.4648C6.0001 19.2769 6.63866 18.2382 7.58887 17.6758L7.58105 17.6279C7.28587 15.9035 7.36973 14.1347 7.82715 12.4463L7.88184 12.2441C8.60293 9.58304 10.6414 7.46064 13.252 6.61426C13.8704 6.41377 14.5102 6.28994 15.1543 6.24414V5.5C15.1544 5.22407 15.3784 5.00015 15.6543 5ZM18.2812 24.2891C18.1034 24.3032 17.9251 24.3149 17.7471 24.3262C17.6449 24.3326 17.5426 24.3392 17.4404 24.3447C17.2039 24.3575 16.9671 24.3673 16.7305 24.375C16.6716 24.3769 16.6126 24.3802 16.5537 24.3818C15.954 24.3981 15.3537 24.3981 14.7539 24.3818C14.696 24.3803 14.6379 24.3769 14.5801 24.375C14.3415 24.3673 14.1027 24.3576 13.8643 24.3447C13.7657 24.3394 13.6669 24.3324 13.5684 24.3262C13.3877 24.3148 13.2069 24.3024 13.0264 24.2881C12.8825 24.2767 12.7385 24.2643 12.5947 24.251C12.5963 24.2577 12.598 24.2648 12.5996 24.2715L12.7002 24.6777C12.9691 25.7715 13.8231 26.6213 14.9111 26.8818C15.3993 26.9986 15.9083 26.9985 16.3965 26.8818C17.4848 26.6215 18.3394 25.7717 18.6084 24.6777L18.708 24.2715C18.7096 24.2649 18.7103 24.2576 18.7119 24.251C18.5685 24.2643 18.4248 24.2777 18.2812 24.2891Z" fill="#262626"/>
<circle cx="21.668" cy="9" r="3" fill="#E42628"/>
</g>
<defs>
<clipPath id="clip0_18930_20348">
<rect width="32" height="32" fill="white"/>
</clipPath>
</defs>
</svg>
