<svg width="215" height="66" viewBox="0 0 215 66" fill="none" xmlns="http://www.w3.org/2000/svg">
<g clip-path="url(#clip0_14465_184487)">
<path d="M164.29 54.677C171.998 64.2918 185.709 68.1215 197.717 62.8252C215.079 55.1659 219.379 34.877 208.102 20.6992L196.337 30.1511C202.747 39.6844 196.743 47.4252 191.794 50.114C185.547 53.5363 179.219 50.5215 176.298 46.8548C174.513 44.6548 173.702 41.8844 174.026 39.0326C174.351 36.1807 175.73 33.6548 177.92 31.9437C180.111 30.1511 182.87 29.3363 185.709 29.6622C188.386 29.9881 190.82 31.2104 192.524 33.3289L204.288 23.877C196.581 12.877 180.679 11.6548 169.32 19.477C158.53 26.8104 155.447 43.5955 164.29 54.677Z" fill="white"/>
<path d="M197.801 62.8603C215.163 55.2012 219.464 34.9119 208.186 20.7344L196.422 30.1862C202.832 39.7194 196.828 47.4604 191.879 50.1492L197.801 62.8603Z" fill="url(#paint0_radial_14465_184487)"/>
<path d="M212.566 0L207.698 7.57779C206.319 9.6963 203.966 11 201.451 11H181.168L186.036 3.42223C187.415 1.30371 189.768 0 192.283 0H212.566Z" fill="white"/>
<path d="M141.9 28.1937L133.868 31.29C133.787 31.29 133.787 31.3715 133.787 31.453V47.2604C133.787 48.2382 133.057 48.9715 132.083 48.9715H108.636C104.823 48.9715 101.821 45.8752 101.821 42.1271C101.821 38.3789 104.904 35.2826 108.636 35.2826H120.481C121.374 35.2826 122.023 36.016 122.023 36.8308V39.9271C122.023 40.09 121.942 40.1715 121.779 40.1715H110.826C110.745 40.1715 110.664 40.253 110.583 40.3345L108.474 43.6752C108.392 43.8382 108.474 44.0826 108.717 44.0826H129.487C129.974 44.0826 130.298 43.6752 130.298 43.2678V36.3419C130.298 33.653 128.108 31.453 125.43 31.453H104.092C98.2509 31.453 93.5453 36.0975 93.383 41.8826V42.1271V45.5493C93.383 47.4234 91.8415 48.9715 89.9755 48.9715C88.1094 48.9715 86.5679 47.4234 86.5679 45.5493V41.8012V21.7567C86.5679 21.6752 86.4868 21.5938 86.4057 21.5938H78.3736C78.2925 21.5938 78.2113 21.6752 78.2113 21.7567V46.6086C78.2113 47.9123 77.1566 48.89 75.9396 48.89H13.3057C10.5472 48.89 8.3566 46.69 8.3566 43.9197C8.3566 41.1493 10.5472 38.9493 13.3057 38.9493H22.2302C24.0151 38.9493 25.3943 40.3345 25.3943 42.1271V43.8382C25.3943 43.9197 25.4755 43.9197 25.5566 43.9197H33.5887C33.6698 43.9197 33.7509 43.9197 33.7509 43.8382V42.616C33.7509 38.4604 30.4245 35.0382 26.2057 35.0382H8.8434C3.97549 35.0382 0.0811369 38.9493 0.0811369 43.8382C0.0811369 48.7271 3.97549 52.6382 8.8434 52.6382H25.3943C25.3943 56.8752 21.9868 60.3789 17.6868 60.3789H1.94719C0.892469 60.3789 0 61.2752 0 62.3345C0 63.3937 0.892469 64.29 1.94719 64.29H22.1491C28.5585 64.29 33.6698 59.0752 33.6698 52.7197H80.483C82.1868 52.7197 83.7283 51.9863 84.783 50.8456C86 51.9863 87.6226 52.7197 89.4075 52.7197H90.3811C92.8962 52.7197 95.0868 51.3345 96.2226 49.3789C98.1698 51.416 100.928 52.7197 104.011 52.7197H135.653C139.223 52.7197 142.062 49.8678 142.062 46.2826V28.2752C142.062 28.2752 141.981 28.1937 141.9 28.1937Z" fill="white"/>
</g>
<defs>
<radialGradient id="paint0_radial_14465_184487" cx="0" cy="0" r="1" gradientUnits="userSpaceOnUse" gradientTransform="translate(202.832 22.8128) rotate(85.0083) scale(46.6213 32.6579)">
<stop stop-color="#525252"/>
<stop offset="0.536153" stop-color="white"/>
<stop offset="0.97248" stop-color="white"/>
</radialGradient>
<clipPath id="clip0_14465_184487">
<rect width="215" height="66" fill="white"/>
</clipPath>
</defs>
</svg>
