<svg width="20" height="20" viewBox="0 0 20 20" fill="none" xmlns="http://www.w3.org/2000/svg">
<path d="M11.5 11.4219H8.5C7.94772 11.4219 7.5 10.9742 7.5 10.4219V7.08594H12.5V10.4219C12.5 10.9742 12.0523 11.4219 11.5 11.4219Z" stroke="#F5F5F5" stroke-width="0.8"/>
<path d="M3.33333 7.08073V11.2474C3.33333 13.9974 3.33333 15.3724 4.1875 16.2266C5.04167 17.0807 6.41667 17.0807 9.16667 17.0807H11.6667C14.4167 17.0807 14.9583 17.0807 15.8125 16.2266C16.6667 15.3724 16.6667 13.9974 16.6667 11.2474V7.08073M4.51014 7.08072C5.28931 7.08072 16.25 7.22773 16.875 6.9474C17.0562 6.86611 17.2137 6.7399 17.3325 6.58073C17.5 6.34823 17.5 5.20406 17.5 4.58073C17.5 3.9574 17.5 3.64573 17.3325 3.41406C17.2225 3.2624 17.065 3.13573 16.875 3.0474C16.585 2.91406 16.1958 2.91406 15.4167 2.91406H10H4.58333C3.80417 2.91406 3.415 2.91406 3.125 3.0474C2.94377 3.12868 2.7863 3.25489 2.6675 3.41406C2.5 3.64573 2.5 3.9574 2.5 4.58073C2.5 5.20406 2.5 6.34823 2.6675 6.58073C2.7863 6.7399 2.94377 6.86611 3.125 6.9474C3.415 7.08073 3.80417 7.08073 4.58333 7.08073" stroke="#F5F5F5" stroke-width="0.9" stroke-linecap="round" stroke-linejoin="round"/>
</svg>
