<svg width="24" height="25" viewBox="0 0 24 25" fill="none" xmlns="http://www.w3.org/2000/svg">
<g clip-path="url(#clip0_14995_12244)">
<path d="M2.88539 8.93468C3.55805 6.22577 5.70602 4.13128 8.43056 3.52756L8.88443 3.42699C10.9366 2.97225 13.0634 2.97225 15.1156 3.42699L15.5694 3.52756C18.294 4.13128 20.442 6.22578 21.1146 8.93469C21.6285 11.0041 21.6285 13.1678 21.1146 15.2372C20.442 17.9461 18.294 20.0406 15.5694 20.6443L15.1156 20.7449C13.0634 21.1996 10.9366 21.1996 8.88443 20.7449L8.43056 20.6443C5.70601 20.0406 3.55805 17.9461 2.88539 15.2372C2.37154 13.1678 2.37154 11.0041 2.88539 8.93468Z" stroke="#F5F5F5"/>
<path d="M14.2447 9.39372C13.7255 8.86649 12.8118 8.50038 11.9719 8.47705M11.9719 8.47705C10.9729 8.44983 10.0784 8.90927 10.0784 10.1626C10.0784 12.4704 14.2447 11.3165 14.2447 13.6243C14.2447 14.9409 13.1357 15.5065 11.9719 15.4637M11.9719 8.47705V7.08594M9.69922 14.3937C10.1878 15.0548 11.0955 15.4315 11.9719 15.4637M11.9719 15.4637V17.0859" stroke="#FF6B6B" stroke-linecap="round" stroke-linejoin="round"/>
</g>
<defs>
<clipPath id="clip0_14995_12244">
<rect width="24" height="24" fill="white" transform="translate(0 0.0859375)"/>
</clipPath>
</defs>
</svg>
