<svg width="23" height="22" viewBox="0 0 23 22" fill="none" xmlns="http://www.w3.org/2000/svg">
<path d="M3.57347 8.20456C4.17068 5.65859 6.15859 3.67067 8.70456 3.07347C10.5432 2.64218 12.4568 2.64218 14.2954 3.07347C16.8414 3.67067 18.8293 5.65859 19.4265 8.20456C19.8578 10.0432 19.8578 11.9568 19.4265 13.7954C18.8293 16.3414 16.8414 18.3293 14.2954 18.9265C12.4568 19.3578 10.5432 19.3578 8.70457 18.9265C6.15859 18.3293 4.17068 16.3414 3.57347 13.7954C3.14218 11.9568 3.14218 10.0432 3.57347 8.20456Z" stroke="#E0E0E0" stroke-width="0.9"/>
<path d="M7.83203 11.0026C7.83203 10.0301 8.21834 9.09751 8.90597 8.40988C9.59361 7.72225 10.5262 7.33594 11.4987 7.33594C12.4712 7.33594 13.4038 7.72225 14.0914 8.40988C14.7791 9.09751 15.1654 10.0301 15.1654 11.0026C15.1654 11.9751 14.7791 12.9077 14.0914 13.5953C13.4038 14.283 12.4712 14.6693 11.4987 14.6693C10.5262 14.6693 9.59361 14.283 8.90597 13.5953C8.21834 12.9077 7.83203 11.9751 7.83203 11.0026Z" stroke="#FF6B6B" stroke-width="0.9"/>
<path d="M12.4154 11.0026C12.4154 11.2457 12.3188 11.4789 12.1469 11.6508C11.975 11.8227 11.7418 11.9193 11.4987 11.9193C11.2556 11.9193 11.0224 11.8227 10.8505 11.6508C10.6786 11.4789 10.582 11.2457 10.582 11.0026C10.582 10.7595 10.6786 10.5263 10.8505 10.3544C11.0224 10.1825 11.2556 10.0859 11.4987 10.0859C11.7418 10.0859 11.975 10.1825 12.1469 10.3544C12.3188 10.5263 12.4154 10.7595 12.4154 11.0026Z" fill="#FF6B6B"/>
<path d="M11.5013 11.0026V7.33594M11.5013 11.0026L14.7096 12.3776M11.5013 11.0026L8.29297 12.3776" stroke="#FF6B6B" stroke-width="0.9"/>
</svg>
