<svg width="24" height="24" viewBox="0 0 24 24" fill="none" xmlns="http://www.w3.org/2000/svg">
<path d="M3.5 11.7531C3.49931 9.93644 4.09829 8.1703 5.204 6.72882C6.3097 5.28734 7.86028 4.25113 9.61512 3.78101C11.3699 3.3109 13.2309 3.43316 14.9091 4.12882C16.5874 4.82448 17.9891 6.05465 18.8967 7.6284M20 11.7531C20.0005 13.5697 19.4014 15.3356 18.2958 16.7769C17.1901 18.2182 15.6396 19.2543 13.8849 19.7244C12.1303 20.1945 10.2695 20.0723 8.59136 19.3768C6.91322 18.6813 5.51155 17.4514 4.60383 15.8779" stroke="#F5F5F5" stroke-linecap="round" stroke-linejoin="round"/>
<path d="M14.6772 14.328L11.75 12.4655V8.65625" stroke="#F5F5F5" stroke-width="0.9" stroke-linecap="round" stroke-linejoin="round"/>
<path d="M16.3904 7.62511H18.9681L18.9685 5.04688M7.62494 15.8746H4.53125V18.9685" stroke="#F5F5F5" stroke-linecap="round" stroke-linejoin="round"/>
</svg>
