<svg width="24" height="24" viewBox="0 0 24 24" fill="none" xmlns="http://www.w3.org/2000/svg">
<path d="M13.7517 4.7011C13.7517 3.8662 13.1416 3.15664 12.3161 3.03161C12.1066 2.99988 11.8935 2.99988 11.6839 3.03161C10.8584 3.15664 10.2482 3.86621 10.2482 4.70111V5.88178C9.77662 6.01639 9.32734 6.20399 8.90726 6.43774L8.07205 5.60252C7.48168 5.01216 6.54849 4.94189 5.87637 5.43718C5.70578 5.5629 5.55509 5.71359 5.42937 5.88419C4.93407 6.55631 5.00434 7.48951 5.59471 8.07988L6.42992 8.91509C6.19617 9.33516 6.00857 9.78444 5.87397 10.2561H4.6933C3.85839 10.2561 3.14883 10.8662 3.0238 11.6917C2.99207 11.9013 2.99207 12.1144 3.0238 12.3239C3.14883 13.1494 3.85839 13.7596 4.69329 13.7596H5.87396C6.00857 14.2312 6.19617 14.6805 6.42992 15.1006L5.59471 15.9358C5.00434 16.5261 4.93407 17.4593 5.42937 18.1314C5.55509 18.302 5.70578 18.4527 5.87638 18.5785C6.5485 19.0737 7.48169 19.0035 8.07205 18.4131L8.90726 17.5779C9.32734 17.8116 9.77662 17.9993 10.2482 18.1339V19.3145C10.2482 20.1494 10.8584 20.859 11.6839 20.984C11.8934 21.0158 12.1066 21.0158 12.3161 20.984C13.1416 20.859 13.7517 20.1494 13.7517 19.3145V18.1339C14.2234 17.9993 14.6727 17.8117 15.0927 17.5779L15.9279 18.4131C16.5183 19.0035 17.4515 19.0738 18.1236 18.5785C18.2942 18.4527 18.4449 18.302 18.5706 18.1314C19.0659 17.4593 18.9957 16.5261 18.4053 15.9358L17.5701 15.1006C17.8038 14.6805 17.9914 14.2312 18.1261 13.7596H19.3067C20.1416 13.7596 20.8512 13.1494 20.9762 12.3239C21.0079 12.1144 21.0079 11.9013 20.9762 11.6917C20.8512 10.8662 20.1416 10.2561 19.3067 10.2561H18.126C17.9914 9.78443 17.8038 9.33516 17.5701 8.91508L18.4053 8.07986C18.9957 7.4895 19.0659 6.5563 18.5706 5.88419C18.4449 5.71359 18.2942 5.5629 18.1236 5.43718C17.4515 4.94188 16.5183 5.01215 15.9279 5.60252L15.0927 6.43773C14.6727 6.20399 14.2234 6.01638 13.7517 5.88178V4.7011Z" stroke="#FFFFFF" stroke-linecap="round" stroke-linejoin="round"/>
<path d="M9.5 12.0078C9.5 10.6271 10.6193 9.50781 12 9.50781C13.3807 9.50781 14.5 10.6271 14.5 12.0078C14.5 13.3885 13.3807 14.5078 12 14.5078C10.6193 14.5078 9.5 13.3885 9.5 12.0078Z" stroke="#E42628"/>
</svg>
