<svg width="24" height="24" viewBox="0 0 24 24" fill="none" xmlns="http://www.w3.org/2000/svg">
<path d="M3.35288 8.95043C4.00437 6.17301 6.17301 4.00437 8.95043 3.35288C10.9563 2.88237 13.0437 2.88237 15.0496 3.35288C17.827 4.00437 19.9956 6.17301 20.6471 8.95043C21.1176 10.9563 21.1176 13.0437 20.6471 15.0496C19.9956 17.827 17.827 19.9956 15.0496 20.6471C13.0437 21.1176 10.9563 21.1176 8.95044 20.6471C6.17301 19.9956 4.00437 17.827 3.35288 15.0496C2.88237 13.0437 2.88237 10.9563 3.35288 8.95043Z" stroke="#F5F5F5"/>
<path d="M17 9L13.3412 12.6588C12.9073 13.0927 12.2038 13.0927 11.7699 12.6588L11.119 12.0079C10.6851 11.574 9.98158 11.574 9.54766 12.0079L7 14.5556M17 9H13.6667M17 9V12.3333" stroke="#FF6B6B" stroke-linecap="round" stroke-linejoin="round"/>
</svg>
