<svg width="22" height="22" viewBox="0 0 22 22" fill="none" xmlns="http://www.w3.org/2000/svg">
<path d="M8.11523 2.68262C8.33017 2.63245 8.54529 2.76651 8.5957 2.98145C8.64563 3.19617 8.51251 3.41141 8.29785 3.46191C5.89979 4.02443 4.02736 5.89686 3.46484 8.29492C3.04773 10.0734 3.04767 11.9247 3.46484 13.7031C4.02751 16.1009 5.89997 17.9737 8.29785 18.5361C10.0763 18.9532 11.9276 18.9533 13.7061 18.5361C16.1039 17.9736 17.9765 16.1009 18.5391 13.7031C18.9562 11.9247 18.9561 10.0733 18.5391 8.29492C18.4886 8.07994 18.622 7.86502 18.8369 7.81445C19.0519 7.76418 19.2679 7.89732 19.3184 8.1123L19.3965 8.46875C19.7618 10.2572 19.7359 12.1058 19.3184 13.8857C18.6864 16.5793 16.5823 18.6835 13.8887 19.3154C11.9902 19.7607 10.0137 19.7607 8.11523 19.3154C5.42154 18.6836 3.3176 16.5794 2.68555 13.8857C2.24024 11.9872 2.2403 10.0108 2.68555 8.1123C3.2977 5.50258 5.29107 3.44651 7.86426 2.74609L8.11523 2.68262Z" fill="#FFFFFF"/>
<path d="M7 8H11M7 14H15.5M7 11H13.5" stroke="#FFFFFF" stroke-width="0.9" stroke-linecap="round"/>
<path d="M16.4091 2.73083C16.0197 2.33542 15.3344 2.06083 14.7045 2.04333M14.7045 2.04333C13.9553 2.02292 13.2844 2.3675 13.2844 3.3075C13.2844 5.03833 16.4091 4.17292 16.4091 5.90375C16.4091 6.89125 15.5773 7.31542 14.7045 7.28333M14.7045 2.04333V1M13 6.48083C13.3664 6.97667 14.0472 7.25917 14.7045 7.28333M14.7045 7.28333V8.5" stroke="#E42628" stroke-linecap="round" stroke-linejoin="round"/>
</svg>
