<svg width="22" height="22" viewBox="0 0 22 22" fill="none" xmlns="http://www.w3.org/2000/svg">
<path d="M4.84357 9.07959V15.9478M8.94647 9.07959V15.9478M13.0506 9.07959V15.9478M17.1535 9.07959V15.9478M18.2737 9.07959H3.72336C3.034 9.07959 2.73857 8.31784 3.2802 7.95569L10.1881 3.52035C10.6819 3.20331 11.3152 3.20331 11.809 3.52035L18.7169 7.95569C19.2585 8.31784 18.9631 9.07959 18.2737 9.07959ZM3.17704 17.5136V17.5136C3.17711 16.7498 3.7963 16.1307 4.56007 16.1307H17.5394C18.341 16.1307 18.9859 16.7896 18.9687 17.591V17.591C18.9519 18.3724 18.3107 18.9955 17.5291 18.9899L4.55015 18.8967C3.79016 18.8913 3.17697 18.2736 3.17704 17.5136Z" stroke="#484B51" stroke-width="0.9" stroke-linecap="round" stroke-linejoin="round"/>
<path d="M18.2737 9.07959H3.72336C3.034 9.07959 2.73857 8.31784 3.2802 7.95569L10.1881 3.52035C10.6819 3.20331 11.3152 3.20331 11.809 3.52035L18.7169 7.95569C19.2585 8.31784 18.9631 9.07959 18.2737 9.07959Z" stroke="#E42628" stroke-width="0.9" stroke-linecap="round" stroke-linejoin="round"/>
</svg>
