<svg width="24" height="24" viewBox="0 0 24 24" fill="none" xmlns="http://www.w3.org/2000/svg">
<path fill-rule="evenodd" clip-rule="evenodd" d="M7.37385 17C6.9842 17 6.66797 16.6785 6.66797 16.2823V10.7177C6.66797 10.3215 6.9842 10 7.37385 10C7.7635 10 8.07973 10.3215 8.07973 10.7177V16.2823C8.07973 16.6785 7.7635 17 7.37385 17Z" fill="#E42628"/>
<path fill-rule="evenodd" clip-rule="evenodd" d="M12.2059 17C11.8162 17 11.5 16.6826 11.5 16.2914V7.70858C11.5 7.31744 11.8162 7 12.2059 7C12.5955 7 12.9118 7.31744 12.9118 7.70858V16.2914C12.9118 16.6826 12.5955 17 12.2059 17Z" fill="#E42628"/>
<path fill-rule="evenodd" clip-rule="evenodd" d="M16.7059 17C16.3162 17 16 16.6451 16 16.2079V13.7921C16 13.3549 16.3162 13 16.7059 13C17.0955 13 17.4118 13.3549 17.4118 13.7921V16.2079C17.4118 16.6451 17.0955 17 16.7059 17Z" fill="#E42628"/>
<path d="M3.35288 8.95043C4.00437 6.17301 6.17301 4.00437 8.95043 3.35288C10.9563 2.88237 13.0437 2.88237 15.0496 3.35288C17.827 4.00437 19.9956 6.17301 20.6471 8.95043C21.1176 10.9563 21.1176 13.0437 20.6471 15.0496C19.9956 17.827 17.827 19.9956 15.0496 20.6471C13.0437 21.1176 10.9563 21.1176 8.95044 20.6471C6.17301 19.9956 4.00437 17.827 3.35288 15.0496C2.88237 13.0437 2.88237 10.9563 3.35288 8.95043Z" stroke="#262626"/>
</svg>
