<svg width="22" height="22" viewBox="0 0 22 22" fill="none" xmlns="http://www.w3.org/2000/svg">
<path d="M8.11523 2.68262C8.33017 2.63245 8.54529 2.76652 8.5957 2.98145C8.64563 3.19617 8.51251 3.41141 8.29785 3.46191C5.89979 4.02443 4.02736 5.89686 3.46484 8.29492C3.04773 10.0734 3.04767 11.9247 3.46484 13.7031C4.02751 16.1009 5.89997 17.9737 8.29785 18.5361C10.0763 18.9532 11.9276 18.9533 13.7061 18.5361C16.1039 17.9736 17.9765 16.1009 18.5391 13.7031C18.6294 13.3182 18.6988 12.9293 18.75 12.5391C18.7567 12.488 18.7635 12.4369 18.7695 12.3857C18.7746 12.3431 18.7786 12.3005 18.7832 12.2578C18.7897 12.197 18.7962 12.1361 18.8018 12.0752C18.8083 12.0036 18.8141 11.932 18.8193 11.8604C18.8226 11.8151 18.8263 11.7699 18.8291 11.7246C18.8314 11.6872 18.832 11.6497 18.834 11.6123C18.8383 11.5287 18.8431 11.445 18.8457 11.3613C18.8465 11.334 18.846 11.3066 18.8467 11.2793C18.8484 11.2083 18.8502 11.1374 18.8506 11.0664C18.8508 11.0212 18.8508 10.9759 18.8506 10.9307C18.8502 10.8652 18.8491 10.7998 18.8477 10.7344C18.8468 10.695 18.846 10.6556 18.8447 10.6162C18.8424 10.5433 18.8387 10.4704 18.835 10.3975C18.8326 10.3515 18.83 10.3057 18.8271 10.2598C18.824 10.2096 18.8202 10.1595 18.8164 10.1094C18.8114 10.043 18.8069 9.9765 18.8008 9.91016C18.7968 9.86745 18.7915 9.82489 18.7871 9.78223C18.7472 9.39591 18.6903 9.01084 18.6123 8.62891L18.5391 8.29492L18.5283 8.21484C18.5229 8.02886 18.6488 7.85872 18.8369 7.81445C19.0249 7.77049 19.214 7.86643 19.292 8.03516L19.3184 8.1123C19.3462 8.23082 19.3722 8.34966 19.3965 8.46875C19.4529 8.74507 19.4984 9.02306 19.5361 9.30176C19.7427 10.8269 19.6714 12.3808 19.3184 13.8857C18.6864 16.5794 16.5823 18.6835 13.8887 19.3154C11.9902 19.7607 10.0137 19.7607 8.11523 19.3154C5.42154 18.6836 3.3176 16.5794 2.68555 13.8857C2.24024 11.9872 2.2403 10.0108 2.68555 8.1123C3.2977 5.50258 5.29107 3.44651 7.86426 2.74609L8.11523 2.68262Z" fill="#484B51"/>
<path d="M11.5508 4.58073L18.5633 4.58073M18.5633 4.58073L16.827 6.41406M18.5633 4.58073L16.827 2.7474" stroke="#E42628" stroke-width="0.9" stroke-linecap="round" stroke-linejoin="round"/>
<path d="M7.33594 14.6719H15.5859" stroke="#484B51" stroke-width="0.9" stroke-linecap="round"/>
<path d="M12.375 10.0781H15.5847" stroke="#484B51" stroke-width="0.9" stroke-linecap="round"/>
<path d="M8.71094 7.10938C7.95125 7.10938 7.33594 7.57137 7.33594 8.14062C7.33594 8.70988 7.95125 9.17188 8.71094 9.17188C9.47063 9.17188 10.0859 9.63387 10.0859 10.2031C10.0859 10.7724 9.47063 11.2344 8.71094 11.2344M8.71094 7.10938C9.30906 7.10938 9.81919 7.39606 10.0076 7.79688M8.71094 7.10938V6.42188M8.71094 11.2344C8.11281 11.2344 7.60269 10.9477 7.41431 10.5469M8.71094 11.2344V11.9219" stroke="#484B51" stroke-width="0.9" stroke-linecap="round" stroke-linejoin="round"/>
</svg>
