<svg width="20" height="20" viewBox="0 0 20 20" fill="none" xmlns="http://www.w3.org/2000/svg">
<g clip-path="url(#clip0_14995_12083)">
<path d="M2.40319 7.37396C2.96374 5.11653 4.75371 3.37111 7.02416 2.86802L7.40239 2.78421C9.11253 2.40526 10.8849 2.40526 12.595 2.78421L12.9732 2.86802C15.2437 3.37111 17.0337 5.11653 17.5942 7.37396C18.0224 9.09846 18.0224 10.9015 17.5942 12.626C17.0337 14.8835 15.2437 16.6289 12.9732 17.132L12.595 17.2158C10.8849 17.5947 9.11253 17.5947 7.40239 17.2158L7.02416 17.132C4.75371 16.6289 2.96374 14.8835 2.40319 12.626C1.97498 10.9015 1.97498 9.09846 2.40319 7.37396Z" stroke="#565A62" stroke-width="0.9"/>
<path d="M12.044 7.577C11.5767 7.1025 10.7544 6.773 9.99858 6.752M9.99858 6.752C9.09945 6.7275 8.29436 7.141 8.29436 8.269C8.29436 10.346 12.044 9.3075 12.044 11.3845C12.044 12.5695 11.0459 13.0785 9.99858 13.04M9.99858 6.752V5.5M7.95312 12.077C8.39284 12.672 9.20975 13.011 9.99858 13.04M9.99858 13.04V14.5" stroke="#565A62" stroke-width="0.9" stroke-linecap="round" stroke-linejoin="round"/>
</g>
<defs>
<clipPath id="clip0_14995_12083">
<rect width="20" height="20" fill="white"/>
</clipPath>
</defs>
</svg>
